<svg id="Layer_1" data-name="Layer 1" xmlns="http://www.w3.org/2000/svg" viewBox="0 0 4548.88 500"><defs><style>.cls-1{fill:#f8ddc4;}.cls-2{fill:#ff9106;}.cls-3{fill:none;stroke:#000;stroke-miterlimit:10;}.cls-4{fill:#8f8b95;}.cls-5{fill:#f8e3d1;}.cls-6{fill:#754c24;}</style></defs><title>Privatmandgang</title><rect class="cls-1" x="4394.83" y="353.73" width="8.44" height="39.58" rx="2.78" ry="2.78" transform="translate(1876.05 3996.45) rotate(-60)"/><rect class="cls-1" x="4044.83" y="353.73" width="8.44" height="39.58" rx="2.78" ry="2.78" transform="translate(1701.05 3693.34) rotate(-60)"/><rect class="cls-1" x="3694.83" y="353.73" width="8.44" height="39.58" rx="2.78" ry="2.78" transform="translate(1526.05 3390.23) rotate(-60)"/><rect class="cls-1" x="3339.12" y="358.75" width="8.44" height="39.58" rx="2.78" ry="2.78" transform="translate(426.03 2055) rotate(-36.34)"/><rect class="cls-1" x="2954.37" y="362.48" width="8.44" height="39.58" rx="2.78" ry="2.78" transform="translate(-24.43 413.83) rotate(-7.97)"/><rect class="cls-1" x="2592.86" y="357.4" width="8.44" height="39.58" rx="2.78" ry="2.78" transform="translate(707.68 -1444.14) rotate(35.69)"/><path d="M4319.36,272v61.9a38.66,38.66,0,0,0,38.55,38.54h25.17a38.65,38.65,0,0,0,38.54-38.54V272Z"/><path class="cls-2" d="M4421.62,214.33a38.65,38.65,0,0,0-38.54-38.54h-25.17a38.66,38.66,0,0,0-38.55,38.54V272h102.26Z"/><path class="cls-1" d="M4422.74,114.69A9.27,9.27,0,0,1,4435,105c-.06-1-.13-2-.22-2.93-3.91-40.71-36.21-70.91-72.14-67.46s-61.88,39.25-58,80,36.21,70.9,72.14,67.45c29.65-2.85,52.51-27.73,57.39-59.23a8.3,8.3,0,0,1-1.32.24A9.29,9.29,0,0,1,4422.74,114.69Z"/><path class="cls-3" d="M4351.41,89.76c3.44-9.18,15.66-13.07,27.31-8.7"/><path class="cls-3" d="M4399.66,75.3c3.34-8.9,15.18-12.67,26.48-8.43"/><circle cx="4369.01" cy="100.88" r="2.4"/><circle cx="4417.74" cy="87.76" r="2.4"/><path class="cls-3" d="M4390.54,132c.52,5.31,13.45,8.37,28.92,6.84"/><path class="cls-1" d="M4431.1,104.55a9.29,9.29,0,0,0,1.78,18.5,8.3,8.3,0,0,0,1.32-.24A82.53,82.53,0,0,0,4435,105,9.24,9.24,0,0,0,4431.1,104.55Z"/><path class="cls-4" d="M4328.88,436.56l-.89,2.9,27.4,8.41a8.81,8.81,0,0,0,7.31-.92Z"/><path d="M4366,442.62l1.62-5.29a7.14,7.14,0,0,0-5-8.78l-26.06-8a2.6,2.6,0,0,0-3.31,1.63l-4.42,14.38L4362.7,447A7.86,7.86,0,0,0,4366,442.62Z"/><rect class="cls-1" x="4340.5" y="386.19" width="7.74" height="40.94" rx="2.55" ry="2.55" transform="translate(315.53 -1268.87) rotate(17.23)"/><circle class="cls-5" cx="4349.17" cy="386.71" r="6.33"/><path class="cls-4" d="M4436.23,438.64l1.37,2.71,25.58-13a8.86,8.86,0,0,0,4.63-5.74Z"/><path d="M4467.21,417.22l-2.5-4.94a7.14,7.14,0,0,0-9.69-2.86l-24.34,12.31a2.62,2.62,0,0,0-1.25,3.48l6.8,13.43,31.58-16A7.82,7.82,0,0,0,4467.21,417.22Z"/><rect class="cls-1" x="4420.35" y="376.86" width="7.74" height="51.5" rx="2.55" ry="2.55" transform="translate(290.12 2028.97) rotate(-26.67)"/><circle class="cls-5" cx="4414.28" cy="382.67" r="6.33"/><path class="cls-1" d="M4365.31,302a1.78,1.78,0,0,0,1.94-1.39l.37-1.8a1.79,1.79,0,0,0-1.38-2.1l-4.83-1a4.9,4.9,0,0,0-6.13-.9l-2.37,1.43-11-27.14a5.26,5.26,0,0,0-1.9-6.64l-8-35.9a2.48,2.48,0,0,0-3-1.88l-2.51.55a2.49,2.49,0,0,0-1.88,3l8,35.89a5.27,5.27,0,0,0,2,7.43l.21.21,11.55,28.45-1.19.72a4.9,4.9,0,0,0-1.66,6.7l2.61,4.32h0l3.87,6.41a1.78,1.78,0,0,0,2.44.6L4354,318a1.77,1.77,0,0,1,3-1.83l1.57-.95a1.77,1.77,0,1,1,3-1.83l1.57-.95a1.78,1.78,0,0,1,3-1.84l1.57-.95a1.76,1.76,0,0,0,.6-2.43Z"/><path class="cls-1" d="M4435,311l-3.1-7.2h0l-2.1-4.85a5.13,5.13,0,0,0-6.72-2.67l-2.27,1-4.2-29.71a5.43,5.43,0,0,0,.86-3.44,5.52,5.52,0,0,0-1.89-3.72L4412.35,222a2.61,2.61,0,0,0-2.81-2.38l-2.68.23a2.6,2.6,0,0,0-2.38,2.8l3.21,38.39a5.52,5.52,0,0,0,1,8l.16.23,4.42,31.23-1.55.67a5.13,5.13,0,0,0-3,5.77l-2.09,4.72a1.87,1.87,0,0,0,.94,2.46l1.76.78a1.86,1.86,0,0,0,2.37-.8l2.52,5.84a1.87,1.87,0,0,0,2.45,1l1.76-.76a1.85,1.85,0,0,0,1-2.44,1.88,1.88,0,0,0,2.45,1l1.76-.77a1.86,1.86,0,0,1,3.42-1.47l1.76-.76a1.86,1.86,0,0,0,1-2.44,1.89,1.89,0,0,0,2.45,1l1.76-.77A1.85,1.85,0,0,0,4435,311Z"/><path class="cls-6" d="M4305.27,119.3l31.84-20.82-2-28.26,23.81-11.9s28.9,16.18,24.76-6.67c4.9-1.9,19.86-5.74,19.86-5.74C4409.31,39.71,4304.75-4.41,4305.27,119.3Z"/><path d="M3969.36,272v61.9a38.66,38.66,0,0,0,38.55,38.54h25.17a38.65,38.65,0,0,0,38.54-38.54V272Z"/><path class="cls-2" d="M4071.62,214.33a38.65,38.65,0,0,0-38.54-38.54h-25.17a38.66,38.66,0,0,0-38.55,38.54V272h102.26Z"/><path class="cls-1" d="M4072.74,114.69A9.27,9.27,0,0,1,4085,105c-.06-1-.13-2-.22-2.93-3.91-40.71-36.21-70.91-72.14-67.46s-61.88,39.25-58,80,36.21,70.9,72.14,67.45c29.65-2.85,52.51-27.73,57.39-59.23a8.3,8.3,0,0,1-1.32.24A9.29,9.29,0,0,1,4072.74,114.69Z"/><path class="cls-3" d="M4001.41,89.76c3.44-9.18,15.66-13.07,27.31-8.7"/><path class="cls-3" d="M4049.66,75.3c3.34-8.9,15.18-12.67,26.48-8.43"/><circle cx="4019.01" cy="100.88" r="2.4"/><circle cx="4067.74" cy="87.76" r="2.4"/><path class="cls-3" d="M4040.54,132c.52,5.31,13.45,8.37,28.92,6.84"/><path class="cls-1" d="M4081.1,104.55a9.29,9.29,0,0,0,1.78,18.5,8.3,8.3,0,0,0,1.32-.24A82.53,82.53,0,0,0,4085,105,9.24,9.24,0,0,0,4081.1,104.55Z"/><path class="cls-4" d="M3996.83,448l-.36,3,28.46,3.41a8.82,8.82,0,0,0,7-2.21Z"/><path d="M4034.48,447.35l.66-5.5a7.16,7.16,0,0,0-6.48-7.75l-27.06-3.24a2.6,2.6,0,0,0-3,2.19l-1.8,14.94L4032,452.2A7.84,7.84,0,0,0,4034.48,447.35Z"/><rect class="cls-1" x="4002.9" y="395.34" width="7.74" height="40.94" rx="2.55" ry="2.55" transform="translate(80.57 -485.31) rotate(7)"/><circle class="cls-5" cx="4007.94" cy="395.33" r="6.33"/><path class="cls-4" d="M4052.66,439.56l-.3,3,28.52,2.86a8.85,8.85,0,0,0,7-2.35Z"/><path d="M4090.3,438.19l.56-5.51a7.15,7.15,0,0,0-6.63-7.63l-27.14-2.72a2.61,2.61,0,0,0-2.93,2.25l-1.5,15,35.22,3.53A7.82,7.82,0,0,0,4090.3,438.19Z"/><rect class="cls-1" x="4058.07" y="376.98" width="7.74" height="51.5" rx="2.55" ry="2.55" transform="translate(62.8 -414.83) rotate(5.89)"/><circle class="cls-5" cx="4064.28" cy="382.67" r="6.33"/><path class="cls-1" d="M4015.31,302a1.78,1.78,0,0,0,1.94-1.39l.37-1.8a1.79,1.79,0,0,0-1.38-2.1l-4.83-1a4.9,4.9,0,0,0-6.13-.9l-2.37,1.43-11-27.14a5.26,5.26,0,0,0-1.9-6.64l-8-35.9a2.48,2.48,0,0,0-3-1.88l-2.51.55a2.49,2.49,0,0,0-1.88,3l8,35.89a5.27,5.27,0,0,0,2,7.43,2.08,2.08,0,0,0,.21.21l11.55,28.45-1.19.72a4.9,4.9,0,0,0-1.66,6.7l2.61,4.32h0l3.87,6.41a1.78,1.78,0,0,0,2.44.6L4004,318a1.77,1.77,0,0,1,3-1.83l1.57-.95a1.77,1.77,0,1,1,3-1.83l1.57-.95a1.78,1.78,0,0,1,3-1.84l1.57-.95a1.76,1.76,0,0,0,.6-2.43Z"/><path class="cls-1" d="M4085,311l-3.1-7.2h0l-2.1-4.85a5.13,5.13,0,0,0-6.72-2.67l-2.27,1-4.2-29.71a5.43,5.43,0,0,0,.86-3.44,5.52,5.52,0,0,0-1.89-3.72L4062.35,222a2.61,2.61,0,0,0-2.81-2.38l-2.68.23a2.6,2.6,0,0,0-2.38,2.8l3.21,38.39a5.52,5.52,0,0,0,1,8l.16.23,4.42,31.23-1.55.67a5.13,5.13,0,0,0-3,5.77l-2.09,4.72a1.87,1.87,0,0,0,.94,2.46l1.76.78a1.86,1.86,0,0,0,2.37-.8l2.52,5.84a1.87,1.87,0,0,0,2.45,1l1.76-.76a1.85,1.85,0,0,0,1-2.44,1.88,1.88,0,0,0,2.45,1l1.76-.77a1.86,1.86,0,0,1,3.42-1.47l1.76-.76a1.86,1.86,0,0,0,1-2.44,1.89,1.89,0,0,0,2.45,1l1.76-.77A1.85,1.85,0,0,0,4085,311Z"/><path class="cls-6" d="M3955.27,119.3l31.84-20.82-2.05-28.26,23.81-11.9s28.9,16.18,24.76-6.67c4.9-1.9,19.86-5.74,19.86-5.74C4059.31,39.71,3954.75-4.41,3955.27,119.3Z"/><rect class="cls-1" x="2251.5" y="346.77" width="8.44" height="40.82" rx="2.78" ry="2.78" transform="translate(199.24 -629.79) rotate(16.62)"/><path d="M2219.36,272v61.9a38.66,38.66,0,0,0,38.55,38.54h25.17a38.65,38.65,0,0,0,38.54-38.54V272Z"/><path class="cls-2" d="M2321.62,214.33a38.65,38.65,0,0,0-38.54-38.54h-25.17a38.66,38.66,0,0,0-38.55,38.54V272h102.26Z"/><path class="cls-1" d="M2322.74,114.69A9.27,9.27,0,0,1,2335,105c-.06-1-.13-2-.22-2.93-3.91-40.71-36.21-70.91-72.14-67.46s-61.88,39.25-58,80,36.21,70.9,72.14,67.45c29.65-2.85,52.51-27.73,57.39-59.23a8.3,8.3,0,0,1-1.32.24A9.29,9.29,0,0,1,2322.74,114.69Z"/><path class="cls-3" d="M2251.41,89.76c3.44-9.18,15.66-13.07,27.31-8.7"/><path class="cls-3" d="M2299.66,75.3c3.34-8.9,15.18-12.67,26.48-8.43"/><circle cx="2269.01" cy="100.88" r="2.4"/><circle cx="2317.74" cy="87.76" r="2.4"/><path class="cls-3" d="M2290.54,132c.52,5.31,13.45,8.37,28.92,6.84"/><path class="cls-1" d="M2331.1,104.55a9.29,9.29,0,0,0,1.78,18.5,8.3,8.3,0,0,0,1.32-.24A82.53,82.53,0,0,0,2335,105,9.24,9.24,0,0,0,2331.1,104.55Z"/><path class="cls-4" d="M2228.88,436.56l-.89,2.9,27.4,8.41a8.81,8.81,0,0,0,7.31-.92Z"/><path d="M2266,442.62l1.62-5.29a7.14,7.14,0,0,0-5-8.78l-26.06-8a2.6,2.6,0,0,0-3.31,1.63l-4.42,14.38L2262.7,447A7.86,7.86,0,0,0,2266,442.62Z"/><rect class="cls-1" x="2240.5" y="386.19" width="7.74" height="40.94" rx="2.55" ry="2.55" transform="matrix(0.96, 0.3, -0.3, 0.96, 221.25, -646.69)"/><circle class="cls-5" cx="2249.17" cy="386.71" r="6.33"/><rect class="cls-1" x="2294.83" y="353.73" width="8.44" height="39.58" rx="2.78" ry="2.78" transform="translate(826.05 2177.8) rotate(-60)"/><path class="cls-4" d="M2336.23,438.64l1.37,2.71,25.58-13a8.86,8.86,0,0,0,4.63-5.74Z"/><path d="M2367.21,417.22l-2.5-4.94a7.14,7.14,0,0,0-9.69-2.86l-24.34,12.31a2.62,2.62,0,0,0-1.25,3.48l6.8,13.43,31.58-16A7.82,7.82,0,0,0,2367.21,417.22Z"/><rect class="cls-1" x="2320.35" y="376.86" width="7.74" height="51.5" rx="2.55" ry="2.55" transform="translate(66.63 1086.24) rotate(-26.67)"/><circle class="cls-5" cx="2314.28" cy="382.67" r="6.33"/><path class="cls-1" d="M2265.31,302a1.78,1.78,0,0,0,1.94-1.39l.37-1.8a1.79,1.79,0,0,0-1.38-2.1l-4.83-1a4.9,4.9,0,0,0-6.13-.9l-2.37,1.43-11-27.14a5.26,5.26,0,0,0-1.9-6.64l-8-35.9a2.48,2.48,0,0,0-3-1.88l-2.51.55a2.49,2.49,0,0,0-1.88,3l8,35.89a5.27,5.27,0,0,0,2,7.43,2.08,2.08,0,0,0,.21.21l11.55,28.45-1.19.72a4.9,4.9,0,0,0-1.66,6.7l2.61,4.32h0l3.87,6.41a1.78,1.78,0,0,0,2.44.6L2254,318a1.77,1.77,0,0,1,3-1.83l1.57-.95a1.77,1.77,0,1,1,3-1.83l1.57-.95a1.78,1.78,0,1,1,3-1.84l1.57-.95a1.76,1.76,0,0,0,.6-2.43Z"/><path class="cls-1" d="M2335,311l-3.1-7.2h0l-2.1-4.85a5.13,5.13,0,0,0-6.72-2.67l-2.27,1-4.2-29.71a5.43,5.43,0,0,0,.86-3.44,5.52,5.52,0,0,0-1.89-3.72L2312.35,222a2.61,2.61,0,0,0-2.81-2.38l-2.68.23a2.6,2.6,0,0,0-2.38,2.8l3.21,38.39a5.52,5.52,0,0,0,1,8l.16.23,4.42,31.23-1.55.67a5.13,5.13,0,0,0-3,5.77l-2.09,4.72a1.87,1.87,0,0,0,.94,2.46l1.76.78a1.86,1.86,0,0,0,2.37-.8l2.52,5.84a1.87,1.87,0,0,0,2.45,1l1.76-.76a1.85,1.85,0,0,0,1-2.44,1.88,1.88,0,0,0,2.45,1l1.76-.77a1.86,1.86,0,0,1,3.42-1.47l1.76-.76a1.86,1.86,0,0,0,1-2.44,1.89,1.89,0,0,0,2.45,1l1.76-.77A1.85,1.85,0,0,0,2335,311Z"/><path class="cls-6" d="M2205.27,119.3l31.84-20.82-2.05-28.26,23.81-11.9s28.9,16.18,24.76-6.67c4.9-1.9,19.86-5.74,19.86-5.74C2309.31,39.71,2204.75-4.41,2205.27,119.3Z"/><rect class="cls-1" x="1906.7" y="354.54" width="8.44" height="40.82" rx="2.78" ry="2.78" transform="translate(53.56 -210.22) rotate(6.39)"/><path d="M1869.36,272v61.9a38.66,38.66,0,0,0,38.55,38.54h25.17a38.65,38.65,0,0,0,38.54-38.54V272Z"/><path class="cls-2" d="M1971.62,214.33a38.65,38.65,0,0,0-38.54-38.54h-25.17a38.66,38.66,0,0,0-38.55,38.54V272h102.26Z"/><path class="cls-1" d="M1972.74,114.69A9.27,9.27,0,0,1,1985,105c-.06-1-.13-2-.22-2.93-3.91-40.71-36.21-70.91-72.14-67.46s-61.88,39.25-58,80,36.21,70.9,72.14,67.45c29.65-2.85,52.51-27.73,57.39-59.23a8.3,8.3,0,0,1-1.32.24A9.29,9.29,0,0,1,1972.74,114.69Z"/><path class="cls-3" d="M1901.41,89.76c3.44-9.18,15.66-13.07,27.31-8.7"/><path class="cls-3" d="M1949.66,75.3c3.34-8.9,15.18-12.67,26.48-8.43"/><circle cx="1919.01" cy="100.88" r="2.4"/><circle cx="1967.74" cy="87.76" r="2.4"/><path class="cls-3" d="M1940.54,132c.52,5.31,13.45,8.37,28.92,6.84"/><path class="cls-1" d="M1981.1,104.55a9.29,9.29,0,0,0,1.78,18.5,8.3,8.3,0,0,0,1.32-.24A82.53,82.53,0,0,0,1985,105,9.24,9.24,0,0,0,1981.1,104.55Z"/><path class="cls-4" d="M1896.83,448l-.36,3,28.46,3.41a8.82,8.82,0,0,0,7-2.21Z"/><path d="M1934.48,447.35l.66-5.5a7.16,7.16,0,0,0-6.48-7.75l-27.06-3.24a2.6,2.6,0,0,0-3,2.19l-1.8,14.94L1932,452.2A7.84,7.84,0,0,0,1934.48,447.35Z"/><rect class="cls-1" x="1902.9" y="395.34" width="7.74" height="40.94" rx="2.55" ry="2.55" transform="translate(64.91 -229.33) rotate(7)"/><circle class="cls-5" cx="1907.94" cy="395.33" r="6.33"/><rect class="cls-1" x="1944.83" y="353.73" width="8.44" height="39.58" rx="2.78" ry="2.78" transform="translate(651.05 1874.69) rotate(-60)"/><path class="cls-4" d="M1952.66,439.56l-.3,3,28.52,2.86a8.85,8.85,0,0,0,7-2.35Z"/><path d="M1990.3,438.19l.56-5.51a7.15,7.15,0,0,0-6.63-7.63l-27.14-2.72a2.61,2.61,0,0,0-2.93,2.25l-1.5,15,35.22,3.53A7.82,7.82,0,0,0,1990.3,438.19Z"/><rect class="cls-1" x="1958.07" y="376.98" width="7.74" height="51.5" rx="2.55" ry="2.55" transform="translate(51.7 -199.27) rotate(5.89)"/><circle class="cls-5" cx="1964.28" cy="382.67" r="6.33"/><path class="cls-1" d="M1915.31,302a1.78,1.78,0,0,0,1.94-1.39l.37-1.8a1.79,1.79,0,0,0-1.38-2.1l-4.83-1a4.9,4.9,0,0,0-6.13-.9l-2.37,1.43-11-27.14a5.26,5.26,0,0,0-1.9-6.64l-8-35.9a2.48,2.48,0,0,0-3-1.88l-2.51.55a2.49,2.49,0,0,0-1.88,3l8,35.89a5.27,5.27,0,0,0,2,7.43l.21.21,11.55,28.45-1.19.72a4.9,4.9,0,0,0-1.66,6.7l2.61,4.32h0l3.87,6.41a1.78,1.78,0,0,0,2.44.6L1904,318a1.77,1.77,0,0,1,3-1.83l1.57-.95a1.77,1.77,0,1,1,3-1.83l1.57-.95a1.78,1.78,0,0,1,3-1.84l1.57-.95a1.76,1.76,0,0,0,.6-2.43Z"/><path class="cls-1" d="M1985,311l-3.1-7.2h0l-2.1-4.85a5.13,5.13,0,0,0-6.72-2.67l-2.27,1-4.2-29.71a5.43,5.43,0,0,0,.86-3.44,5.52,5.52,0,0,0-1.89-3.72L1962.35,222a2.61,2.61,0,0,0-2.81-2.38l-2.68.23a2.6,2.6,0,0,0-2.38,2.8l3.21,38.39a5.52,5.52,0,0,0,1,8l.16.23,4.42,31.23-1.55.67a5.13,5.13,0,0,0-3,5.77l-2.09,4.72a1.87,1.87,0,0,0,.94,2.46l1.76.78a1.86,1.86,0,0,0,2.37-.8l2.52,5.84a1.87,1.87,0,0,0,2.45,1l1.76-.76a1.85,1.85,0,0,0,1-2.44,1.88,1.88,0,0,0,2.45,1l1.76-.77a1.86,1.86,0,0,1,3.42-1.47l1.76-.76a1.86,1.86,0,0,0,1-2.44,1.89,1.89,0,0,0,2.45,1l1.76-.77A1.85,1.85,0,0,0,1985,311Z"/><path class="cls-6" d="M1855.27,119.3l31.84-20.82-2-28.26,23.81-11.9s28.9,16.18,24.76-6.67c4.9-1.9,19.86-5.74,19.86-5.74C1959.31,39.71,1854.75-4.41,1855.27,119.3Z"/><path d="M3619.36,272v61.9a38.66,38.66,0,0,0,38.55,38.54h25.17a38.65,38.65,0,0,0,38.54-38.54V272Z"/><path class="cls-2" d="M3721.62,214.33a38.65,38.65,0,0,0-38.54-38.54h-25.17a38.66,38.66,0,0,0-38.55,38.54V272h102.26Z"/><path class="cls-1" d="M3722.74,114.69A9.27,9.27,0,0,1,3735,105c-.06-1-.13-2-.22-2.93-3.91-40.71-36.21-70.91-72.14-67.46s-61.88,39.25-58,80,36.21,70.9,72.14,67.45c29.65-2.85,52.51-27.73,57.39-59.23a8.3,8.3,0,0,1-1.32.24A9.29,9.29,0,0,1,3722.74,114.69Z"/><path class="cls-3" d="M3651.41,89.76c3.44-9.18,15.66-13.07,27.31-8.7"/><path class="cls-3" d="M3699.66,75.3c3.34-8.9,15.18-12.67,26.48-8.43"/><circle cx="3669.01" cy="100.88" r="2.4"/><circle cx="3717.74" cy="87.76" r="2.4"/><path class="cls-3" d="M3690.54,132c.52,5.31,13.45,8.37,28.92,6.84"/><path class="cls-1" d="M3731.1,104.55a9.29,9.29,0,0,0,1.78,18.5,8.3,8.3,0,0,0,1.32-.24A82.53,82.53,0,0,0,3735,105,9.24,9.24,0,0,0,3731.1,104.55Z"/><path class="cls-4" d="M3658.88,453.34l-.13,3,28.63,1.24a8.83,8.83,0,0,0,6.84-2.74Z"/><path d="M3696.36,449.84l.24-5.53a7.15,7.15,0,0,0-7-7.24l-27.24-1.17a2.61,2.61,0,0,0-2.79,2.41l-.65,15,35.34,1.53A7.81,7.81,0,0,0,3696.36,449.84Z"/><rect class="cls-1" x="3662.46" y="400.03" width="7.74" height="40.94" rx="2.55" ry="2.55" transform="translate(23.22 -168.17) rotate(2.64)"/><circle class="cls-5" cx="3665.95" cy="399.99" r="6.33"/><path class="cls-4" d="M3662,412.29l-2.51,1.7,16,23.77a8.85,8.85,0,0,0,6.28,3.88Z"/><path d="M3687.13,440.37l4.59-3.1a7.15,7.15,0,0,0,1.63-10l-15.26-22.61a2.6,2.6,0,0,0-3.6-.81L3662,412.29l19.8,29.35A7.88,7.88,0,0,0,3687.13,440.37Z"/><rect class="cls-1" x="3692.4" y="370.14" width="7.74" height="51.5" rx="2.55" ry="2.55" transform="translate(1966.68 -2894.65) rotate(56.16)"/><circle class="cls-5" cx="3713.19" cy="384.87" r="6.33"/><path class="cls-1" d="M3665.31,302a1.78,1.78,0,0,0,1.94-1.39l.37-1.8a1.79,1.79,0,0,0-1.38-2.1l-4.83-1a4.9,4.9,0,0,0-6.13-.9l-2.37,1.43-11-27.14a5.26,5.26,0,0,0-1.9-6.64l-8-35.9a2.48,2.48,0,0,0-3-1.88l-2.51.55a2.49,2.49,0,0,0-1.88,3l8,35.89a5.27,5.27,0,0,0,2,7.43,2.08,2.08,0,0,0,.21.21l11.55,28.45-1.19.72a4.9,4.9,0,0,0-1.66,6.7l2.61,4.32h0l3.87,6.41a1.78,1.78,0,0,0,2.44.6L3654,318a1.77,1.77,0,0,1,3-1.83l1.57-.95a1.77,1.77,0,1,1,3-1.83l1.57-.95a1.78,1.78,0,1,1,3-1.84l1.57-.95a1.76,1.76,0,0,0,.6-2.43Z"/><path class="cls-1" d="M3735,311l-3.1-7.2h0l-2.1-4.85a5.13,5.13,0,0,0-6.72-2.67l-2.27,1-4.2-29.71a5.43,5.43,0,0,0,.86-3.44,5.52,5.52,0,0,0-1.89-3.72L3712.35,222a2.61,2.61,0,0,0-2.81-2.38l-2.68.23a2.6,2.6,0,0,0-2.38,2.8l3.21,38.39a5.52,5.52,0,0,0,1,8l.16.23,4.42,31.23-1.55.67a5.13,5.13,0,0,0-3,5.77l-2.09,4.72a1.87,1.87,0,0,0,.94,2.46l1.76.78a1.86,1.86,0,0,0,2.37-.8l2.52,5.84a1.87,1.87,0,0,0,2.45,1l1.76-.76a1.85,1.85,0,0,0,1-2.44,1.88,1.88,0,0,0,2.45,1l1.76-.77a1.86,1.86,0,0,1,3.42-1.47l1.76-.76a1.86,1.86,0,0,0,1-2.44,1.89,1.89,0,0,0,2.45,1l1.76-.77A1.85,1.85,0,0,0,3735,311Z"/><path class="cls-6" d="M3605.27,119.3l31.84-20.82-2.05-28.26,23.81-11.9s28.9,16.18,24.76-6.67c4.9-1.9,19.86-5.74,19.86-5.74C3709.31,39.71,3604.75-4.41,3605.27,119.3Z"/><path d="M3269.36,272v61.9a38.66,38.66,0,0,0,38.55,38.54h25.17a38.65,38.65,0,0,0,38.54-38.54V272Z"/><path class="cls-2" d="M3371.62,214.33a38.65,38.65,0,0,0-38.54-38.54h-25.17a38.66,38.66,0,0,0-38.55,38.54V272h102.26Z"/><path class="cls-1" d="M3372.74,114.69A9.27,9.27,0,0,1,3385,105c-.06-1-.13-2-.22-2.93-3.91-40.71-36.21-70.91-72.14-67.46s-61.88,39.25-58,80,36.21,70.9,72.14,67.45c29.65-2.85,52.51-27.73,57.39-59.23a8.3,8.3,0,0,1-1.32.24A9.29,9.29,0,0,1,3372.74,114.69Z"/><path class="cls-3" d="M3301.41,89.76c3.44-9.18,15.66-13.07,27.31-8.7"/><path class="cls-3" d="M3349.66,75.3c3.34-8.9,15.18-12.67,26.48-8.43"/><circle cx="3319.01" cy="100.88" r="2.4"/><circle cx="3367.74" cy="87.76" r="2.4"/><path class="cls-3" d="M3340.54,132c.52,5.31,13.45,8.37,28.92,6.84"/><path class="cls-1" d="M3381.1,104.55a9.29,9.29,0,0,0,1.78,18.5,8.3,8.3,0,0,0,1.32-.24A82.53,82.53,0,0,0,3385,105,9.24,9.24,0,0,0,3381.1,104.55Z"/><path class="cls-4" d="M3308.88,453.34l-.13,3,28.63,1.24a8.83,8.83,0,0,0,6.84-2.74Z"/><path d="M3346.36,449.84l.24-5.53a7.15,7.15,0,0,0-7-7.24l-27.24-1.17a2.61,2.61,0,0,0-2.79,2.41l-.65,15,35.34,1.53A7.81,7.81,0,0,0,3346.36,449.84Z"/><rect class="cls-1" x="3312.46" y="400.03" width="7.74" height="40.94" rx="2.55" ry="2.55" transform="translate(22.85 -152.07) rotate(2.64)"/><circle class="cls-5" cx="3315.95" cy="399.99" r="6.33"/><path class="cls-4" d="M3293.05,397.31l-3,.51,4.86,28.26a8.83,8.83,0,0,0,4.13,6.11Z"/><path d="M3304.43,433.22l5.45-.94a7.15,7.15,0,0,0,5.59-8.42L3310.84,397a2.62,2.62,0,0,0-3-2.22l-14.84,2.56,6,34.88A7.8,7.8,0,0,0,3304.43,433.22Z"/><rect class="cls-1" x="3327.16" y="370.66" width="7.74" height="51.5" rx="2.55" ry="2.55" transform="translate(3166.56 -2954.09) rotate(80.4)"/><circle class="cls-5" cx="3350.98" cy="393.32" r="6.33"/><path class="cls-1" d="M3315.31,302a1.78,1.78,0,0,0,1.94-1.39l.37-1.8a1.79,1.79,0,0,0-1.38-2.1l-4.83-1a4.9,4.9,0,0,0-6.13-.9l-2.37,1.43-11-27.14a5.26,5.26,0,0,0-1.9-6.64l-8-35.9a2.48,2.48,0,0,0-3-1.88l-2.51.55a2.49,2.49,0,0,0-1.88,3l8,35.89a5.27,5.27,0,0,0,2,7.43,2.08,2.08,0,0,0,.21.21l11.55,28.45-1.19.72a4.9,4.9,0,0,0-1.66,6.7l2.61,4.32h0l3.87,6.41a1.78,1.78,0,0,0,2.44.6L3304,318a1.77,1.77,0,0,1,3-1.83l1.57-.95a1.77,1.77,0,1,1,3-1.83l1.57-.95a1.78,1.78,0,1,1,3-1.84l1.57-.95a1.76,1.76,0,0,0,.6-2.43Z"/><path class="cls-1" d="M3385,311l-3.1-7.2h0l-2.1-4.85a5.13,5.13,0,0,0-6.72-2.67l-2.27,1-4.2-29.71a5.43,5.43,0,0,0,.86-3.44,5.52,5.52,0,0,0-1.89-3.72L3362.35,222a2.61,2.61,0,0,0-2.81-2.38l-2.68.23a2.6,2.6,0,0,0-2.38,2.8l3.21,38.39a5.52,5.52,0,0,0,1,8l.16.23,4.42,31.23-1.55.67a5.13,5.13,0,0,0-3,5.77l-2.09,4.72a1.87,1.87,0,0,0,.94,2.46l1.76.78a1.86,1.86,0,0,0,2.37-.8l2.52,5.84a1.87,1.87,0,0,0,2.45,1l1.76-.76a1.85,1.85,0,0,0,1-2.44,1.88,1.88,0,0,0,2.45,1l1.76-.77a1.86,1.86,0,0,1,3.42-1.47l1.76-.76a1.86,1.86,0,0,0,1-2.44,1.89,1.89,0,0,0,2.45,1l1.76-.77A1.85,1.85,0,0,0,3385,311Z"/><path class="cls-6" d="M3255.27,119.3l31.84-20.82-2.05-28.26,23.81-11.9s28.9,16.18,24.76-6.67c4.9-1.9,19.86-5.74,19.86-5.74C3359.31,39.71,3254.75-4.41,3255.27,119.3Z"/><path d="M2919.36,272v61.9a38.66,38.66,0,0,0,38.55,38.54h25.17a38.65,38.65,0,0,0,38.54-38.54V272Z"/><path class="cls-2" d="M3021.62,214.33a38.65,38.65,0,0,0-38.54-38.54h-25.17a38.66,38.66,0,0,0-38.55,38.54V272h102.26Z"/><path class="cls-1" d="M3022.74,114.69A9.27,9.27,0,0,1,3035,105c-.06-1-.13-2-.22-2.93-3.91-40.71-36.21-70.91-72.14-67.46s-61.88,39.25-58,80,36.21,70.9,72.14,67.45c29.65-2.85,52.51-27.73,57.39-59.23a8.3,8.3,0,0,1-1.32.24A9.29,9.29,0,0,1,3022.74,114.69Z"/><path class="cls-3" d="M2951.41,89.76c3.44-9.18,15.66-13.07,27.31-8.7"/><path class="cls-3" d="M2999.66,75.3c3.34-8.9,15.18-12.67,26.48-8.43"/><circle cx="2969.01" cy="100.88" r="2.4"/><circle cx="3017.74" cy="87.76" r="2.4"/><path class="cls-3" d="M2990.54,132c.52,5.31,13.45,8.37,28.92,6.84"/><path class="cls-1" d="M3031.1,104.55a9.29,9.29,0,0,0,1.78,18.5,8.3,8.3,0,0,0,1.32-.24A82.53,82.53,0,0,0,3035,105,9.24,9.24,0,0,0,3031.1,104.55Z"/><path class="cls-4" d="M2974.8,455.48l-.13,3,28.63,1.23a8.8,8.8,0,0,0,6.84-2.74Z"/><path d="M3012.28,452l.24-5.53a7.14,7.14,0,0,0-7-7.24L2978.24,438a2.62,2.62,0,0,0-2.79,2.42l-.65,15,35.34,1.52A7.78,7.78,0,0,0,3012.28,452Z"/><rect class="cls-1" x="2978.38" y="402.17" width="7.74" height="40.94" rx="2.55" ry="2.55" transform="translate(22.59 -136.71) rotate(2.64)"/><circle class="cls-5" cx="2981.87" cy="402.12" r="6.33"/><path class="cls-4" d="M2902.71,405.6l-3,.52,4.86,28.25a8.84,8.84,0,0,0,4.13,6.12Z"/><path d="M2914.08,441.51l5.46-.93a7.15,7.15,0,0,0,5.58-8.43l-4.62-26.88a2.63,2.63,0,0,0-3-2.22l-14.83,2.55,6,34.89A7.85,7.85,0,0,0,2914.08,441.51Z"/><rect class="cls-1" x="2936.81" y="378.96" width="7.74" height="51.5" rx="2.55" ry="2.55" transform="translate(2849.47 -2562.29) rotate(80.4)"/><circle class="cls-5" cx="2960.63" cy="401.61" r="6.33"/><path class="cls-1" d="M2965.31,302a1.78,1.78,0,0,0,1.94-1.39l.37-1.8a1.79,1.79,0,0,0-1.38-2.1l-4.83-1a4.9,4.9,0,0,0-6.13-.9l-2.37,1.43-11-27.14a5.26,5.26,0,0,0-1.9-6.64l-8-35.9a2.48,2.48,0,0,0-3-1.88l-2.51.55a2.49,2.49,0,0,0-1.88,3l8,35.89a5.27,5.27,0,0,0,2,7.43,2.08,2.08,0,0,0,.21.21l11.55,28.45-1.19.72a4.9,4.9,0,0,0-1.66,6.7l2.61,4.32h0l3.87,6.41a1.78,1.78,0,0,0,2.44.6L2954,318a1.77,1.77,0,0,1,3-1.83l1.57-.95a1.77,1.77,0,1,1,3-1.83l1.57-.95a1.78,1.78,0,1,1,3-1.84l1.57-.95a1.76,1.76,0,0,0,.6-2.43Z"/><path class="cls-1" d="M3035,311l-3.1-7.2h0l-2.1-4.85a5.13,5.13,0,0,0-6.72-2.67l-2.27,1-4.2-29.71a5.43,5.43,0,0,0,.86-3.44,5.52,5.52,0,0,0-1.89-3.72L3012.35,222a2.61,2.61,0,0,0-2.81-2.38l-2.68.23a2.6,2.6,0,0,0-2.38,2.8l3.21,38.39a5.52,5.52,0,0,0,1,8l.16.23,4.42,31.23-1.55.67a5.13,5.13,0,0,0-3,5.77l-2.09,4.72a1.87,1.87,0,0,0,.94,2.46l1.76.78a1.86,1.86,0,0,0,2.37-.8l2.52,5.84a1.87,1.87,0,0,0,2.45,1l1.76-.76a1.85,1.85,0,0,0,1-2.44,1.88,1.88,0,0,0,2.45,1l1.76-.77a1.86,1.86,0,0,1,3.42-1.47l1.76-.76a1.86,1.86,0,0,0,1-2.44,1.89,1.89,0,0,0,2.45,1l1.76-.77A1.85,1.85,0,0,0,3035,311Z"/><path class="cls-6" d="M2905.27,119.3l31.84-20.82-2.05-28.26,23.81-11.9s28.9,16.18,24.76-6.67c4.9-1.9,19.86-5.74,19.86-5.74C3009.31,39.71,2904.75-4.41,2905.27,119.3Z"/><rect class="cls-1" x="879.07" y="361.17" width="8.44" height="40.82" rx="2.78" ry="2.78" transform="translate(14 -30.91) rotate(2.02)"/><rect class="cls-1" x="1563.15" y="359.03" width="8.44" height="40.82" rx="2.78" ry="2.78" transform="translate(14.35 -55.03) rotate(2.02)"/><path d="M1519.36,272v61.9a38.66,38.66,0,0,0,38.55,38.54h25.17a38.65,38.65,0,0,0,38.54-38.54V272Z"/><path class="cls-2" d="M1621.62,214.33a38.65,38.65,0,0,0-38.54-38.54h-25.17a38.66,38.66,0,0,0-38.55,38.54V272h102.26Z"/><path class="cls-1" d="M1622.74,114.69A9.27,9.27,0,0,1,1635,105c-.06-1-.13-2-.22-2.93-3.91-40.71-36.21-70.91-72.14-67.46s-61.88,39.25-58,80,36.21,70.9,72.14,67.45c29.65-2.85,52.51-27.73,57.39-59.23a8.3,8.3,0,0,1-1.32.24A9.29,9.29,0,0,1,1622.74,114.69Z"/><path class="cls-3" d="M1551.41,89.76c3.44-9.18,15.66-13.07,27.31-8.7"/><path class="cls-3" d="M1599.66,75.3c3.34-8.9,15.18-12.67,26.48-8.43"/><circle cx="1569.01" cy="100.88" r="2.4"/><circle cx="1617.74" cy="87.76" r="2.4"/><path class="cls-3" d="M1590.54,132c.52,5.31,13.45,8.37,28.92,6.84"/><path class="cls-1" d="M1631.1,104.55a9.29,9.29,0,0,0,1.78,18.5,8.3,8.3,0,0,0,1.32-.24A82.53,82.53,0,0,0,1635,105,9.24,9.24,0,0,0,1631.1,104.55Z"/><path class="cls-4" d="M1558.88,453.34l-.13,3,28.63,1.24a8.83,8.83,0,0,0,6.84-2.74Z"/><path d="M1596.36,449.84l.24-5.53a7.15,7.15,0,0,0-7-7.24l-27.24-1.17a2.61,2.61,0,0,0-2.79,2.41l-.65,15,35.34,1.53A7.81,7.81,0,0,0,1596.36,449.84Z"/><rect class="cls-1" x="1562.46" y="400.03" width="7.74" height="40.94" rx="2.55" ry="2.55" transform="translate(21 -71.59) rotate(2.64)"/><circle class="cls-5" cx="1565.95" cy="399.99" r="6.33"/><rect class="cls-1" x="1594.83" y="353.73" width="8.44" height="39.58" rx="2.78" ry="2.78" transform="translate(476.05 1571.58) rotate(-60)"/><path class="cls-4" d="M1562,412.29l-2.51,1.7,16,23.77a8.85,8.85,0,0,0,6.28,3.88Z"/><path d="M1587.13,440.37l4.59-3.1a7.15,7.15,0,0,0,1.63-10l-15.26-22.61a2.6,2.6,0,0,0-3.6-.81L1562,412.29l19.8,29.35A7.88,7.88,0,0,0,1587.13,440.37Z"/><rect class="cls-1" x="1592.4" y="370.14" width="7.74" height="51.5" rx="2.55" ry="2.55" transform="translate(1036.14 -1150.42) rotate(56.16)"/><circle class="cls-5" cx="1613.19" cy="384.87" r="6.33"/><path class="cls-1" d="M1565.31,302a1.78,1.78,0,0,0,1.94-1.39l.37-1.8a1.79,1.79,0,0,0-1.38-2.1l-4.83-1a4.9,4.9,0,0,0-6.13-.9l-2.37,1.43-11-27.14a5.26,5.26,0,0,0-1.9-6.64l-8-35.9a2.48,2.48,0,0,0-3-1.88l-2.51.55a2.49,2.49,0,0,0-1.88,3l8,35.89a5.27,5.27,0,0,0,2,7.43l.21.21,11.55,28.45-1.19.72a4.9,4.9,0,0,0-1.66,6.7l2.61,4.32h0l3.87,6.41a1.78,1.78,0,0,0,2.44.6L1554,318a1.77,1.77,0,0,1,3-1.83l1.57-.95a1.77,1.77,0,1,1,3-1.83l1.57-.95a1.78,1.78,0,0,1,3-1.84l1.57-.95a1.76,1.76,0,0,0,.6-2.43Z"/><path class="cls-1" d="M1635,311l-3.1-7.2h0l-2.1-4.85a5.13,5.13,0,0,0-6.72-2.67l-2.27,1-4.2-29.71a5.43,5.43,0,0,0,.86-3.44,5.52,5.52,0,0,0-1.89-3.72L1612.35,222a2.61,2.61,0,0,0-2.81-2.38l-2.68.23a2.6,2.6,0,0,0-2.38,2.8l3.21,38.39a5.52,5.52,0,0,0,1,8l.16.23,4.42,31.23-1.55.67a5.13,5.13,0,0,0-3,5.77l-2.09,4.72a1.87,1.87,0,0,0,.94,2.46l1.76.78a1.86,1.86,0,0,0,2.37-.8l2.52,5.84a1.87,1.87,0,0,0,2.45,1l1.76-.76a1.85,1.85,0,0,0,1-2.44,1.88,1.88,0,0,0,2.45,1l1.76-.77a1.86,1.86,0,0,1,3.42-1.47l1.76-.76a1.86,1.86,0,0,0,1-2.44,1.89,1.89,0,0,0,2.45,1l1.76-.77A1.85,1.85,0,0,0,1635,311Z"/><path class="cls-6" d="M1505.27,119.3l31.84-20.82-2-28.26,23.81-11.9s28.9,16.18,24.76-6.67c4.9-1.9,19.86-5.74,19.86-5.74C1609.31,39.71,1504.75-4.41,1505.27,119.3Z"/><rect class="cls-1" x="1213.15" y="359.03" width="8.44" height="40.82" rx="2.78" ry="2.78" transform="translate(14.14 -42.69) rotate(2.02)"/><path d="M1169.36,272v61.9a38.66,38.66,0,0,0,38.55,38.54h25.17a38.65,38.65,0,0,0,38.54-38.54V272Z"/><path class="cls-2" d="M1271.62,214.33a38.65,38.65,0,0,0-38.54-38.54h-25.17a38.66,38.66,0,0,0-38.55,38.54V272h102.26Z"/><path class="cls-1" d="M1272.74,114.69A9.27,9.27,0,0,1,1285,105c-.06-1-.13-2-.22-2.93-3.91-40.71-36.21-70.91-72.14-67.46s-61.88,39.25-58,80,36.21,70.9,72.14,67.45c29.65-2.85,52.51-27.73,57.39-59.23a8.3,8.3,0,0,1-1.32.24A9.29,9.29,0,0,1,1272.74,114.69Z"/><path class="cls-3" d="M1201.41,89.76c3.44-9.18,15.66-13.07,27.31-8.7"/><path class="cls-3" d="M1249.66,75.3c3.34-8.9,15.18-12.67,26.48-8.43"/><circle cx="1219.01" cy="100.88" r="2.4"/><circle cx="1267.74" cy="87.76" r="2.4"/><path class="cls-3" d="M1240.54,132c.52,5.31,13.45,8.37,28.92,6.84"/><path class="cls-1" d="M1281.1,104.55a9.29,9.29,0,1,0,1.78,18.5,8.3,8.3,0,0,0,1.32-.24A82.53,82.53,0,0,0,1285,105,9.24,9.24,0,0,0,1281.1,104.55Z"/><path class="cls-4" d="M1208.88,453.34l-.13,3,28.63,1.24a8.83,8.83,0,0,0,6.84-2.74Z"/><path d="M1246.36,449.84l.24-5.53a7.15,7.15,0,0,0-7-7.24l-27.24-1.17a2.61,2.61,0,0,0-2.79,2.41l-.65,15,35.34,1.53A7.81,7.81,0,0,0,1246.36,449.84Z"/><rect class="cls-1" x="1212.46" y="400.03" width="7.74" height="40.94" rx="2.55" ry="2.55" transform="translate(20.63 -55.49) rotate(2.64)"/><circle class="cls-5" cx="1215.95" cy="399.99" r="6.33"/><rect class="cls-1" x="1239.12" y="358.75" width="8.44" height="39.58" rx="2.78" ry="2.78" transform="translate(17.53 810.47) rotate(-36.34)"/><path class="cls-4" d="M1193.05,397.31l-3,.51,4.86,28.26a8.83,8.83,0,0,0,4.13,6.11Z"/><path d="M1204.43,433.22l5.45-.94a7.15,7.15,0,0,0,5.59-8.42L1210.84,397a2.62,2.62,0,0,0-2.95-2.22l-14.84,2.56,6,34.88A7.8,7.8,0,0,0,1204.43,433.22Z"/><rect class="cls-1" x="1227.16" y="370.66" width="7.74" height="51.5" rx="2.55" ry="2.55" transform="translate(1416.66 -883.47) rotate(80.4)"/><circle class="cls-5" cx="1250.98" cy="393.32" r="6.33"/><path class="cls-1" d="M1215.31,302a1.78,1.78,0,0,0,1.94-1.39l.37-1.8a1.79,1.79,0,0,0-1.38-2.1l-4.83-1a4.9,4.9,0,0,0-6.13-.9l-2.37,1.43-11-27.14a5.26,5.26,0,0,0-1.9-6.64l-8-35.9a2.48,2.48,0,0,0-3-1.88l-2.51.55a2.49,2.49,0,0,0-1.88,3l8,35.89a5.27,5.27,0,0,0,2,7.43l.21.21,11.55,28.45-1.19.72a4.9,4.9,0,0,0-1.66,6.7l2.61,4.32h0l3.87,6.41a1.78,1.78,0,0,0,2.44.6L1204,318a1.77,1.77,0,0,1,3-1.83l1.57-.95a1.77,1.77,0,1,1,3-1.83l1.57-.95a1.78,1.78,0,0,1,3-1.84l1.57-.95a1.77,1.77,0,0,0,.6-2.43Z"/><path class="cls-1" d="M1285,311l-3.1-7.2h0l-2.1-4.85a5.13,5.13,0,0,0-6.72-2.67l-2.27,1-4.2-29.71a5.43,5.43,0,0,0,.86-3.44,5.52,5.52,0,0,0-1.89-3.72L1262.35,222a2.61,2.61,0,0,0-2.81-2.38l-2.68.23a2.6,2.6,0,0,0-2.38,2.8l3.21,38.39a5.52,5.52,0,0,0,1,8l.16.23,4.42,31.23-1.55.67a5.13,5.13,0,0,0-3,5.77l-2.09,4.72a1.87,1.87,0,0,0,.94,2.46l1.76.78a1.86,1.86,0,0,0,2.37-.8l2.52,5.84a1.87,1.87,0,0,0,2.45,1l1.76-.76a1.85,1.85,0,0,0,1-2.44,1.88,1.88,0,0,0,2.45,1l1.76-.77a1.86,1.86,0,0,1,3.42-1.47l1.76-.76a1.86,1.86,0,0,0,1-2.44,1.89,1.89,0,0,0,2.45,1l1.76-.77A1.85,1.85,0,0,0,1285,311Z"/><path class="cls-6" d="M1155.27,119.3l31.84-20.82-2-28.26,23.81-11.9s28.9,16.18,24.76-6.67c4.9-1.9,19.86-5.74,19.86-5.74C1259.31,39.71,1154.75-4.41,1155.27,119.3Z"/><path d="M819.36,272v61.9a38.66,38.66,0,0,0,38.55,38.54h25.17a38.65,38.65,0,0,0,38.54-38.54V272Z"/><path class="cls-2" d="M921.62,214.33a38.65,38.65,0,0,0-38.54-38.54H857.91a38.66,38.66,0,0,0-38.55,38.54V272H921.62Z"/><path class="cls-1" d="M922.74,114.69A9.27,9.27,0,0,1,935,105c-.06-1-.13-2-.22-2.93-3.91-40.71-36.21-70.91-72.14-67.46s-61.88,39.25-58,80,36.21,70.9,72.14,67.45c29.65-2.85,52.51-27.73,57.39-59.23a8.3,8.3,0,0,1-1.32.24A9.29,9.29,0,0,1,922.74,114.69Z"/><path class="cls-3" d="M851.41,89.76c3.44-9.18,15.66-13.07,27.31-8.7"/><path class="cls-3" d="M899.66,75.3c3.34-8.9,15.18-12.67,26.48-8.43"/><circle cx="869.01" cy="100.88" r="2.4"/><circle cx="917.74" cy="87.76" r="2.4"/><path class="cls-3" d="M890.54,132c.52,5.31,13.45,8.37,28.92,6.84"/><path class="cls-1" d="M931.1,104.55a9.29,9.29,0,1,0,1.78,18.5,8.3,8.3,0,0,0,1.32-.24A82.53,82.53,0,0,0,935,105,9.24,9.24,0,0,0,931.1,104.55Z"/><path class="cls-4" d="M874.8,455.48l-.13,3,28.63,1.23a8.8,8.8,0,0,0,6.84-2.74Z"/><path d="M912.28,452l.24-5.53a7.14,7.14,0,0,0-7-7.24L878.24,438a2.62,2.62,0,0,0-2.79,2.42l-.65,15L910.14,457A7.78,7.78,0,0,0,912.28,452Z"/><rect class="cls-1" x="878.38" y="402.17" width="7.74" height="40.94" rx="2.55" ry="2.55" transform="translate(20.37 -40.13) rotate(2.64)"/><circle class="cls-5" cx="881.87" cy="402.12" r="6.33"/><rect class="cls-1" x="854.37" y="362.48" width="8.44" height="39.58" rx="2.78" ry="2.78" transform="translate(-44.7 122.71) rotate(-7.97)"/><path class="cls-4" d="M802.71,405.6l-3,.52,4.86,28.25a8.84,8.84,0,0,0,4.13,6.12Z"/><path d="M814.08,441.51l5.46-.93a7.15,7.15,0,0,0,5.58-8.43l-4.62-26.88a2.63,2.63,0,0,0-3-2.22l-14.83,2.55,6,34.89A7.85,7.85,0,0,0,814.08,441.51Z"/><rect class="cls-1" x="836.81" y="378.96" width="7.74" height="51.5" rx="2.55" ry="2.55" transform="translate(1099.57 -491.68) rotate(80.4)"/><circle class="cls-5" cx="860.63" cy="401.61" r="6.33"/><path class="cls-1" d="M865.31,302a1.78,1.78,0,0,0,1.94-1.39l.37-1.8a1.79,1.79,0,0,0-1.38-2.1l-4.83-1a4.9,4.9,0,0,0-6.13-.9l-2.37,1.43-11-27.14a5.26,5.26,0,0,0-1.9-6.64l-8-35.9a2.48,2.48,0,0,0-3-1.88l-2.51.55a2.49,2.49,0,0,0-1.88,3l8,35.89a5.27,5.27,0,0,0,2,7.43,2.08,2.08,0,0,0,.21.21l11.55,28.45-1.19.72a4.9,4.9,0,0,0-1.66,6.7l2.61,4.32h0l3.87,6.41a1.78,1.78,0,0,0,2.44.6L854,318a1.77,1.77,0,0,1,3-1.83l1.57-.95a1.77,1.77,0,1,1,3-1.83l1.57-.95a1.78,1.78,0,0,1,3-1.84l1.57-.95a1.77,1.77,0,0,0,.6-2.43Z"/><path class="cls-1" d="M935,311l-3.1-7.2h0l-2.1-4.85a5.13,5.13,0,0,0-6.72-2.67l-2.27,1-4.2-29.71a5.43,5.43,0,0,0,.86-3.44,5.52,5.52,0,0,0-1.89-3.72L912.35,222a2.61,2.61,0,0,0-2.81-2.38l-2.68.23a2.6,2.6,0,0,0-2.38,2.8L907.69,261a5.52,5.52,0,0,0,1,8l.16.23,4.42,31.23-1.55.67a5.13,5.13,0,0,0-3,5.77l-2.09,4.72a1.87,1.87,0,0,0,.94,2.46l1.76.78a1.86,1.86,0,0,0,2.37-.8l2.52,5.84a1.87,1.87,0,0,0,2.45,1l1.76-.76a1.85,1.85,0,0,0,1-2.44,1.88,1.88,0,0,0,2.45,1l1.76-.77a1.86,1.86,0,0,1,3.42-1.47l1.76-.76a1.86,1.86,0,0,0,1-2.44,1.89,1.89,0,0,0,2.45,1l1.76-.77A1.85,1.85,0,0,0,935,311Z"/><path class="cls-6" d="M805.27,119.3l31.84-20.82-2.05-28.26,23.81-11.9s28.9,16.18,24.76-6.67c4.9-1.9,19.86-5.74,19.86-5.74C909.31,39.71,804.75-4.41,805.27,119.3Z"/><path d="M2569.36,272v61.9a38.66,38.66,0,0,0,38.55,38.54h25.17a38.65,38.65,0,0,0,38.54-38.54V272Z"/><path class="cls-2" d="M2671.62,214.33a38.65,38.65,0,0,0-38.54-38.54h-25.17a38.66,38.66,0,0,0-38.55,38.54V272h102.26Z"/><path class="cls-1" d="M2672.74,114.69A9.27,9.27,0,0,1,2685,105c-.06-1-.13-2-.22-2.93-3.91-40.71-36.21-70.91-72.14-67.46s-61.88,39.25-58,80,36.21,70.9,72.14,67.45c29.65-2.85,52.51-27.73,57.39-59.23a8.3,8.3,0,0,1-1.32.24A9.29,9.29,0,0,1,2672.74,114.69Z"/><path class="cls-3" d="M2601.41,89.76c3.44-9.18,15.66-13.07,27.31-8.7"/><path class="cls-3" d="M2649.66,75.3c3.34-8.9,15.18-12.67,26.48-8.43"/><circle cx="2619.01" cy="100.88" r="2.4"/><circle cx="2667.74" cy="87.76" r="2.4"/><path class="cls-3" d="M2640.54,132c.52,5.31,13.45,8.37,28.92,6.84"/><path class="cls-1" d="M2681.1,104.55a9.29,9.29,0,0,0,1.78,18.5,8.3,8.3,0,0,0,1.32-.24A82.53,82.53,0,0,0,2685,105,9.24,9.24,0,0,0,2681.1,104.55Z"/><path class="cls-4" d="M2650.15,452.68l.14,3,28.62-1.32a8.84,8.84,0,0,0,6.58-3.33Z"/><path d="M2687.17,445.86l-.25-5.53a7.15,7.15,0,0,0-7.66-6.58L2652,435a2.61,2.61,0,0,0-2.56,2.66l.69,15,35.34-1.62A7.87,7.87,0,0,0,2687.17,445.86Z"/><rect class="cls-1" x="2650.78" y="398.84" width="7.74" height="40.94" rx="2.55" ry="2.55" transform="translate(-15.61 114.87) rotate(-2.47)"/><circle class="cls-5" cx="2654.1" cy="398.35" r="6.33"/><path class="cls-4" d="M2522.76,397.71l-3,.52,4.86,28.25a8.84,8.84,0,0,0,4.13,6.12Z"/><path d="M2534.14,433.63l5.46-.94a7.15,7.15,0,0,0,5.58-8.43l-4.63-26.88a2.61,2.61,0,0,0-3-2.22l-14.84,2.55,6,34.89A7.91,7.91,0,0,0,2534.14,433.63Z"/><rect class="cls-1" x="2556.87" y="371.07" width="7.74" height="51.5" rx="2.55" ry="2.55" transform="translate(2525.09 -2194.24) rotate(80.4)"/><circle class="cls-5" cx="2585.2" cy="392.6" r="6.33"/><path class="cls-1" d="M2615.31,302a1.78,1.78,0,0,0,1.94-1.39l.37-1.8a1.79,1.79,0,0,0-1.38-2.1l-4.83-1a4.9,4.9,0,0,0-6.13-.9l-2.37,1.43-11-27.14a5.26,5.26,0,0,0-1.9-6.64l-8-35.9a2.48,2.48,0,0,0-3-1.88l-2.51.55a2.49,2.49,0,0,0-1.88,3l8,35.89a5.27,5.27,0,0,0,2,7.43,2.08,2.08,0,0,0,.21.21l11.55,28.45-1.19.72a4.9,4.9,0,0,0-1.66,6.7l2.61,4.32h0l3.87,6.41a1.78,1.78,0,0,0,2.44.6L2604,318a1.77,1.77,0,0,1,3-1.83l1.57-.95a1.77,1.77,0,1,1,3-1.83l1.57-.95a1.78,1.78,0,1,1,3-1.84l1.57-.95a1.76,1.76,0,0,0,.6-2.43Z"/><path class="cls-1" d="M2685,311l-3.1-7.2h0l-2.1-4.85a5.13,5.13,0,0,0-6.72-2.67l-2.27,1-4.2-29.71a5.43,5.43,0,0,0,.86-3.44,5.52,5.52,0,0,0-1.89-3.72L2662.35,222a2.61,2.61,0,0,0-2.81-2.38l-2.68.23a2.6,2.6,0,0,0-2.38,2.8l3.21,38.39a5.52,5.52,0,0,0,1,8l.16.23,4.42,31.23-1.55.67a5.13,5.13,0,0,0-3,5.77l-2.09,4.72a1.87,1.87,0,0,0,.94,2.46l1.76.78a1.86,1.86,0,0,0,2.37-.8l2.52,5.84a1.87,1.87,0,0,0,2.45,1l1.76-.76a1.85,1.85,0,0,0,1-2.44,1.88,1.88,0,0,0,2.45,1l1.76-.77a1.86,1.86,0,0,1,3.42-1.47l1.76-.76a1.86,1.86,0,0,0,1-2.44,1.89,1.89,0,0,0,2.45,1l1.76-.77A1.85,1.85,0,0,0,2685,311Z"/><path class="cls-6" d="M2555.27,119.3l31.84-20.82-2.05-28.26,23.81-11.9s28.9,16.18,24.76-6.67c4.9-1.9,19.86-5.74,19.86-5.74C2659.31,39.71,2554.75-4.41,2555.27,119.3Z"/><rect class="cls-1" x="542.29" y="358.79" width="8.44" height="40.82" rx="2.78" ry="2.78" transform="translate(-105.97 249.85) rotate(-23.54)"/><path d="M469.36,272v61.9a38.66,38.66,0,0,0,38.55,38.54h25.17a38.65,38.65,0,0,0,38.54-38.54V272Z"/><path class="cls-2" d="M571.62,214.33a38.65,38.65,0,0,0-38.54-38.54H507.91a38.66,38.66,0,0,0-38.55,38.54V272H571.62Z"/><path class="cls-1" d="M572.74,114.69A9.27,9.27,0,0,1,585,105c-.06-1-.13-2-.22-2.93-3.91-40.71-36.21-70.91-72.14-67.46s-61.88,39.25-58,80,36.21,70.9,72.14,67.45c29.65-2.85,52.51-27.73,57.39-59.23a8.3,8.3,0,0,1-1.32.24A9.29,9.29,0,0,1,572.74,114.69Z"/><path class="cls-3" d="M501.41,89.76c3.44-9.18,15.66-13.07,27.31-8.7"/><path class="cls-3" d="M549.66,75.3c3.34-8.9,15.18-12.67,26.48-8.43"/><circle cx="519.01" cy="100.88" r="2.4"/><circle cx="567.74" cy="87.76" r="2.4"/><path class="cls-3" d="M540.54,132c.52,5.31,13.45,8.37,28.92,6.84"/><path class="cls-1" d="M581.1,104.55a9.29,9.29,0,0,0,1.78,18.5,8.3,8.3,0,0,0,1.32-.24A82.53,82.53,0,0,0,585,105,9.24,9.24,0,0,0,581.1,104.55Z"/><path class="cls-4" d="M550.15,452.68l.14,3,28.62-1.32a8.84,8.84,0,0,0,6.58-3.33Z"/><path d="M587.17,445.86l-.25-5.53a7.15,7.15,0,0,0-7.66-6.58L552,435a2.61,2.61,0,0,0-2.56,2.66l.69,15,35.34-1.62A7.87,7.87,0,0,0,587.17,445.86Z"/><rect class="cls-1" x="550.78" y="398.84" width="7.74" height="40.94" rx="2.55" ry="2.55" transform="translate(-17.57 24.31) rotate(-2.47)"/><circle class="cls-5" cx="554.1" cy="398.35" r="6.33"/><rect class="cls-1" x="492.86" y="357.4" width="8.44" height="39.58" rx="2.78" ry="2.78" transform="translate(313.37 -219.14) rotate(35.69)"/><path class="cls-4" d="M422.76,397.71l-3,.52,4.86,28.25a8.84,8.84,0,0,0,4.13,6.12Z"/><path d="M434.14,433.63l5.46-.94a7.15,7.15,0,0,0,5.58-8.43l-4.63-26.88a2.61,2.61,0,0,0-2.95-2.22l-14.84,2.55,6,34.89A7.91,7.91,0,0,0,434.14,433.63Z"/><rect class="cls-1" x="456.87" y="371.07" width="7.74" height="51.5" rx="2.55" ry="2.55" transform="translate(775.19 -123.63) rotate(80.4)"/><circle class="cls-5" cx="485.2" cy="392.6" r="6.33"/><path class="cls-1" d="M515.31,302a1.78,1.78,0,0,0,1.94-1.39l.37-1.8a1.79,1.79,0,0,0-1.38-2.1l-4.83-1a4.9,4.9,0,0,0-6.13-.9l-2.37,1.43-11-27.14a5.26,5.26,0,0,0-1.9-6.64l-8-35.9a2.48,2.48,0,0,0-3-1.88l-2.51.55a2.49,2.49,0,0,0-1.88,3l8,35.89a5.27,5.27,0,0,0,2,7.43l.21.21,11.55,28.45-1.19.72a4.9,4.9,0,0,0-1.66,6.7l2.61,4.32h0l3.87,6.41a1.78,1.78,0,0,0,2.44.6L504,318a1.77,1.77,0,0,1,3-1.83l1.57-.95a1.77,1.77,0,1,1,3-1.83l1.57-.95a1.78,1.78,0,0,1,3-1.84l1.57-.95a1.77,1.77,0,0,0,.6-2.43Z"/><path class="cls-1" d="M585,311l-3.1-7.2h0l-2.1-4.85a5.13,5.13,0,0,0-6.72-2.67l-2.27,1-4.2-29.71a5.43,5.43,0,0,0,.86-3.44,5.52,5.52,0,0,0-1.89-3.72L562.35,222a2.61,2.61,0,0,0-2.81-2.38l-2.68.23a2.6,2.6,0,0,0-2.38,2.8L557.69,261a5.52,5.52,0,0,0,1,8l.16.23,4.42,31.23-1.55.67a5.13,5.13,0,0,0-3,5.77l-2.09,4.72a1.87,1.87,0,0,0,.94,2.46l1.76.78a1.86,1.86,0,0,0,2.37-.8l2.52,5.84a1.87,1.87,0,0,0,2.45,1l1.76-.76a1.85,1.85,0,0,0,1-2.44,1.88,1.88,0,0,0,2.45,1l1.76-.77a1.86,1.86,0,0,1,3.42-1.47l1.76-.76a1.86,1.86,0,0,0,1-2.44,1.89,1.89,0,0,0,2.45,1l1.76-.77A1.85,1.85,0,0,0,585,311Z"/><path class="cls-6" d="M455.27,119.3l31.84-20.82-2.05-28.26,23.81-11.9s28.9,16.18,24.76-6.67c4.9-1.9,19.86-5.74,19.86-5.74C559.31,39.71,454.75-4.41,455.27,119.3Z"/><rect class="cls-1" x="193.79" y="358.79" width="8.44" height="40.82" rx="2.78" ry="2.78" transform="translate(-134.98 110.65) rotate(-23.54)"/><path d="M119.36,272v61.9a38.66,38.66,0,0,0,38.55,38.54h25.17a38.65,38.65,0,0,0,38.54-38.54V272Z"/><path class="cls-2" d="M221.62,214.33a38.65,38.65,0,0,0-38.54-38.54H157.91a38.66,38.66,0,0,0-38.55,38.54V272H221.62Z"/><path class="cls-1" d="M222.74,114.69A9.27,9.27,0,0,1,235,105c-.06-1-.13-2-.22-2.93-3.91-40.71-36.21-70.91-72.14-67.46s-61.88,39.25-58,80,36.21,70.9,72.14,67.45c29.65-2.85,52.51-27.73,57.39-59.23a8.3,8.3,0,0,1-1.32.24A9.29,9.29,0,0,1,222.74,114.69Z"/><path class="cls-3" d="M151.41,89.76c3.44-9.18,15.66-13.07,27.31-8.7"/><path class="cls-3" d="M199.66,75.3c3.34-8.9,15.18-12.67,26.48-8.43"/><circle cx="169.01" cy="100.88" r="2.4"/><circle cx="217.74" cy="87.76" r="2.4"/><path class="cls-3" d="M190.54,132c.52,5.31,13.45,8.37,28.92,6.84"/><path class="cls-1" d="M231.1,104.55a9.29,9.29,0,0,0,1.78,18.5,8.3,8.3,0,0,0,1.32-.24A82.53,82.53,0,0,0,235,105,9.24,9.24,0,0,0,231.1,104.55Z"/><path class="cls-4" d="M221.32,448.44l1.22,2.78,26.24-11.52a8.85,8.85,0,0,0,4.94-5.48Z"/><path d="M253.42,428.76l-2.23-5.07a7.14,7.14,0,0,0-9.51-3.38l-25,11a2.62,2.62,0,0,0-1.45,3.4l6,13.77,32.4-14.22A7.87,7.87,0,0,0,253.42,428.76Z"/><rect class="cls-1" x="209.65" y="395.21" width="7.74" height="40.94" rx="2.55" ry="2.55" transform="translate(-148.26 119.88) rotate(-23.54)"/><circle class="cls-5" cx="205.47" cy="396.32" r="6.33"/><rect class="cls-1" x="142.86" y="357.4" width="8.44" height="39.58" rx="2.78" ry="2.78" transform="translate(247.65 -14.97) rotate(35.69)"/><path class="cls-4" d="M89.45,435l-2,2.23,21.08,19.44a8.86,8.86,0,0,0,7,2.33Z"/><path d="M120.36,456.52l3.76-4.07a7.16,7.16,0,0,0-.71-10.08l-20.06-18.49a2.61,2.61,0,0,0-3.69.05L89.45,435l26,24A7.83,7.83,0,0,0,120.36,456.52Z"/><rect class="cls-1" x="115.14" y="385.38" width="7.74" height="51.5" rx="2.55" ry="2.55" transform="translate(311.25 28.73) rotate(42.83)"/><circle class="cls-5" cx="135.82" cy="392.87" r="6.33"/><path class="cls-1" d="M165.31,302a1.78,1.78,0,0,0,1.94-1.39l.37-1.8a1.79,1.79,0,0,0-1.38-2.1l-4.83-1a4.9,4.9,0,0,0-6.13-.9l-2.37,1.43-11-27.14a5.26,5.26,0,0,0-1.9-6.64l-8-35.9a2.48,2.48,0,0,0-3-1.88l-2.51.55a2.49,2.49,0,0,0-1.88,3l8,35.89a5.27,5.27,0,0,0,2,7.43l.21.21,11.55,28.45-1.19.72a4.9,4.9,0,0,0-1.66,6.7l2.61,4.32h0l3.87,6.41a1.78,1.78,0,0,0,2.44.6L154,318a1.78,1.78,0,0,0,.6-2.43,1.79,1.79,0,0,0,2.44.6l1.57-.95a1.79,1.79,0,0,0,.6-2.44,1.78,1.78,0,0,0,2.44.61l1.57-.95a1.78,1.78,0,0,0,.6-2.44,1.77,1.77,0,0,0,2.44.6l1.57-.95a1.77,1.77,0,0,0,.6-2.43Z"/><path class="cls-1" d="M235,311l-3.1-7.2h0l-2.1-4.85a5.13,5.13,0,0,0-6.72-2.67l-2.27,1-4.2-29.71a5.43,5.43,0,0,0,.86-3.44,5.52,5.52,0,0,0-1.89-3.72L212.35,222a2.61,2.61,0,0,0-2.81-2.38l-2.68.23a2.6,2.6,0,0,0-2.38,2.8L207.69,261a5.52,5.52,0,0,0,1,8l.16.23,4.42,31.23-1.55.67a5.13,5.13,0,0,0-3,5.77l-2.09,4.72a1.87,1.87,0,0,0,.94,2.46l1.76.78a1.86,1.86,0,0,0,2.37-.8l2.52,5.84a1.87,1.87,0,0,0,2.45,1l1.76-.76a1.85,1.85,0,0,0,1-2.44,1.88,1.88,0,0,0,2.45,1l1.76-.77a1.85,1.85,0,0,0,1-2.44,1.87,1.87,0,0,0,2.45,1l1.76-.76a1.86,1.86,0,0,0,1-2.44,1.89,1.89,0,0,0,2.45,1l1.76-.77A1.85,1.85,0,0,0,235,311Z"/><path class="cls-6" d="M105.27,119.3l31.84-20.82-2.05-28.26,23.81-11.9s28.9,16.18,24.76-6.67c4.9-1.9,19.86-5.74,19.86-5.74C209.31,39.71,104.75-4.41,105.27,119.3Z"/><rect class="cls-1" x="2642.29" y="358.79" width="8.44" height="40.82" rx="2.78" ry="2.78" transform="translate(68.82 1088.64) rotate(-23.54)"/><rect class="cls-1" x="2979.07" y="361.17" width="8.44" height="40.82" rx="2.78" ry="2.78" transform="translate(15.31 -104.95) rotate(2.02)"/><rect class="cls-1" x="3313.15" y="359.03" width="8.44" height="40.82" rx="2.78" ry="2.78" transform="translate(15.44 -116.73) rotate(2.02)"/><rect class="cls-1" x="3663.15" y="359.03" width="8.44" height="40.82" rx="2.78" ry="2.78" transform="translate(15.66 -129.07) rotate(2.02)"/><rect class="cls-1" x="4006.7" y="354.54" width="8.44" height="40.82" rx="2.78" ry="2.78" transform="translate(66.59 -443.81) rotate(6.39)"/><rect class="cls-1" x="4351.5" y="346.77" width="8.44" height="40.82" rx="2.78" ry="2.78" transform="translate(286.95 -1230.39) rotate(16.62)"/></svg>
