<svg id="Layer_1" data-name="Layer 1" xmlns="http://www.w3.org/2000/svg" viewBox="0 0 4200 500"><defs><style>.cls-1{fill:#6d6c6b;}.cls-2{fill:#7f7d7c;}.cls-3{fill:#f9dec5;}.cls-4{fill:#f9e4d2;}.cls-5{fill:#4f514f;}.cls-6{fill:#8d8d8e;}.cls-7,.cls-9{fill:none;stroke:#000;stroke-miterlimit:10;}.cls-8{fill:#f9c5cd;opacity:0.49;}.cls-9{stroke-width:2px;}.cls-10{fill:#9e9d9d;}</style></defs><title>Artboard 37</title><path class="cls-1" d="M3585.77,457.91l-3,.52,4.95,28.74a9,9,0,0,0,4.2,6.22Z"/><path class="cls-2" d="M3597.35,494.43l5.55-.95a7.28,7.28,0,0,0,5.68-8.57l-4.72-27.34a2.66,2.66,0,0,0-3-2.26l-15.09,2.6,6.11,35.48A8,8,0,0,0,3597.35,494.43Z"/><rect class="cls-3" x="3648.6" y="420.09" width="8.59" height="41.55" rx="3.15" ry="3.15" transform="translate(1100.87 -2209.64) rotate(39.2)"/><rect class="cls-3" x="3613.82" y="440.26" width="8.87" height="42.38" rx="2.89" ry="2.89" transform="translate(3719.59 -3184.71) rotate(84.32)"/><circle class="cls-4" cx="3638.33" cy="458.45" r="6.45"/><path class="cls-5" d="M3733.3,356.55,3671,366a39.33,39.33,0,0,0-32.93,44.64l3.83,25.34a39.35,39.35,0,0,0,44.65,32.92l62.29-9.41Z"/><path class="cls-6" d="M3806.88,450.68A39.34,39.34,0,0,0,3839.81,406L3836,380.7a39.35,39.35,0,0,0-44.65-32.92l-58,8.77,15.55,102.91Z"/><path class="cls-3" d="M3907.32,436.65a9.47,9.47,0,0,1,11.48,6.87,9.35,9.35,0,0,1,.12,4c1-.21,1.94-.43,2.91-.67,40.37-10.13,65.85-47.22,56.91-82.85s-48.9-56.3-89.27-46.17-65.85,47.22-56.91,82.85c7.37,29.4,35.89,48.62,68.33,48.74a9.33,9.33,0,0,1-.44-1.29A9.47,9.47,0,0,1,3907.32,436.65Z"/><path class="cls-7" d="M3921.56,361.08c9.76,2.07,15.53,13.77,12.91,26.16"/><path class="cls-7" d="M3943.45,407.44c9.46,2,15.06,13.35,12.51,25.37"/><circle cx="3913.05" cy="380.48" r="2.44"/><circle cx="3933.66" cy="427.53" r="2.44"/><path class="cls-7" d="M3890,435.75c4-3.71-1.59-16.05-12.41-27.59"/><circle class="cls-8" cx="3879.67" cy="369.04" r="10.68"/><path class="cls-3" d="M3918.8,443.52a9.46,9.46,0,1,0-18.35,4.61,9.33,9.33,0,0,0,.44,1.29,84.13,84.13,0,0,0,18-1.9A9.35,9.35,0,0,0,3918.8,443.52Z"/><path class="cls-8" d="M3919.39,443.37A9.46,9.46,0,0,0,3901,448a10.87,10.87,0,0,0,.44,1.29,84.06,84.06,0,0,0,18-1.9A9.35,9.35,0,0,0,3919.39,443.37Z"/><path class="cls-9" d="M3969.82,377.59c14.55-2.91,24.93-12.22,23.22-20.82"/><path class="cls-9" d="M3965.94,370.44c16.49-3.53,27.84-15.72,25.37-27.26"/><path class="cls-9" d="M3962.29,365c17-6.86,27.86-19.43,24.36-28.09"/><path class="cls-9" d="M3969.26,384.8c15.16.58,27.71-6,28-14.81"/><path class="cls-9" d="M3971.52,393c10.29,1.42,19.29-2.35,20.13-8.44"/><path class="cls-9" d="M3961.76,357.05c10-2.63,16.92-9.57,15.37-15.5"/><path class="cls-9" d="M3957.6,351.81c13.9-5.19,22.66-16.05,19.59-24.26"/><path class="cls-3" d="M3738.63,387.06a6.19,6.19,0,0,1-.27-2c.12-1.68.54-2.89,2.63-3.17,14.76-2,30.41-3.27,45.21-4.76,2.11-.22,2.64.88,3.11,2.45a6,6,0,0,1,.17,2c-.19,1.63-.56,2.89-2.65,3.11-14.68,1.61-30.18,2.86-44.84,4.69C3739.9,389.66,3739.18,388.66,3738.63,387.06Z"/><path class="cls-3" d="M3707.4,409.43a6.15,6.15,0,0,1-1.13-1.67c-.63-1.53-.89-2.77.85-3.95,10.34-7,21.52-14.25,32.31-20.57,1.82-1.07,2.91-.39,4.05.85a6.28,6.28,0,0,1,1,1.74c.56,1.58.64,2.82-1.15,3.89-10.64,6.38-21.69,13.51-32,20.4C3709.64,411.28,3708.58,410.59,3707.4,409.43Z"/><path class="cls-4" d="M3744.75,390.53a5.28,5.28,0,1,1,4.85-5.93A5.31,5.31,0,0,1,3744.75,390.53Z"/><path class="cls-3" d="M3697.69,416.88a5.79,5.79,0,0,1-1-1.05,2,2,0,0,1,.13-2.85c1.68-1.62,3.82-3.62,5.57-5.18a2,2,0,0,1,2.88.05,7,7,0,0,1,1,1,2,2,0,0,1-.14,2.87c-1.68,1.63-3.83,3.62-5.58,5.17A2,2,0,0,1,3697.69,416.88Z"/><path class="cls-3" d="M3693.92,412.89a7.56,7.56,0,0,1-1-1.05,2,2,0,0,1,.14-2.85c1.68-1.63,3.82-3.62,5.57-5.18a2,2,0,0,1,2.88,0,6.62,6.62,0,0,1,1,1.06,2,2,0,0,1-.14,2.86c-1.68,1.63-3.83,3.62-5.58,5.18A2,2,0,0,1,3693.92,412.89Z"/><path class="cls-3" d="M3701.45,420.87a5.79,5.79,0,0,1-1-1.05,1.93,1.93,0,0,1,.13-2.84c1.68-1.63,3.82-3.62,5.57-5.18a2,2,0,0,1,2.88.05,6.56,6.56,0,0,1,1,1.06,2,2,0,0,1-.14,2.86c-1.68,1.63-3.82,3.62-5.57,5.17A2,2,0,0,1,3701.45,420.87Z"/><path class="cls-3" d="M3705.21,424.87a6.53,6.53,0,0,1-1-1.05,2,2,0,0,1,.13-2.85c1.67-1.62,3.81-3.61,5.56-5.17a2,2,0,0,1,2.87.06,6.58,6.58,0,0,1,1,1.05,2,2,0,0,1-.13,2.85c-1.68,1.62-3.82,3.61-5.56,5.17A2,2,0,0,1,3705.21,424.87Z"/><path class="cls-3" d="M3714.48,413.29a5.94,5.94,0,0,1,1.46,0c1.18.15,2,.65,2,2s.06,3.69,0,5.07-.83,1.89-2,2.07a5.86,5.86,0,0,1-1.45,0c-1.18-.16-2-.64-2-2s-.07-3.68,0-5.07S3713.31,413.48,3714.48,413.29Z"/><path class="cls-3" d="M3706.06,419.18c-2.26-2.19-5.3-5.42-7.35-7.81-2.3-2.67-1.88-5.36.25-7.84a23,23,0,0,1,2.94-2.73c2.63-1.95,5.41-2.23,7.95.21,2.28,2.2,5.25,5.46,7.31,7.86,2.3,2.67,1.82,5.4-.31,7.87a21.49,21.49,0,0,1-2.92,2.72C3711.31,421.4,3708.59,421.64,3706.06,419.18Z"/><path class="cls-3" d="M3755.06,452.07a4.63,4.63,0,0,1-.36-2.05c.15-1.82.36-3,2.45-3.49,14.72-3.15,29.94-5.48,44.8-7.82,2.11-.33,2.68.68,3.39,2.36a4.74,4.74,0,0,1,.29,2.08c-.22,1.82-.5,3-2.6,3.38-14.72,2.61-29.86,4.79-44.5,7.76C3756.44,454.72,3755.84,453.71,3755.06,452.07Z"/><path class="cls-3" d="M3721.15,468.69a4.82,4.82,0,0,1-.79-1.93c-.24-1.82-.27-3,1.67-3.88,11.52-5.22,23.28-10.81,34.92-15.74,2-.83,2.75,0,3.82,1.5a4.7,4.7,0,0,1,.77,1.93c.2,1.82.21,3-1.73,3.9-11.51,5.12-23.21,10.74-34.78,15.72C3723.07,471,3722.25,470.13,3721.15,468.69Z"/><path class="cls-4" d="M3761.28,455.22A5.06,5.06,0,0,1,3755,451a5.49,5.49,0,0,1,4.41-6.5,5.06,5.06,0,0,1,6.29,4.23A5.55,5.55,0,0,1,3761.28,455.22Z"/><path class="cls-3" d="M3713.9,479.1a4.09,4.09,0,0,0,.92,1.18c1,.82,1.81,1.16,3,.32,2-1.46,4.27-3.23,6.17-4.84,1.1-.94,1-1.81.4-3a4.09,4.09,0,0,0-.92-1.18c-1-.83-1.8-1.17-3-.31-2,1.49-4.26,3.26-6.17,4.85C3713.21,477.08,3713.34,477.94,3713.9,479.1Z"/><path class="cls-3" d="M3717.44,483.63a4,4,0,0,0,.92,1.17c1,.82,1.8,1.17,3,.32,2-1.46,4.27-3.23,6.17-4.85,1.1-.93,1-1.8.41-3a4.18,4.18,0,0,0-.92-1.17c-1-.82-1.8-1.16-3-.31-2,1.47-4.26,3.24-6.17,4.84C3716.75,481.6,3716.88,482.47,3717.44,483.63Z"/><path class="cls-3" d="M3710.36,474.58a4,4,0,0,0,.92,1.17c1,.83,1.81,1.17,3,.33,2-1.45,4.28-3.22,6.17-4.85,1.1-.94,1-1.82.43-3a3.85,3.85,0,0,0-.91-1.17c-1-.82-1.81-1.13-3-.28-2,1.48-4.29,3.24-6.21,4.84C3709.67,472.55,3709.8,473.42,3710.36,474.58Z"/><path class="cls-3" d="M3706.82,470.05a4,4,0,0,0,.92,1.18c1,.82,1.8,1.16,3,.32,2-1.45,4.3-3.21,6.2-4.83,1.1-.93,1-1.81.41-3a3.88,3.88,0,0,0-.92-1.17c-1-.82-1.81-1.16-3-.31-2,1.46-4.28,3.23-6.2,4.83C3706.12,468,3706.26,468.89,3706.82,470.05Z"/><path class="cls-3" d="M3720.24,462.39a3.93,3.93,0,0,0,.24-1.48c-.09-1.32-.36-2.06-1.83-2.38s-3.65-.67-5.15-.82-2,.49-2.49,1.72a3.85,3.85,0,0,0-.24,1.47c.08,1.32.35,2.08,1.82,2.41a45,45,0,0,0,5.16.82C3719.25,464.26,3719.75,463.62,3720.24,462.39Z"/><path class="cls-3" d="M3712.92,470.14a81.43,81.43,0,0,0,6.85,8.75c2.54,2.78,5,2.71,8.1,1.06a13.32,13.32,0,0,0,3.21-2.54c2.36-2.67,3-5.08.88-8.23a82.08,82.08,0,0,0-6.78-8.75c-2.55-2.79-5-2.63-8.12-1a13.84,13.84,0,0,0-3.22,2.53C3711.48,464.63,3710.82,467,3712.92,470.14Z"/><rect class="cls-3" x="3634.66" y="402.2" width="8.59" height="40.29" rx="3.15" ry="3.15" transform="translate(323.9 -1136.75) rotate(18.57)"/><path class="cls-2" d="M3575.43,416.68l-2.92-1-9.65,27.54a9,9,0,0,0,.64,7.48Z"/><path class="cls-10" d="M3567.77,454.25l5.32,1.87a7.28,7.28,0,0,0,9.13-4.73l9.19-26.2a2.66,2.66,0,0,0-1.53-3.44l-14.45-5.07-11.93,34A8,8,0,0,0,3567.77,454.25Z"/><rect class="cls-3" x="3605.7" y="408.47" width="7.88" height="52.41" rx="2.89" ry="2.89" transform="translate(5223.83 -2823.06) rotate(109.49)"/><circle class="cls-4" cx="3632.7" cy="440.96" r="6.45"/><path class="cls-1" d="M2873.59,461.52l-2.53,1.76,16.72,23.9a9,9,0,0,0,6.45,3.84Z"/><path class="cls-2" d="M2899.61,489.64l4.62-3.23a7.27,7.27,0,0,0,1.49-10.17l-15.9-22.74a2.66,2.66,0,0,0-3.68-.76l-12.55,8.78,20.64,29.5A7.92,7.92,0,0,0,2899.61,489.64Z"/><rect class="cls-3" x="2931.09" y="401.05" width="8.59" height="41.55" rx="3.15" ry="3.15" transform="translate(927.33 -1760.42) rotate(39.2)"/><rect class="cls-3" x="2900.61" y="429.45" width="7.88" height="41.67" rx="2.89" ry="2.89" transform="translate(1801.13 -2273.99) rotate(59.14)"/><circle class="cls-4" cx="2920.83" cy="439.41" r="6.45"/><path class="cls-5" d="M3013.29,330.89l-59.81,19.78a39.35,39.35,0,0,0-24.93,49.56l8,24.33a39.35,39.35,0,0,0,49.56,24.93L3046,429.71Z"/><path class="cls-6" d="M3101.69,411.28a39.35,39.35,0,0,0,24.93-49.56l-8-24.32A39.34,39.34,0,0,0,3069,312.47l-55.72,18.42L3046,429.71Z"/><path class="cls-3" d="M3198.33,380.52a9.43,9.43,0,0,1,13.26,8.76c.92-.37,1.84-.75,2.76-1.15,38.08-16.79,57-57.64,42.13-91.26s-57.7-47.25-95.78-30.46-56.95,57.64-42.13,91.25c12.22,27.74,43.57,41.88,75.56,36.53a9.81,9.81,0,0,1-.64-1.2A9.46,9.46,0,0,1,3198.33,380.52Z"/><path class="cls-7" d="M3199.62,303.63c10,.4,17.64,11,17.13,23.61"/><path class="cls-7" d="M3229,345.64c9.67.38,17.1,10.62,16.61,22.89"/><circle cx="3194.5" cy="324.19" r="2.44"/><circle cx="3222.75" cy="367.09" r="2.44"/><circle class="cls-8" cx="3159.67" cy="318.54" r="10.68"/><path class="cls-3" d="M3210.8,385.36a9.46,9.46,0,0,0-17.31,7.63,9.81,9.81,0,0,0,.64,1.2,83.84,83.84,0,0,0,17.46-4.91A9.38,9.38,0,0,0,3210.8,385.36Z"/><path class="cls-8" d="M3211.35,385.11a9.46,9.46,0,0,0-17.31,7.63,9.17,9.17,0,0,0,.65,1.2,84.59,84.59,0,0,0,17.46-4.9A9.26,9.26,0,0,0,3211.35,385.11Z"/><path class="cls-9" d="M3250,311.77c13.86-5.32,22.52-16.24,19.38-24.43"/><path class="cls-9" d="M3244.94,305.38c15.66-6.26,24.79-20.19,20.42-31.15"/><path class="cls-9" d="M3240.43,300.6c15.57-9.62,24.19-23.85,19.27-31.8"/><path class="cls-9" d="M3250.63,319c15-2,26.3-10.62,25.15-19.32"/><path class="cls-9" d="M3254.25,326.7c10.38-.34,18.62-5.57,18.43-11.71"/><path class="cls-9" d="M3238.57,292.88c9.46-4.28,15.07-12.28,12.53-17.87"/><path class="cls-9" d="M3233.59,288.42c12.82-7.46,19.63-19.64,15.22-27.22"/><path class="cls-3" d="M3030.05,374.76a6.36,6.36,0,0,1-1.25-1.58c-.76-1.51-1-2.75.63-4.07,11.66-9.28,24.44-18.39,36.38-27.26,1.7-1.26,2.72-.59,3.94.52a6,6,0,0,1,1.17,1.64c.67,1.5,1,2.76-.67,4-11.79,8.91-24.46,17.92-36.11,27C3032.48,376.35,3031.35,375.85,3030.05,374.76Z"/><path class="cls-3" d="M3020.23,411.87a6.19,6.19,0,0,1-1.91-.66c-1.42-.85-2.36-1.69-1.67-3.68,4.08-11.82,8.73-24.28,13.61-35.8.82-1.94,2.1-2.05,3.76-1.73a6.11,6.11,0,0,1,1.87.77c1.4.93,2.2,1.87,1.4,3.81-4.72,11.46-9.32,23.79-13.46,35.46C3023.13,412,3021.87,412.1,3020.23,411.87Z"/><path class="cls-4" d="M3037.08,374.6a5.27,5.27,0,1,1,1.13-7.57A5.31,5.31,0,0,1,3037.08,374.6Z"/><path class="cls-3" d="M3016.89,423.65a6.22,6.22,0,0,1-1.42-.25,2,2,0,0,1-1.6-2.36c.38-2.31.91-5.19,1.38-7.48a2,2,0,0,1,2.33-1.69,6.32,6.32,0,0,1,1.43.26,2,2,0,0,1,1.59,2.38c-.37,2.31-.9,5.19-1.37,7.48A2,2,0,0,1,3016.89,423.65Z"/><path class="cls-3" d="M3011.49,422.69a6.22,6.22,0,0,1-1.42-.25,1.94,1.94,0,0,1-1.6-2.36c.37-2.31.91-5.19,1.37-7.48a2,2,0,0,1,2.34-1.69,6.23,6.23,0,0,1,1.42.26,2,2,0,0,1,1.6,2.38c-.37,2.31-.9,5.19-1.37,7.48A2,2,0,0,1,3011.49,422.69Z"/><path class="cls-3" d="M3022.29,424.6a6.22,6.22,0,0,1-1.42-.25,1.94,1.94,0,0,1-1.59-2.35c.37-2.31.9-5.19,1.37-7.48a2,2,0,0,1,2.34-1.69,6.83,6.83,0,0,1,1.42.26,2,2,0,0,1,1.59,2.38c-.37,2.31-.9,5.18-1.37,7.47A2,2,0,0,1,3022.29,424.6Z"/><path class="cls-3" d="M3027.7,425.56a6.3,6.3,0,0,1-1.43-.25,2,2,0,0,1-1.59-2.36c.37-2.31.9-5.18,1.37-7.47a2,2,0,0,1,2.33-1.67,6.82,6.82,0,0,1,1.42.25,2,2,0,0,1,1.6,2.36c-.37,2.31-.9,5.19-1.37,7.47A2,2,0,0,1,3027.7,425.56Z"/><path class="cls-3" d="M3028.22,410.74a5.8,5.8,0,0,1,1.15-.89,1.94,1.94,0,0,1,2.83.44c.86,1.09,2.25,2.93,3,4.07a2,2,0,0,1-.37,2.85,5.75,5.75,0,0,1-1.15.88,2,2,0,0,1-2.84-.41c-.87-1.08-2.25-2.92-3-4.06A2,2,0,0,1,3028.22,410.74Z"/><path class="cls-3" d="M3025,420.49c-3.12-.41-7.49-1.18-10.56-1.87-3.44-.77-4.71-3.17-4.48-6.43a22.13,22.13,0,0,1,.72-3.95c.94-3.14,3-5,6.51-4.58,3.14.39,7.47,1.24,10.55,1.93,3.44.77,4.69,3.25,4.46,6.49a22.84,22.84,0,0,1-.72,3.93C3030.52,419.14,3028.47,421,3025,420.49Z"/><path class="cls-3" d="M3059.6,433.55a4.5,4.5,0,0,1-1.41-1.53c-.85-1.61-1.33-2.76.19-4.26,10.71-10.57,22.29-20.73,33.56-30.69,1.6-1.42,2.62-.87,4.13.16a4.88,4.88,0,0,1,1.36,1.6c.79,1.66,1.2,2.81-.37,4.25-11,10.12-22.6,20.1-33.34,30.49C3062.19,435,3061.14,434.52,3059.6,433.55Z"/><path class="cls-3" d="M3058.5,471.77a4.67,4.67,0,0,1-2.05-.34c-1.68-.76-2.7-1.35-2.42-3.46,1.63-12.54,3.07-25.48,5-38,.33-2.11,1.48-2.32,3.29-2.46a4.66,4.66,0,0,1,2,.36c1.65.78,2.69,1.42,2.4,3.53-1.7,12.48-3.09,25.38-4.95,37.84C3061.51,471.37,3060.3,471.6,3058.5,471.77Z"/><path class="cls-4" d="M3066.53,432.86a5,5,0,0,1-7.54-.16,5.5,5.5,0,0,1,.22-7.86,5.07,5.07,0,0,1,7.58.18A5.56,5.56,0,0,1,3066.53,432.86Z"/><path class="cls-3" d="M3063.54,483.42a4,4,0,0,0,1.49-.16c1.22-.41,1.94-.92,1.84-2.36-.18-2.49-.5-5.34-.87-7.8-.21-1.43-1-1.77-2.32-1.9a3.9,3.9,0,0,0-1.48.16c-1.23.41-1.94.91-1.82,2.35.21,2.49.52,5.34.87,7.8C3061.45,482.94,3062.26,483.29,3063.54,483.42Z"/><path class="cls-3" d="M3069.25,482.8a4.12,4.12,0,0,0,1.48-.17c1.22-.41,1.94-.92,1.84-2.36-.18-2.48-.5-5.33-.87-7.8-.21-1.42-1-1.77-2.31-1.9a4.14,4.14,0,0,0-1.48.16c-1.22.41-1.93.92-1.82,2.36.19,2.48.52,5.33.87,7.8C3067.16,482.31,3068,482.66,3069.25,482.8Z"/><path class="cls-3" d="M3057.83,484.05a3.9,3.9,0,0,0,1.48-.16c1.23-.41,2-.92,1.85-2.37-.17-2.48-.48-5.33-.87-7.8-.23-1.42-1-1.78-2.32-1.93a4.05,4.05,0,0,0-1.47.15c-1.23.42-1.92.95-1.8,2.39.19,2.48.49,5.34.84,7.81C3055.74,483.57,3056.55,483.92,3057.83,484.05Z"/><path class="cls-3" d="M3052.12,484.68a4.11,4.11,0,0,0,1.48-.16c1.22-.41,1.94-.92,1.85-2.37-.17-2.49-.47-5.35-.85-7.81-.21-1.43-1-1.79-2.3-1.92a4.09,4.09,0,0,0-1.48.17c-1.22.41-1.94.93-1.84,2.37.19,2.48.49,5.34.85,7.81C3050,484.2,3050.84,484.55,3052.12,484.68Z"/><path class="cls-3" d="M3052.67,469.23a4.08,4.08,0,0,0-1.13-1c-1.17-.62-1.94-.78-3,.3a51.07,51.07,0,0,0-3.41,3.95c-.92,1.2-.64,1.95.14,3a3.94,3.94,0,0,0,1.13,1c1.17.62,1.95.8,3-.28a44.55,44.55,0,0,0,3.42-4C3053.74,471.06,3053.45,470.3,3052.67,469.23Z"/><path class="cls-3" d="M3055.41,479.54a81.76,81.76,0,0,0,11-1.22c3.71-.69,4.93-2.81,5.16-6.33a13.34,13.34,0,0,0-.46-4.07c-1-3.4-2.76-5.21-6.54-5.07a79.52,79.52,0,0,0-11,1.16c-3.72.69-4.88,2.86-5.1,6.38a13.71,13.71,0,0,0,.45,4.08C3050,477.86,3051.63,479.67,3055.41,479.54Z"/><rect class="cls-3" x="2921.86" y="380.59" width="8.59" height="40.29" rx="3.15" ry="3.15" transform="translate(279.92 -910.9) rotate(18.57)"/><path class="cls-2" d="M2862.63,395.08l-2.92-1-9.65,27.53a9,9,0,0,0,.64,7.48Z"/><path class="cls-10" d="M2855,432.64l5.32,1.87a7.27,7.27,0,0,0,9.13-4.73l9.19-26.2a2.65,2.65,0,0,0-1.53-3.43l-14.45-5.07-11.93,34A8,8,0,0,0,2855,432.64Z"/><rect class="cls-3" x="2892.9" y="386.86" width="7.88" height="52.41" rx="2.89" ry="2.89" transform="translate(4252.83 -2179.92) rotate(109.49)"/><circle class="cls-4" cx="2919.91" cy="419.35" r="6.45"/><path class="cls-1" d="M2188.25,469.12l-1.77,2.52,23.86,16.77a9,9,0,0,0,7.37,1.41Z"/><path class="cls-2" d="M2222.3,486.69l3.24-4.61a7.27,7.27,0,0,0-2.06-10.07l-22.7-15.95a2.66,2.66,0,0,0-3.72.53l-8.81,12.53,29.46,20.7A7.93,7.93,0,0,0,2222.3,486.69Z"/><rect class="cls-3" x="2237.56" y="393.34" width="8.59" height="41.55" rx="3.15" ry="3.15" transform="translate(766.36 -1323.79) rotate(39.2)"/><rect class="cls-3" x="2209.59" y="427.17" width="7.88" height="41.67" rx="2.89" ry="2.89" transform="translate(781.4 -1298.26) rotate(39.2)"/><circle class="cls-4" cx="2227.29" cy="431.7" r="6.45"/><path class="cls-5" d="M2292.35,292.06l-56.9,27a39.35,39.35,0,0,0-18.6,52.27l11,23.14a39.34,39.34,0,0,0,52.27,18.6l56.9-27Z"/><path class="cls-6" d="M2390,360.87a39.34,39.34,0,0,0,18.6-52.27l-11-23.14a39.33,39.33,0,0,0-52.26-18.59l-53,25.19,44.67,94Z"/><path class="cls-3" d="M2482.11,318.36a9.45,9.45,0,0,1,14.25,7.05c.86-.48,1.73-1,2.59-1.48,35.71-21.38,49.36-64.26,30.5-95.78s-63.11-39.73-98.82-18.36-49.37,64.26-30.5,95.78c15.57,26,48.43,36.15,79.51,26.88a10.06,10.06,0,0,1-.79-1.11A9.46,9.46,0,0,1,2482.11,318.36Z"/><path class="cls-7" d="M2473.86,241.91c9.95-.84,18.86,8.68,19.93,21.3"/><path class="cls-7" d="M2508.23,280c9.64-.82,18.28,8.42,19.32,20.66"/><circle cx="2471.33" cy="262.94" r="2.44"/><circle cx="2504.67" cy="302.01" r="2.44"/><circle class="cls-8" cx="2436.07" cy="261.65" r="10.68"/><path class="cls-3" d="M2495.08,321.62a9.46,9.46,0,1,0-16.23,9.72,10.06,10.06,0,0,0,.79,1.11,84.25,84.25,0,0,0,16.72-7A9.43,9.43,0,0,0,2495.08,321.62Z"/><path class="cls-8" d="M2495.6,321.31a9.46,9.46,0,0,0-16.23,9.71,9.07,9.07,0,0,0,.8,1.12,85,85,0,0,0,16.71-7A9.43,9.43,0,0,0,2495.6,321.31Z"/><path class="cls-9" d="M2524.83,243.75c13.09-7,20.34-18.92,16.2-26.65"/><path class="cls-9" d="M2519.05,238c14.77-8.14,22.1-23.1,16.4-33.44"/><path class="cls-9" d="M2514,233.85c14.26-11.48,21.05-26.67,15.18-33.95"/><path class="cls-9" d="M2526.38,250.8c14.69-3.83,24.78-13.8,22.56-22.28"/><path class="cls-9" d="M2530.93,258c10.26-1.62,17.79-7.84,16.83-13.9"/><path class="cls-9" d="M2511.18,226.42c8.85-5.43,13.43-14.06,10.22-19.29"/><path class="cls-9" d="M2505.68,222.61c11.8-9,17.05-21.92,11.73-28.9"/><path class="cls-3" d="M2306.28,319.72a6.1,6.1,0,0,1-.83-1.84c-.38-1.64-.33-2.92,1.6-3.8,13.55-6.17,28.15-11.92,41.89-17.64,2-.81,2.78.08,3.69,1.45a6.49,6.49,0,0,1,.75,1.88c.28,1.62.3,2.93-1.64,3.75-13.59,5.79-28.06,11.47-41.57,17.47C2308.25,321.84,2307.27,321.09,2306.28,319.72Z"/><path class="cls-3" d="M2276.14,342.53a6.38,6.38,0,0,1-1.23-1.6c-.72-1.49-1-2.71.63-4,9.92-7.6,20.67-15.44,31.09-22.36,1.76-1.17,2.89-.56,4.1.63a6.31,6.31,0,0,1,1.13,1.67c.65,1.55.8,2.78-.93,3.95-10.25,7-20.89,14.71-30.78,22.17C2278.48,344.25,2277.38,343.62,2276.14,342.53Z"/><path class="cls-4" d="M2313.14,321.26a5.27,5.27,0,1,1,2.93-7.07A5.3,5.3,0,0,1,2313.14,321.26Z"/><path class="cls-3" d="M2266.86,350.52a6.58,6.58,0,0,1-1.05-1,2,2,0,0,1,0-2.85c1.59-1.72,3.62-3.83,5.27-5.49a2,2,0,0,1,2.88-.12,6.62,6.62,0,0,1,1.05,1,2,2,0,0,1,0,2.87c-1.59,1.72-3.62,3.83-5.28,5.48A2,2,0,0,1,2266.86,350.52Z"/><path class="cls-3" d="M2262.88,346.74a6.16,6.16,0,0,1-1.05-1,2,2,0,0,1,0-2.85c1.58-1.72,3.62-3.83,5.27-5.49a2,2,0,0,1,2.88-.11,6.14,6.14,0,0,1,1.05,1,2,2,0,0,1,0,2.87c-1.59,1.72-3.62,3.83-5.28,5.48A2,2,0,0,1,2262.88,346.74Z"/><path class="cls-3" d="M2270.84,354.29a6.16,6.16,0,0,1-1.05-1,2,2,0,0,1,0-2.85c1.58-1.72,3.62-3.82,5.27-5.48a2,2,0,0,1,2.88-.11,5.79,5.79,0,0,1,1,1,2,2,0,0,1,0,2.86c-1.58,1.72-3.61,3.83-5.26,5.47A2,2,0,0,1,2270.84,354.29Z"/><path class="cls-3" d="M2274.82,358.07a6.22,6.22,0,0,1-1.05-1,2,2,0,0,1,0-2.84c1.58-1.72,3.61-3.83,5.26-5.48a2,2,0,0,1,2.87-.1,5.79,5.79,0,0,1,1.05,1,2,2,0,0,1,0,2.85c-1.58,1.72-3.61,3.83-5.26,5.48A2,2,0,0,1,2274.82,358.07Z"/><path class="cls-3" d="M2283.43,346a5.87,5.87,0,0,1,1.45-.1c1.19.09,2,.53,2.12,1.92s.26,3.68.29,5.07-.72,1.93-1.88,2.18a6.44,6.44,0,0,1-1.45.1c-1.18-.1-2-.53-2.13-1.91s-.28-3.67-.31-5.06S2282.26,346.24,2283.43,346Z"/><path class="cls-3" d="M2275.35,352.34c-2.38-2.06-5.6-5.11-7.78-7.38-2.45-2.54-2.18-5.25-.19-7.84a21.75,21.75,0,0,1,2.78-2.9c2.51-2.09,5.27-2.53,8-.23,2.4,2.06,5.55,5.15,7.74,7.43,2.45,2.54,2.12,5.29.14,7.87a22.19,22.19,0,0,1-2.77,2.88C2280.71,354.26,2278,354.65,2275.35,352.34Z"/><path class="cls-3" d="M2373.37,387a4.75,4.75,0,0,1-2,.46c-1.82-.07-3.06-.22-3.6-2.29-3.84-14.55-6.89-29.64-9.93-44.37-.44-2.1.55-2.71,2.19-3.5a4.73,4.73,0,0,1,2.06-.39c1.84.14,3,.36,3.51,2.43,3.3,14.59,6.19,29.6,9.86,44.09C2376,385.49,2375,386.15,2373.37,387Z"/><path class="cls-3" d="M2386.35,422.84a4.67,4.67,0,0,1-2,.61c-1.83.08-3,0-3.71-2-4.14-11.95-8.63-24.17-12.48-36.21-.65-2,.28-2.74,1.84-3.67a4.69,4.69,0,0,1,2-.59c1.82,0,3,.07,3.72,2.08,4.05,11.93,8.57,24.09,12.48,36.07C2388.86,421.14,2387.88,421.88,2386.35,422.84Z"/><path class="cls-4" d="M2376.22,380.64a5,5,0,0,1-3.9,6.46,5.5,5.5,0,0,1-6.7-4.09,5.07,5.07,0,0,1,3.93-6.49A5.55,5.55,0,0,1,2376.22,380.64Z"/><path class="cls-3" d="M2396.06,431a4,4,0,0,0,1.25-.81c.91-.91,1.33-1.69.59-2.93-1.26-2.15-2.82-4.55-4.25-6.59-.83-1.18-1.72-1.12-2.93-.67a4.31,4.31,0,0,0-1.26.81c-.91.91-1.32,1.69-.57,2.92,1.3,2.13,2.85,4.54,4.27,6.59C2394,431.52,2394.85,431.47,2396.06,431Z"/><path class="cls-3" d="M2400.88,427.9a4,4,0,0,0,1.26-.8c.91-.92,1.32-1.69.59-2.94-1.27-2.14-2.83-4.55-4.26-6.58-.83-1.19-1.71-1.13-2.92-.68a4,4,0,0,0-1.25.81c-.91.91-1.32,1.68-.58,2.92,1.28,2.13,2.84,4.54,4.26,6.59C2398.8,428.4,2399.68,428.35,2400.88,427.9Z"/><path class="cls-3" d="M2391.23,434.13a4.14,4.14,0,0,0,1.25-.81c.92-.91,1.33-1.69.6-2.94-1.26-2.15-2.82-4.56-4.26-6.59-.84-1.17-1.73-1.14-2.94-.7a4,4,0,0,0-1.25.8c-.91.92-1.3,1.7-.55,2.94,1.29,2.13,2.83,4.56,4.25,6.61C2389.15,434.63,2390,434.58,2391.23,434.13Z"/><path class="cls-3" d="M2386.4,437.24a4,4,0,0,0,1.25-.81c.91-.91,1.33-1.69.6-2.94-1.26-2.15-2.81-4.57-4.25-6.61-.83-1.19-1.71-1.14-2.92-.69a4.29,4.29,0,0,0-1.25.82c-.91.91-1.32,1.69-.58,2.93,1.28,2.15,2.83,4.57,4.24,6.62C2384.32,437.75,2385.19,437.7,2386.4,437.24Z"/><path class="cls-3" d="M2380,423.17a3.82,3.82,0,0,0-1.45-.36c-1.32,0-2.08.16-2.53,1.59s-1,3.58-1.29,5.06.31,2,1.48,2.63a3.67,3.67,0,0,0,1.45.38c1.32,0,2.09-.16,2.56-1.59a46.47,46.47,0,0,0,1.29-5.07C2381.77,424.33,2381.17,423.78,2380,423.17Z"/><path class="cls-3" d="M2387.05,431.17a81.52,81.52,0,0,0,9.33-6c3-2.28,3.16-4.71,1.79-8a13.14,13.14,0,0,0-2.23-3.43c-2.44-2.59-4.79-3.43-8.11-1.62a80.12,80.12,0,0,0-9.33,5.95c-3,2.28-3.09,4.74-1.72,8a14,14,0,0,0,2.23,3.45C2381.43,432.1,2383.73,433,2387.05,431.17Z"/><rect class="cls-3" x="2211.83" y="367.07" width="8.59" height="40.29" rx="3.15" ry="3.15" transform="translate(238.65 -685.51) rotate(18.57)"/><path class="cls-2" d="M2152.59,381.55l-2.91-1L2140,408.07a9,9,0,0,0,.65,7.48Z"/><path class="cls-10" d="M2144.94,419.12l5.32,1.86a7.27,7.27,0,0,0,9.13-4.72l9.19-26.2a2.67,2.67,0,0,0-1.53-3.44l-14.46-5.07-11.92,34A8,8,0,0,0,2144.94,419.12Z"/><rect class="cls-3" x="2182.87" y="373.34" width="7.88" height="52.41" rx="2.89" ry="2.89" transform="translate(3293.12 -1528.62) rotate(109.49)"/><circle class="cls-4" cx="2209.87" cy="405.83" r="6.45"/><path class="cls-1" d="M1565,482.3l1.2,2.84,26.86-11.36a9,9,0,0,0,5.1-5.51Z"/><path class="cls-2" d="M1597.92,462.71l-2.2-5.19a7.27,7.27,0,0,0-9.63-3.57l-25.55,10.81a2.67,2.67,0,0,0-1.52,3.44l6,14.1,33.16-14A8,8,0,0,0,1597.92,462.71Z"/><rect class="cls-3" x="1542.4" y="386.93" width="8.59" height="41.55" rx="3.15" ry="3.15" transform="translate(-48.81 521.15) rotate(-18.83)"/><rect class="cls-3" x="1556.52" y="428.85" width="7.88" height="41.67" rx="2.89" ry="2.89" transform="translate(-61.62 527.84) rotate(-18.83)"/><circle class="cls-4" cx="1553.91" cy="429.37" r="6.45"/><path class="cls-5" d="M1558.33,284.6l-42.94,46.1a39.34,39.34,0,0,0,2,55.44l18.75,17.46a39.33,39.33,0,0,0,55.44-2l42.94-46.1Z"/><path class="cls-6" d="M1674.49,312.58a39.34,39.34,0,0,0-2-55.44l-18.74-17.46a39.34,39.34,0,0,0-55.44,2l-40,43,76.16,70.93Z"/><path class="cls-3" d="M1744.43,239.15a9.46,9.46,0,0,1,13.26-1.76,9.28,9.28,0,0,1,2.58,3.06c.63-.77,1.26-1.54,1.87-2.34,25.32-33,22.22-77.92-6.94-100.27s-73.31-13.69-98.63,19.34-22.22,77.92,6.93,100.27c24.06,18.45,58.35,15.77,83.83-4.3a10.18,10.18,0,0,1-1.15-.74A9.46,9.46,0,0,1,1744.43,239.15Z"/><path class="cls-7" d="M1708.6,171.11c8.93-4.45,20.73,1.12,26.37,12.46"/><path class="cls-7" d="M1754.56,193.81c8.66-4.32,20.1,1.09,25.58,12.08"/><circle cx="1713.99" cy="191.59" r="2.44"/><circle cx="1759.39" cy="215.63" r="2.44"/><circle class="cls-8" cx="1680.73" cy="203.38" r="10.68"/><path class="cls-3" d="M1757.69,237.39a9.46,9.46,0,0,0-11.51,15,10.18,10.18,0,0,0,1.15.74,83.82,83.82,0,0,0,12.94-12.7A9.28,9.28,0,0,0,1757.69,237.39Z"/><path class="cls-8" d="M1758.06,236.91a9.46,9.46,0,0,0-11.51,15,10.18,10.18,0,0,0,1.15.74,84.72,84.72,0,0,0,13-12.69A9.43,9.43,0,0,0,1758.06,236.91Z"/><path class="cls-9" d="M1756.66,154c9.59-11.33,11.94-25.08,5.24-30.75"/><path class="cls-9" d="M1749.17,150.84c10.73-13,12-29.62,2.93-37.12"/><path class="cls-9" d="M1742.92,148.83c9-15.93,9.74-32.54,1.61-37.15"/><path class="cls-9" d="M1760.7,160c12.24-9,18-22,12.76-29"/><path class="cls-9" d="M1767.59,165.07c8.94-5.29,13.65-13.84,10.53-19.13"/><path class="cls-9" d="M1737.58,143c6.23-8.31,7.3-18,2.39-21.7"/><path class="cls-9" d="M1731.07,141.44c7.65-12.71,7.77-26.66.25-31.18"/><path class="cls-3" d="M1592,317.82a6,6,0,0,1-2,0c-1.66-.32-2.8-.87-2.84-3-.22-14.89.37-30.57.64-45.45,0-2.12,1.19-2.52,2.81-2.8a6.52,6.52,0,0,1,2,.07c1.6.39,2.8.9,2.78,3-.15,14.78-.75,30.31-.67,45.09C1594.71,316.87,1593.63,317.47,1592,317.82Z"/><path class="cls-3" d="M1600.79,354.59a6.26,6.26,0,0,1-2,.48c-1.65.06-2.9-.14-3.41-2.18-3-12.14-5.85-25.13-8-37.45-.36-2.08.65-2.87,2.22-3.5a6.43,6.43,0,0,1,2-.37c1.67,0,2.86.38,3.24,2.44,2.27,12.18,5.1,25,8,37.09C1603.3,353.13,1602.29,353.89,1600.79,354.59Z"/><path class="cls-4" d="M1596.15,312.16a5.28,5.28,0,1,1-5.31-5.51A5.32,5.32,0,0,1,1596.15,312.16Z"/><path class="cls-3" d="M1604.39,366.29a6.71,6.71,0,0,1-1.33.56,2,2,0,0,1-2.63-1.11c-.94-2.15-2-4.85-2.91-7a2,2,0,0,1,1-2.68,5.53,5.53,0,0,1,1.33-.56,2,2,0,0,1,2.64,1.13c.94,2.14,2.06,4.84,2.91,7A2,2,0,0,1,1604.39,366.29Z"/><path class="cls-3" d="M1599.33,368.42a5.77,5.77,0,0,1-1.33.56,2,2,0,0,1-2.62-1.11c-.94-2.14-2.06-4.85-2.92-7a2,2,0,0,1,1-2.68,5.53,5.53,0,0,1,1.33-.56,2,2,0,0,1,2.64,1.13c.94,2.14,2.06,4.84,2.91,7A2,2,0,0,1,1599.33,368.42Z"/><path class="cls-3" d="M1609.44,364.16a6.24,6.24,0,0,1-1.33.56,2,2,0,0,1-2.62-1.11c-.94-2.15-2.06-4.85-2.91-7a2,2,0,0,1,1.05-2.68,6.71,6.71,0,0,1,1.33-.56,2,2,0,0,1,2.63,1.14c.94,2.13,2.06,4.83,2.91,7A2,2,0,0,1,1609.44,364.16Z"/><path class="cls-3" d="M1614.49,362a6.24,6.24,0,0,1-1.33.56,2,2,0,0,1-2.62-1.11c-.93-2.14-2-4.84-2.9-7a2,2,0,0,1,1-2.67,5.77,5.77,0,0,1,1.33-.56,2,2,0,0,1,2.62,1.11c.94,2.14,2.06,4.84,2.91,7A2,2,0,0,1,1614.49,362Z"/><path class="cls-3" d="M1606.88,349.29a6.23,6.23,0,0,1,.49-1.37,1.93,1.93,0,0,1,2.61-1.16c1.32.44,3.48,1.23,4.76,1.76a2,2,0,0,1,1.25,2.6,6,6,0,0,1-.5,1.36,2,2,0,0,1-2.6,1.19c-1.32-.43-3.47-1.22-4.76-1.75A2,2,0,0,1,1606.88,349.29Z"/><path class="cls-3" d="M1609.46,359.24c-2.84,1.35-6.93,3.08-9.88,4.17-3.31,1.22-5.68-.1-7.26-3a22.82,22.82,0,0,1-1.54-3.71c-.91-3.14-.21-5.84,3-7.37,2.85-1.38,6.94-3,9.9-4.12,3.31-1.22,5.7.18,7.28,3a22.42,22.42,0,0,1,1.53,3.69C1613.37,355.1,1612.64,357.73,1609.46,359.24Z"/><path class="cls-3" d="M1657.2,354.24a4.81,4.81,0,0,1-2,.4c-1.82-.13-3.05-.32-3.53-2.41-3.36-14.66-5.92-29.85-8.48-44.67-.36-2.11.64-2.69,2.31-3.43a4.76,4.76,0,0,1,2.08-.32c1.82.2,3,.46,3.42,2.55,2.82,14.68,5.22,29.78,8.42,44.38C1659.82,352.82,1658.82,353.44,1657.2,354.24Z"/><path class="cls-3" d="M1669,390.49a4.67,4.67,0,0,1-2,.54c-1.83,0-3-.1-3.64-2.13-3.75-12.08-7.85-24.44-11.3-36.59-.58-2.06.38-2.73,2-3.62a4.72,4.72,0,0,1,2-.52c1.83,0,3,.17,3.66,2.2,3.66,12.06,7.78,24.36,11.3,36.46C1671.56,388.87,1670.56,389.58,1669,390.49Z"/><path class="cls-4" d="M1660.25,348a5,5,0,0,1-4.11,6.33,5.49,5.49,0,0,1-6.56-4.31,5.07,5.07,0,0,1,4.13-6.36A5.56,5.56,0,0,1,1660.25,348Z"/><path class="cls-3" d="M1678.43,399a3.81,3.81,0,0,0,1.28-.77c.94-.88,1.38-1.64.69-2.91-1.2-2.19-2.67-4.64-4-6.73-.79-1.21-1.68-1.17-2.9-.76a4.46,4.46,0,0,0-1.29.77c-.94.88-1.37,1.64-.66,2.9,1.23,2.17,2.7,4.63,4,6.72C1676.34,399.41,1677.21,399.38,1678.43,399Z"/><path class="cls-3" d="M1683.36,396a4.26,4.26,0,0,0,1.28-.76c.94-.89,1.38-1.65.68-2.92-1.2-2.18-2.68-4.64-4-6.72-.79-1.21-1.67-1.18-2.89-.77a4.14,4.14,0,0,0-1.28.76c-.94.89-1.37,1.65-.67,2.91,1.21,2.17,2.69,4.63,4,6.72C1681.26,396.45,1682.14,396.43,1683.36,396Z"/><path class="cls-3" d="M1673.5,401.93a4.33,4.33,0,0,0,1.29-.77c.94-.88,1.38-1.65.69-2.92-1.19-2.19-2.67-4.65-4-6.72-.8-1.21-1.69-1.2-2.91-.79a3.93,3.93,0,0,0-1.28.75c-.94.89-1.35,1.66-.64,2.92,1.21,2.17,2.68,4.65,4,6.75C1671.41,402.36,1672.28,402.34,1673.5,401.93Z"/><path class="cls-3" d="M1668.58,404.88a4.17,4.17,0,0,0,1.28-.76c.94-.89,1.38-1.65.69-2.92-1.19-2.2-2.66-4.67-4-6.76-.79-1.2-1.68-1.19-2.9-.77a4.24,4.24,0,0,0-1.27.77c-.94.88-1.38,1.65-.68,2.91,1.2,2.19,2.68,4.66,4,6.75C1666.48,405.32,1667.35,405.3,1668.58,404.88Z"/><path class="cls-3" d="M1662.63,390.61a3.84,3.84,0,0,0-1.44-.41c-1.32-.08-2.08.09-2.58,1.51a52,52,0,0,0-1.45,5c-.34,1.47.24,2,1.39,2.68a3.82,3.82,0,0,0,1.43.43c1.32.08,2.11-.09,2.62-1.51a46.37,46.37,0,0,0,1.45-5C1664.37,391.82,1663.79,391.25,1662.63,390.61Z"/><path class="cls-3" d="M1669.42,398.84a80.67,80.67,0,0,0,9.53-5.72c3.07-2.18,3.3-4.61,2-7.91a13.47,13.47,0,0,0-2.12-3.5c-2.36-2.66-4.68-3.58-8.06-1.88a80.5,80.5,0,0,0-9.52,5.64c-3.08,2.19-3.23,4.64-2,7.93a13.83,13.83,0,0,0,2.11,3.52C1663.78,399.58,1666,400.54,1669.42,398.84Z"/><rect class="cls-3" x="1509.57" y="377.92" width="8.59" height="40.29" rx="3.15" ry="3.15" transform="translate(205.55 -461.33) rotate(18.57)"/><path class="cls-2" d="M1450.34,392.4l-2.92-1-9.65,27.54a9,9,0,0,0,.64,7.48Z"/><path class="cls-10" d="M1442.68,430l5.32,1.86a7.29,7.29,0,0,0,9.14-4.73l9.18-26.19a2.66,2.66,0,0,0-1.53-3.44l-14.45-5.07-11.93,34A8,8,0,0,0,1442.68,430Z"/><rect class="cls-3" x="1480.61" y="384.19" width="7.88" height="52.41" rx="2.89" ry="2.89" transform="translate(2366.77 -852.14) rotate(109.49)"/><circle class="cls-4" cx="1507.62" cy="416.68" r="6.45"/><path class="cls-1" d="M884.48,467.7l1.59,2.65,25-15.06a9,9,0,0,0,4.27-6.17Z"/><path class="cls-2" d="M914.3,443.65l-2.91-4.83a7.26,7.26,0,0,0-10-2.17L877.59,451a2.65,2.65,0,0,0-1,3.62l7.9,13.11,30.84-18.58A8,8,0,0,0,914.3,443.65Z"/><rect class="cls-3" x="851.51" y="375.68" width="8.59" height="41.55" rx="3.15" ry="3.15" transform="translate(-86.72 431.33) rotate(-26.98)"/><rect class="cls-3" x="871.43" y="415.22" width="7.88" height="41.67" rx="2.89" ry="2.89" transform="translate(-102.56 444.51) rotate(-26.98)"/><circle class="cls-4" cx="866.01" cy="416.88" r="6.45"/><path class="cls-5" d="M816.85,276.78l-23.17,58.58a39.35,39.35,0,0,0,22.06,50.91l23.82,9.42a39.34,39.34,0,0,0,50.9-22.06l23.17-58.58Z"/><path class="cls-6" d="M935.21,260.47a39.33,39.33,0,0,0-22.05-50.9l-23.83-9.42a39.33,39.33,0,0,0-50.9,22l-21.58,54.58,96.78,38.27Z"/><path class="cls-3" d="M973.56,166.58A9.45,9.45,0,0,1,988.79,162c.3-.94.6-1.89.88-2.86,11.53-40-7.73-80.66-43-90.83s-73.26,14-84.79,54,7.73,80.66,43,90.84c29.13,8.4,60.08-6.6,76.48-34.58a9,9,0,0,1-1.33-.27A9.46,9.46,0,0,1,973.56,166.58Z"/><path class="cls-7" d="M915.38,116.3c6.7-7.4,19.71-6.51,29.1,2"/><path class="cls-7" d="M966.46,120.67c6.49-7.17,19.11-6.31,28.22,1.93"/><circle cx="927.88" cy="133.4" r="2.44"/><circle cx="978.91" cy="139.23" r="2.44"/><circle class="cls-8" cx="901.21" cy="156.51" r="10.68"/><path class="cls-3" d="M985.27,160.12A9.46,9.46,0,1,0,980,178.29a9,9,0,0,0,1.33.27A84.28,84.28,0,0,0,988.79,162,9.38,9.38,0,0,0,985.27,160.12Z"/><path class="cls-8" d="M985.44,159.53a9.46,9.46,0,0,0-5.25,18.18,11,11,0,0,0,1.34.27A85,85,0,0,0,989,161.43,9.52,9.52,0,0,0,985.44,159.53Z"/><path class="cls-9" d="M953.91,82.87c4.8-14,2-27.7-6.33-30.53"/><path class="cls-9" d="M945.77,82.63c5.24-16,.41-32-10.81-35.63"/><path class="cls-9" d="M939.22,83c2.59-18.12-2.8-33.86-12.05-35.18"/><path class="cls-9" d="M959.85,87c8.13-12.82,8.71-27,1.3-31.69"/><path class="cls-9" d="M968.11,89.16c6.4-8.18,7.66-17.86,2.83-21.65"/><path class="cls-9" d="M932.1,79.52c2.77-10,.23-19.44-5.68-21.08"/><path class="cls-9" d="M925.48,80.48C928,65.85,923,52.82,914.35,51.35"/><path class="cls-3" d="M841.7,290.06a6.23,6.23,0,0,1-2-.08c-1.63-.41-2.75-1-2.66-3.14.58-14.88,2-30.51,3.12-45.35.15-2.11,1.32-2.45,3-2.64a5.92,5.92,0,0,1,2,.18c1.58.47,2.75,1.05,2.61,3.15-1,14.74-2.41,30.22-3.13,45C844.48,289.26,843.37,289.79,841.7,290.06Z"/><path class="cls-3" d="M848.49,327.25a6.43,6.43,0,0,1-2,.37c-1.65,0-2.89-.29-3.28-2.36-2.32-12.29-4.47-25.41-6-37.83-.25-2.1.81-2.83,2.41-3.38a6.14,6.14,0,0,1,2-.25c1.68.11,2.84.53,3.11,2.61,1.6,12.29,3.72,25.27,5.93,37.47C851.08,325.93,850,326.64,848.49,327.25Z"/><path class="cls-4" d="M846.17,284.63a5.27,5.27,0,1,1-5-5.79A5.31,5.31,0,0,1,846.17,284.63Z"/><path class="cls-3" d="M851.44,339.13a6.49,6.49,0,0,1-1.36.49,2,2,0,0,1-2.56-1.26c-.82-2.19-1.79-4.95-2.52-7.17a2,2,0,0,1,1.19-2.62,6.15,6.15,0,0,1,1.36-.49,2,2,0,0,1,2.57,1.27c.83,2.19,1.8,4.95,2.52,7.18A2,2,0,0,1,851.44,339.13Z"/><path class="cls-3" d="M846.28,341a6.15,6.15,0,0,1-1.36.49,2,2,0,0,1-2.56-1.25c-.82-2.19-1.79-5-2.53-7.18a2,2,0,0,1,1.2-2.62,5.81,5.81,0,0,1,1.36-.49A2,2,0,0,1,845,331.2c.82,2.19,1.79,5,2.52,7.18A2,2,0,0,1,846.28,341Z"/><path class="cls-3" d="M856.6,337.28a6.29,6.29,0,0,1-1.36.49,2,2,0,0,1-2.55-1.26c-.82-2.19-1.79-4.95-2.52-7.17a2,2,0,0,1,1.19-2.62,5.65,5.65,0,0,1,1.36-.48,2,2,0,0,1,2.57,1.27c.82,2.19,1.79,4.94,2.52,7.16A2,2,0,0,1,856.6,337.28Z"/><path class="cls-3" d="M861.76,335.42a5.9,5.9,0,0,1-1.35.49,2,2,0,0,1-2.56-1.25c-.82-2.19-1.79-5-2.52-7.17a2,2,0,0,1,1.2-2.6,6,6,0,0,1,1.36-.49,2,2,0,0,1,2.56,1.25c.82,2.19,1.79,5,2.52,7.17A2,2,0,0,1,861.76,335.42Z"/><path class="cls-3" d="M854.86,322.3a6.32,6.32,0,0,1,.56-1.34,2,2,0,0,1,2.67-1c1.29.52,3.41,1.43,4.66,2a2,2,0,0,1,1.1,2.67,6.24,6.24,0,0,1-.56,1.33,2,2,0,0,1-2.67,1.05c-1.29-.51-3.4-1.41-4.66-2A2,2,0,0,1,854.86,322.3Z"/><path class="cls-3" d="M856.89,332.37c-2.91,1.2-7.08,2.69-10.1,3.62-3.36,1-5.66-.41-7.08-3.36a22,22,0,0,1-1.33-3.78c-.74-3.2.11-5.85,3.37-7.21,2.92-1.21,7.1-2.63,10.12-3.56,3.37-1.05,5.68.49,7.09,3.42a21.63,21.63,0,0,1,1.33,3.77C861,328.45,860.15,331,856.89,332.37Z"/><path class="cls-3" d="M917,307.4a4.71,4.71,0,0,1-2.08.19c-1.79-.32-3-.63-3.25-2.76-1.85-14.93-2.83-30.3-3.86-45.3-.14-2.14.91-2.61,2.65-3.18a4.66,4.66,0,0,1,2.1-.1c1.79.38,3,.76,3.14,2.88,1.3,14.9,2.14,30.17,3.82,45C919.79,306.26,918.73,306.77,917,307.4Z"/><path class="cls-3" d="M925.05,344.67A4.81,4.81,0,0,1,923,345c-1.83-.18-3-.41-3.4-2.5-2.49-12.4-5.3-25.11-7.49-37.56-.37-2.1.66-2.68,2.32-3.39a4.69,4.69,0,0,1,2.06-.31c1.82.21,3,.47,3.41,2.56,2.4,12.37,5.24,25,7.5,37.42C927.77,343.32,926.7,343.93,925.05,344.67Z"/><path class="cls-4" d="M920.71,301.49a5.05,5.05,0,0,1-4.73,5.88,5.5,5.5,0,0,1-6.09-5,5.08,5.08,0,0,1,4.77-5.9A5.55,5.55,0,0,1,920.71,301.49Z"/><path class="cls-3" d="M933.57,354.08a4.17,4.17,0,0,0,1.35-.63c1-.79,1.54-1.5,1-2.83-1-2.3-2.18-4.89-3.33-7.11-.66-1.28-1.54-1.34-2.8-1.05a4,4,0,0,0-1.36.63c-1,.78-1.54,1.49-1,2.81,1,2.29,2.21,4.88,3.34,7.11C931.44,354.3,932.31,354.36,933.57,354.08Z"/><path class="cls-3" d="M938.77,351.65a4.17,4.17,0,0,0,1.35-.63c1-.78,1.54-1.5,1-2.83-1-2.3-2.19-4.89-3.33-7.1-.66-1.28-1.54-1.35-2.8-1.06a4.06,4.06,0,0,0-1.35.63c-1,.78-1.53,1.49-1,2.81,1,2.29,2.2,4.89,3.33,7.11C936.64,351.86,937.51,351.93,938.77,351.65Z"/><path class="cls-3" d="M928.36,356.51a4,4,0,0,0,1.36-.63c1-.78,1.54-1.5,1-2.83-1-2.3-2.17-4.9-3.33-7.11-.67-1.27-1.56-1.36-2.82-1.08a4,4,0,0,0-1.35.62c-1,.78-1.51,1.51-.94,2.83,1,2.29,2.19,4.91,3.32,7.13C926.23,356.73,927.11,356.8,928.36,356.51Z"/><path class="cls-3" d="M923.16,359a4.29,4.29,0,0,0,1.35-.64c1-.78,1.54-1.49,1-2.83-1-2.3-2.17-4.91-3.32-7.13-.66-1.28-1.54-1.36-2.8-1.07a4.19,4.19,0,0,0-1.35.64c-1,.78-1.53,1.5-1,2.83,1,2.3,2.18,4.9,3.31,7.13C921,359.16,921.9,359.23,923.16,359Z"/><path class="cls-3" d="M918.7,344.14a3.86,3.86,0,0,0-1.38-.56c-1.3-.21-2.08-.12-2.73,1.24a52,52,0,0,0-2,4.84c-.49,1.42,0,2,1.11,2.81a4,4,0,0,0,1.38.57c1.3.21,2.1.12,2.75-1.24a42.24,42.24,0,0,0,2-4.84C920.31,345.53,919.79,344.9,918.7,344.14Z"/><path class="cls-3" d="M924.62,353a80.76,80.76,0,0,0,10.06-4.71c3.28-1.85,3.76-4.24,2.85-7.65a13.14,13.14,0,0,0-1.75-3.71c-2.07-2.89-4.28-4-7.82-2.7a80.2,80.2,0,0,0-10.05,4.64c-3.29,1.86-3.69,4.29-2.77,7.69a13.39,13.39,0,0,0,1.74,3.71C918.93,353.18,921.08,354.36,924.62,353Z"/><rect class="cls-3" x="814.17" y="378.8" width="8.59" height="40.29" rx="3.15" ry="3.15"/><path class="cls-2" d="M756.44,413.81l-3.09,0L753,443a9,9,0,0,0,3,6.88Z"/><path class="cls-10" d="M761.15,451.86l5.63.07a7.29,7.29,0,0,0,7.16-7.39l.36-27.76a2.66,2.66,0,0,0-2.54-2.77l-15.32-.2-.48,36A8,8,0,0,0,761.15,451.86Z"/><rect class="cls-3" x="790.66" y="393.76" width="7.88" height="52.41" rx="2.89" ry="2.89" transform="translate(1227.33 -367.76) rotate(90.92)"/><circle class="cls-4" cx="818.47" cy="418.58" r="6.45"/><path class="cls-1" d="M183,467.21l1.59,2.64,25-15.05a9,9,0,0,0,4.26-6.18Z"/><path class="cls-2" d="M212.86,443.15,210,438.33a7.27,7.27,0,0,0-10-2.18l-23.77,14.33a2.67,2.67,0,0,0-1,3.62L183,467.21l30.83-18.59A8,8,0,0,0,212.86,443.15Z"/><rect class="cls-3" x="150.07" y="375.18" width="8.59" height="41.55" rx="3.15" ry="3.15" transform="translate(-162.81 113.1) rotate(-26.98)"/><rect class="cls-3" x="169.99" y="414.73" width="7.88" height="41.67" rx="2.89" ry="2.89" transform="translate(-178.65 126.28) rotate(-26.98)"/><circle class="cls-4" cx="164.57" cy="416.38" r="6.45"/><path class="cls-5" d="M80,287.39v63a39.34,39.34,0,0,0,39.23,39.23h25.62a39.34,39.34,0,0,0,39.22-39.23v-63Z"/><path class="cls-6" d="M184.1,228.7a39.34,39.34,0,0,0-39.22-39.23H119.26A39.34,39.34,0,0,0,80,228.7v58.69H184.1Z"/><path class="cls-3" d="M185.24,127.29a9.45,9.45,0,0,1,12.48-9.85c-.06-1-.13-2-.23-3-4-41.43-36.85-72.16-73.41-68.65s-63,40-59,81.37,36.85,72.17,73.41,68.66c30.18-2.9,53.45-28.23,58.41-60.28a11.34,11.34,0,0,1-1.34.24A9.46,9.46,0,0,1,185.24,127.29Z"/><path class="cls-7" d="M112.65,101.92c3.5-9.35,15.93-13.31,27.79-8.86"/><path class="cls-7" d="M161.75,87.2c3.4-9.06,15.46-12.9,27-8.58"/><circle cx="130.56" cy="113.23" r="2.44"/><circle cx="180.15" cy="99.88" r="2.44"/><path class="cls-7" d="M181.75,144.33c-3.08-4.47-16.1-.82-29.13,8.15"/><circle class="cls-8" cx="114.25" cy="144.53" r="10.68"/><path class="cls-3" d="M193.75,117a9.46,9.46,0,1,0,1.81,18.83,11.34,11.34,0,0,0,1.34-.24,84.3,84.3,0,0,0,.82-18.12A9.39,9.39,0,0,0,193.75,117Z"/><path class="cls-8" d="M193.69,116.36a9.46,9.46,0,1,0,1.81,18.83,9.61,9.61,0,0,0,1.34-.24,84.3,84.3,0,0,0,.82-18.12A9.55,9.55,0,0,0,193.69,116.36Z"/><path class="cls-9" d="M136.18,56.67c-.7-14.82-8.35-26.48-17.11-26.07"/><path class="cls-9" d="M128.53,59.43c-1-16.83-11.38-29.87-23.16-29.16"/><path class="cls-9" d="M122.58,62.22c-4.25-17.8-15-30.45-24.14-28.28"/><path class="cls-9" d="M143.22,58.3c2.84-14.91-1.83-28.3-10.44-29.94"/><path class="cls-9" d="M151.7,57.29c2.94-10,.56-19.43-5.33-21.17"/><path class="cls-9" d="M114.67,61.56c-1.1-10.32-6.93-18.16-13-17.51"/><path class="cls-9" d="M108.87,64.89c-3.06-14.52-12.49-24.8-21.07-23"/><path class="cls-3" d="M82.44,284.57a6.13,6.13,0,0,1-2-.35c-1.56-.63-2.58-1.39-2.21-3.48,2.6-14.66,6.16-30,9.25-44.5.44-2.07,1.65-2.25,3.29-2.22a6.09,6.09,0,0,1,2,.46c1.5.68,2.58,1.41,2.16,3.47-3,14.48-6.49,29.61-9.21,44.14C85.31,284.16,84.13,284.54,82.44,284.57Z"/><path class="cls-3" d="M84.12,322.34a6.52,6.52,0,0,1-2,.1c-1.63-.26-2.82-.68-2.93-2.79-.63-12.48-1-25.78-.76-38.29,0-2.11,1.18-2.69,2.83-3a6.22,6.22,0,0,1,2,0c1.65.34,2.75.92,2.73,3-.08,12.4.26,25.55.78,37.93C86.86,321.39,85.72,321.94,84.12,322.34Z"/><path class="cls-4" d="M87.61,279.8a5.27,5.27,0,1,1-4.16-6.42A5.3,5.3,0,0,1,87.61,279.8Z"/><path class="cls-3" d="M85.43,334.51a5.72,5.72,0,0,1-1.41.3,2,2,0,0,1-2.37-1.59c-.51-2.28-1.1-5.15-1.52-7.45a2,2,0,0,1,1.54-2.44,6.81,6.81,0,0,1,1.41-.3,2,2,0,0,1,2.37,1.61c.52,2.29,1.11,5.15,1.53,7.46A2,2,0,0,1,85.43,334.51Z"/><path class="cls-3" d="M80.06,335.65a6.68,6.68,0,0,1-1.41.3,2,2,0,0,1-2.36-1.6c-.52-2.28-1.11-5.15-1.53-7.45a2,2,0,0,1,1.54-2.44,6.68,6.68,0,0,1,1.41-.3,2,2,0,0,1,2.37,1.62c.52,2.28,1.11,5.15,1.53,7.45A2,2,0,0,1,80.06,335.65Z"/><path class="cls-3" d="M90.8,333.38a7,7,0,0,1-1.41.3A2,2,0,0,1,87,332.09c-.51-2.28-1.1-5.15-1.52-7.45A2,2,0,0,1,87,322.2a6.2,6.2,0,0,1,1.41-.29,2,2,0,0,1,2.37,1.61c.52,2.28,1.1,5.14,1.52,7.44A2,2,0,0,1,90.8,333.38Z"/><path class="cls-3" d="M96.16,332.24a6.68,6.68,0,0,1-1.41.3A2,2,0,0,1,92.39,331c-.52-2.28-1.1-5.14-1.52-7.44a2,2,0,0,1,1.54-2.42,6.68,6.68,0,0,1,1.41-.3,2,2,0,0,1,2.36,1.59c.52,2.28,1.11,5.15,1.53,7.44A2,2,0,0,1,96.16,332.24Z"/><path class="cls-3" d="M91.1,318.3a6.24,6.24,0,0,1,.74-1.25,1.94,1.94,0,0,1,2.79-.65c1.21.68,3.18,1.87,4.34,2.63a2,2,0,0,1,.73,2.79,6.85,6.85,0,0,1-.74,1.25,2,2,0,0,1-2.79.67c-1.21-.68-3.18-1.86-4.34-2.62A2,2,0,0,1,91.1,318.3Z"/><path class="cls-3" d="M91.75,328.56c-3,.78-7.39,1.7-10.5,2.21-3.47.58-5.55-1.18-6.56-4.29a22.83,22.83,0,0,1-.8-3.93c-.3-3.26.9-5.78,4.32-6.68,3.06-.81,7.39-1.65,10.5-2.16,3.48-.57,5.57,1.26,6.57,4.36a22.6,22.6,0,0,1,.8,3.91C96.38,325.23,95.16,327.68,91.75,328.56Z"/><path class="cls-3" d="M168.6,279.93a4.61,4.61,0,0,1-2.08-.21c-1.7-.64-2.82-1.18-2.68-3.31,1-15,2.91-30.3,4.73-45.23.26-2.12,1.38-2.39,3.2-2.62a4.87,4.87,0,0,1,2.07.29c1.7.72,2.77,1.31,2.55,3.43-1.52,14.87-3.56,30-4.71,44.93C171.52,279.33,170.39,279.63,168.6,279.93Z"/><path class="cls-3" d="M169.47,318a4.71,4.71,0,0,1-2.08-.05c-1.77-.52-2.86-1-2.88-3.1-.12-12.64-.48-25.65-.29-38.29,0-2.14,1.14-2.51,2.92-2.9a4.68,4.68,0,0,1,2.07.08c1.75.55,2.86,1,2.87,3.16,0,12.6.45,25.57.33,38.17C172.39,317.23,171.23,317.62,169.47,318Z"/><path class="cls-4" d="M173.32,274.82a5,5,0,0,1-5.75,4.88,5.49,5.49,0,0,1-5-6,5.06,5.06,0,0,1,5.78-4.9A5.55,5.55,0,0,1,173.32,274.82Z"/><path class="cls-3" d="M176.07,328.88a4.07,4.07,0,0,0,1.45-.36c1.15-.58,1.79-1.19,1.49-2.6-.51-2.44-1.22-5.21-1.93-7.6-.41-1.39-1.27-1.61-2.56-1.57a4.25,4.25,0,0,0-1.45.37c-1.16.57-1.79,1.18-1.47,2.58.55,2.44,1.25,5.21,1.94,7.61C173.94,328.7,174.78,328.93,176.07,328.88Z"/><path class="cls-3" d="M181.64,327.47a4,4,0,0,0,1.44-.36c1.16-.58,1.8-1.18,1.5-2.59-.52-2.44-1.24-5.22-1.94-7.61-.41-1.38-1.27-1.61-2.55-1.57a4.31,4.31,0,0,0-1.45.37c-1.15.57-1.78,1.18-1.47,2.59.53,2.43,1.24,5.21,1.93,7.6C179.5,327.29,180.35,327.52,181.64,327.47Z"/><path class="cls-3" d="M170.5,330.3a4.31,4.31,0,0,0,1.45-.37c1.15-.58,1.79-1.18,1.5-2.6-.51-2.44-1.22-5.22-1.94-7.6-.42-1.38-1.28-1.63-2.57-1.6a4,4,0,0,0-1.43.36c-1.16.58-1.77,1.2-1.46,2.61.54,2.43,1.23,5.22,1.92,7.62C168.36,330.11,169.21,330.34,170.5,330.3Z"/><path class="cls-3" d="M164.93,331.71a4.25,4.25,0,0,0,1.44-.37c1.16-.57,1.8-1.18,1.51-2.59-.51-2.45-1.21-5.24-1.92-7.63-.41-1.39-1.26-1.63-2.55-1.58a4.19,4.19,0,0,0-1.44.37c-1.15.58-1.79,1.19-1.49,2.6.53,2.44,1.22,5.23,1.91,7.62C162.79,331.52,163.64,331.75,164.93,331.71Z"/><path class="cls-3" d="M163.34,316.33a4,4,0,0,0-1.26-.81c-1.24-.45-2-.51-2.91.71s-2.09,3.07-2.83,4.38-.36,2,.56,3a4,4,0,0,0,1.25.81c1.24.46,2,.52,2.94-.69a45,45,0,0,0,2.84-4.39C164.65,318,164.26,317.28,163.34,316.33Z"/><path class="cls-3" d="M167.48,326.16a81.13,81.13,0,0,0,10.76-2.73c3.58-1.2,4.5-3.46,4.24-7a13.07,13.07,0,0,0-1-4c-1.49-3.23-3.45-4.78-7.17-4.12A78.76,78.76,0,0,0,163.55,311c-3.59,1.2-4.44,3.51-4.17,7a13.4,13.4,0,0,0,1,4C161.86,325.25,163.75,326.82,167.48,326.16Z"/><rect class="cls-3" x="112.73" y="378.3" width="8.59" height="40.29" rx="3.15" ry="3.15"/><path class="cls-2" d="M55,413.31l-3.09,0-.38,29.18a9,9,0,0,0,3,6.89Z"/><path class="cls-10" d="M59.7,451.36l5.64.08a7.27,7.27,0,0,0,7.15-7.39l.37-27.76a2.66,2.66,0,0,0-2.54-2.77L55,413.31l-.48,36A7.94,7.94,0,0,0,59.7,451.36Z"/><rect class="cls-3" x="89.22" y="393.27" width="7.88" height="52.41" rx="2.89" ry="2.89" transform="translate(514.08 333.09) rotate(90.92)"/><circle class="cls-4" cx="117.03" cy="418.09" r="6.45"/><path d="M950.44,184.83c-10,0-16.44-1.82-16.44-3.08s6.4-3.07,16.44-3.07,16.45,1.82,16.45,3.07S960.49,184.83,950.44,184.83Z"/><path d="M950.44,179.18c9.59,0,15.25,1.61,15.92,2.57-.67,1-6.33,2.58-15.92,2.58s-15.24-1.62-15.92-2.58c.68-1,6.34-2.57,15.92-2.57m0-1c-9.36,0-16.94,1.6-16.94,3.57s7.58,3.58,16.94,3.58,16.95-1.6,16.95-3.58-7.59-3.57-16.95-3.57Z"/><path d="M1724.34,251.94c-3.22,0-7.62-1.59-11.77-4.26-6.6-4.25-10.71-10.12-9-12.82.74-1.15,2.37-1.4,3.6-1.4,3.22,0,7.63,1.6,11.78,4.27,6.59,4.25,10.7,10.12,9,12.81C1727.2,251.7,1725.58,251.94,1724.34,251.94Z"/><path d="M1707.2,234h0c3.13,0,7.43,1.57,11.5,4.19,6.93,4.46,10.21,10,8.83,12.12-.63,1-2.08,1.17-3.19,1.17-3.13,0-7.43-1.56-11.5-4.18-6.93-4.46-10.21-10-8.82-12.12.62-1,2.07-1.18,3.18-1.18m0-1c-1.88,0-3.31.53-4,1.63-1.92,3,2.16,9,9.12,13.51,4.38,2.82,8.85,4.34,12,4.34,1.88,0,3.32-.52,4-1.63,1.91-3-2.17-9-9.12-13.5-4.38-2.82-8.86-4.35-12-4.35Z"/><path d="M2461.14,322.77c-3.61,0-8.19-2.34-11.95-6.09a21.77,21.77,0,0,1-5.64-9c-.83-2.93-.5-5.33.93-6.77a5.27,5.27,0,0,1,3.82-1.37c3.61,0,8.19,2.33,11.95,6.09,5.64,5.64,7.76,12.71,4.71,15.76A5.27,5.27,0,0,1,2461.14,322.77Z"/><path d="M2448.3,300h0c3.49,0,7.93,2.27,11.59,5.94,5.36,5.36,7.52,12.25,4.71,15.06a4.71,4.71,0,0,1-3.46,1.23c-3.49,0-7.93-2.28-11.59-5.94-5.36-5.36-7.52-12.26-4.71-15.06a4.67,4.67,0,0,1,3.46-1.23m0-1a5.73,5.73,0,0,0-4.17,1.52c-3.25,3.25-1.14,10.62,4.71,16.47,4,4,8.68,6.24,12.3,6.24a5.7,5.7,0,0,0,4.17-1.53c3.25-3.24,1.14-10.62-4.71-16.47-4-4-8.68-6.23-12.3-6.23Z"/><path d="M3182.38,381.77c-1.77,0-6.92-4.06-12.49-10.86-6.36-7.77-9-13.88-8-14.68a.56.56,0,0,1,.32-.08c1.76,0,6.92,4.06,12.48,10.86,6.37,7.77,9,13.88,8,14.67A.49.49,0,0,1,3182.38,381.77Z"/><path d="M3162.18,356.65c1.38,0,6.15,3.42,12.09,10.68s8.4,12.79,8.09,13.94c-1.37,0-6.14-3.43-12.08-10.68s-8.4-12.79-8.1-13.94m0-1a.92.92,0,0,0-.63.2c-1.53,1.25,2,8.13,8,15.38,5.3,6.47,10.69,11,12.87,11a1,1,0,0,0,.63-.2c1.53-1.25-2-8.14-8-15.38-5.3-6.47-10.7-11-12.87-11Z"/></svg>
