<svg id="Layer_1" data-name="Layer 1" xmlns="http://www.w3.org/2000/svg" viewBox="0 0 3850 500"><defs><style>.cls-1{fill:#fff;}.cls-2{fill:#302f2f;}.cls-11,.cls-2{stroke:#000;}.cls-11,.cls-13,.cls-2,.cls-6{stroke-miterlimit:10;}.cls-3{font-size:13.77px;}.cls-10,.cls-12,.cls-3,.cls-8,.cls-9{font-family:Helvetica, Helvetica;}.cls-4,.cls-7{fill:#4d86f7;}.cls-5{fill:#9f9fa0;}.cls-11,.cls-13,.cls-6{fill:none;}.cls-6{stroke:#4d86f7;}.cls-13,.cls-6{stroke-width:2px;}.cls-7{font-size:10.63px;font-family:Superclarendon-Regular, Superclarendon;}.cls-8{font-size:14.43px;}.cls-9{font-size:13.8px;}.cls-10{font-size:11.35px;}.cls-12{font-size:8.53px;}.cls-13{stroke:#9f9fa0;}.cls-14{opacity:0.9;}.cls-15{opacity:0.8;}.cls-16{opacity:0.7;}.cls-17{opacity:0.6;}.cls-18{opacity:0.5;}.cls-19{opacity:0.4;}.cls-20{opacity:0.3;}.cls-21{opacity:0.2;}.cls-22{opacity:0.1;}.cls-23{opacity:0;}</style></defs><title>Artboard 51</title><rect x="3574.44" y="30" width="230.56" height="439.4" rx="47.65" ry="47.65"/><rect class="cls-1" x="3592.19" y="78.75" width="197.01" height="330.75" rx="5.17" ry="5.17"/><path d="M3784,82.25a1.68,1.68,0,0,1,1.68,1.67V404.33A1.68,1.68,0,0,1,3784,406H3597.37a1.68,1.68,0,0,1-1.68-1.67V83.92a1.68,1.68,0,0,1,1.68-1.67H3784m0-7H3597.37a8.68,8.68,0,0,0-8.68,8.67V404.33a8.68,8.68,0,0,0,8.68,8.67H3784a8.68,8.68,0,0,0,8.68-8.67V83.92a8.68,8.68,0,0,0-8.68-8.67Z"/><rect class="cls-2" x="3667.34" y="58.64" width="45.66" height="5.43" rx="2.71" ry="2.71"/><circle class="cls-2" cx="3689.94" cy="436.1" r="15.37"/><text class="cls-3" transform="translate(3671.69 91.66)">12.31</text><rect class="cls-4" x="3602.88" y="109.43" width="13.4" height="13.4" transform="translate(975.1 2586.37) rotate(-45)"/><rect class="cls-1" x="3604.56" y="109.6" width="13.14" height="12.88" transform="translate(975.62 2587.44) rotate(-45)"/><rect class="cls-5" x="3593.17" y="140.18" width="194.78" height="1.97"/><circle class="cls-6" cx="3768.93" cy="116.57" r="9.18"/><text class="cls-7" transform="translate(3766.83 119.75)">i</text><text class="cls-8" transform="translate(3670.86 132.22)">Hans</text><rect x="3595.14" y="87.85" width="2.26" height="4.14"/><rect x="3597.77" y="86.16" width="2.26" height="5.84"/><rect x="3600.41" y="84.09" width="2.26" height="7.91"/><rect x="3603.23" y="82.39" width="2.26" height="9.61"/><rect x="3606.06" y="81.26" width="2.26" height="10.74"/><text class="cls-9" transform="translate(3609.27 91.19)">3</text><text class="cls-9" transform="translate(3621.85 91.19)">4</text><text class="cls-10" transform="translate(3628.9 90.65)">G</text><rect class="cls-11" x="3760.3" y="82.47" width="24.07" height="8.53" rx="3.49" ry="3.49"/><rect x="3784.78" y="85.77" width="0.55" height="1.93"/><rect x="3761.12" y="83.29" width="15.4" height="7.15" rx="2.57" ry="2.57"/><text class="cls-12" transform="translate(3741.39 89.91)">75%</text><rect class="cls-13" x="3649.57" y="383.49" width="133.79" height="19.02" rx="9.51" ry="9.51"/><circle class="cls-4" cx="3773.52" cy="393.33" r="7.21"/><polygon class="cls-1" points="3773.47 387.55 3778.53 392.62 3777.53 393.62 3774.18 390.28 3774.18 398.07 3772.76 398.07 3772.76 390.28 3769.41 393.62 3768.41 392.62 3773.47 387.55"/><rect class="cls-4" x="3601.69" y="299.54" width="123.95" height="62.96" rx="18.22" ry="18.22"/><path class="cls-4" d="M3723.43,339c.75,5.41,4.3,10.08,8.69,13.11s9.56,4.61,14.72,5.73c-5.43,4.56-13.11,5.4-19.91,3.72s-12.85-5.56-18.56-9.72a169,169,0,0,1,14.79-13Z"/><text class="cls-3" transform="translate(3610.28 330.9)">@#%?+X&lt;å(€)?</text><rect x="3224.44" y="30" width="230.56" height="439.4" rx="47.65" ry="47.65"/><rect class="cls-1" x="3242.19" y="78.75" width="197.01" height="330.75" rx="5.17" ry="5.17"/><path d="M3434,82.25a1.68,1.68,0,0,1,1.68,1.67V404.33A1.68,1.68,0,0,1,3434,406H3247.37a1.68,1.68,0,0,1-1.68-1.67V83.92a1.68,1.68,0,0,1,1.68-1.67H3434m0-7H3247.37a8.68,8.68,0,0,0-8.68,8.67V404.33a8.68,8.68,0,0,0,8.68,8.67H3434a8.68,8.68,0,0,0,8.68-8.67V83.92a8.68,8.68,0,0,0-8.68-8.67Z"/><rect class="cls-2" x="3317.34" y="58.64" width="45.66" height="5.43" rx="2.71" ry="2.71"/><circle class="cls-2" cx="3339.94" cy="436.1" r="15.37"/><text class="cls-3" transform="translate(3321.69 91.66)">12.31</text><rect class="cls-4" x="3252.88" y="109.43" width="13.4" height="13.4" transform="translate(872.59 2338.89) rotate(-45)"/><rect class="cls-1" x="3254.56" y="109.6" width="13.14" height="12.88" transform="translate(873.11 2339.96) rotate(-45)"/><rect class="cls-5" x="3243.17" y="140.18" width="194.78" height="1.97"/><circle class="cls-6" cx="3418.93" cy="116.57" r="9.18"/><text class="cls-7" transform="translate(3416.83 119.75)">i</text><text class="cls-8" transform="translate(3320.86 132.22)">Hans</text><rect x="3245.14" y="87.85" width="2.26" height="4.14"/><rect x="3247.77" y="86.16" width="2.26" height="5.84"/><rect x="3250.41" y="84.09" width="2.26" height="7.91"/><rect x="3253.23" y="82.39" width="2.26" height="9.61"/><rect x="3256.06" y="81.26" width="2.26" height="10.74"/><text class="cls-9" transform="translate(3259.27 91.19)">3</text><text class="cls-9" transform="translate(3271.85 91.19)">4</text><text class="cls-10" transform="translate(3278.9 90.65)">G</text><rect class="cls-11" x="3410.3" y="82.47" width="24.07" height="8.53" rx="3.49" ry="3.49"/><rect x="3434.78" y="85.77" width="0.55" height="1.93"/><rect x="3411.12" y="83.29" width="15.4" height="7.15" rx="2.57" ry="2.57"/><text class="cls-12" transform="translate(3391.39 89.91)">75%</text><rect class="cls-13" x="3299.57" y="383.49" width="133.79" height="19.02" rx="9.51" ry="9.51"/><circle class="cls-4" cx="3423.52" cy="393.33" r="7.21"/><polygon class="cls-1" points="3423.47 387.55 3428.53 392.62 3427.53 393.62 3424.18 390.28 3424.18 398.07 3422.76 398.07 3422.76 390.28 3419.41 393.62 3418.41 392.62 3423.47 387.55"/><g class="cls-14"><rect class="cls-4" x="3251.69" y="299.54" width="123.95" height="62.96" rx="18.22" ry="18.22"/><path class="cls-4" d="M3373.43,339c.75,5.41,4.3,10.08,8.69,13.11s9.56,4.61,14.72,5.73c-5.43,4.56-13.11,5.4-19.91,3.72s-12.85-5.56-18.56-9.72a169,169,0,0,1,14.79-13Z"/><text class="cls-3" transform="translate(3260.28 330.9)">@#%?+X&lt;å(€)?</text></g><rect x="2874.44" y="30" width="230.56" height="439.4" rx="47.65" ry="47.65"/><rect class="cls-1" x="2892.19" y="78.75" width="197.01" height="330.75" rx="5.17" ry="5.17"/><path d="M3084,82.25a1.68,1.68,0,0,1,1.68,1.67V404.33A1.68,1.68,0,0,1,3084,406H2897.37a1.68,1.68,0,0,1-1.68-1.67V83.92a1.68,1.68,0,0,1,1.68-1.67H3084m0-7H2897.37a8.68,8.68,0,0,0-8.68,8.67V404.33a8.68,8.68,0,0,0,8.68,8.67H3084a8.68,8.68,0,0,0,8.68-8.67V83.92a8.68,8.68,0,0,0-8.68-8.67Z"/><rect class="cls-2" x="2967.34" y="58.64" width="45.66" height="5.43" rx="2.71" ry="2.71"/><circle class="cls-2" cx="2989.94" cy="436.1" r="15.37"/><text class="cls-3" transform="translate(2971.69 91.66)">12.31</text><rect class="cls-4" x="2902.88" y="109.43" width="13.4" height="13.4" transform="translate(770.08 2091.4) rotate(-45)"/><rect class="cls-1" x="2904.56" y="109.6" width="13.14" height="12.88" transform="translate(770.6 2092.47) rotate(-45)"/><rect class="cls-5" x="2893.17" y="140.18" width="194.78" height="1.97"/><circle class="cls-6" cx="3068.93" cy="116.57" r="9.18"/><text class="cls-7" transform="translate(3066.83 119.75)">i</text><text class="cls-8" transform="translate(2970.86 132.22)">Hans</text><rect x="2895.14" y="87.85" width="2.26" height="4.14"/><rect x="2897.77" y="86.16" width="2.26" height="5.84"/><rect x="2900.41" y="84.09" width="2.26" height="7.91"/><rect x="2903.23" y="82.39" width="2.26" height="9.61"/><rect x="2906.06" y="81.26" width="2.26" height="10.74"/><text class="cls-9" transform="translate(2909.27 91.19)">3</text><text class="cls-9" transform="translate(2921.85 91.19)">4</text><text class="cls-10" transform="translate(2928.9 90.65)">G</text><rect class="cls-11" x="3060.3" y="82.47" width="24.07" height="8.53" rx="3.49" ry="3.49"/><rect x="3084.78" y="85.77" width="0.55" height="1.93"/><rect x="3061.12" y="83.29" width="15.4" height="7.15" rx="2.57" ry="2.57"/><text class="cls-12" transform="translate(3041.39 89.91)">75%</text><rect class="cls-13" x="2949.57" y="383.49" width="133.79" height="19.02" rx="9.51" ry="9.51"/><circle class="cls-4" cx="3073.52" cy="393.33" r="7.21"/><polygon class="cls-1" points="3073.47 387.55 3078.53 392.62 3077.53 393.62 3074.18 390.28 3074.18 398.07 3072.76 398.07 3072.76 390.28 3069.41 393.62 3068.41 392.62 3073.47 387.55"/><g class="cls-15"><rect class="cls-4" x="2901.69" y="299.54" width="123.95" height="62.96" rx="18.22" ry="18.22"/><path class="cls-4" d="M3023.43,339c.75,5.41,4.3,10.08,8.69,13.11s9.56,4.61,14.72,5.73c-5.43,4.56-13.11,5.4-19.91,3.72s-12.85-5.56-18.56-9.72a169,169,0,0,1,14.79-13Z"/><text class="cls-3" transform="translate(2910.28 330.9)">@#%?+X&lt;å(€)?</text></g><rect x="2524.44" y="30" width="230.56" height="439.4" rx="47.65" ry="47.65"/><rect class="cls-1" x="2542.19" y="78.75" width="197.01" height="330.75" rx="5.17" ry="5.17"/><path d="M2734,82.25a1.68,1.68,0,0,1,1.68,1.67V404.33A1.68,1.68,0,0,1,2734,406H2547.37a1.68,1.68,0,0,1-1.68-1.67V83.92a1.68,1.68,0,0,1,1.68-1.67H2734m0-7H2547.37a8.68,8.68,0,0,0-8.68,8.67V404.33a8.68,8.68,0,0,0,8.68,8.67H2734a8.68,8.68,0,0,0,8.68-8.67V83.92a8.68,8.68,0,0,0-8.68-8.67Z"/><rect class="cls-2" x="2617.34" y="58.64" width="45.66" height="5.43" rx="2.71" ry="2.71"/><circle class="cls-2" cx="2639.94" cy="436.1" r="15.37"/><text class="cls-3" transform="translate(2621.69 91.66)">12.31</text><rect class="cls-4" x="2552.88" y="109.43" width="13.4" height="13.4" transform="translate(667.57 1843.91) rotate(-45)"/><rect class="cls-1" x="2554.56" y="109.6" width="13.14" height="12.88" transform="translate(668.08 1844.98) rotate(-45)"/><rect class="cls-5" x="2543.17" y="140.18" width="194.78" height="1.97"/><circle class="cls-6" cx="2718.93" cy="116.57" r="9.18"/><text class="cls-7" transform="translate(2716.83 119.75)">i</text><text class="cls-8" transform="translate(2620.86 132.22)">Hans</text><rect x="2545.14" y="87.85" width="2.26" height="4.14"/><rect x="2547.77" y="86.16" width="2.26" height="5.84"/><rect x="2550.41" y="84.09" width="2.26" height="7.91"/><rect x="2553.23" y="82.39" width="2.26" height="9.61"/><rect x="2556.06" y="81.26" width="2.26" height="10.74"/><text class="cls-9" transform="translate(2559.27 91.19)">3</text><text class="cls-9" transform="translate(2571.85 91.19)">4</text><text class="cls-10" transform="translate(2578.9 90.65)">G</text><rect class="cls-11" x="2710.3" y="82.47" width="24.07" height="8.53" rx="3.49" ry="3.49"/><rect x="2734.78" y="85.77" width="0.55" height="1.93"/><rect x="2711.12" y="83.29" width="15.4" height="7.15" rx="2.57" ry="2.57"/><text class="cls-12" transform="translate(2691.39 89.91)">75%</text><rect class="cls-13" x="2599.57" y="383.49" width="133.79" height="19.02" rx="9.51" ry="9.51"/><circle class="cls-4" cx="2723.52" cy="393.33" r="7.21"/><polygon class="cls-1" points="2723.47 387.55 2728.53 392.62 2727.53 393.62 2724.18 390.28 2724.18 398.07 2722.76 398.07 2722.76 390.28 2719.41 393.62 2718.41 392.62 2723.47 387.55"/><g class="cls-16"><rect class="cls-4" x="2551.69" y="299.54" width="123.95" height="62.96" rx="18.22" ry="18.22"/><path class="cls-4" d="M2673.43,339c.75,5.41,4.3,10.08,8.69,13.11s9.56,4.61,14.72,5.73c-5.43,4.56-13.11,5.4-19.91,3.72s-12.85-5.56-18.56-9.72a169,169,0,0,1,14.79-13Z"/><text class="cls-3" transform="translate(2560.28 330.9)">@#%?+X&lt;å(€)?</text></g><rect x="2174.44" y="30" width="230.56" height="439.4" rx="47.65" ry="47.65"/><rect class="cls-1" x="2192.19" y="78.75" width="197.01" height="330.75" rx="5.17" ry="5.17"/><path d="M2384,82.25a1.68,1.68,0,0,1,1.68,1.67V404.33A1.68,1.68,0,0,1,2384,406H2197.37a1.68,1.68,0,0,1-1.68-1.67V83.92a1.68,1.68,0,0,1,1.68-1.67H2384m0-7H2197.37a8.68,8.68,0,0,0-8.68,8.67V404.33a8.68,8.68,0,0,0,8.68,8.67H2384a8.68,8.68,0,0,0,8.68-8.67V83.92a8.68,8.68,0,0,0-8.68-8.67Z"/><rect class="cls-2" x="2267.34" y="58.64" width="45.66" height="5.43" rx="2.71" ry="2.71"/><circle class="cls-2" cx="2289.94" cy="436.1" r="15.37"/><text class="cls-3" transform="translate(2271.69 91.66)">12.31</text><rect class="cls-4" x="2202.88" y="109.43" width="13.4" height="13.4" transform="translate(565.05 1596.43) rotate(-45)"/><rect class="cls-1" x="2204.56" y="109.6" width="13.14" height="12.88" transform="translate(565.57 1597.49) rotate(-45)"/><rect class="cls-5" x="2193.17" y="140.18" width="194.78" height="1.97"/><circle class="cls-6" cx="2368.93" cy="116.57" r="9.18"/><text class="cls-7" transform="translate(2366.83 119.75)">i</text><text class="cls-8" transform="translate(2270.86 132.22)">Hans</text><rect x="2195.14" y="87.85" width="2.26" height="4.14"/><rect x="2197.77" y="86.16" width="2.26" height="5.84"/><rect x="2200.41" y="84.09" width="2.26" height="7.91"/><rect x="2203.23" y="82.39" width="2.26" height="9.61"/><rect x="2206.06" y="81.26" width="2.26" height="10.74"/><text class="cls-9" transform="translate(2209.27 91.19)">3</text><text class="cls-9" transform="translate(2221.85 91.19)">4</text><text class="cls-10" transform="translate(2228.9 90.65)">G</text><rect class="cls-11" x="2360.3" y="82.47" width="24.07" height="8.53" rx="3.49" ry="3.49"/><rect x="2384.78" y="85.77" width="0.55" height="1.93"/><rect x="2361.12" y="83.29" width="15.4" height="7.15" rx="2.57" ry="2.57"/><text class="cls-12" transform="translate(2341.39 89.91)">75%</text><rect class="cls-13" x="2249.57" y="383.49" width="133.79" height="19.02" rx="9.51" ry="9.51"/><circle class="cls-4" cx="2373.52" cy="393.33" r="7.21"/><polygon class="cls-1" points="2373.47 387.55 2378.53 392.62 2377.53 393.62 2374.18 390.28 2374.18 398.07 2372.76 398.07 2372.76 390.28 2369.41 393.62 2368.41 392.62 2373.47 387.55"/><g class="cls-17"><rect class="cls-4" x="2201.69" y="299.54" width="123.95" height="62.96" rx="18.22" ry="18.22"/><path class="cls-4" d="M2323.43,339c.75,5.41,4.3,10.08,8.69,13.11s9.56,4.61,14.72,5.73c-5.43,4.56-13.11,5.4-19.91,3.72s-12.85-5.56-18.56-9.72a169,169,0,0,1,14.79-13Z"/><text class="cls-3" transform="translate(2210.28 330.9)">@#%?+X&lt;å(€)?</text></g><rect x="1824.44" y="30" width="230.56" height="439.4" rx="47.65" ry="47.65"/><rect class="cls-1" x="1842.19" y="78.75" width="197.01" height="330.75" rx="5.17" ry="5.17"/><path d="M2034,82.25a1.68,1.68,0,0,1,1.68,1.67V404.33A1.68,1.68,0,0,1,2034,406H1847.37a1.68,1.68,0,0,1-1.68-1.67V83.92a1.68,1.68,0,0,1,1.68-1.67H2034m0-7H1847.37a8.68,8.68,0,0,0-8.68,8.67V404.33a8.68,8.68,0,0,0,8.68,8.67H2034a8.68,8.68,0,0,0,8.68-8.67V83.92a8.68,8.68,0,0,0-8.68-8.67Z"/><rect class="cls-2" x="1917.34" y="58.64" width="45.66" height="5.43" rx="2.71" ry="2.71"/><circle class="cls-2" cx="1939.94" cy="436.1" r="15.37"/><text class="cls-3" transform="translate(1921.69 91.66)">12.31</text><rect class="cls-4" x="1852.88" y="109.43" width="13.4" height="13.4" transform="translate(462.54 1348.94) rotate(-45)"/><rect class="cls-1" x="1854.56" y="109.6" width="13.14" height="12.88" transform="translate(463.06 1350.01) rotate(-45)"/><rect class="cls-5" x="1843.17" y="140.18" width="194.78" height="1.97"/><circle class="cls-6" cx="2018.93" cy="116.57" r="9.18"/><text class="cls-7" transform="translate(2016.83 119.75)">i</text><text class="cls-8" transform="translate(1920.86 132.22)">Hans</text><rect x="1845.14" y="87.85" width="2.26" height="4.14"/><rect x="1847.77" y="86.16" width="2.26" height="5.84"/><rect x="1850.41" y="84.09" width="2.26" height="7.91"/><rect x="1853.23" y="82.39" width="2.26" height="9.61"/><rect x="1856.06" y="81.26" width="2.26" height="10.74"/><text class="cls-9" transform="translate(1859.27 91.19)">3</text><text class="cls-9" transform="translate(1871.85 91.19)">4</text><text class="cls-10" transform="translate(1878.9 90.65)">G</text><rect class="cls-11" x="2010.3" y="82.47" width="24.07" height="8.53" rx="3.49" ry="3.49"/><rect x="2034.78" y="85.77" width="0.55" height="1.93"/><rect x="2011.12" y="83.29" width="15.4" height="7.15" rx="2.57" ry="2.57"/><text class="cls-12" transform="translate(1991.39 89.91)">75%</text><rect class="cls-13" x="1899.57" y="383.49" width="133.79" height="19.02" rx="9.51" ry="9.51"/><circle class="cls-4" cx="2023.52" cy="393.33" r="7.21"/><polygon class="cls-1" points="2023.47 387.55 2028.53 392.62 2027.53 393.62 2024.18 390.28 2024.18 398.07 2022.76 398.07 2022.76 390.28 2019.41 393.62 2018.41 392.62 2023.47 387.55"/><g class="cls-18"><rect class="cls-4" x="1851.69" y="299.54" width="123.95" height="62.96" rx="18.22" ry="18.22"/><path class="cls-4" d="M1973.43,339c.75,5.41,4.3,10.08,8.69,13.11s9.56,4.61,14.72,5.73c-5.43,4.56-13.11,5.4-19.91,3.72s-12.85-5.56-18.56-9.72a169,169,0,0,1,14.79-13Z"/><text class="cls-3" transform="translate(1860.28 330.9)">@#%?+X&lt;å(€)?</text></g><rect x="1474.44" y="30" width="230.56" height="439.4" rx="47.65" ry="47.65"/><rect class="cls-1" x="1492.19" y="78.75" width="197.01" height="330.75" rx="5.17" ry="5.17"/><path d="M1684,82.25a1.68,1.68,0,0,1,1.68,1.67V404.33A1.68,1.68,0,0,1,1684,406H1497.37a1.68,1.68,0,0,1-1.68-1.67V83.92a1.68,1.68,0,0,1,1.68-1.67H1684m0-7H1497.37a8.68,8.68,0,0,0-8.68,8.67V404.33a8.68,8.68,0,0,0,8.68,8.67H1684a8.68,8.68,0,0,0,8.68-8.67V83.92a8.68,8.68,0,0,0-8.68-8.67Z"/><rect class="cls-2" x="1567.34" y="58.64" width="45.66" height="5.43" rx="2.71" ry="2.71"/><circle class="cls-2" cx="1589.94" cy="436.1" r="15.37"/><text class="cls-3" transform="translate(1571.69 91.66)">12.31</text><rect class="cls-4" x="1502.88" y="109.43" width="13.4" height="13.4" transform="translate(360.03 1101.45) rotate(-45)"/><rect class="cls-1" x="1504.56" y="109.6" width="13.14" height="12.88" transform="translate(360.55 1102.52) rotate(-45)"/><rect class="cls-5" x="1493.17" y="140.18" width="194.78" height="1.97"/><circle class="cls-6" cx="1668.93" cy="116.57" r="9.18"/><text class="cls-7" transform="translate(1666.83 119.75)">i</text><text class="cls-8" transform="translate(1570.86 132.22)">Hans</text><rect x="1495.14" y="87.85" width="2.26" height="4.14"/><rect x="1497.77" y="86.16" width="2.26" height="5.84"/><rect x="1500.41" y="84.09" width="2.26" height="7.91"/><rect x="1503.23" y="82.39" width="2.26" height="9.61"/><rect x="1506.06" y="81.26" width="2.26" height="10.74"/><text class="cls-9" transform="translate(1509.27 91.19)">3</text><text class="cls-9" transform="translate(1521.85 91.19)">4</text><text class="cls-10" transform="translate(1528.9 90.65)">G</text><rect class="cls-11" x="1660.3" y="82.47" width="24.07" height="8.53" rx="3.49" ry="3.49"/><rect x="1684.78" y="85.77" width="0.55" height="1.93"/><rect x="1661.12" y="83.29" width="15.4" height="7.15" rx="2.57" ry="2.57"/><text class="cls-12" transform="translate(1641.39 89.91)">75%</text><rect class="cls-13" x="1549.57" y="383.49" width="133.79" height="19.02" rx="9.51" ry="9.51"/><circle class="cls-4" cx="1673.52" cy="393.33" r="7.21"/><polygon class="cls-1" points="1673.47 387.55 1678.53 392.62 1677.53 393.62 1674.18 390.28 1674.18 398.07 1672.76 398.07 1672.76 390.28 1669.41 393.62 1668.41 392.62 1673.47 387.55"/><g class="cls-19"><rect class="cls-4" x="1501.69" y="299.54" width="123.95" height="62.96" rx="18.22" ry="18.22"/><path class="cls-4" d="M1623.43,339c.75,5.41,4.3,10.08,8.69,13.11s9.56,4.61,14.72,5.73c-5.43,4.56-13.11,5.4-19.91,3.72s-12.85-5.56-18.56-9.72a169,169,0,0,1,14.79-13Z"/><text class="cls-3" transform="translate(1510.28 330.9)">@#%?+X&lt;å(€)?</text></g><rect x="1124.44" y="30" width="230.56" height="439.4" rx="47.65" ry="47.65"/><rect class="cls-1" x="1142.19" y="78.75" width="197.01" height="330.75" rx="5.17" ry="5.17"/><path d="M1334,82.25a1.68,1.68,0,0,1,1.68,1.67V404.33A1.68,1.68,0,0,1,1334,406H1147.37a1.68,1.68,0,0,1-1.68-1.67V83.92a1.68,1.68,0,0,1,1.68-1.67H1334m0-7H1147.37a8.68,8.68,0,0,0-8.68,8.67V404.33a8.68,8.68,0,0,0,8.68,8.67H1334a8.68,8.68,0,0,0,8.68-8.67V83.92a8.68,8.68,0,0,0-8.68-8.67Z"/><rect class="cls-2" x="1217.34" y="58.64" width="45.66" height="5.43" rx="2.71" ry="2.71"/><circle class="cls-2" cx="1239.94" cy="436.1" r="15.37"/><text class="cls-3" transform="translate(1221.69 91.66)">12.31</text><rect class="cls-4" x="1152.88" y="109.43" width="13.4" height="13.4" transform="translate(257.52 853.96) rotate(-45)"/><rect class="cls-1" x="1154.56" y="109.6" width="13.14" height="12.88" transform="translate(258.03 855.03) rotate(-45)"/><rect class="cls-5" x="1143.17" y="140.18" width="194.78" height="1.97"/><circle class="cls-6" cx="1318.93" cy="116.57" r="9.18"/><text class="cls-7" transform="translate(1316.83 119.75)">i</text><text class="cls-8" transform="translate(1220.86 132.22)">Hans</text><rect x="1145.14" y="87.85" width="2.26" height="4.14"/><rect x="1147.77" y="86.16" width="2.26" height="5.84"/><rect x="1150.41" y="84.09" width="2.26" height="7.91"/><rect x="1153.23" y="82.39" width="2.26" height="9.61"/><rect x="1156.06" y="81.26" width="2.26" height="10.74"/><text class="cls-9" transform="translate(1159.27 91.19)">3</text><text class="cls-9" transform="translate(1171.85 91.19)">4</text><text class="cls-10" transform="translate(1178.9 90.65)">G</text><rect class="cls-11" x="1310.3" y="82.47" width="24.07" height="8.53" rx="3.49" ry="3.49"/><rect x="1334.78" y="85.77" width="0.55" height="1.93"/><rect x="1311.12" y="83.29" width="15.4" height="7.15" rx="2.57" ry="2.57"/><text class="cls-12" transform="translate(1291.39 89.91)">75%</text><rect class="cls-13" x="1199.57" y="383.49" width="133.79" height="19.02" rx="9.51" ry="9.51"/><circle class="cls-4" cx="1323.52" cy="393.33" r="7.21"/><polygon class="cls-1" points="1323.47 387.55 1328.53 392.62 1327.53 393.62 1324.18 390.28 1324.18 398.07 1322.76 398.07 1322.76 390.28 1319.41 393.62 1318.41 392.62 1323.47 387.55"/><g class="cls-20"><rect class="cls-4" x="1151.69" y="299.54" width="123.95" height="62.96" rx="18.22" ry="18.22"/><path class="cls-4" d="M1273.43,339c.75,5.41,4.3,10.08,8.69,13.11s9.56,4.61,14.72,5.73c-5.43,4.56-13.11,5.4-19.91,3.72s-12.85-5.56-18.56-9.72a169,169,0,0,1,14.79-13Z"/><text class="cls-3" transform="translate(1160.28 330.9)">@#%?+X&lt;å(€)?</text></g><rect x="774.44" y="30" width="230.56" height="439.4" rx="47.65" ry="47.65"/><rect class="cls-1" x="792.19" y="78.75" width="197.01" height="330.75" rx="5.17" ry="5.17"/><path d="M984,82.25a1.68,1.68,0,0,1,1.68,1.67V404.33A1.68,1.68,0,0,1,984,406H797.37a1.68,1.68,0,0,1-1.68-1.67V83.92a1.68,1.68,0,0,1,1.68-1.67H984m0-7H797.37a8.68,8.68,0,0,0-8.68,8.67V404.33a8.68,8.68,0,0,0,8.68,8.67H984a8.68,8.68,0,0,0,8.68-8.67V83.92A8.68,8.68,0,0,0,984,75.25Z"/><rect class="cls-2" x="867.34" y="58.64" width="45.66" height="5.43" rx="2.71" ry="2.71"/><circle class="cls-2" cx="889.94" cy="436.1" r="15.37"/><text class="cls-3" transform="translate(871.69 91.66)">12.31</text><rect class="cls-4" x="802.88" y="109.43" width="13.4" height="13.4" transform="translate(155 606.48) rotate(-45)"/><rect class="cls-1" x="804.56" y="109.6" width="13.14" height="12.88" transform="translate(155.52 607.54) rotate(-45)"/><rect class="cls-5" x="793.17" y="140.18" width="194.78" height="1.97"/><circle class="cls-6" cx="968.93" cy="116.57" r="9.18"/><text class="cls-7" transform="translate(966.83 119.75)">i</text><text class="cls-8" transform="translate(870.86 132.22)">Hans</text><rect x="795.14" y="87.85" width="2.26" height="4.14"/><rect x="797.77" y="86.16" width="2.26" height="5.84"/><rect x="800.41" y="84.09" width="2.26" height="7.91"/><rect x="803.23" y="82.39" width="2.26" height="9.61"/><rect x="806.06" y="81.26" width="2.26" height="10.74"/><text class="cls-9" transform="translate(809.27 91.19)">3</text><text class="cls-9" transform="translate(821.85 91.19)">4</text><text class="cls-10" transform="translate(828.9 90.65)">G</text><rect class="cls-11" x="960.3" y="82.47" width="24.07" height="8.53" rx="3.49" ry="3.49"/><rect x="984.78" y="85.77" width="0.55" height="1.93"/><rect x="961.12" y="83.29" width="15.4" height="7.15" rx="2.57" ry="2.57"/><text class="cls-12" transform="translate(941.39 89.91)">75%</text><rect class="cls-13" x="849.57" y="383.49" width="133.79" height="19.02" rx="9.51" ry="9.51"/><circle class="cls-4" cx="973.52" cy="393.33" r="7.21"/><polygon class="cls-1" points="973.47 387.55 978.53 392.62 977.53 393.62 974.18 390.28 974.18 398.07 972.76 398.07 972.76 390.28 969.41 393.62 968.41 392.62 973.47 387.55"/><g class="cls-21"><rect class="cls-4" x="801.69" y="299.54" width="123.95" height="62.96" rx="18.22" ry="18.22"/><path class="cls-4" d="M923.43,339c.75,5.41,4.3,10.08,8.69,13.11s9.56,4.61,14.72,5.73c-5.43,4.56-13.11,5.4-19.91,3.72s-12.85-5.56-18.56-9.72a169,169,0,0,1,14.79-13Z"/><text class="cls-3" transform="translate(810.28 330.9)">@#%?+X&lt;å(€)?</text></g><rect x="424.44" y="30" width="230.56" height="439.4" rx="47.65" ry="47.65"/><rect class="cls-1" x="442.19" y="78.75" width="197.01" height="330.75" rx="5.17" ry="5.17"/><path d="M634,82.25a1.68,1.68,0,0,1,1.68,1.67V404.33A1.68,1.68,0,0,1,634,406H447.37a1.68,1.68,0,0,1-1.68-1.67V83.92a1.68,1.68,0,0,1,1.68-1.67H634m0-7H447.37a8.68,8.68,0,0,0-8.68,8.67V404.33a8.68,8.68,0,0,0,8.68,8.67H634a8.68,8.68,0,0,0,8.68-8.67V83.92A8.68,8.68,0,0,0,634,75.25Z"/><rect class="cls-2" x="517.34" y="58.64" width="45.66" height="5.43" rx="2.71" ry="2.71"/><circle class="cls-2" cx="539.94" cy="436.1" r="15.37"/><text class="cls-3" transform="translate(521.69 91.66)">12.31</text><rect class="cls-4" x="452.88" y="109.43" width="13.4" height="13.4" transform="translate(52.49 358.99) rotate(-45)"/><rect class="cls-1" x="454.56" y="109.6" width="13.14" height="12.88" transform="translate(53.01 360.06) rotate(-45)"/><rect class="cls-5" x="443.17" y="140.18" width="194.78" height="1.97"/><circle class="cls-6" cx="618.93" cy="116.57" r="9.18"/><text class="cls-7" transform="translate(616.83 119.75)">i</text><text class="cls-8" transform="translate(520.86 132.22)">Hans</text><rect x="445.14" y="87.85" width="2.26" height="4.14"/><rect x="447.77" y="86.16" width="2.26" height="5.84"/><rect x="450.41" y="84.09" width="2.26" height="7.91"/><rect x="453.23" y="82.39" width="2.26" height="9.61"/><rect x="456.06" y="81.26" width="2.26" height="10.74"/><text class="cls-9" transform="translate(459.27 91.19)">3</text><text class="cls-9" transform="translate(471.85 91.19)">4</text><text class="cls-10" transform="translate(478.9 90.65)">G</text><rect class="cls-11" x="610.3" y="82.47" width="24.07" height="8.53" rx="3.49" ry="3.49"/><rect x="634.78" y="85.77" width="0.55" height="1.93"/><rect x="611.12" y="83.29" width="15.4" height="7.15" rx="2.57" ry="2.57"/><text class="cls-12" transform="translate(591.39 89.91)">75%</text><rect class="cls-13" x="499.57" y="383.49" width="133.79" height="19.02" rx="9.51" ry="9.51"/><circle class="cls-4" cx="623.52" cy="393.33" r="7.21"/><polygon class="cls-1" points="623.47 387.55 628.53 392.62 627.53 393.62 624.18 390.28 624.18 398.07 622.76 398.07 622.76 390.28 619.41 393.62 618.41 392.62 623.47 387.55"/><g class="cls-22"><rect class="cls-4" x="451.69" y="299.54" width="123.95" height="62.96" rx="18.22" ry="18.22"/><path class="cls-4" d="M573.43,339c.75,5.41,4.3,10.08,8.69,13.11s9.56,4.61,14.72,5.73c-5.43,4.56-13.11,5.4-19.91,3.72s-12.85-5.56-18.56-9.72a169,169,0,0,1,14.79-13Z"/><text class="cls-3" transform="translate(460.28 330.9)">@#%?+X&lt;å(€)?</text></g><rect x="74.44" y="30" width="230.56" height="439.4" rx="47.65" ry="47.65"/><rect class="cls-1" x="92.19" y="78.75" width="197.01" height="330.75" rx="5.17" ry="5.17"/><path d="M284,82.25a1.68,1.68,0,0,1,1.68,1.67V404.33A1.68,1.68,0,0,1,284,406H97.37a1.68,1.68,0,0,1-1.68-1.67V83.92a1.68,1.68,0,0,1,1.68-1.67H284m0-7H97.37a8.68,8.68,0,0,0-8.68,8.67V404.33A8.68,8.68,0,0,0,97.37,413H284a8.68,8.68,0,0,0,8.68-8.67V83.92A8.68,8.68,0,0,0,284,75.25Z"/><rect class="cls-2" x="167.34" y="58.64" width="45.66" height="5.43" rx="2.71" ry="2.71"/><circle class="cls-2" cx="189.94" cy="436.1" r="15.37"/><text class="cls-3" transform="translate(171.69 91.66)">12.31</text><rect class="cls-4" x="102.88" y="109.43" width="13.4" height="13.4" transform="translate(-50.02 111.5) rotate(-45)"/><rect class="cls-1" x="104.56" y="109.6" width="13.14" height="12.88" transform="translate(-49.5 112.57) rotate(-45)"/><rect class="cls-5" x="93.17" y="140.18" width="194.78" height="1.97"/><circle class="cls-6" cx="268.93" cy="116.57" r="9.18"/><text class="cls-7" transform="translate(266.83 119.75)">i</text><text class="cls-8" transform="translate(170.86 132.22)">Hans</text><rect x="95.14" y="87.85" width="2.26" height="4.14"/><rect x="97.77" y="86.16" width="2.26" height="5.84"/><rect x="100.41" y="84.09" width="2.26" height="7.91"/><rect x="103.23" y="82.39" width="2.26" height="9.61"/><rect x="106.06" y="81.26" width="2.26" height="10.74"/><text class="cls-9" transform="translate(109.27 91.19)">3</text><text class="cls-9" transform="translate(121.85 91.19)">4</text><text class="cls-10" transform="translate(128.9 90.65)">G</text><rect class="cls-11" x="260.3" y="82.47" width="24.07" height="8.53" rx="3.49" ry="3.49"/><rect x="284.78" y="85.77" width="0.55" height="1.93"/><rect x="261.12" y="83.29" width="15.4" height="7.15" rx="2.57" ry="2.57"/><text class="cls-12" transform="translate(241.39 89.91)">75%</text><rect class="cls-13" x="149.57" y="383.49" width="133.79" height="19.02" rx="9.51" ry="9.51"/><circle class="cls-4" cx="273.52" cy="393.33" r="7.21"/><polygon class="cls-1" points="273.47 387.55 278.53 392.62 277.53 393.62 274.18 390.28 274.18 398.07 272.76 398.07 272.76 390.28 269.41 393.62 268.41 392.62 273.47 387.55"/><g class="cls-23"><rect class="cls-4" x="101.69" y="299.54" width="123.95" height="62.96" rx="18.22" ry="18.22"/><path class="cls-4" d="M223.43,339c.75,5.41,4.3,10.08,8.69,13.11s9.56,4.61,14.72,5.73c-5.43,4.56-13.11,5.4-19.91,3.72s-12.85-5.56-18.56-9.72a169,169,0,0,1,14.79-13Z"/><text class="cls-3" transform="translate(110.28 330.9)">@#%?+X&lt;å(€)?</text></g></svg>
