<svg id="Layer_1" data-name="Layer 1" xmlns="http://www.w3.org/2000/svg" viewBox="0 0 3850 500"><defs><style>.cls-1{fill:#fff;}.cls-2{fill:#302f2f;}.cls-11,.cls-2{stroke:#000;}.cls-11,.cls-13,.cls-2,.cls-6{stroke-miterlimit:10;}.cls-3{font-size:13.77px;}.cls-10,.cls-12,.cls-14,.cls-3,.cls-8,.cls-9{font-family:Helvetica, Helvetica;}.cls-4,.cls-7{fill:#4d86f7;}.cls-5{fill:#9f9fa0;}.cls-11,.cls-13,.cls-6{fill:none;}.cls-6{stroke:#4d86f7;}.cls-13,.cls-6{stroke-width:2px;}.cls-7{font-size:10.63px;font-family:Superclarendon-Regular, Superclarendon;}.cls-8{font-size:14.43px;}.cls-9{font-size:13.8px;}.cls-10{font-size:11.35px;}.cls-12{font-size:8.53px;}.cls-13{stroke:#9f9fa0;}.cls-14{font-size:13.47px;}.cls-15{opacity:0.9;}.cls-16{opacity:0.8;}.cls-17{opacity:0.7;}.cls-18{opacity:0.6;}.cls-19{opacity:0.5;}.cls-20{opacity:0.4;}.cls-21{opacity:0.3;}.cls-22{opacity:0.2;}.cls-23{opacity:0.1;}.cls-24{opacity:0;}</style></defs><title>Artboard 74</title><rect x="3559.44" y="30" width="230.56" height="439.4" rx="47.65" ry="47.65"/><rect class="cls-1" x="3577.19" y="78.75" width="197.01" height="330.75" rx="5.17" ry="5.17"/><path d="M3769,82.25a1.68,1.68,0,0,1,1.68,1.67V404.33A1.68,1.68,0,0,1,3769,406H3582.37a1.68,1.68,0,0,1-1.68-1.67V83.92a1.68,1.68,0,0,1,1.68-1.67H3769m0-7H3582.37a8.68,8.68,0,0,0-8.68,8.67V404.33a8.68,8.68,0,0,0,8.68,8.67H3769a8.68,8.68,0,0,0,8.68-8.67V83.92a8.68,8.68,0,0,0-8.68-8.67Z"/><rect class="cls-2" x="3652.34" y="58.64" width="45.66" height="5.43" rx="2.71" ry="2.71"/><circle class="cls-2" cx="3674.94" cy="436.1" r="15.37"/><text class="cls-3" transform="translate(3656.69 91.66)">12.31</text><rect class="cls-4" x="3587.88" y="109.43" width="13.4" height="13.4" transform="translate(970.71 2575.77) rotate(-45)"/><rect class="cls-1" x="3589.56" y="109.6" width="13.14" height="12.88" transform="translate(971.23 2576.84) rotate(-45)"/><rect class="cls-5" x="3578.17" y="140.18" width="194.78" height="1.97"/><circle class="cls-6" cx="3753.93" cy="116.57" r="9.18"/><text class="cls-7" transform="translate(3751.83 119.75)">i</text><text class="cls-8" transform="translate(3655.86 132.22)">Hans</text><rect x="3580.14" y="87.85" width="2.26" height="4.14"/><rect x="3582.77" y="86.16" width="2.26" height="5.84"/><rect x="3585.41" y="84.09" width="2.26" height="7.91"/><rect x="3588.23" y="82.39" width="2.26" height="9.61"/><rect x="3591.06" y="81.26" width="2.26" height="10.74"/><text class="cls-9" transform="translate(3594.27 91.19)">3</text><text class="cls-9" transform="translate(3606.85 91.19)">4</text><text class="cls-10" transform="translate(3613.9 90.65)">G</text><rect class="cls-11" x="3745.3" y="82.47" width="24.07" height="8.53" rx="3.49" ry="3.49"/><rect x="3769.78" y="85.77" width="0.55" height="1.93"/><rect x="3746.12" y="83.29" width="15.4" height="7.15" rx="2.57" ry="2.57"/><text class="cls-12" transform="translate(3726.39 89.91)">75%</text><rect class="cls-13" x="3634.57" y="383.49" width="133.79" height="19.02" rx="9.51" ry="9.51"/><circle class="cls-4" cx="3758.52" cy="393.33" r="7.21"/><polygon class="cls-1" points="3758.47 387.55 3763.53 392.62 3762.53 393.62 3759.18 390.28 3759.18 398.07 3757.76 398.07 3757.76 390.28 3754.41 393.62 3753.41 392.62 3758.47 387.55"/><rect class="cls-4" x="3586.69" y="299.54" width="123.95" height="62.96" rx="18.22" ry="18.22"/><path class="cls-4" d="M3708.43,339c.75,5.41,4.3,10.08,8.69,13.11s9.56,4.61,14.72,5.73c-5.43,4.56-13.11,5.4-19.91,3.72s-12.85-5.56-18.56-9.72a169,169,0,0,1,14.79-13Z"/><text class="cls-3" transform="translate(3595.28 330.9)">@#%?+X&lt;å(€)?</text><rect class="cls-4" x="3587" y="224.58" width="123.82" height="69.29" rx="18.22" ry="18.22"/><path class="cls-4" d="M3708.61,270.88c.75,5.3,4.3,9.87,8.68,12.84s9.55,4.5,14.71,5.6c-5.43,4.46-13.11,5.28-19.89,3.64s-12.84-5.44-18.54-9.51a167.18,167.18,0,0,1,14.77-12.74Z"/><text class="cls-14" transform="translate(3595.57 245.17) scale(1.02 1)">/&amp;%€#”!”#€%&amp;/()<tspan x="0" y="16.17">=&amp;/()=?/&amp;%”#€%</tspan><tspan x="0" y="32.34">&amp;/()=)%€#”#€%</tspan></text><rect x="3209.44" y="30" width="230.56" height="439.4" rx="47.65" ry="47.65"/><rect class="cls-1" x="3227.19" y="78.75" width="197.01" height="330.75" rx="5.17" ry="5.17"/><path d="M3419,82.25a1.68,1.68,0,0,1,1.68,1.67V404.33A1.68,1.68,0,0,1,3419,406H3232.37a1.68,1.68,0,0,1-1.68-1.67V83.92a1.68,1.68,0,0,1,1.68-1.67H3419m0-7H3232.37a8.68,8.68,0,0,0-8.68,8.67V404.33a8.68,8.68,0,0,0,8.68,8.67H3419a8.68,8.68,0,0,0,8.68-8.67V83.92a8.68,8.68,0,0,0-8.68-8.67Z"/><rect class="cls-2" x="3302.34" y="58.64" width="45.66" height="5.43" rx="2.71" ry="2.71"/><circle class="cls-2" cx="3324.94" cy="436.1" r="15.37"/><text class="cls-3" transform="translate(3306.69 91.66)">12.31</text><rect class="cls-4" x="3237.88" y="109.43" width="13.4" height="13.4" transform="translate(868.2 2328.28) rotate(-45)"/><rect class="cls-1" x="3239.56" y="109.6" width="13.14" height="12.88" transform="translate(868.72 2329.35) rotate(-45)"/><rect class="cls-5" x="3228.17" y="140.18" width="194.78" height="1.97"/><circle class="cls-6" cx="3403.93" cy="116.57" r="9.18"/><text class="cls-7" transform="translate(3401.83 119.75)">i</text><text class="cls-8" transform="translate(3305.86 132.22)">Hans</text><rect x="3230.14" y="87.85" width="2.26" height="4.14"/><rect x="3232.77" y="86.16" width="2.26" height="5.84"/><rect x="3235.41" y="84.09" width="2.26" height="7.91"/><rect x="3238.23" y="82.39" width="2.26" height="9.61"/><rect x="3241.06" y="81.26" width="2.26" height="10.74"/><text class="cls-9" transform="translate(3244.27 91.19)">3</text><text class="cls-9" transform="translate(3256.85 91.19)">4</text><text class="cls-10" transform="translate(3263.9 90.65)">G</text><rect class="cls-11" x="3395.3" y="82.47" width="24.07" height="8.53" rx="3.49" ry="3.49"/><rect x="3419.78" y="85.77" width="0.55" height="1.93"/><rect x="3396.12" y="83.29" width="15.4" height="7.15" rx="2.57" ry="2.57"/><text class="cls-12" transform="translate(3376.39 89.91)">75%</text><rect class="cls-13" x="3284.57" y="383.49" width="133.79" height="19.02" rx="9.51" ry="9.51"/><circle class="cls-4" cx="3408.52" cy="393.33" r="7.21"/><polygon class="cls-1" points="3408.47 387.55 3413.53 392.62 3412.53 393.62 3409.18 390.28 3409.18 398.07 3407.76 398.07 3407.76 390.28 3404.41 393.62 3403.41 392.62 3408.47 387.55"/><rect class="cls-4" x="3236.69" y="299.54" width="123.95" height="62.96" rx="18.22" ry="18.22"/><path class="cls-4" d="M3358.43,339c.75,5.41,4.3,10.08,8.69,13.11s9.56,4.61,14.72,5.73c-5.43,4.56-13.11,5.4-19.91,3.72s-12.85-5.56-18.56-9.72a169,169,0,0,1,14.79-13Z"/><text class="cls-3" transform="translate(3245.28 330.9)">@#%?+X&lt;å(€)?</text><g class="cls-15"><rect class="cls-4" x="3237" y="224.58" width="123.82" height="69.29" rx="18.22" ry="18.22"/><path class="cls-4" d="M3358.61,270.88c.75,5.3,4.3,9.87,8.68,12.84s9.55,4.5,14.71,5.6c-5.43,4.46-13.11,5.28-19.89,3.64s-12.84-5.44-18.54-9.51a167.18,167.18,0,0,1,14.77-12.74Z"/><text class="cls-14" transform="translate(3245.57 245.17) scale(1.02 1)">/&amp;%€#”!”#€%&amp;/()<tspan x="0" y="16.17">=&amp;/()=?/&amp;%”#€%</tspan><tspan x="0" y="32.34">&amp;/()=)%€#”#€%</tspan></text></g><rect x="2859.44" y="30" width="230.56" height="439.4" rx="47.65" ry="47.65"/><rect class="cls-1" x="2877.19" y="78.75" width="197.01" height="330.75" rx="5.17" ry="5.17"/><path d="M3069,82.25a1.68,1.68,0,0,1,1.68,1.67V404.33A1.68,1.68,0,0,1,3069,406H2882.37a1.68,1.68,0,0,1-1.68-1.67V83.92a1.68,1.68,0,0,1,1.68-1.67H3069m0-7H2882.37a8.68,8.68,0,0,0-8.68,8.67V404.33a8.68,8.68,0,0,0,8.68,8.67H3069a8.68,8.68,0,0,0,8.68-8.67V83.92a8.68,8.68,0,0,0-8.68-8.67Z"/><rect class="cls-2" x="2952.34" y="58.64" width="45.66" height="5.43" rx="2.71" ry="2.71"/><circle class="cls-2" cx="2974.94" cy="436.1" r="15.37"/><text class="cls-3" transform="translate(2956.69 91.66)">12.31</text><rect class="cls-4" x="2887.88" y="109.43" width="13.4" height="13.4" transform="translate(765.69 2080.79) rotate(-45)"/><rect class="cls-1" x="2889.56" y="109.6" width="13.14" height="12.88" transform="translate(766.2 2081.86) rotate(-45)"/><rect class="cls-5" x="2878.17" y="140.18" width="194.78" height="1.97"/><circle class="cls-6" cx="3053.93" cy="116.57" r="9.18"/><text class="cls-7" transform="translate(3051.83 119.75)">i</text><text class="cls-8" transform="translate(2955.86 132.22)">Hans</text><rect x="2880.14" y="87.85" width="2.26" height="4.14"/><rect x="2882.77" y="86.16" width="2.26" height="5.84"/><rect x="2885.41" y="84.09" width="2.26" height="7.91"/><rect x="2888.23" y="82.39" width="2.26" height="9.61"/><rect x="2891.06" y="81.26" width="2.26" height="10.74"/><text class="cls-9" transform="translate(2894.27 91.19)">3</text><text class="cls-9" transform="translate(2906.85 91.19)">4</text><text class="cls-10" transform="translate(2913.9 90.65)">G</text><rect class="cls-11" x="3045.3" y="82.47" width="24.07" height="8.53" rx="3.49" ry="3.49"/><rect x="3069.78" y="85.77" width="0.55" height="1.93"/><rect x="3046.12" y="83.29" width="15.4" height="7.15" rx="2.57" ry="2.57"/><text class="cls-12" transform="translate(3026.39 89.91)">75%</text><rect class="cls-13" x="2934.57" y="383.49" width="133.79" height="19.02" rx="9.51" ry="9.51"/><circle class="cls-4" cx="3058.52" cy="393.33" r="7.21"/><polygon class="cls-1" points="3058.47 387.55 3063.53 392.62 3062.53 393.62 3059.18 390.28 3059.18 398.07 3057.76 398.07 3057.76 390.28 3054.41 393.62 3053.41 392.62 3058.47 387.55"/><rect class="cls-4" x="2886.69" y="299.54" width="123.95" height="62.96" rx="18.22" ry="18.22"/><path class="cls-4" d="M3008.43,339c.75,5.41,4.3,10.08,8.69,13.11s9.56,4.61,14.72,5.73c-5.43,4.56-13.11,5.4-19.91,3.72s-12.85-5.56-18.56-9.72a169,169,0,0,1,14.79-13Z"/><text class="cls-3" transform="translate(2895.28 330.9)">@#%?+X&lt;å(€)?</text><g class="cls-16"><rect class="cls-4" x="2887" y="224.58" width="123.82" height="69.29" rx="18.22" ry="18.22"/><path class="cls-4" d="M3008.61,270.88c.75,5.3,4.3,9.87,8.68,12.84s9.55,4.5,14.71,5.6c-5.43,4.46-13.11,5.28-19.89,3.64s-12.84-5.44-18.54-9.51a167.18,167.18,0,0,1,14.77-12.74Z"/><text class="cls-14" transform="translate(2895.57 245.17) scale(1.02 1)">/&amp;%€#”!”#€%&amp;/()<tspan x="0" y="16.17">=&amp;/()=?/&amp;%”#€%</tspan><tspan x="0" y="32.34">&amp;/()=)%€#”#€%</tspan></text></g><rect x="2509.44" y="30" width="230.56" height="439.4" rx="47.65" ry="47.65"/><rect class="cls-1" x="2527.19" y="78.75" width="197.01" height="330.75" rx="5.17" ry="5.17"/><path d="M2719,82.25a1.68,1.68,0,0,1,1.68,1.67V404.33A1.68,1.68,0,0,1,2719,406H2532.37a1.68,1.68,0,0,1-1.68-1.67V83.92a1.68,1.68,0,0,1,1.68-1.67H2719m0-7H2532.37a8.68,8.68,0,0,0-8.68,8.67V404.33a8.68,8.68,0,0,0,8.68,8.67H2719a8.68,8.68,0,0,0,8.68-8.67V83.92a8.68,8.68,0,0,0-8.68-8.67Z"/><rect class="cls-2" x="2602.34" y="58.64" width="45.66" height="5.43" rx="2.71" ry="2.71"/><circle class="cls-2" cx="2624.94" cy="436.1" r="15.37"/><text class="cls-3" transform="translate(2606.69 91.66)">12.31</text><rect class="cls-4" x="2537.88" y="109.43" width="13.4" height="13.4" transform="translate(663.17 1833.31) rotate(-45)"/><rect class="cls-1" x="2539.56" y="109.6" width="13.14" height="12.88" transform="translate(663.69 1834.37) rotate(-45)"/><rect class="cls-5" x="2528.17" y="140.18" width="194.78" height="1.97"/><circle class="cls-6" cx="2703.93" cy="116.57" r="9.18"/><text class="cls-7" transform="translate(2701.83 119.75)">i</text><text class="cls-8" transform="translate(2605.86 132.22)">Hans</text><rect x="2530.14" y="87.85" width="2.26" height="4.14"/><rect x="2532.77" y="86.16" width="2.26" height="5.84"/><rect x="2535.41" y="84.09" width="2.26" height="7.91"/><rect x="2538.23" y="82.39" width="2.26" height="9.61"/><rect x="2541.06" y="81.26" width="2.26" height="10.74"/><text class="cls-9" transform="translate(2544.27 91.19)">3</text><text class="cls-9" transform="translate(2556.85 91.19)">4</text><text class="cls-10" transform="translate(2563.9 90.65)">G</text><rect class="cls-11" x="2695.3" y="82.47" width="24.07" height="8.53" rx="3.49" ry="3.49"/><rect x="2719.78" y="85.77" width="0.55" height="1.93"/><rect x="2696.12" y="83.29" width="15.4" height="7.15" rx="2.57" ry="2.57"/><text class="cls-12" transform="translate(2676.39 89.91)">75%</text><rect class="cls-13" x="2584.57" y="383.49" width="133.79" height="19.02" rx="9.51" ry="9.51"/><circle class="cls-4" cx="2708.52" cy="393.33" r="7.21"/><polygon class="cls-1" points="2708.47 387.55 2713.53 392.62 2712.53 393.62 2709.18 390.28 2709.18 398.07 2707.76 398.07 2707.76 390.28 2704.41 393.62 2703.41 392.62 2708.47 387.55"/><rect class="cls-4" x="2536.69" y="299.54" width="123.95" height="62.96" rx="18.22" ry="18.22"/><path class="cls-4" d="M2658.43,339c.75,5.41,4.3,10.08,8.69,13.11s9.56,4.61,14.72,5.73c-5.43,4.56-13.11,5.4-19.91,3.72s-12.85-5.56-18.56-9.72a169,169,0,0,1,14.79-13Z"/><text class="cls-3" transform="translate(2545.28 330.9)">@#%?+X&lt;å(€)?</text><g class="cls-17"><rect class="cls-4" x="2537" y="224.58" width="123.82" height="69.29" rx="18.22" ry="18.22"/><path class="cls-4" d="M2658.61,270.88c.75,5.3,4.3,9.87,8.68,12.84s9.55,4.5,14.71,5.6c-5.43,4.46-13.11,5.28-19.89,3.64s-12.84-5.44-18.54-9.51a167.18,167.18,0,0,1,14.77-12.74Z"/><text class="cls-14" transform="translate(2545.57 245.17) scale(1.02 1)">/&amp;%€#”!”#€%&amp;/()<tspan x="0" y="16.17">=&amp;/()=?/&amp;%”#€%</tspan><tspan x="0" y="32.34">&amp;/()=)%€#”#€%</tspan></text></g><rect x="2159.44" y="30" width="230.56" height="439.4" rx="47.65" ry="47.65"/><rect class="cls-1" x="2177.19" y="78.75" width="197.01" height="330.75" rx="5.17" ry="5.17"/><path d="M2369,82.25a1.68,1.68,0,0,1,1.68,1.67V404.33A1.68,1.68,0,0,1,2369,406H2182.37a1.68,1.68,0,0,1-1.68-1.67V83.92a1.68,1.68,0,0,1,1.68-1.67H2369m0-7H2182.37a8.68,8.68,0,0,0-8.68,8.67V404.33a8.68,8.68,0,0,0,8.68,8.67H2369a8.68,8.68,0,0,0,8.68-8.67V83.92a8.68,8.68,0,0,0-8.68-8.67Z"/><rect class="cls-2" x="2252.34" y="58.64" width="45.66" height="5.43" rx="2.71" ry="2.71"/><circle class="cls-2" cx="2274.94" cy="436.1" r="15.37"/><text class="cls-3" transform="translate(2256.69 91.66)">12.31</text><rect class="cls-4" x="2187.88" y="109.43" width="13.4" height="13.4" transform="translate(560.66 1585.82) rotate(-45)"/><rect class="cls-1" x="2189.56" y="109.6" width="13.14" height="12.88" transform="translate(561.18 1586.89) rotate(-45)"/><rect class="cls-5" x="2178.17" y="140.18" width="194.78" height="1.97"/><circle class="cls-6" cx="2353.93" cy="116.57" r="9.18"/><text class="cls-7" transform="translate(2351.83 119.75)">i</text><text class="cls-8" transform="translate(2255.86 132.22)">Hans</text><rect x="2180.14" y="87.85" width="2.26" height="4.14"/><rect x="2182.77" y="86.16" width="2.26" height="5.84"/><rect x="2185.41" y="84.09" width="2.26" height="7.91"/><rect x="2188.23" y="82.39" width="2.26" height="9.61"/><rect x="2191.06" y="81.26" width="2.26" height="10.74"/><text class="cls-9" transform="translate(2194.27 91.19)">3</text><text class="cls-9" transform="translate(2206.85 91.19)">4</text><text class="cls-10" transform="translate(2213.9 90.65)">G</text><rect class="cls-11" x="2345.3" y="82.47" width="24.07" height="8.53" rx="3.49" ry="3.49"/><rect x="2369.78" y="85.77" width="0.55" height="1.93"/><rect x="2346.12" y="83.29" width="15.4" height="7.15" rx="2.57" ry="2.57"/><text class="cls-12" transform="translate(2326.39 89.91)">75%</text><rect class="cls-13" x="2234.57" y="383.49" width="133.79" height="19.02" rx="9.51" ry="9.51"/><circle class="cls-4" cx="2358.52" cy="393.33" r="7.21"/><polygon class="cls-1" points="2358.47 387.55 2363.53 392.62 2362.53 393.62 2359.18 390.28 2359.18 398.07 2357.76 398.07 2357.76 390.28 2354.41 393.62 2353.41 392.62 2358.47 387.55"/><rect class="cls-4" x="2186.69" y="299.54" width="123.95" height="62.96" rx="18.22" ry="18.22"/><path class="cls-4" d="M2308.43,339c.75,5.41,4.3,10.08,8.69,13.11s9.56,4.61,14.72,5.73c-5.43,4.56-13.11,5.4-19.91,3.72s-12.85-5.56-18.56-9.72a169,169,0,0,1,14.79-13Z"/><text class="cls-3" transform="translate(2195.28 330.9)">@#%?+X&lt;å(€)?</text><g class="cls-18"><rect class="cls-4" x="2187" y="224.58" width="123.82" height="69.29" rx="18.22" ry="18.22"/><path class="cls-4" d="M2308.61,270.88c.75,5.3,4.3,9.87,8.68,12.84s9.55,4.5,14.71,5.6c-5.43,4.46-13.11,5.28-19.89,3.64s-12.84-5.44-18.54-9.51a167.18,167.18,0,0,1,14.77-12.74Z"/><text class="cls-14" transform="translate(2195.57 245.17) scale(1.02 1)">/&amp;%€#”!”#€%&amp;/()<tspan x="0" y="16.17">=&amp;/()=?/&amp;%”#€%</tspan><tspan x="0" y="32.34">&amp;/()=)%€#”#€%</tspan></text></g><rect x="1809.44" y="30" width="230.56" height="439.4" rx="47.65" ry="47.65"/><rect class="cls-1" x="1827.19" y="78.75" width="197.01" height="330.75" rx="5.17" ry="5.17"/><path d="M2019,82.25a1.68,1.68,0,0,1,1.68,1.67V404.33A1.68,1.68,0,0,1,2019,406H1832.37a1.68,1.68,0,0,1-1.68-1.67V83.92a1.68,1.68,0,0,1,1.68-1.67H2019m0-7H1832.37a8.68,8.68,0,0,0-8.68,8.67V404.33a8.68,8.68,0,0,0,8.68,8.67H2019a8.68,8.68,0,0,0,8.68-8.67V83.92a8.68,8.68,0,0,0-8.68-8.67Z"/><rect class="cls-2" x="1902.34" y="58.64" width="45.66" height="5.43" rx="2.71" ry="2.71"/><circle class="cls-2" cx="1924.94" cy="436.1" r="15.37"/><text class="cls-3" transform="translate(1906.69 91.66)">12.31</text><rect class="cls-4" x="1837.88" y="109.43" width="13.4" height="13.4" transform="translate(458.15 1338.33) rotate(-45)"/><rect class="cls-1" x="1839.56" y="109.6" width="13.14" height="12.88" transform="translate(458.67 1339.4) rotate(-45)"/><rect class="cls-5" x="1828.17" y="140.18" width="194.78" height="1.97"/><circle class="cls-6" cx="2003.93" cy="116.57" r="9.18"/><text class="cls-7" transform="translate(2001.83 119.75)">i</text><text class="cls-8" transform="translate(1905.86 132.22)">Hans</text><rect x="1830.14" y="87.85" width="2.26" height="4.14"/><rect x="1832.77" y="86.16" width="2.26" height="5.84"/><rect x="1835.41" y="84.09" width="2.26" height="7.91"/><rect x="1838.23" y="82.39" width="2.26" height="9.61"/><rect x="1841.06" y="81.26" width="2.26" height="10.74"/><text class="cls-9" transform="translate(1844.27 91.19)">3</text><text class="cls-9" transform="translate(1856.85 91.19)">4</text><text class="cls-10" transform="translate(1863.9 90.65)">G</text><rect class="cls-11" x="1995.3" y="82.47" width="24.07" height="8.53" rx="3.49" ry="3.49"/><rect x="2019.78" y="85.77" width="0.55" height="1.93"/><rect x="1996.12" y="83.29" width="15.4" height="7.15" rx="2.57" ry="2.57"/><text class="cls-12" transform="translate(1976.39 89.91)">75%</text><rect class="cls-13" x="1884.57" y="383.49" width="133.79" height="19.02" rx="9.51" ry="9.51"/><circle class="cls-4" cx="2008.52" cy="393.33" r="7.21"/><polygon class="cls-1" points="2008.47 387.55 2013.53 392.62 2012.53 393.62 2009.18 390.28 2009.18 398.07 2007.76 398.07 2007.76 390.28 2004.41 393.62 2003.41 392.62 2008.47 387.55"/><rect class="cls-4" x="1836.69" y="299.54" width="123.95" height="62.96" rx="18.22" ry="18.22"/><path class="cls-4" d="M1958.43,339c.75,5.41,4.3,10.08,8.69,13.11s9.56,4.61,14.72,5.73c-5.43,4.56-13.11,5.4-19.91,3.72s-12.85-5.56-18.56-9.72a169,169,0,0,1,14.79-13Z"/><text class="cls-3" transform="translate(1845.28 330.9)">@#%?+X&lt;å(€)?</text><g class="cls-19"><rect class="cls-4" x="1837" y="224.58" width="123.82" height="69.29" rx="18.22" ry="18.22"/><path class="cls-4" d="M1958.61,270.88c.75,5.3,4.3,9.87,8.68,12.84s9.55,4.5,14.71,5.6c-5.43,4.46-13.11,5.28-19.89,3.64s-12.84-5.44-18.54-9.51a167.18,167.18,0,0,1,14.77-12.74Z"/><text class="cls-14" transform="translate(1845.57 245.17) scale(1.02 1)">/&amp;%€#”!”#€%&amp;/()<tspan x="0" y="16.17">=&amp;/()=?/&amp;%”#€%</tspan><tspan x="0" y="32.34">&amp;/()=)%€#”#€%</tspan></text></g><rect x="1459.44" y="30" width="230.56" height="439.4" rx="47.65" ry="47.65"/><rect class="cls-1" x="1477.19" y="78.75" width="197.01" height="330.75" rx="5.17" ry="5.17"/><path d="M1669,82.25a1.68,1.68,0,0,1,1.68,1.67V404.33A1.68,1.68,0,0,1,1669,406H1482.37a1.68,1.68,0,0,1-1.68-1.67V83.92a1.68,1.68,0,0,1,1.68-1.67H1669m0-7H1482.37a8.68,8.68,0,0,0-8.68,8.67V404.33a8.68,8.68,0,0,0,8.68,8.67H1669a8.68,8.68,0,0,0,8.68-8.67V83.92a8.68,8.68,0,0,0-8.68-8.67Z"/><rect class="cls-2" x="1552.34" y="58.64" width="45.66" height="5.43" rx="2.71" ry="2.71"/><circle class="cls-2" cx="1574.94" cy="436.1" r="15.37"/><text class="cls-3" transform="translate(1556.69 91.66)">12.31</text><rect class="cls-4" x="1487.88" y="109.43" width="13.4" height="13.4" transform="translate(355.63 1090.84) rotate(-45)"/><rect class="cls-1" x="1489.56" y="109.6" width="13.14" height="12.88" transform="translate(356.15 1091.91) rotate(-45)"/><rect class="cls-5" x="1478.17" y="140.18" width="194.78" height="1.97"/><circle class="cls-6" cx="1653.93" cy="116.57" r="9.18"/><text class="cls-7" transform="translate(1651.83 119.75)">i</text><text class="cls-8" transform="translate(1555.86 132.22)">Hans</text><rect x="1480.14" y="87.85" width="2.26" height="4.14"/><rect x="1482.77" y="86.16" width="2.26" height="5.84"/><rect x="1485.41" y="84.09" width="2.26" height="7.91"/><rect x="1488.23" y="82.39" width="2.26" height="9.61"/><rect x="1491.06" y="81.26" width="2.26" height="10.74"/><text class="cls-9" transform="translate(1494.27 91.19)">3</text><text class="cls-9" transform="translate(1506.85 91.19)">4</text><text class="cls-10" transform="translate(1513.9 90.65)">G</text><rect class="cls-11" x="1645.3" y="82.47" width="24.07" height="8.53" rx="3.49" ry="3.49"/><rect x="1669.78" y="85.77" width="0.55" height="1.93"/><rect x="1646.12" y="83.29" width="15.4" height="7.15" rx="2.57" ry="2.57"/><text class="cls-12" transform="translate(1626.39 89.91)">75%</text><rect class="cls-13" x="1534.57" y="383.49" width="133.79" height="19.02" rx="9.51" ry="9.51"/><circle class="cls-4" cx="1658.52" cy="393.33" r="7.21"/><polygon class="cls-1" points="1658.47 387.55 1663.53 392.62 1662.53 393.62 1659.18 390.28 1659.18 398.07 1657.76 398.07 1657.76 390.28 1654.41 393.62 1653.41 392.62 1658.47 387.55"/><rect class="cls-4" x="1486.69" y="299.54" width="123.95" height="62.96" rx="18.22" ry="18.22"/><path class="cls-4" d="M1608.43,339c.75,5.41,4.3,10.08,8.69,13.11s9.56,4.61,14.72,5.73c-5.43,4.56-13.11,5.4-19.91,3.72s-12.85-5.56-18.56-9.72a169,169,0,0,1,14.79-13Z"/><text class="cls-3" transform="translate(1495.28 330.9)">@#%?+X&lt;å(€)?</text><g class="cls-20"><rect class="cls-4" x="1487" y="224.58" width="123.82" height="69.29" rx="18.22" ry="18.22"/><path class="cls-4" d="M1608.61,270.88c.75,5.3,4.3,9.87,8.68,12.84s9.55,4.5,14.71,5.6c-5.43,4.46-13.11,5.28-19.89,3.64s-12.84-5.44-18.54-9.51a167.18,167.18,0,0,1,14.77-12.74Z"/><text class="cls-14" transform="translate(1495.57 245.17) scale(1.02 1)">/&amp;%€#”!”#€%&amp;/()<tspan x="0" y="16.17">=&amp;/()=?/&amp;%”#€%</tspan><tspan x="0" y="32.34">&amp;/()=)%€#”#€%</tspan></text></g><rect x="1109.44" y="30" width="230.56" height="439.4" rx="47.65" ry="47.65"/><rect class="cls-1" x="1127.19" y="78.75" width="197.01" height="330.75" rx="5.17" ry="5.17"/><path d="M1319,82.25a1.68,1.68,0,0,1,1.68,1.67V404.33A1.68,1.68,0,0,1,1319,406H1132.37a1.68,1.68,0,0,1-1.68-1.67V83.92a1.68,1.68,0,0,1,1.68-1.67H1319m0-7H1132.37a8.68,8.68,0,0,0-8.68,8.67V404.33a8.68,8.68,0,0,0,8.68,8.67H1319a8.68,8.68,0,0,0,8.68-8.67V83.92a8.68,8.68,0,0,0-8.68-8.67Z"/><rect class="cls-2" x="1202.34" y="58.64" width="45.66" height="5.43" rx="2.71" ry="2.71"/><circle class="cls-2" cx="1224.94" cy="436.1" r="15.37"/><text class="cls-3" transform="translate(1206.69 91.66)">12.31</text><rect class="cls-4" x="1137.88" y="109.43" width="13.4" height="13.4" transform="translate(253.12 843.36) rotate(-45)"/><rect class="cls-1" x="1139.56" y="109.6" width="13.14" height="12.88" transform="translate(253.64 844.42) rotate(-45)"/><rect class="cls-5" x="1128.17" y="140.18" width="194.78" height="1.97"/><circle class="cls-6" cx="1303.93" cy="116.57" r="9.18"/><text class="cls-7" transform="translate(1301.83 119.75)">i</text><text class="cls-8" transform="translate(1205.86 132.22)">Hans</text><rect x="1130.14" y="87.85" width="2.26" height="4.14"/><rect x="1132.77" y="86.16" width="2.26" height="5.84"/><rect x="1135.41" y="84.09" width="2.26" height="7.91"/><rect x="1138.23" y="82.39" width="2.26" height="9.61"/><rect x="1141.06" y="81.26" width="2.26" height="10.74"/><text class="cls-9" transform="translate(1144.27 91.19)">3</text><text class="cls-9" transform="translate(1156.85 91.19)">4</text><text class="cls-10" transform="translate(1163.9 90.65)">G</text><rect class="cls-11" x="1295.3" y="82.47" width="24.07" height="8.53" rx="3.49" ry="3.49"/><rect x="1319.78" y="85.77" width="0.55" height="1.93"/><rect x="1296.12" y="83.29" width="15.4" height="7.15" rx="2.57" ry="2.57"/><text class="cls-12" transform="translate(1276.39 89.91)">75%</text><rect class="cls-13" x="1184.57" y="383.49" width="133.79" height="19.02" rx="9.51" ry="9.51"/><circle class="cls-4" cx="1308.52" cy="393.33" r="7.21"/><polygon class="cls-1" points="1308.47 387.55 1313.53 392.62 1312.53 393.62 1309.18 390.28 1309.18 398.07 1307.76 398.07 1307.76 390.28 1304.41 393.62 1303.41 392.62 1308.47 387.55"/><rect class="cls-4" x="1136.69" y="299.54" width="123.95" height="62.96" rx="18.22" ry="18.22"/><path class="cls-4" d="M1258.43,339c.75,5.41,4.3,10.08,8.69,13.11s9.56,4.61,14.72,5.73c-5.43,4.56-13.11,5.4-19.91,3.72s-12.85-5.56-18.56-9.72a169,169,0,0,1,14.79-13Z"/><text class="cls-3" transform="translate(1145.28 330.9)">@#%?+X&lt;å(€)?</text><g class="cls-21"><rect class="cls-4" x="1137" y="224.58" width="123.82" height="69.29" rx="18.22" ry="18.22"/><path class="cls-4" d="M1258.61,270.88c.75,5.3,4.3,9.87,8.68,12.84s9.55,4.5,14.71,5.6c-5.43,4.46-13.11,5.28-19.89,3.64s-12.84-5.44-18.54-9.51a167.18,167.18,0,0,1,14.77-12.74Z"/><text class="cls-14" transform="translate(1145.57 245.17) scale(1.02 1)">/&amp;%€#”!”#€%&amp;/()<tspan x="0" y="16.17">=&amp;/()=?/&amp;%”#€%</tspan><tspan x="0" y="32.34">&amp;/()=)%€#”#€%</tspan></text></g><rect x="759.44" y="30" width="230.56" height="439.4" rx="47.65" ry="47.65"/><rect class="cls-1" x="777.19" y="78.75" width="197.01" height="330.75" rx="5.17" ry="5.17"/><path d="M969,82.25a1.68,1.68,0,0,1,1.68,1.67V404.33A1.68,1.68,0,0,1,969,406H782.37a1.68,1.68,0,0,1-1.68-1.67V83.92a1.68,1.68,0,0,1,1.68-1.67H969m0-7H782.37a8.68,8.68,0,0,0-8.68,8.67V404.33a8.68,8.68,0,0,0,8.68,8.67H969a8.68,8.68,0,0,0,8.68-8.67V83.92A8.68,8.68,0,0,0,969,75.25Z"/><rect class="cls-2" x="852.34" y="58.64" width="45.66" height="5.43" rx="2.71" ry="2.71"/><circle class="cls-2" cx="874.94" cy="436.1" r="15.37"/><text class="cls-3" transform="translate(856.69 91.66)">12.31</text><rect class="cls-4" x="787.88" y="109.43" width="13.4" height="13.4" transform="translate(150.61 595.87) rotate(-45)"/><rect class="cls-1" x="789.56" y="109.6" width="13.14" height="12.88" transform="translate(151.13 596.94) rotate(-45)"/><rect class="cls-5" x="778.17" y="140.18" width="194.78" height="1.97"/><circle class="cls-6" cx="953.93" cy="116.57" r="9.18"/><text class="cls-7" transform="translate(951.83 119.75)">i</text><text class="cls-8" transform="translate(855.86 132.22)">Hans</text><rect x="780.14" y="87.85" width="2.26" height="4.14"/><rect x="782.77" y="86.16" width="2.26" height="5.84"/><rect x="785.41" y="84.09" width="2.26" height="7.91"/><rect x="788.23" y="82.39" width="2.26" height="9.61"/><rect x="791.06" y="81.26" width="2.26" height="10.74"/><text class="cls-9" transform="translate(794.27 91.19)">3</text><text class="cls-9" transform="translate(806.85 91.19)">4</text><text class="cls-10" transform="translate(813.9 90.65)">G</text><rect class="cls-11" x="945.3" y="82.47" width="24.07" height="8.53" rx="3.49" ry="3.49"/><rect x="969.78" y="85.77" width="0.55" height="1.93"/><rect x="946.12" y="83.29" width="15.4" height="7.15" rx="2.57" ry="2.57"/><text class="cls-12" transform="translate(926.39 89.91)">75%</text><rect class="cls-13" x="834.57" y="383.49" width="133.79" height="19.02" rx="9.51" ry="9.51"/><circle class="cls-4" cx="958.52" cy="393.33" r="7.21"/><polygon class="cls-1" points="958.47 387.55 963.53 392.62 962.53 393.62 959.18 390.28 959.18 398.07 957.76 398.07 957.76 390.28 954.41 393.62 953.41 392.62 958.47 387.55"/><rect class="cls-4" x="786.69" y="299.54" width="123.95" height="62.96" rx="18.22" ry="18.22"/><path class="cls-4" d="M908.43,339c.75,5.41,4.3,10.08,8.69,13.11s9.56,4.61,14.72,5.73c-5.43,4.56-13.11,5.4-19.91,3.72s-12.85-5.56-18.56-9.72a169,169,0,0,1,14.79-13Z"/><text class="cls-3" transform="translate(795.28 330.9)">@#%?+X&lt;å(€)?</text><g class="cls-22"><rect class="cls-4" x="787" y="224.58" width="123.82" height="69.29" rx="18.22" ry="18.22"/><path class="cls-4" d="M908.61,270.88c.75,5.3,4.3,9.87,8.68,12.84s9.55,4.5,14.71,5.6c-5.43,4.46-13.11,5.28-19.89,3.64s-12.84-5.44-18.54-9.51a167.18,167.18,0,0,1,14.77-12.74Z"/><text class="cls-14" transform="translate(795.57 245.17) scale(1.02 1)">/&amp;%€#”!”#€%&amp;/()<tspan x="0" y="16.17">=&amp;/()=?/&amp;%”#€%</tspan><tspan x="0" y="32.34">&amp;/()=)%€#”#€%</tspan></text></g><rect x="409.44" y="30" width="230.56" height="439.4" rx="47.65" ry="47.65"/><rect class="cls-1" x="427.19" y="78.75" width="197.01" height="330.75" rx="5.17" ry="5.17"/><path d="M619,82.25a1.68,1.68,0,0,1,1.68,1.67V404.33A1.68,1.68,0,0,1,619,406H432.37a1.68,1.68,0,0,1-1.68-1.67V83.92a1.68,1.68,0,0,1,1.68-1.67H619m0-7H432.37a8.68,8.68,0,0,0-8.68,8.67V404.33a8.68,8.68,0,0,0,8.68,8.67H619a8.68,8.68,0,0,0,8.68-8.67V83.92A8.68,8.68,0,0,0,619,75.25Z"/><rect class="cls-2" x="502.34" y="58.64" width="45.66" height="5.43" rx="2.71" ry="2.71"/><circle class="cls-2" cx="524.94" cy="436.1" r="15.37"/><text class="cls-3" transform="translate(506.69 91.66)">12.31</text><rect class="cls-4" x="437.88" y="109.43" width="13.4" height="13.4" transform="translate(48.1 348.38) rotate(-45)"/><rect class="cls-1" x="439.56" y="109.6" width="13.14" height="12.88" transform="translate(48.61 349.45) rotate(-45)"/><rect class="cls-5" x="428.17" y="140.18" width="194.78" height="1.97"/><circle class="cls-6" cx="603.93" cy="116.57" r="9.18"/><text class="cls-7" transform="translate(601.83 119.75)">i</text><text class="cls-8" transform="translate(505.86 132.22)">Hans</text><rect x="430.14" y="87.85" width="2.26" height="4.14"/><rect x="432.77" y="86.16" width="2.26" height="5.84"/><rect x="435.41" y="84.09" width="2.26" height="7.91"/><rect x="438.23" y="82.39" width="2.26" height="9.61"/><rect x="441.06" y="81.26" width="2.26" height="10.74"/><text class="cls-9" transform="translate(444.27 91.19)">3</text><text class="cls-9" transform="translate(456.85 91.19)">4</text><text class="cls-10" transform="translate(463.9 90.65)">G</text><rect class="cls-11" x="595.3" y="82.47" width="24.07" height="8.53" rx="3.49" ry="3.49"/><rect x="619.78" y="85.77" width="0.55" height="1.93"/><rect x="596.12" y="83.29" width="15.4" height="7.15" rx="2.57" ry="2.57"/><text class="cls-12" transform="translate(576.39 89.91)">75%</text><rect class="cls-13" x="484.57" y="383.49" width="133.79" height="19.02" rx="9.51" ry="9.51"/><circle class="cls-4" cx="608.52" cy="393.33" r="7.21"/><polygon class="cls-1" points="608.47 387.55 613.53 392.62 612.53 393.62 609.18 390.28 609.18 398.07 607.76 398.07 607.76 390.28 604.41 393.62 603.41 392.62 608.47 387.55"/><rect class="cls-4" x="436.69" y="299.54" width="123.95" height="62.96" rx="18.22" ry="18.22"/><path class="cls-4" d="M558.43,339c.75,5.41,4.3,10.08,8.69,13.11s9.56,4.61,14.72,5.73c-5.43,4.56-13.11,5.4-19.91,3.72s-12.85-5.56-18.56-9.72a169,169,0,0,1,14.79-13Z"/><text class="cls-3" transform="translate(445.28 330.9)">@#%?+X&lt;å(€)?</text><g class="cls-23"><rect class="cls-4" x="437" y="224.58" width="123.82" height="69.29" rx="18.22" ry="18.22"/><path class="cls-4" d="M558.61,270.88c.75,5.3,4.3,9.87,8.68,12.84s9.55,4.5,14.71,5.6c-5.43,4.46-13.11,5.28-19.89,3.64s-12.84-5.44-18.54-9.51a167.18,167.18,0,0,1,14.77-12.74Z"/><text class="cls-14" transform="translate(445.57 245.17) scale(1.02 1)">/&amp;%€#”!”#€%&amp;/()<tspan x="0" y="16.17">=&amp;/()=?/&amp;%”#€%</tspan><tspan x="0" y="32.34">&amp;/()=)%€#”#€%</tspan></text></g><rect x="59.44" y="30" width="230.56" height="439.4" rx="47.65" ry="47.65"/><rect class="cls-1" x="77.19" y="78.75" width="197.01" height="330.75" rx="5.17" ry="5.17"/><path d="M269,82.25a1.68,1.68,0,0,1,1.68,1.67V404.33A1.68,1.68,0,0,1,269,406H82.37a1.68,1.68,0,0,1-1.68-1.67V83.92a1.68,1.68,0,0,1,1.68-1.67H269m0-7H82.37a8.68,8.68,0,0,0-8.68,8.67V404.33A8.68,8.68,0,0,0,82.37,413H269a8.68,8.68,0,0,0,8.68-8.67V83.92A8.68,8.68,0,0,0,269,75.25Z"/><rect class="cls-2" x="152.34" y="58.64" width="45.66" height="5.43" rx="2.71" ry="2.71"/><circle class="cls-2" cx="174.94" cy="436.1" r="15.37"/><text class="cls-3" transform="translate(156.69 91.66)">12.31</text><rect class="cls-4" x="87.88" y="109.43" width="13.4" height="13.4" transform="translate(-54.42 100.89) rotate(-45)"/><rect class="cls-1" x="89.56" y="109.6" width="13.14" height="12.88" transform="translate(-53.9 101.96) rotate(-45)"/><rect class="cls-5" x="78.17" y="140.18" width="194.78" height="1.97"/><circle class="cls-6" cx="253.93" cy="116.57" r="9.18"/><text class="cls-7" transform="translate(251.83 119.75)">i</text><text class="cls-8" transform="translate(155.86 132.22)">Hans</text><rect x="80.14" y="87.85" width="2.26" height="4.14"/><rect x="82.77" y="86.16" width="2.26" height="5.84"/><rect x="85.41" y="84.09" width="2.26" height="7.91"/><rect x="88.23" y="82.39" width="2.26" height="9.61"/><rect x="91.06" y="81.26" width="2.26" height="10.74"/><text class="cls-9" transform="translate(94.27 91.19)">3</text><text class="cls-9" transform="translate(106.85 91.19)">4</text><text class="cls-10" transform="translate(113.9 90.65)">G</text><rect class="cls-11" x="245.3" y="82.47" width="24.07" height="8.53" rx="3.49" ry="3.49"/><rect x="269.78" y="85.77" width="0.55" height="1.93"/><rect x="246.12" y="83.29" width="15.4" height="7.15" rx="2.57" ry="2.57"/><text class="cls-12" transform="translate(226.39 89.91)">75%</text><rect class="cls-13" x="134.57" y="383.49" width="133.79" height="19.02" rx="9.51" ry="9.51"/><circle class="cls-4" cx="258.52" cy="393.33" r="7.21"/><polygon class="cls-1" points="258.47 387.55 263.53 392.62 262.53 393.62 259.18 390.28 259.18 398.07 257.76 398.07 257.76 390.28 254.41 393.62 253.41 392.62 258.47 387.55"/><rect class="cls-4" x="86.69" y="299.54" width="123.95" height="62.96" rx="18.22" ry="18.22"/><path class="cls-4" d="M208.43,339c.75,5.41,4.3,10.08,8.69,13.11s9.56,4.61,14.72,5.73c-5.43,4.56-13.11,5.4-19.91,3.72s-12.85-5.56-18.56-9.72a169,169,0,0,1,14.79-13Z"/><text class="cls-3" transform="translate(95.28 330.9)">@#%?+X&lt;å(€)?</text><g class="cls-24"><rect class="cls-4" x="87" y="224.58" width="123.82" height="69.29" rx="18.22" ry="18.22"/><path class="cls-4" d="M208.61,270.88c.75,5.3,4.3,9.87,8.68,12.84s9.55,4.5,14.71,5.6c-5.43,4.46-13.11,5.28-19.89,3.64s-12.84-5.44-18.54-9.51a167.18,167.18,0,0,1,14.77-12.74Z"/><text class="cls-14" transform="translate(95.57 245.17) scale(1.02 1)">/&amp;%€#”!”#€%&amp;/()<tspan x="0" y="16.17">=&amp;/()=?/&amp;%”#€%</tspan><tspan x="0" y="32.34">&amp;/()=)%€#”#€%</tspan></text></g></svg>
