<svg id="Layer_1" data-name="Layer 1" xmlns="http://www.w3.org/2000/svg" viewBox="0 0 1920 1080"><defs><style>.cls-1{opacity:0.5;}.cls-2{fill:#fff;}.cls-3{fill:#152230;}.cls-4{fill:#f2902c;}</style></defs><title>startside</title><g class="cls-1"><rect class="cls-2" width="1920" height="1080"/></g><path class="cls-3" d="M1628,948.09c-1.52.51-2.57,1.7-3.79,2.62-4.33,3.25-8.6,6.56-12.9,9.84-.34.26-.65.76-1.14.56s-.37-.87-.37-1.34c0-6.65-.06-13.3,0-19.95,0-1.56-.47-1.86-1.91-1.83-4.22.09-8.45.06-12.68,0a8.82,8.82,0,0,1-8.91-9.07c0-24.3.12-48.59,0-72.89,0-6.2,4.4-10.06,10.07-10q133.68.15,267.37.07c5.49,0,9.21,3.71,9.21,9.23q0,36.78,0,73.56c0,4.61-2.41,7.63-7.29,9.08-1,0-1.92,0-2.87,0H1703.91q-30.6,0-61.2,0a4.85,4.85,0,0,0-3.41,1.08c-2.14,1.81-4.53,3.34-6.69,5.14C1631.07,945.47,1629.16,946.32,1628,948.09Z"/><path class="cls-4" d="M1628,948.09c1.12-1.77,3-2.62,4.57-3.9,2.16-1.8,4.55-3.33,6.69-5.14a4.85,4.85,0,0,1,3.41-1.08q30.6,0,61.2,0h158.92c1,0,1.91,0,2.87,0,.53,1,1.72.91,2.54,1.45a8.66,8.66,0,0,1,4.25,7.73c0,24.35-.09,48.7.07,73a9.52,9.52,0,0,1-9.82,9.8q-65.27-.13-130.54,0c-15.73,0-31.46,0-47.18,0a7.1,7.1,0,0,0-4.6,1.6q-11.06,8.55-22.15,17.07c-1.69,1.3-3.43,2.53-5.13,3.82-1.05.8-1.43.52-1.43-.76q0-9.55,0-19.1c0-2.55-.05-2.59-2.54-2.59-3.83,0-7.67-.12-11.5,0a9.3,9.3,0,0,1-9.59-9.67c.1-23.5,0-47,0-70.52C1628.08,949.21,1628.05,948.65,1628,948.09Z"/><path class="cls-2" d="M1635.29,915.75h-12.36V868.19h19.68q8,0,12.27,4.16t4.26,11.73q0,7.57-4.26,11.74T1642.61,900h-7.32Zm0-25.74h4.1q6.83,0,6.82-5.93t-6.82-5.93h-4.1Z"/><path class="cls-2" d="M1702.84,915.75h-15.4l-11.79-18.29v18.29h-12.37V868.19h19.24a19,19,0,0,1,6.94,1.16,13.07,13.07,0,0,1,7.79,7.86,16.28,16.28,0,0,1,1,5.67,13.92,13.92,0,0,1-2.62,8.8,13.18,13.18,0,0,1-7.72,4.58Zm-27.19-26.31H1678a9,9,0,0,0,5.62-1.51,5.83,5.83,0,0,0,0-8.7,9,9,0,0,0-5.62-1.52h-2.33Z"/><path class="cls-2" d="M1719,868.19v47.56h-12.36V868.19Z"/><path class="cls-2" d="M1736,868.19l11.48,28.95L1759,868.19h13.43l-20.06,47.56h-9.84l-20-47.56Z"/><path class="cls-2" d="M1799.37,907.82H1781.7l-2.83,8.27h-13.19l18.11-47.57h13.5l18.1,47.57h-13.18Zm-3.28-9.39-5.55-15.84L1785,898.43Z"/><path class="cls-2" d="M1833.68,879v37.09h-12.36V879h-10.16V868.52h32.68V879Z"/><path class="cls-2" d="M1690.72,971.89a15.56,15.56,0,0,0-4-2.42,10.75,10.75,0,0,0-3.9-.78,6.29,6.29,0,0,0-3.9,1.13,3.51,3.51,0,0,0-1.51,2.95,3,3,0,0,0,.75,2.08,6.63,6.63,0,0,0,2,1.42,17.31,17.31,0,0,0,2.76,1c1,.3,2,.61,3,1q6,2,8.84,5.38a13.22,13.22,0,0,1,2.8,8.77,17.26,17.26,0,0,1-1.22,6.61,13.8,13.8,0,0,1-3.59,5.06,16.32,16.32,0,0,1-5.79,3.27,23.94,23.94,0,0,1-7.77,1.17,28.63,28.63,0,0,1-16.67-5.35l5.29-9.94a21.63,21.63,0,0,0,5.47,3.65,13.26,13.26,0,0,0,5.35,1.19,6.37,6.37,0,0,0,4.49-1.38,4.19,4.19,0,0,0,1.48-3.15,4.24,4.24,0,0,0-.37-1.85,4.14,4.14,0,0,0-1.26-1.45,10.16,10.16,0,0,0-2.3-1.23c-.94-.37-2.09-.79-3.43-1.25-1.59-.51-3.15-1.06-4.68-1.67a14.89,14.89,0,0,1-4.09-2.42,11.34,11.34,0,0,1-2.9-3.81,13.52,13.52,0,0,1-1.1-5.82,16.71,16.71,0,0,1,1.17-6.38,14,14,0,0,1,3.27-4.91,14.61,14.61,0,0,1,5.16-3.18,19.59,19.59,0,0,1,6.82-1.13,29.89,29.89,0,0,1,7.36,1,32.36,32.36,0,0,1,7.36,2.86Z"/><path class="cls-2" d="M1702.23,1007.18V959.75h12.33l22.77,29v-29h12.27v47.43h-12.27l-22.77-29v29Z"/><path class="cls-2" d="M1785.64,998.94H1768l-2.83,8.24h-13.15l18-47.43h13.47l18,47.43h-13.15Zm-3.27-9.37-5.54-15.79-5.53,15.79Z"/><path class="cls-2" d="M1816.28,979.32l15-19.57h15.22l-18.8,22.46,20.57,25h-16l-16-20.57v20.57H1804V959.75h12.33Z"/></svg>
