<svg id="Layer_1" data-name="Layer 1" xmlns="http://www.w3.org/2000/svg" viewBox="0 0 4550 500"><defs><style>.cls-1{fill:#f9dec5;}.cls-2{fill:#f9e4d2;}.cls-3{fill:#6d6c6b;}.cls-4{fill:#7f7d7c;}.cls-5{fill:#4f514f;}.cls-6{fill:#8d8d8e;}.cls-7,.cls-9{fill:none;stroke:#000;stroke-miterlimit:10;}.cls-8{fill:#f9c5cd;opacity:0.49;}.cls-9{stroke-width:2px;}.cls-10{fill:#9e9d9d;}</style></defs><title>Faldfinal</title><path class="cls-1" d="M1945.37,261.09a4.69,4.69,0,0,1-1.9.86c-1.8.29-3,.39-4-1.53-6.65-13.5-12.63-27.69-18.52-41.53-.84-2,0-2.76,1.46-3.87a4.57,4.57,0,0,1,1.94-.78c1.82-.23,3.05-.25,3.92,1.69,6.12,13.64,11.93,27.78,18.39,41.26C1947.6,259.11,1946.77,259.94,1945.37,261.09Z"/><path class="cls-1" d="M1965.19,293.66a4.73,4.73,0,0,1-1.83,1c-1.79.43-3,.6-4-1.24-6.43-10.89-13.25-22-19.41-33-1-1.86-.26-2.74,1.08-4a4.67,4.67,0,0,1,1.84-1c1.78-.4,3-.54,4.06,1.3,6.33,10.89,13.17,21.92,19.38,32.88C1967.31,291.49,1966.5,292.41,1965.19,293.66Z"/><path class="cls-2" d="M1946.91,254.3a5,5,0,0,1-2.55,7.1,5.48,5.48,0,0,1-7.37-2.69,5.05,5.05,0,0,1,2.56-7.13A5.55,5.55,0,0,1,1946.91,254.3Z"/><path class="cls-1" d="M1976.33,299.74a4.07,4.07,0,0,0,1.07-1c.7-1.07,1-1.92,0-3-1.66-1.86-3.67-3.9-5.48-5.62-1-1-1.9-.76-3-.07a4.11,4.11,0,0,0-1.08,1c-.71,1.07-1,1.91,0,3,1.7,1.83,3.69,3.88,5.49,5.62C1974.38,300.65,1975.23,300.43,1976.33,299.74Z"/><path class="cls-1" d="M1980.44,295.74a4.23,4.23,0,0,0,1.07-1c.71-1.08,1-1.92,0-3-1.67-1.85-3.68-3.9-5.49-5.62-1-1-1.89-.76-3-.08a3.88,3.88,0,0,0-1.06,1c-.71,1.07-1,1.91,0,3,1.68,1.84,3.69,3.89,5.48,5.61C1978.5,296.64,1979.35,296.42,1980.44,295.74Z"/><path class="cls-1" d="M1972.21,303.75a4.07,4.07,0,0,0,1.07-1c.71-1.07,1-1.92,0-3-1.66-1.86-3.66-3.91-5.48-5.61-1.06-1-1.92-.78-3-.1a3.88,3.88,0,0,0-1.07,1c-.71,1.07-.93,1.92,0,3,1.68,1.84,3.67,3.91,5.47,5.65C1970.27,304.66,1971.12,304.43,1972.21,303.75Z"/><path class="cls-1" d="M1968.09,307.76a4.07,4.07,0,0,0,1.07-1c.71-1.08,1-1.92,0-3-1.66-1.86-3.66-3.93-5.47-5.64-1-1-1.9-.78-3-.09a4,4,0,0,0-1.06,1c-.71,1.07-1,1.92,0,3,1.67,1.85,3.67,3.92,5.47,5.65C1966.15,308.67,1967,308.44,1968.09,307.76Z"/><path class="cls-1" d="M1959,295.24a3.74,3.74,0,0,0-1.49-.07c-1.3.22-2,.57-2.17,2.06s-.27,3.71-.26,5.22.7,1.92,2,2.28a4,4,0,0,0,1.5.09c1.3-.23,2-.57,2.19-2.07a45.51,45.51,0,0,0,.26-5.22C1961,296,1960.3,295.6,1959,295.24Z"/><path class="cls-1" d="M1967.52,301.68a79.79,79.79,0,0,0,8-7.75c2.5-2.83,2.16-5.24.18-8.17a13.47,13.47,0,0,0-2.87-2.92c-2.9-2-5.37-2.41-8.27,0a81.47,81.47,0,0,0-8,7.68c-2.5,2.84-2.08,5.26-.1,8.18a14,14,0,0,0,2.87,2.93C1962.2,303.71,1964.63,304.11,1967.52,301.68Z"/><path class="cls-3" d="M1880.3,412.53l-3,.54,5.09,28.71a9,9,0,0,0,4.24,6.2Z"/><path class="cls-4" d="M1892.05,449l5.55-1a7.28,7.28,0,0,0,5.64-8.59l-4.85-27.32a2.68,2.68,0,0,0-3-2.25l-15.07,2.68,6.29,35.45A8,8,0,0,0,1892.05,449Z"/><rect class="cls-1" x="1927.61" y="368.01" width="8.59" height="41.55" rx="3.15" ry="3.15" transform="translate(-34.33 257.08) rotate(-7.55)"/><rect class="cls-1" x="1909.17" y="394.55" width="7.88" height="41.67" rx="2.89" ry="2.89" transform="translate(2127.75 -1530.5) rotate(84.04)"/><circle class="cls-2" cx="1934.74" cy="411.44" r="6.45"/><path class="cls-5" d="M1856.19,280.59v63a39.34,39.34,0,0,0,39.23,39.22H1921a39.34,39.34,0,0,0,39.22-39.22v-63Z"/><path class="cls-6" d="M1960.26,221.9A39.34,39.34,0,0,0,1921,182.67h-25.62a39.34,39.34,0,0,0-39.23,39.23v58.69h104.07Z"/><path class="cls-1" d="M1961.4,120.49a9.45,9.45,0,0,1,12.48-9.85c-.06-1-.13-2-.23-3-4-41.42-36.85-72.16-73.41-68.65s-63,39.95-59,81.38,36.85,72.16,73.41,68.65c30.18-2.9,53.44-28.23,58.41-60.28a9.88,9.88,0,0,1-1.34.24A9.46,9.46,0,0,1,1961.4,120.49Z"/><path class="cls-7" d="M1888.8,95.12c3.51-9.34,15.94-13.3,27.8-8.85"/><path class="cls-7" d="M1937.91,80.41c3.4-9.06,15.46-12.9,26.95-8.59"/><circle cx="1906.72" cy="106.43" r="2.44"/><circle cx="1956.31" cy="93.09" r="2.44"/><circle class="cls-8" cx="1890.41" cy="137.73" r="10.68"/><path class="cls-1" d="M1969.91,110.17a9.46,9.46,0,1,0,1.81,18.83,9.88,9.88,0,0,0,1.34-.24,84.3,84.3,0,0,0,.82-18.12A9.55,9.55,0,0,0,1969.91,110.17Z"/><path class="cls-8" d="M1969.85,109.56a9.46,9.46,0,0,0,1.81,18.83,8.34,8.34,0,0,0,1.34-.24,84.18,84.18,0,0,0,.82-18.11A9.39,9.39,0,0,0,1969.85,109.56Z"/><path class="cls-9" d="M1912.34,49.87c-.7-14.82-8.35-26.48-17.11-26.07"/><path class="cls-9" d="M1904.69,52.64c-1-16.84-11.38-29.88-23.17-29.16"/><path class="cls-9" d="M1898.74,55.42c-4.25-17.8-15-30.45-24.14-28.28"/><path class="cls-9" d="M1919.38,51.5c2.84-14.91-1.83-28.3-10.44-29.94"/><path class="cls-9" d="M1927.86,50.49c2.94-10,.56-19.43-5.33-21.17"/><path class="cls-9" d="M1890.83,54.77c-1.1-10.33-6.93-18.16-13-17.51"/><path class="cls-9" d="M1885,58.1c-3.07-14.52-12.49-24.81-21.07-23"/><path class="cls-1" d="M1885.26,286.87a6.11,6.11,0,0,1-2-.33c-1.57-.61-2.6-1.36-2.25-3.45,2.44-14.69,5.82-30,8.75-44.61.42-2.07,1.62-2.26,3.26-2.25a6.39,6.39,0,0,1,2,.44c1.51.66,2.59,1.38,2.2,3.44-2.79,14.51-6.16,29.69-8.72,44.25C1888.13,286.43,1887,286.82,1885.26,286.87Z"/><path class="cls-1" d="M1887.37,324.62a6.24,6.24,0,0,1-2,.12c-1.64-.24-2.83-.65-3-2.75-.78-12.48-1.27-25.77-1.2-38.28,0-2.11,1.15-2.71,2.8-3a6.29,6.29,0,0,1,2,0c1.64.32,2.75.88,2.76,3,0,12.4.54,25.54,1.2,37.92C1890.1,323.64,1889,324.2,1887.37,324.62Z"/><path class="cls-2" d="M1890.38,282.05a5.28,5.28,0,1,1-4.24-6.38A5.32,5.32,0,0,1,1890.38,282.05Z"/><path class="cls-1" d="M1888.81,336.78a6.83,6.83,0,0,1-1.41.31,2,2,0,0,1-2.38-1.57c-.54-2.27-1.16-5.13-1.61-7.43a2,2,0,0,1,1.51-2.45,6.26,6.26,0,0,1,1.41-.32,2,2,0,0,1,2.39,1.59c.55,2.27,1.16,5.14,1.61,7.43A2,2,0,0,1,1888.81,336.78Z"/><path class="cls-1" d="M1883.45,338a6.18,6.18,0,0,1-1.4.32,2,2,0,0,1-2.39-1.57c-.54-2.28-1.16-5.14-1.61-7.44a2,2,0,0,1,1.51-2.45,5.74,5.74,0,0,1,1.41-.31,2,2,0,0,1,2.39,1.58c.55,2.28,1.17,5.14,1.61,7.44A2,2,0,0,1,1883.45,338Z"/><path class="cls-1" d="M1894.16,335.58a6.16,6.16,0,0,1-1.4.31,2,2,0,0,1-2.39-1.56c-.54-2.27-1.15-5.13-1.6-7.43a2,2,0,0,1,1.51-2.45,6.24,6.24,0,0,1,1.41-.31,2,2,0,0,1,2.39,1.59c.54,2.27,1.16,5.12,1.6,7.42A2,2,0,0,1,1894.16,335.58Z"/><path class="cls-1" d="M1899.52,334.38a6.26,6.26,0,0,1-1.41.32,2,2,0,0,1-2.38-1.56c-.54-2.28-1.16-5.13-1.61-7.43a2,2,0,0,1,1.52-2.43,6.18,6.18,0,0,1,1.4-.32,2,2,0,0,1,2.39,1.57c.54,2.27,1.16,5.13,1.6,7.42A2,2,0,0,1,1899.52,334.38Z"/><path class="cls-1" d="M1894.3,320.5a6.08,6.08,0,0,1,.73-1.26,1.94,1.94,0,0,1,2.78-.68c1.21.67,3.2,1.83,4.37,2.58a2,2,0,0,1,.75,2.78,6,6,0,0,1-.72,1.26,2,2,0,0,1-2.78.7c-1.22-.66-3.2-1.82-4.37-2.57A2,2,0,0,1,1894.3,320.5Z"/><path class="cls-1" d="M1895.06,330.75c-3,.82-7.36,1.79-10.47,2.33-3.47.62-5.57-1.12-6.61-4.21a22.94,22.94,0,0,1-.85-3.93c-.33-3.26.84-5.79,4.25-6.73,3-.84,7.37-1.72,10.48-2.27,3.47-.62,5.58,1.19,6.61,4.28a21.9,21.9,0,0,1,.85,3.9C1899.65,327.37,1898.46,329.83,1895.06,330.75Z"/><rect class="cls-1" x="1878.48" y="366.53" width="8.59" height="40.29" rx="3.15" ry="3.15" transform="translate(468.09 -914.5) rotate(31)"/><path class="cls-4" d="M1815.06,376.23l-2.89-1.09-10.36,27.28a9,9,0,0,0,.45,7.49Z"/><path class="cls-10" d="M1806.44,413.59l5.27,2a7.27,7.27,0,0,0,9.25-4.49l9.86-26a2.65,2.65,0,0,0-1.44-3.47l-14.32-5.45-12.8,33.68A8,8,0,0,0,1806.44,413.59Z"/><rect class="cls-1" x="1844.86" y="368.9" width="7.88" height="52.41" rx="2.89" ry="2.89" transform="translate(2879.48 -1189.78) rotate(110.97)"/><circle class="cls-2" cx="1872.66" cy="403.51" r="6.45"/><path class="cls-3" d="M207.87,460.41l1.6,2.64,25-15.05a9,9,0,0,0,4.27-6.18Z"/><path class="cls-4" d="M237.7,436.36l-2.91-4.83a7.29,7.29,0,0,0-10-2.18L201,443.68a2.66,2.66,0,0,0-1,3.62l7.9,13.11,30.84-18.59A7.94,7.94,0,0,0,237.7,436.36Z"/><rect class="cls-1" x="174.9" y="368.39" width="8.59" height="41.55" rx="3.15" ry="3.15" transform="translate(-157.03 123.62) rotate(-26.98)"/><rect class="cls-1" x="194.83" y="407.93" width="7.88" height="41.67" rx="2.89" ry="2.89" transform="translate(-172.86 136.81) rotate(-26.98)"/><circle class="cls-2" cx="189.41" cy="409.58" r="6.45"/><path class="cls-5" d="M104.87,280.59v63a39.34,39.34,0,0,0,39.22,39.22h25.62a39.34,39.34,0,0,0,39.23-39.22v-63Z"/><path class="cls-6" d="M208.94,221.9a39.34,39.34,0,0,0-39.23-39.23H144.09a39.34,39.34,0,0,0-39.22,39.23v58.69H208.94Z"/><path class="cls-1" d="M210.08,120.49a9.45,9.45,0,0,1,12.48-9.85c-.06-1-.13-2-.23-3-4-41.42-36.85-72.16-73.41-68.65s-63,39.95-59,81.38,36.85,72.16,73.41,68.65c30.18-2.9,53.44-28.23,58.41-60.28a9.75,9.75,0,0,1-1.35.24A9.45,9.45,0,0,1,210.08,120.49Z"/><path class="cls-7" d="M137.48,95.12c3.51-9.34,15.94-13.3,27.8-8.85"/><path class="cls-7" d="M186.59,80.41c3.4-9.06,15.45-12.9,26.95-8.59"/><circle cx="155.39" cy="106.43" r="2.44"/><circle cx="204.99" cy="93.09" r="2.44"/><path class="cls-7" d="M206.59,137.53c-3.08-4.47-16.11-.82-29.13,8.15"/><circle class="cls-8" cx="139.09" cy="137.73" r="10.68"/><path class="cls-1" d="M218.59,110.17a9.46,9.46,0,0,0,1.8,18.83,9.75,9.75,0,0,0,1.35-.24,84.3,84.3,0,0,0,.82-18.12A9.55,9.55,0,0,0,218.59,110.17Z"/><path class="cls-8" d="M218.53,109.56a9.46,9.46,0,1,0,1.81,18.83,8.54,8.54,0,0,0,1.34-.24A84.18,84.18,0,0,0,222.5,110,9.39,9.39,0,0,0,218.53,109.56Z"/><path class="cls-9" d="M161,49.87c-.7-14.82-8.36-26.48-17.11-26.07"/><path class="cls-9" d="M153.37,52.64c-1-16.84-11.39-29.88-23.17-29.16"/><path class="cls-9" d="M147.42,55.42c-4.25-17.8-15-30.45-24.14-28.28"/><path class="cls-9" d="M168.06,51.5c2.84-14.91-1.83-28.3-10.45-29.94"/><path class="cls-9" d="M176.53,50.49c2.95-10,.56-19.43-5.32-21.17"/><path class="cls-9" d="M139.5,54.77c-1.1-10.33-6.93-18.16-13-17.51"/><path class="cls-9" d="M133.71,58.1c-3.07-14.52-12.49-24.81-21.07-23"/><path class="cls-1" d="M107.28,277.78a6.14,6.14,0,0,1-2-.36c-1.56-.63-2.58-1.39-2.21-3.47,2.6-14.67,6.16-29.95,9.25-44.51.44-2.07,1.64-2.25,3.29-2.21a6.14,6.14,0,0,1,2,.45c1.5.68,2.58,1.41,2.16,3.47-3,14.48-6.49,29.62-9.22,44.14C110.15,277.36,109,277.74,107.28,277.78Z"/><path class="cls-1" d="M109,315.54a6.23,6.23,0,0,1-2,.1c-1.63-.26-2.82-.68-2.93-2.79-.63-12.48-1-25.78-.77-38.29,0-2.11,1.18-2.69,2.84-3a6,6,0,0,1,2,0c1.65.34,2.74.91,2.73,3-.09,12.4.25,25.55.78,37.93C111.7,314.59,110.56,315.14,109,315.54Z"/><path class="cls-2" d="M112.45,273a5.28,5.28,0,1,1-4.16-6.43A5.32,5.32,0,0,1,112.45,273Z"/><path class="cls-1" d="M110.27,327.71a5.82,5.82,0,0,1-1.41.3,2,2,0,0,1-2.37-1.59c-.52-2.28-1.1-5.15-1.52-7.45a2,2,0,0,1,1.53-2.44,6.28,6.28,0,0,1,1.42-.29,2,2,0,0,1,2.37,1.61c.52,2.28,1.1,5.15,1.52,7.45A2,2,0,0,1,110.27,327.71Z"/><path class="cls-1" d="M104.9,328.85a7,7,0,0,1-1.41.3,2,2,0,0,1-2.37-1.59c-.51-2.29-1.1-5.16-1.52-7.46a2,2,0,0,1,1.53-2.44,6.28,6.28,0,0,1,1.42-.29,2,2,0,0,1,2.37,1.61c.52,2.28,1.1,5.15,1.52,7.45A2,2,0,0,1,104.9,328.85Z"/><path class="cls-1" d="M115.63,326.58a6.68,6.68,0,0,1-1.41.3,2,2,0,0,1-2.36-1.59c-.52-2.28-1.1-5.15-1.52-7.45a2,2,0,0,1,1.54-2.44,6.79,6.79,0,0,1,1.41-.29,2,2,0,0,1,2.37,1.61c.52,2.28,1.1,5.14,1.52,7.44A2,2,0,0,1,115.63,326.58Z"/><path class="cls-1" d="M121,325.44a5.72,5.72,0,0,1-1.41.3,1.94,1.94,0,0,1-2.36-1.59c-.52-2.28-1.11-5.14-1.53-7.44a2,2,0,0,1,1.54-2.42,6.9,6.9,0,0,1,1.42-.3,2,2,0,0,1,2.36,1.59c.52,2.28,1.1,5.15,1.52,7.45A2,2,0,0,1,121,325.44Z"/><path class="cls-1" d="M115.94,311.5a6.33,6.33,0,0,1,.74-1.25,1.94,1.94,0,0,1,2.79-.65c1.2.69,3.18,1.87,4.34,2.63a2,2,0,0,1,.72,2.79,6.33,6.33,0,0,1-.74,1.25,2,2,0,0,1-2.78.67c-1.21-.67-3.18-1.86-4.34-2.62A2,2,0,0,1,115.94,311.5Z"/><path class="cls-1" d="M116.59,321.76c-3,.78-7.39,1.7-10.5,2.22-3.48.57-5.55-1.19-6.56-4.29a23.16,23.16,0,0,1-.81-3.94c-.3-3.26.91-5.78,4.32-6.68,3.06-.81,7.39-1.64,10.51-2.16,3.48-.57,5.56,1.26,6.57,4.36a22.6,22.6,0,0,1,.8,3.91C121.21,318.43,120,320.88,116.59,321.76Z"/><path class="cls-1" d="M193.44,273.13a4.73,4.73,0,0,1-2.08-.2c-1.7-.65-2.83-1.19-2.68-3.32,1-15,2.91-30.29,4.73-45.23.25-2.12,1.38-2.39,3.2-2.62a4.72,4.72,0,0,1,2.07.3c1.69.71,2.76,1.3,2.55,3.42-1.52,14.87-3.57,30-4.71,44.93C196.36,272.53,195.22,272.84,193.44,273.13Z"/><path class="cls-1" d="M194.31,311.24a4.76,4.76,0,0,1-2.09-.05c-1.76-.52-2.85-1-2.87-3.09-.12-12.65-.49-25.66-.3-38.3,0-2.13,1.15-2.51,2.92-2.9a4.87,4.87,0,0,1,2.08.08c1.75.55,2.86,1,2.87,3.16,0,12.6.44,25.57.33,38.17C197.23,310.43,196.06,310.82,194.31,311.24Z"/><path class="cls-2" d="M198.16,268a5.05,5.05,0,0,1-5.75,4.88,5.5,5.5,0,0,1-5-6,5.07,5.07,0,0,1,5.79-4.9A5.56,5.56,0,0,1,198.16,268Z"/><path class="cls-1" d="M200.91,322.09a4.25,4.25,0,0,0,1.44-.37c1.16-.58,1.8-1.18,1.5-2.6-.52-2.44-1.23-5.21-1.94-7.6-.41-1.39-1.26-1.61-2.55-1.56a4.12,4.12,0,0,0-1.46.36c-1.15.58-1.79,1.18-1.47,2.59.56,2.43,1.26,5.21,1.94,7.6C198.77,321.9,199.62,322.13,200.91,322.09Z"/><path class="cls-1" d="M206.47,320.68a4.25,4.25,0,0,0,1.45-.37c1.15-.57,1.79-1.18,1.49-2.59-.52-2.44-1.23-5.22-1.94-7.6-.41-1.39-1.26-1.62-2.54-1.57a4,4,0,0,0-1.45.36c-1.15.58-1.78,1.18-1.48,2.59.54,2.43,1.25,5.21,1.94,7.6C204.34,320.49,205.19,320.72,206.47,320.68Z"/><path class="cls-1" d="M195.34,323.5a4.25,4.25,0,0,0,1.44-.37c1.16-.57,1.8-1.18,1.5-2.59-.5-2.45-1.21-5.23-1.94-7.61-.42-1.38-1.27-1.63-2.56-1.6a4,4,0,0,0-1.44.36c-1.15.58-1.76,1.2-1.45,2.61.54,2.43,1.22,5.23,1.91,7.62C193.2,323.31,194.05,323.54,195.34,323.5Z"/><path class="cls-1" d="M189.76,324.91a3.84,3.84,0,0,0,1.45-.37c1.16-.57,1.8-1.18,1.5-2.59-.51-2.45-1.2-5.24-1.91-7.63-.41-1.38-1.26-1.62-2.55-1.58a4.21,4.21,0,0,0-1.44.38c-1.16.57-1.8,1.18-1.49,2.59.52,2.44,1.22,5.23,1.91,7.63C187.63,324.72,188.48,325,189.76,324.91Z"/><path class="cls-1" d="M188.17,309.53a3.85,3.85,0,0,0-1.25-.81c-1.24-.45-2-.51-2.91.71a50.32,50.32,0,0,0-2.83,4.38c-.74,1.31-.36,2,.56,3a4,4,0,0,0,1.25.82c1.24.45,2,.52,2.94-.7a45.62,45.62,0,0,0,2.83-4.39C189.49,311.19,189.1,310.48,188.17,309.53Z"/><path class="cls-1" d="M192.31,319.36a79.37,79.37,0,0,0,10.77-2.73c3.58-1.2,4.49-3.46,4.24-7a13.35,13.35,0,0,0-1-4c-1.49-3.23-3.45-4.77-7.18-4.12a79.5,79.5,0,0,0-10.74,2.67c-3.58,1.2-4.43,3.51-4.17,7a13.66,13.66,0,0,0,1,4C186.69,318.45,188.59,320,192.31,319.36Z"/><rect class="cls-1" x="137.57" y="371.51" width="8.59" height="40.29" rx="3.15" ry="3.15"/><path class="cls-4" d="M79.83,406.52l-3.08,0-.39,29.18a9,9,0,0,0,3,6.89Z"/><path class="cls-10" d="M84.54,444.56l5.64.08a7.29,7.29,0,0,0,7.15-7.39l.37-27.76a2.66,2.66,0,0,0-2.55-2.77l-15.32-.2-.47,36A7.94,7.94,0,0,0,84.54,444.56Z"/><rect class="cls-1" x="114.06" y="386.47" width="7.88" height="52.41" rx="2.89" ry="2.89" transform="translate(532.52 301.35) rotate(90.92)"/><circle class="cls-2" cx="141.86" cy="411.29" r="6.45"/><path class="cls-3" d="M557.67,460.41l1.59,2.64,25-15.05a9,9,0,0,0,4.27-6.18Z"/><path class="cls-4" d="M587.49,436.36l-2.9-4.83a7.29,7.29,0,0,0-10.05-2.18l-23.76,14.33a2.66,2.66,0,0,0-1,3.62l7.9,13.11,30.84-18.59A7.94,7.94,0,0,0,587.49,436.36Z"/><rect class="cls-1" x="524.7" y="368.39" width="8.59" height="41.55" rx="3.15" ry="3.15" transform="translate(-118.97 282.29) rotate(-26.98)"/><rect class="cls-1" x="544.62" y="407.93" width="7.88" height="41.67" rx="2.89" ry="2.89" transform="translate(-134.81 295.48) rotate(-26.98)"/><circle class="cls-2" cx="539.2" cy="409.58" r="6.45"/><path class="cls-5" d="M454.67,280.59v63a39.34,39.34,0,0,0,39.22,39.22h25.62a39.34,39.34,0,0,0,39.23-39.22v-63Z"/><path class="cls-6" d="M558.74,221.9a39.34,39.34,0,0,0-39.23-39.23H493.89a39.34,39.34,0,0,0-39.22,39.23v58.69H558.74Z"/><path class="cls-1" d="M559.87,120.49a9.46,9.46,0,0,1,8.51-10.32,9.6,9.6,0,0,1,4,.47c-.06-1-.14-2-.23-3-4-41.42-36.85-72.16-73.42-68.65s-63,39.95-59,81.38,36.84,72.16,73.41,68.65c30.18-2.9,53.44-28.23,58.41-60.28a10,10,0,0,1-1.35.24A9.46,9.46,0,0,1,559.87,120.49Z"/><path class="cls-7" d="M487.28,95.12c3.5-9.34,15.94-13.3,27.8-8.85"/><path class="cls-7" d="M536.39,80.41c3.4-9.06,15.45-12.9,27-8.59"/><circle cx="505.19" cy="106.43" r="2.44"/><circle cx="554.79" cy="93.09" r="2.44"/><circle class="cls-8" cx="488.89" cy="137.73" r="10.68"/><path class="cls-1" d="M568.38,110.17A9.46,9.46,0,1,0,570.19,129a10,10,0,0,0,1.35-.24,85,85,0,0,0,.82-18.12A9.6,9.6,0,0,0,568.38,110.17Z"/><path class="cls-8" d="M568.32,109.56a9.46,9.46,0,1,0,1.81,18.83,8.46,8.46,0,0,0,1.35-.24A84.82,84.82,0,0,0,572.3,110,9.44,9.44,0,0,0,568.32,109.56Z"/><path class="cls-9" d="M510.82,49.87c-.7-14.82-8.36-26.48-17.12-26.07"/><path class="cls-9" d="M503.16,52.64c-1-16.84-11.38-29.88-23.16-29.16"/><path class="cls-9" d="M497.22,55.42C493,37.62,482.17,25,473.07,27.14"/><path class="cls-9" d="M517.86,51.5c2.84-14.91-1.83-28.3-10.45-29.94"/><path class="cls-9" d="M526.33,50.49c2.94-10,.56-19.43-5.33-21.17"/><path class="cls-9" d="M489.3,54.77c-1.1-10.33-6.93-18.16-13-17.51"/><path class="cls-9" d="M483.5,58.1c-3.06-14.52-12.48-24.81-21.06-23"/><path class="cls-1" d="M485.87,274.21A6,6,0,0,1,484,275c-1.64.35-2.92.29-3.77-1.65-6-13.62-11.6-28.29-17.16-42.1-.79-2,.12-2.78,1.5-3.67a6.37,6.37,0,0,1,1.89-.72c1.62-.27,2.93-.27,3.73,1.68,5.63,13.65,11.13,28.19,17,41.77C488,272.27,487.25,273.24,485.87,274.21Z"/><path class="cls-1" d="M508.34,304.62a6.23,6.23,0,0,1-1.63,1.21c-1.49.7-2.72,1-4-.68-7.49-10-15.2-20.85-22-31.35-1.15-1.77-.52-2.89.67-4.08a6.14,6.14,0,0,1,1.69-1.12c1.55-.63,2.79-.77,3.94,1,6.84,10.33,14.46,21.06,21.81,31C510.08,302.3,509.44,303.4,508.34,304.62Z"/><path class="cls-2" d="M487.5,267.37a5.27,5.27,0,1,1-7-3A5.32,5.32,0,0,1,487.5,267.37Z"/><path class="cls-1" d="M516.21,314a6.57,6.57,0,0,1-1,1,2,2,0,0,1-2.85,0c-1.71-1.61-3.79-3.66-5.43-5.34a2,2,0,0,1-.08-2.88,6.56,6.56,0,0,1,1-1,2,2,0,0,1,2.86,0c1.71,1.61,3.79,3.66,5.43,5.34A2,2,0,0,1,516.21,314Z"/><path class="cls-1" d="M512.39,317.93a6.21,6.21,0,0,1-1,1,2,2,0,0,1-2.85,0c-1.7-1.6-3.79-3.66-5.42-5.33a2,2,0,0,1-.08-2.88,5.79,5.79,0,0,1,1-1,2,2,0,0,1,2.87,0c1.7,1.6,3.79,3.65,5.42,5.33A2,2,0,0,1,512.39,317.93Z"/><path class="cls-1" d="M520,310.06a7,7,0,0,1-1,1,2,2,0,0,1-2.85,0c-1.7-1.6-3.79-3.66-5.42-5.33a2,2,0,0,1-.08-2.88,5.8,5.8,0,0,1,1-1,2,2,0,0,1,2.86,0c1.7,1.59,3.79,3.65,5.42,5.32A2,2,0,0,1,520,310.06Z"/><path class="cls-1" d="M523.85,306.12a7,7,0,0,1-1,1,2,2,0,0,1-2.85,0c-1.7-1.6-3.78-3.65-5.41-5.32a2,2,0,0,1-.08-2.87,6.15,6.15,0,0,1,1-1,2,2,0,0,1,2.85,0c1.7,1.6,3.78,3.65,5.41,5.32A2,2,0,0,1,523.85,306.12Z"/><path class="cls-1" d="M511.87,297.37a7,7,0,0,1-.08-1.45c.11-1.19.56-2,1.95-2.09s3.68-.22,5.07-.24,1.92.74,2.16,1.91a6.39,6.39,0,0,1,.08,1.45c-.11,1.18-.55,2-1.94,2.11s-3.67.23-5.06.24S512.11,298.54,511.87,297.37Z"/><path class="cls-1" d="M518.13,305.52c-2.09,2.36-5.18,5.54-7.47,7.7-2.57,2.42-5.27,2.12-7.84.1A21.77,21.77,0,0,1,500,310.5c-2.07-2.54-2.48-5.3-.15-7.95,2.09-2.38,5.22-5.49,7.52-7.65,2.57-2.42,5.32-2.06,7.88,0a22.18,22.18,0,0,1,2.85,2.8C520.12,300.18,520.47,302.89,518.13,305.52Z"/><path class="cls-1" d="M559.47,266.27a4.61,4.61,0,0,1-2,.63c-1.82.08-3.06,0-3.78-2-5-14.18-9.3-29-13.54-43.4-.6-2.06.33-2.75,1.9-3.68a5,5,0,0,1,2-.55c1.83,0,3,.11,3.69,2.14,4.48,14.26,8.6,29,13.45,43.13C561.92,264.56,561,265.29,559.47,266.27Z"/><path class="cls-1" d="M575.34,300.93a4.65,4.65,0,0,1-1.93.77c-1.83.22-3,.25-3.87-1.7-5.11-11.57-10.59-23.38-15.41-35.06-.82-2,.06-2.76,1.53-3.81a4.71,4.71,0,0,1,1.94-.75c1.82-.19,3-.18,3.88,1.77,5,11.55,10.52,23.3,15.4,34.92C577.7,299,576.79,299.85,575.34,300.93Z"/><path class="cls-2" d="M561.79,259.7a5.05,5.05,0,0,1-3.36,6.76,5.49,5.49,0,0,1-7-3.53,5.07,5.07,0,0,1,3.38-6.79A5.56,5.56,0,0,1,561.79,259.7Z"/><path class="cls-1" d="M585.69,308.28a4.43,4.43,0,0,0,1.19-.91c.83-1,1.18-1.8.34-3-1.43-2-3.19-4.3-4.78-6.22-.93-1.11-1.8-1-3-.42a4.19,4.19,0,0,0-1.19.91c-.83,1-1.18,1.79-.33,2.95,1.47,2,3.22,4.29,4.79,6.22C583.66,309,584.53,308.83,585.69,308.28Z"/><path class="cls-1" d="M590.25,304.78a4.15,4.15,0,0,0,1.18-.91c.83-1,1.18-1.79.35-3-1.44-2-3.2-4.3-4.79-6.22-.92-1.1-1.8-1-3-.43a3.89,3.89,0,0,0-1.18.91c-.83,1-1.18,1.79-.34,3,1.45,2,3.21,4.29,4.79,6.22C588.21,305.45,589.08,305.33,590.25,304.78Z"/><path class="cls-1" d="M581.13,311.78a4.24,4.24,0,0,0,1.19-.91c.83-1,1.18-1.8.35-3-1.43-2-3.18-4.32-4.79-6.22-.93-1.1-1.81-1-3-.45a3.94,3.94,0,0,0-1.17.9c-.84,1-1.15,1.8-.31,3,1.46,2,3.2,4.31,4.78,6.24C579.1,312.45,580,312.33,581.13,311.78Z"/><path class="cls-1" d="M576.58,315.28a4.34,4.34,0,0,0,1.18-.91c.83-1,1.18-1.8.35-3-1.43-2-3.18-4.33-4.77-6.25-.93-1.11-1.8-1-3-.44a4.38,4.38,0,0,0-1.18.91c-.83,1-1.17,1.8-.34,3,1.45,2,3.19,4.31,4.78,6.24C574.54,316,575.41,315.83,576.58,315.28Z"/><path class="cls-1" d="M569,301.78a4.06,4.06,0,0,0-1.47-.25c-1.32.08-2.06.34-2.39,1.8s-.71,3.65-.87,5.15.47,2,1.69,2.5a3.86,3.86,0,0,0,1.47.26c1.32-.07,2.08-.33,2.42-1.8a42.92,42.92,0,0,0,.87-5.15C570.9,302.79,570.26,302.29,569,301.78Z"/><path class="cls-1" d="M576.72,309.17a80.36,80.36,0,0,0,8.81-6.76c2.81-2.52,2.76-5,1.13-8.1a13.32,13.32,0,0,0-2.5-3.23c-2.65-2.38-5.06-3-8.22-.95a79.84,79.84,0,0,0-8.81,6.7c-2.82,2.52-2.68,5-1,8.1a13.61,13.61,0,0,0,2.5,3.25C571.2,310.56,573.56,311.25,576.72,309.17Z"/><rect class="cls-1" x="487.36" y="371.51" width="8.59" height="40.29" rx="3.15" ry="3.15"/><path class="cls-4" d="M429.63,406.52l-3.08,0-.39,29.18a9,9,0,0,0,3,6.89Z"/><path class="cls-10" d="M434.34,444.56l5.63.08a7.29,7.29,0,0,0,7.16-7.39l.36-27.76a2.66,2.66,0,0,0-2.54-2.77l-15.32-.2-.47,36A7.9,7.9,0,0,0,434.34,444.56Z"/><rect class="cls-1" x="463.86" y="386.47" width="7.88" height="52.41" rx="2.89" ry="2.89" transform="translate(887.96 -48.4) rotate(90.92)"/><circle class="cls-2" cx="491.66" cy="411.29" r="6.45"/><path d="M520,158.1c-2.07,0-2.93-.39-3-.72s.55-1.5,3.78-3.27a60.35,60.35,0,0,1,11.08-4.43,52.63,52.63,0,0,1,13.6-2.53c2.08,0,2.93.38,3,.72s-.55,1.5-3.78,3.27a60.23,60.23,0,0,1-11.07,4.43A52.62,52.62,0,0,1,520,158.1Z"/><path d="M545.47,147.64h0A5.29,5.29,0,0,1,548,148c-.38,1.11-5.33,4.29-14.49,7.06A52.45,52.45,0,0,1,520,157.6a5.36,5.36,0,0,1-2.52-.38c.38-1.12,5.34-4.3,14.49-7.06a52.1,52.1,0,0,1,13.46-2.52m0-1a53.13,53.13,0,0,0-13.75,2.56c-9,2.71-15.76,6.43-15.19,8.32.22.73,1.5,1.08,3.51,1.08a53,53,0,0,0,13.75-2.55c9-2.71,15.76-6.44,15.19-8.33-.22-.73-1.5-1.08-3.51-1.08Z"/><path class="cls-3" d="M842,425.7l-2.7,1.49,14,25.55a9,9,0,0,0,6,4.51Z"/><path class="cls-4" d="M864.82,456.46l4.93-2.72a7.28,7.28,0,0,0,2.58-9.95L859,419.48a2.67,2.67,0,0,0-3.58-1.16L842,425.7l17.35,31.55A8,8,0,0,0,864.82,456.46Z"/><rect class="cls-1" x="874.7" y="368.39" width="8.59" height="41.55" rx="3.15" ry="3.15" transform="translate(-80.89 441.05) rotate(-26.98)"/><rect class="cls-1" x="870.01" y="397.02" width="7.88" height="41.67" rx="2.89" ry="2.89" transform="translate(888.41 -550.74) rotate(65.3)"/><circle class="cls-2" cx="889.2" cy="409.58" r="6.45"/><path class="cls-5" d="M804.67,280.59v63a39.34,39.34,0,0,0,39.22,39.22h25.62a39.34,39.34,0,0,0,39.23-39.22v-63Z"/><path class="cls-6" d="M908.74,221.9a39.34,39.34,0,0,0-39.23-39.23H843.89a39.34,39.34,0,0,0-39.22,39.23v58.69H908.74Z"/><path class="cls-1" d="M909.87,120.49a9.46,9.46,0,0,1,8.51-10.32,9.6,9.6,0,0,1,4,.47c-.06-1-.14-2-.23-3-4-41.42-36.85-72.16-73.42-68.65s-63,39.95-59,81.38,36.84,72.16,73.41,68.65c30.18-2.9,53.44-28.23,58.41-60.28a10,10,0,0,1-1.35.24A9.46,9.46,0,0,1,909.87,120.49Z"/><path class="cls-7" d="M837.28,95.12c3.5-9.34,15.94-13.3,27.8-8.85"/><path class="cls-7" d="M886.39,80.41c3.4-9.06,15.45-12.9,27-8.59"/><circle cx="855.19" cy="106.43" r="2.44"/><circle cx="904.79" cy="93.09" r="2.44"/><circle class="cls-8" cx="838.89" cy="137.73" r="10.68"/><path class="cls-1" d="M918.38,110.17A9.46,9.46,0,0,0,920.19,129a10,10,0,0,0,1.35-.24,85,85,0,0,0,.82-18.12A9.6,9.6,0,0,0,918.38,110.17Z"/><path class="cls-8" d="M918.32,109.56a9.46,9.46,0,0,0,1.81,18.83,8.46,8.46,0,0,0,1.35-.24A84.82,84.82,0,0,0,922.3,110,9.44,9.44,0,0,0,918.32,109.56Z"/><path class="cls-9" d="M860.82,49.87c-.7-14.82-8.36-26.48-17.12-26.07"/><path class="cls-9" d="M853.16,52.64c-1-16.84-11.38-29.88-23.16-29.16"/><path class="cls-9" d="M847.22,55.42C843,37.62,832.17,25,823.07,27.14"/><path class="cls-9" d="M867.86,51.5c2.84-14.91-1.83-28.3-10.45-29.94"/><path class="cls-9" d="M876.33,50.49c2.94-10,.56-19.43-5.33-21.17"/><path class="cls-9" d="M839.3,54.77c-1.1-10.33-6.93-18.16-13-17.51"/><path class="cls-9" d="M833.5,58.1c-3.06-14.52-12.48-24.81-21.06-23"/><path class="cls-1" d="M856.49,266.53a6.23,6.23,0,0,1-1.25,1.6c-1.28,1.08-2.43,1.63-4.1.33-11.75-9.14-23.62-19.41-35-28.94-1.63-1.35-1.22-2.5-.43-3.94a6,6,0,0,1,1.32-1.53c1.31-1,2.45-1.62,4.08-.29,11.43,9.36,23.17,19.55,34.75,28.74C857.46,263.8,857.24,265,856.49,266.53Z"/><path class="cls-1" d="M890.68,282.66a6.26,6.26,0,0,1-.86,1.83c-1,1.33-1.92,2.18-3.83,1.3-11.34-5.27-23.26-11.16-34.23-17.18-1.85-1-1.83-2.3-1.34-3.92a6,6,0,0,1,1-1.78c1.07-1.3,2.09-2,3.93-1,10.93,5.86,22.72,11.69,33.92,17C891.11,279.79,891.07,281.06,890.68,282.66Z"/><path class="cls-2" d="M854.68,259.74a5.27,5.27,0,1,1-7.62.68A5.3,5.3,0,0,1,854.68,259.74Z"/><path class="cls-1" d="M902.06,287.18a6.53,6.53,0,0,1-.4,1.39,2,2,0,0,1-2.51,1.35c-2.26-.61-5.07-1.43-7.3-2.13a2,2,0,0,1-1.44-2.49,6,6,0,0,1,.4-1.39,2,2,0,0,1,2.53-1.35c2.26.6,5.07,1.43,7.3,2.13A2,2,0,0,1,902.06,287.18Z"/><path class="cls-1" d="M900.55,292.46a6.11,6.11,0,0,1-.39,1.39,2,2,0,0,1-2.51,1.35c-2.26-.61-5.07-1.43-7.31-2.13a2,2,0,0,1-1.43-2.5,6,6,0,0,1,.39-1.38,2,2,0,0,1,2.53-1.35c2.26.6,5.07,1.42,7.31,2.13A2,2,0,0,1,900.55,292.46Z"/><path class="cls-1" d="M903.55,281.91a6,6,0,0,1-.39,1.38,2,2,0,0,1-2.51,1.35c-2.26-.6-5.07-1.43-7.3-2.13a2,2,0,0,1-1.43-2.49,6.14,6.14,0,0,1,.4-1.39,2,2,0,0,1,2.53-1.34c2.25.6,5.06,1.42,7.29,2.12A2,2,0,0,1,903.55,281.91Z"/><path class="cls-1" d="M905.05,276.63a6.11,6.11,0,0,1-.39,1.39,2,2,0,0,1-2.51,1.35c-2.26-.61-5.06-1.43-7.29-2.13a2,2,0,0,1-1.42-2.49,6.11,6.11,0,0,1,.39-1.39,2,2,0,0,1,2.51-1.35c2.26.61,5.06,1.42,7.29,2.13A2,2,0,0,1,905.05,276.63Z"/><path class="cls-1" d="M890.36,274.6a5.81,5.81,0,0,1-.76-1.24,1.93,1.93,0,0,1,.72-2.76c1.17-.75,3.14-1.94,4.35-2.62a2,2,0,0,1,2.81.66,6.54,6.54,0,0,1,.76,1.24,2,2,0,0,1-.71,2.77c-1.16.76-3.12,2-4.34,2.62A2,2,0,0,1,890.36,274.6Z"/><path class="cls-1" d="M899.73,278.81c-.72,3.07-1.93,7.33-2.93,10.32-1.11,3.35-3.64,4.37-6.86,3.81a22.63,22.63,0,0,1-3.85-1.13c-3-1.25-4.69-3.49-3.9-6.93.72-3.09,2-7.31,3-10.3,1.11-3.35,3.7-4.34,6.91-3.78a22.23,22.23,0,0,1,3.84,1.12C899,273.17,900.55,275.39,899.73,278.81Z"/><path class="cls-1" d="M911.77,251.06a4.81,4.81,0,0,1-1.62,1.31c-1.67.74-2.85,1.14-4.25-.47-9.84-11.38-19.22-23.6-28.42-35.5-1.31-1.69-.7-2.67.43-4.11a4.8,4.8,0,0,1,1.68-1.25c1.71-.68,2.89-1,4.22.65,9.38,11.64,18.57,23.86,28.24,35.26C913.42,248.57,912.83,249.59,911.77,251.06Z"/><path class="cls-1" d="M939.18,277.55a4.76,4.76,0,0,1-1.53,1.43c-1.61.87-2.7,1.32-4.21-.18-9-8.91-18.38-17.91-27.13-27-1.48-1.53-.95-2.58,0-4.1a4.69,4.69,0,0,1,1.53-1.41c1.63-.84,2.76-1.27,4.26.23,8.88,8.94,18.29,17.87,27.06,26.92C940.68,274.92,940.13,276,939.18,277.55Z"/><path class="cls-2" d="M911.53,244.1a5.05,5.05,0,0,1-.66,7.52,5.49,5.49,0,0,1-7.82-.74,5.06,5.06,0,0,1,.68-7.55A5.54,5.54,0,0,1,911.53,244.1Z"/><path class="cls-1" d="M951.49,280.62a3.81,3.81,0,0,0,.77-1.28c.42-1.22.45-2.1-.76-2.89-2.08-1.37-4.53-2.85-6.72-4.05-1.26-.7-2-.25-2.92.69a4.16,4.16,0,0,0-.77,1.28c-.42,1.22-.45,2.09.77,2.87,2.1,1.34,4.55,2.82,6.72,4C949.84,282,950.61,281.56,951.49,280.62Z"/><path class="cls-1" d="M954.46,275.71a4.16,4.16,0,0,0,.77-1.28c.42-1.22.45-2.1-.76-2.89-2.08-1.37-4.54-2.84-6.72-4.05-1.27-.69-2-.26-2.92.68a4.24,4.24,0,0,0-.77,1.27c-.41,1.22-.44,2.1.77,2.88,2.09,1.36,4.55,2.83,6.72,4.05C952.81,277.07,953.57,276.64,954.46,275.71Z"/><path class="cls-1" d="M948.52,285.54a3.86,3.86,0,0,0,.77-1.27c.42-1.23.45-2.11-.75-2.91-2.08-1.38-4.54-2.86-6.73-4-1.27-.69-2-.26-2.94.67a3.81,3.81,0,0,0-.78,1.26c-.41,1.22-.41,2.09.8,2.88,2.1,1.35,4.55,2.85,6.72,4.07C946.87,286.91,947.64,286.48,948.52,285.54Z"/><path class="cls-1" d="M945.55,290.46a3.86,3.86,0,0,0,.77-1.27c.42-1.22.45-2.11-.75-2.91-2.08-1.38-4.54-2.87-6.73-4.07-1.26-.7-2-.27-2.92.67a4.21,4.21,0,0,0-.76,1.27c-.42,1.23-.44,2.11.76,2.9,2.09,1.36,4.55,2.86,6.72,4.08C943.9,291.83,944.67,291.4,945.55,290.46Z"/><path class="cls-1" d="M933.61,280.64a4.06,4.06,0,0,0-1.46.31c-1.2.55-1.8,1.06-1.57,2.55s.67,3.65,1.06,5.11,1.17,1.68,2.49,1.71a3.67,3.67,0,0,0,1.46-.3c1.21-.54,1.82-1.06,1.61-2.55a47,47,0,0,0-1.07-5.12C935.72,280.9,934.94,280.67,933.61,280.64Z"/><path class="cls-1" d="M943.47,284.73a82.72,82.72,0,0,0,5.73-9.51c1.7-3.37.77-5.63-1.89-8a13.3,13.3,0,0,0-3.51-2.1c-3.33-1.25-5.82-1-8,2.11a81.34,81.34,0,0,0-5.76,9.45c-1.7,3.37-.68,5.61,2,7.93a14.07,14.07,0,0,0,3.51,2.11C938.83,288,941.28,287.81,943.47,284.73Z"/><rect class="cls-1" x="837.36" y="371.51" width="8.59" height="40.29" rx="3.15" ry="3.15"/><path class="cls-4" d="M779.63,406.52l-3.08,0-.39,29.18a9,9,0,0,0,3,6.89Z"/><path class="cls-10" d="M784.34,444.56l5.63.08a7.29,7.29,0,0,0,7.16-7.39l.36-27.76a2.66,2.66,0,0,0-2.54-2.77l-15.32-.2-.47,36A7.9,7.9,0,0,0,784.34,444.56Z"/><rect class="cls-1" x="813.86" y="386.47" width="7.88" height="52.41" rx="2.89" ry="2.89" transform="translate(1243.6 -398.36) rotate(90.92)"/><circle class="cls-2" cx="841.66" cy="411.29" r="6.45"/><path d="M880.44,152.14c-4.51,0-7.61-1.23-8.1-3.2-.78-3.12,5-7.34,12.62-9.24a31.48,31.48,0,0,1,7.37-1c4.51,0,7.62,1.23,8.11,3.21.35,1.44-.73,3.24-3,4.94a27.24,27.24,0,0,1-9.65,4.3A31.45,31.45,0,0,1,880.44,152.14Z"/><path d="M892.33,139.24h0c4.2,0,7.19,1.12,7.62,2.83.31,1.24-.71,2.85-2.8,4.43a26.7,26.7,0,0,1-9.46,4.2,30.45,30.45,0,0,1-7.25.94c-4.2,0-7.19-1.11-7.62-2.83-.62-2.48,4.27-6.64,12.26-8.62a30.49,30.49,0,0,1,7.25-.95m0-1a31.48,31.48,0,0,0-7.49,1c-8,2-13.85,6.4-13,9.84.57,2.3,4,3.58,8.59,3.58a31.44,31.44,0,0,0,7.49-1c8-2,13.85-6.4,13-9.84-.57-2.3-4-3.59-8.59-3.59Z"/><path d="M1930.68,157.94c-3.3,0-5.75-1.1-6.72-3-1.94-3.85,2.29-9.9,9.42-13.49a22.2,22.2,0,0,1,9.73-2.55c3.3,0,5.75,1.1,6.71,3s.48,4.21-1.24,6.72a21.63,21.63,0,0,1-8.17,6.78A22.38,22.38,0,0,1,1930.68,157.94Z"/><path d="M1943.11,139.38c3.1,0,5.39,1,6.27,2.74s.4,3.85-1.21,6.21a21.15,21.15,0,0,1-8,6.61,21.8,21.8,0,0,1-9.5,2.5c-3.11,0-5.39-1-6.27-2.74-1.79-3.54,2.42-9.42,9.19-12.83a21.93,21.93,0,0,1,9.51-2.49m0-1a22.8,22.8,0,0,0-10,2.6c-7.39,3.72-11.7,10.07-9.63,14.17,1.09,2.18,3.78,3.29,7.16,3.29a22.77,22.77,0,0,0,10-2.6c7.39-3.73,11.71-10.07,9.64-14.17-1.1-2.18-3.78-3.29-7.16-3.29Z"/><path class="cls-3" d="M1529,412.53l-3,.54,5.09,28.71a9,9,0,0,0,4.23,6.2Z"/><path class="cls-4" d="M1540.73,449l5.55-1a7.27,7.27,0,0,0,5.63-8.59l-4.84-27.32a2.68,2.68,0,0,0-3-2.25L1529,412.53l6.29,35.45A8,8,0,0,0,1540.73,449Z"/><rect class="cls-1" x="1576.29" y="368.01" width="8.59" height="41.55" rx="3.15" ry="3.15" transform="translate(-37.37 210.94) rotate(-7.55)"/><rect class="cls-1" x="1557.85" y="394.55" width="7.88" height="41.67" rx="2.89" ry="2.89" transform="translate(1812.88 -1181.07) rotate(84.04)"/><circle class="cls-2" cx="1583.42" cy="411.44" r="6.45"/><path class="cls-5" d="M1504.87,280.59v63a39.34,39.34,0,0,0,39.22,39.22h25.62a39.34,39.34,0,0,0,39.23-39.22v-63Z"/><path class="cls-6" d="M1608.94,221.9a39.34,39.34,0,0,0-39.23-39.23h-25.62a39.34,39.34,0,0,0-39.22,39.23v58.69h104.07Z"/><path class="cls-1" d="M1610.08,120.49a9.45,9.45,0,0,1,12.48-9.85c-.06-1-.13-2-.23-3-4-41.42-36.85-72.16-73.41-68.65s-63,39.95-59,81.38,36.85,72.16,73.41,68.65c30.18-2.9,53.44-28.23,58.41-60.28a9.75,9.75,0,0,1-1.35.24A9.45,9.45,0,0,1,1610.08,120.49Z"/><path class="cls-7" d="M1537.48,95.12c3.51-9.34,15.94-13.3,27.8-8.85"/><path class="cls-7" d="M1586.59,80.41c3.4-9.06,15.45-12.9,27-8.59"/><circle cx="1555.39" cy="106.43" r="2.44"/><circle cx="1604.99" cy="93.09" r="2.44"/><circle class="cls-8" cx="1539.09" cy="137.73" r="10.68"/><path class="cls-1" d="M1618.59,110.17a9.46,9.46,0,0,0,1.8,18.83,9.75,9.75,0,0,0,1.35-.24,84.3,84.3,0,0,0,.82-18.12A9.55,9.55,0,0,0,1618.59,110.17Z"/><path class="cls-8" d="M1618.53,109.56a9.46,9.46,0,1,0,1.81,18.83,8.54,8.54,0,0,0,1.34-.24,84.18,84.18,0,0,0,.82-18.11A9.39,9.39,0,0,0,1618.53,109.56Z"/><path class="cls-9" d="M1561,49.87c-.7-14.82-8.36-26.48-17.11-26.07"/><path class="cls-9" d="M1553.37,52.64c-1-16.84-11.39-29.88-23.17-29.16"/><path class="cls-9" d="M1547.42,55.42c-4.25-17.8-15.05-30.45-24.14-28.28"/><path class="cls-9" d="M1568.06,51.5c2.84-14.91-1.83-28.3-10.45-29.94"/><path class="cls-9" d="M1576.53,50.49c3-10,.56-19.43-5.32-21.17"/><path class="cls-9" d="M1539.5,54.77c-1.1-10.33-6.93-18.16-13-17.51"/><path class="cls-9" d="M1533.71,58.1c-3.07-14.52-12.49-24.81-21.07-23"/><path class="cls-1" d="M1569.52,281.65a6.26,6.26,0,0,1-1.42,1.44c-1.4.94-2.6,1.35-4.12-.13-10.62-10.43-21.23-22-31.5-32.77-1.46-1.54-.92-2.63,0-4a6.22,6.22,0,0,1,1.48-1.37c1.41-.85,2.63-1.33,4.09.18,10.28,10.61,20.77,22.08,31.22,32.54C1570.8,279.05,1570.44,280.24,1569.52,281.65Z"/><path class="cls-1" d="M1601.63,301.6a6.1,6.1,0,0,1-1.06,1.72c-1.13,1.21-2.15,1.95-4,.85-10.66-6.53-21.83-13.76-32-21-1.72-1.22-1.56-2.49-.89-4a6.2,6.2,0,0,1,1.16-1.66c1.21-1.17,2.3-1.75,4-.55,10.18,7.07,21.23,14.22,31.74,20.78C1602.39,298.8,1602.2,300.06,1601.63,301.6Z"/><path class="cls-2" d="M1568.5,274.7a5.28,5.28,0,1,1-7.65-.2A5.3,5.3,0,0,1,1568.5,274.7Z"/><path class="cls-1" d="M1612.41,307.4a5.74,5.74,0,0,1-.55,1.33,2,2,0,0,1-2.65,1c-2.17-.86-4.87-2-7-2.95a2,2,0,0,1-1.14-2.64,6.55,6.55,0,0,1,.56-1.34,2,2,0,0,1,2.66-1c2.18.86,4.88,2,7,2.95A2,2,0,0,1,1612.41,307.4Z"/><path class="cls-1" d="M1610.32,312.47a6.21,6.21,0,0,1-.55,1.33,2,2,0,0,1-2.65,1.06c-2.18-.87-4.88-2-7-3a2,2,0,0,1-1.14-2.64,7.12,7.12,0,0,1,.55-1.34,2,2,0,0,1,2.67-1c2.18.86,4.88,2,7,2.95A2,2,0,0,1,1610.32,312.47Z"/><path class="cls-1" d="M1614.51,302.33a6.21,6.21,0,0,1-.55,1.33,2,2,0,0,1-2.65,1c-2.17-.86-4.87-2-7-2.95a2,2,0,0,1-1.14-2.64,6.24,6.24,0,0,1,.56-1.33,2,2,0,0,1,2.67-1.05c2.17.86,4.87,2,7,2.95A2,2,0,0,1,1614.51,302.33Z"/><path class="cls-1" d="M1616.6,297.26a5.74,5.74,0,0,1-.55,1.33,1.94,1.94,0,0,1-2.64,1.05c-2.17-.86-4.87-2-7-2.94a2,2,0,0,1-1.13-2.64,6.21,6.21,0,0,1,.55-1.33,2,2,0,0,1,2.65-1.06c2.17.86,4.87,2,7,2.95A2,2,0,0,1,1616.6,297.26Z"/><path class="cls-1" d="M1602.24,293.56a5.86,5.86,0,0,1-.61-1.32,1.94,1.94,0,0,1,1-2.67c1.25-.6,3.34-1.56,4.63-2.09a2,2,0,0,1,2.71,1,6.25,6.25,0,0,1,.61,1.31,2,2,0,0,1-1,2.68c-1.24.62-3.33,1.57-4.61,2.1A2,2,0,0,1,1602.24,293.56Z"/><path class="cls-1" d="M1611.07,298.82c-1.07,3-2.77,7.06-4.1,9.91-1.49,3.2-4.11,3.92-7.25,3a21.77,21.77,0,0,1-3.7-1.55c-2.86-1.6-4.26-4-3.07-7.34,1.06-3,2.82-7,4.15-9.89,1.5-3.2,4.18-3.88,7.31-3a22.78,22.78,0,0,1,3.68,1.55C1610.94,293.12,1612.27,295.51,1611.07,298.82Z"/><path class="cls-1" d="M1615.62,242.25a4.68,4.68,0,0,1-1.07,1.79c-1.31,1.27-2.28,2.05-4.15,1-13.15-7.31-26.15-15.56-38.89-23.57-1.81-1.14-1.57-2.27-1-4a4.68,4.68,0,0,1,1.15-1.75c1.37-1.23,2.36-1.95,4.18-.85,12.81,7.72,25.64,16,38.63,23.42C1616.32,239.35,1616.11,240.51,1615.62,242.25Z"/><path class="cls-1" d="M1650.46,257.72a4.56,4.56,0,0,1-.94,1.86c-1.21,1.38-2.08,2.17-4,1.28-11.49-5.28-23.41-10.5-34.76-16.07-1.92-.93-1.78-2.1-1.38-3.87a4.71,4.71,0,0,1,1-1.84c1.24-1.35,2.16-2.15,4.08-1.25,11.41,5.34,23.32,10.5,34.66,16C1651,254.73,1650.83,256,1650.46,257.72Z"/><path class="cls-2" d="M1613,235.8a5.06,5.06,0,0,1,2,7.29,5.49,5.49,0,0,1-7.6,2,5.07,5.07,0,0,1-2-7.32A5.56,5.56,0,0,1,1613,235.8Z"/><path class="cls-1" d="M1663.09,256.38a4.36,4.36,0,0,0,.28-1.47c0-1.29-.3-2.13-1.71-2.46-2.43-.57-5.24-1.11-7.7-1.49-1.43-.22-2,.46-2.51,1.64a4.17,4.17,0,0,0-.28,1.47c0,1.29.29,2.12,1.7,2.44,2.44.53,5.25,1.08,7.71,1.48C1662,258.23,1662.58,257.56,1663.09,256.38Z"/><path class="cls-1" d="M1664.18,250.74a4.08,4.08,0,0,0,.29-1.46c0-1.29-.3-2.13-1.71-2.46-2.42-.57-5.24-1.11-7.7-1.49-1.43-.22-2,.45-2.51,1.64a4,4,0,0,0-.28,1.46c0,1.28.3,2.11,1.71,2.44,2.42.55,5.24,1.09,7.7,1.49C1663.1,252.59,1663.67,251.92,1664.18,250.74Z"/><path class="cls-1" d="M1662,262a4.13,4.13,0,0,0,.28-1.47c0-1.29-.3-2.13-1.71-2.46-2.42-.59-5.24-1.13-7.7-1.49-1.43-.21-2,.45-2.54,1.64a4,4,0,0,0-.29,1.45c0,1.29.33,2.11,1.74,2.43,2.43.55,5.25,1.12,7.71,1.52C1660.91,263.87,1661.48,263.2,1662,262Z"/><path class="cls-1" d="M1660.89,267.66a4.08,4.08,0,0,0,.28-1.47c0-1.29-.3-2.13-1.71-2.46-2.42-.58-5.24-1.14-7.71-1.52-1.43-.22-2,.44-2.51,1.63a4.07,4.07,0,0,0-.28,1.46c0,1.29.31,2.13,1.71,2.46,2.43.56,5.25,1.12,7.71,1.52C1659.81,269.51,1660.38,268.84,1660.89,267.66Z"/><path class="cls-1" d="M1646.3,262.54a3.72,3.72,0,0,0-1.27.79c-.94.93-1.32,1.61-.6,2.93a52,52,0,0,0,2.76,4.43c.86,1.23,1.67,1.19,2.92.76a4,4,0,0,0,1.27-.78c.95-.93,1.34-1.63.63-3a46.09,46.09,0,0,0-2.76-4.43C1648.36,262.05,1647.55,262.1,1646.3,262.54Z"/><path class="cls-1" d="M1657,263a81.15,81.15,0,0,0,2.12-10.91c.44-3.74-1.22-5.54-4.51-6.81a13.39,13.39,0,0,0-4-.77c-3.56,0-5.79,1.08-6.79,4.73a80.58,80.58,0,0,0-2.17,10.86c-.44,3.75,1.29,5.51,4.58,6.77a13.83,13.83,0,0,0,4,.77C1653.74,267.68,1656,266.63,1657,263Z"/><rect class="cls-1" x="1527.16" y="366.53" width="8.59" height="40.29" rx="3.15" ry="3.15" transform="translate(417.91 -733.55) rotate(31)"/><path class="cls-4" d="M1463.74,376.23l-2.89-1.09-10.36,27.28a9,9,0,0,0,.45,7.49Z"/><path class="cls-10" d="M1455.12,413.59l5.26,2a7.27,7.27,0,0,0,9.26-4.49l9.86-26a2.65,2.65,0,0,0-1.44-3.47l-14.32-5.45-12.8,33.68A8,8,0,0,0,1455.12,413.59Z"/><rect class="cls-1" x="1493.54" y="368.9" width="7.88" height="52.41" rx="2.89" ry="2.89" transform="translate(2402.41 -861.73) rotate(110.97)"/><circle class="cls-2" cx="1521.34" cy="403.51" r="6.45"/><path d="M1579.36,157.94c-3.31,0-5.75-1.1-6.72-3s-.47-4.2,1.24-6.72a21.78,21.78,0,0,1,8.17-6.77,22.27,22.27,0,0,1,9.73-2.55c3.31,0,5.76,1.1,6.72,3s.47,4.21-1.24,6.72a21.63,21.63,0,0,1-8.17,6.78A22.38,22.38,0,0,1,1579.36,157.94Z"/><path d="M1591.78,139.38c3.11,0,5.4,1,6.27,2.74s.4,3.85-1.2,6.21a21.15,21.15,0,0,1-8,6.61,21.8,21.8,0,0,1-9.5,2.5c-3.11,0-5.4-1-6.27-2.74-1.79-3.54,2.42-9.42,9.19-12.83a21.92,21.92,0,0,1,9.5-2.49m0-1a22.8,22.8,0,0,0-10,2.6c-7.39,3.72-11.7,10.07-9.64,14.17,1.1,2.18,3.78,3.29,7.17,3.29a22.8,22.8,0,0,0,10-2.6c7.39-3.73,11.7-10.07,9.64-14.17-1.1-2.18-3.78-3.29-7.17-3.29Z"/><path class="cls-3" d="M1192.17,425.7l-2.71,1.49,14,25.55a9,9,0,0,0,6,4.51Z"/><path class="cls-4" d="M1215,456.46l4.93-2.72a7.27,7.27,0,0,0,2.58-9.95l-13.37-24.31a2.67,2.67,0,0,0-3.58-1.16l-13.41,7.38,17.34,31.55A8,8,0,0,0,1215,456.46Z"/><rect class="cls-1" x="1224.9" y="368.39" width="8.59" height="41.55" rx="3.15" ry="3.15" transform="translate(-42.79 599.91) rotate(-26.98)"/><rect class="cls-1" x="1220.21" y="397.02" width="7.88" height="41.67" rx="2.89" ry="2.89" transform="translate(1092.28 -868.91) rotate(65.3)"/><circle class="cls-2" cx="1239.41" cy="409.58" r="6.45"/><path class="cls-5" d="M1154.87,280.59v63a39.34,39.34,0,0,0,39.22,39.22h25.62a39.34,39.34,0,0,0,39.23-39.22v-63Z"/><path class="cls-6" d="M1258.94,221.9a39.34,39.34,0,0,0-39.23-39.23h-25.62a39.34,39.34,0,0,0-39.22,39.23v58.69h104.07Z"/><path class="cls-1" d="M1260.08,120.49a9.45,9.45,0,0,1,12.48-9.85c-.06-1-.13-2-.23-3-4-41.42-36.85-72.16-73.41-68.65s-63,39.95-59,81.38,36.85,72.16,73.41,68.65c30.18-2.9,53.44-28.23,58.41-60.28a9.75,9.75,0,0,1-1.35.24A9.45,9.45,0,0,1,1260.08,120.49Z"/><path class="cls-7" d="M1187.48,95.12c3.51-9.34,15.94-13.3,27.8-8.85"/><path class="cls-7" d="M1236.59,80.41c3.4-9.06,15.45-12.9,27-8.59"/><circle cx="1205.39" cy="106.43" r="2.44"/><circle cx="1254.99" cy="93.09" r="2.44"/><circle class="cls-8" cx="1189.09" cy="137.73" r="10.68"/><path class="cls-1" d="M1268.59,110.17a9.46,9.46,0,0,0,1.8,18.83,9.75,9.75,0,0,0,1.35-.24,84.3,84.3,0,0,0,.82-18.12A9.55,9.55,0,0,0,1268.59,110.17Z"/><path class="cls-8" d="M1268.53,109.56a9.46,9.46,0,0,0,1.81,18.83,8.54,8.54,0,0,0,1.34-.24,84.18,84.18,0,0,0,.82-18.11A9.39,9.39,0,0,0,1268.53,109.56Z"/><path class="cls-9" d="M1211,49.87c-.7-14.82-8.36-26.48-17.11-26.07"/><path class="cls-9" d="M1203.37,52.64c-1-16.84-11.39-29.88-23.17-29.16"/><path class="cls-9" d="M1197.42,55.42c-4.25-17.8-15.05-30.45-24.14-28.28"/><path class="cls-9" d="M1218.06,51.5c2.84-14.91-1.83-28.3-10.45-29.94"/><path class="cls-9" d="M1226.53,50.49c3-10,.56-19.43-5.32-21.17"/><path class="cls-9" d="M1189.5,54.77c-1.1-10.33-6.93-18.16-13-17.51"/><path class="cls-9" d="M1183.71,58.1c-3.07-14.52-12.49-24.81-21.07-23"/><path class="cls-1" d="M1220.23,251a6.15,6.15,0,0,1-.37,2c-.64,1.55-1.41,2.57-3.49,2.19-14.64-2.72-29.9-6.39-44.43-9.6-2.07-.45-2.24-1.66-2.19-3.3a6,6,0,0,1,.47-2c.69-1.49,1.43-2.57,3.49-2.13,14.45,3,29.56,6.71,44.07,9.55C1219.84,248.13,1220.21,249.31,1220.23,251Z"/><path class="cls-1" d="M1258,249.61a6.23,6.23,0,0,1,.08,2c-.26,1.63-.7,2.82-2.81,2.91-12.48.54-25.79.78-38.29.47-2.11,0-2.68-1.2-3-2.86a6,6,0,0,1,0-2c.35-1.64.94-2.73,3-2.7,12.39.18,25.55-.06,37.93-.49C1257.08,246.86,1257.62,248,1258,249.61Z"/><path class="cls-2" d="M1215.5,245.8a5.27,5.27,0,1,1-6.45,4.11A5.31,5.31,0,0,1,1215.5,245.8Z"/><path class="cls-1" d="M1270.19,248.4a6.2,6.2,0,0,1,.29,1.41,2,2,0,0,1-1.61,2.35c-2.28.5-5.16,1.07-7.46,1.47a2,2,0,0,1-2.43-1.55,6.27,6.27,0,0,1-.28-1.42,2,2,0,0,1,1.63-2.36c2.28-.5,5.15-1.07,7.46-1.47A2,2,0,0,1,1270.19,248.4Z"/><path class="cls-1" d="M1271.29,253.78a6.08,6.08,0,0,1,.28,1.41,2,2,0,0,1-1.61,2.35c-2.28.5-5.16,1.06-7.46,1.47a2,2,0,0,1-2.43-1.56,6.08,6.08,0,0,1-.28-1.41,2,2,0,0,1,1.63-2.36c2.28-.5,5.16-1.07,7.46-1.47A2,2,0,0,1,1271.29,253.78Z"/><path class="cls-1" d="M1269.1,243a6.88,6.88,0,0,1,.29,1.42,2,2,0,0,1-1.61,2.35c-2.29.5-5.16,1.06-7.46,1.46a2,2,0,0,1-2.43-1.56,5.67,5.67,0,0,1-.27-1.41,2,2,0,0,1,1.62-2.36c2.28-.5,5.15-1.06,7.45-1.46A2,2,0,0,1,1269.1,243Z"/><path class="cls-1" d="M1268,237.65a6.09,6.09,0,0,1,.29,1.41,2,2,0,0,1-1.61,2.35c-2.28.5-5.14,1.06-7.45,1.47a2,2,0,0,1-2.41-1.56,6.27,6.27,0,0,1-.28-1.42,2,2,0,0,1,1.61-2.35c2.28-.5,5.15-1.06,7.45-1.46A2,2,0,0,1,1268,237.65Z"/><path class="cls-1" d="M1254,242.6a6,6,0,0,1-1.24-.75,1.94,1.94,0,0,1-.63-2.79c.7-1.2,1.89-3.16,2.66-4.32a2,2,0,0,1,2.8-.71,6.54,6.54,0,0,1,1.24.76,2,2,0,0,1,.65,2.78c-.68,1.21-1.88,3.17-2.65,4.32A2,2,0,0,1,1254,242.6Z"/><path class="cls-1" d="M1264.28,242c.77,3.06,1.65,7.4,2.14,10.52.55,3.48-1.22,5.54-4.34,6.52a22,22,0,0,1-3.94.78c-3.26.27-5.77-1-6.65-4.37-.78-3.07-1.58-7.4-2.07-10.52-.55-3.49,1.3-5.56,4.4-6.54a22.65,22.65,0,0,1,3.92-.77C1261,237.38,1263.43,238.62,1264.28,242Z"/><path class="cls-1" d="M1273.82,217.89a4.71,4.71,0,0,1,.27,2.07c-.24,1.81-.51,3-2.62,3.37-14.85,2.44-30.16,4-45.12,5.67-2.12.23-2.64-.81-3.28-2.53a4.71,4.71,0,0,1-.18-2.08c.31-1.81.64-3,2.75-3.26,14.83-1.9,30.06-3.35,44.83-5.62C1272.57,215.18,1273.13,216.22,1273.82,217.89Z"/><path class="cls-1" d="M1310.74,208.39a4.75,4.75,0,0,1,.42,2c-.1,1.83-.29,3-2.36,3.5-12.29,3-24.88,6.3-37.23,9-2.08.45-2.7-.55-3.48-2.19a4.74,4.74,0,0,1-.4-2c.14-1.82.36-3,2.43-3.51,12.26-2.89,24.8-6.24,37.09-9C1309.29,205.73,1309.93,206.77,1310.74,208.39Z"/><path class="cls-2" d="M1267.77,214.45a5.06,5.06,0,0,1,6.06,4.5,5.49,5.49,0,0,1-4.72,6.28,5.06,5.06,0,0,1-6.08-4.53A5.55,5.55,0,0,1,1267.77,214.45Z"/><path class="cls-1" d="M1319.8,199.5a4.22,4.22,0,0,0-.69-1.33c-.82-1-1.56-1.48-2.86-.87-2.26,1.06-4.8,2.38-7,3.62-1.26.71-1.28,1.6-.94,2.84a4.19,4.19,0,0,0,.68,1.33c.82,1,1.56,1.48,2.85.85,2.25-1.09,4.79-2.41,7-3.62C1320.1,201.62,1320.13,200.74,1319.8,199.5Z"/><path class="cls-1" d="M1317.16,194.4a4.19,4.19,0,0,0-.68-1.33c-.82-1-1.56-1.48-2.87-.86-2.25,1.06-4.8,2.38-7,3.61-1.25.72-1.28,1.6-1,2.84a4,4,0,0,0,.68,1.32c.82,1,1.56,1.47,2.86.85,2.24-1.07,4.79-2.39,7-3.61C1317.46,196.52,1317.49,195.64,1317.16,194.4Z"/><path class="cls-1" d="M1322.44,204.6a4,4,0,0,0-.69-1.32c-.82-1-1.56-1.48-2.87-.88-2.26,1-4.8,2.37-7,3.62-1.25.72-1.3,1.61-1,2.86a3.83,3.83,0,0,0,.67,1.32c.83,1,1.57,1.45,2.87.82,2.25-1.07,4.81-2.38,7-3.59C1322.74,206.72,1322.77,205.85,1322.44,204.6Z"/><path class="cls-1" d="M1325.08,209.71a4,4,0,0,0-.69-1.33c-.82-1-1.55-1.48-2.87-.87-2.26,1.05-4.82,2.36-7,3.6-1.25.71-1.29,1.59-1,2.84a4,4,0,0,0,.69,1.32c.82,1,1.56,1.47,2.86.86,2.26-1.07,4.81-2.38,7-3.6C1325.38,211.83,1325.42,211,1325.08,209.71Z"/><path class="cls-1" d="M1310.47,214.75a3.74,3.74,0,0,0-.51,1.41c-.16,1.31,0,2.08,1.35,2.67s3.47,1.34,4.91,1.76,2-.11,2.76-1.22a4,4,0,0,0,.52-1.4c.16-1.32,0-2.11-1.35-2.71a44.83,44.83,0,0,0-4.91-1.76C1311.78,213.09,1311.18,213.63,1310.47,214.75Z"/><path class="cls-1" d="M1319.1,208.49a80.84,80.84,0,0,0-5.11-9.87c-2-3.21-4.39-3.59-7.76-2.54a13.22,13.22,0,0,0-3.63,1.89c-2.81,2.19-3.87,4.45-2.39,7.93a82.29,82.29,0,0,0,5,9.85c2,3.22,4.43,3.52,7.79,2.47a13.91,13.91,0,0,0,3.65-1.89C1319.49,214.17,1320.58,212,1319.1,208.49Z"/><rect class="cls-1" x="1187.57" y="371.51" width="8.59" height="40.29" rx="3.15" ry="3.15"/><path class="cls-4" d="M1132.41,385.49l-2.89-1.09-10.36,27.28a9,9,0,0,0,.45,7.49Z"/><path class="cls-10" d="M1123.79,422.85l5.27,2a7.27,7.27,0,0,0,9.25-4.49l9.86-25.95a2.65,2.65,0,0,0-1.44-3.47l-14.32-5.45-12.8,33.68A8,8,0,0,0,1123.79,422.85Z"/><rect class="cls-1" x="1162.21" y="378.16" width="7.88" height="52.41" rx="2.89" ry="2.89" transform="translate(1961.13 -539.78) rotate(110.97)"/><circle class="cls-2" cx="1191.86" cy="411.29" r="6.45"/><path d="M1229.36,157.94c-3.31,0-5.75-1.1-6.72-3s-.47-4.2,1.24-6.72a21.78,21.78,0,0,1,8.17-6.77,22.27,22.27,0,0,1,9.73-2.55c3.31,0,5.76,1.1,6.72,3s.47,4.21-1.24,6.72a21.63,21.63,0,0,1-8.17,6.78A22.38,22.38,0,0,1,1229.36,157.94Z"/><path d="M1241.78,139.38c3.11,0,5.4,1,6.27,2.74s.4,3.85-1.2,6.21a21.15,21.15,0,0,1-8,6.61,21.8,21.8,0,0,1-9.5,2.5c-3.11,0-5.4-1-6.27-2.74-1.79-3.54,2.42-9.42,9.19-12.83a21.92,21.92,0,0,1,9.5-2.49m0-1a22.8,22.8,0,0,0-10,2.6c-7.39,3.72-11.7,10.07-9.64,14.17,1.1,2.18,3.78,3.29,7.17,3.29a22.8,22.8,0,0,0,10-2.6c7.39-3.73,11.7-10.07,9.64-14.17-1.1-2.18-3.78-3.29-7.17-3.29Z"/></svg>
