<svg id="Layer_1" data-name="Layer 1" xmlns="http://www.w3.org/2000/svg" viewBox="0 0 4550 500"><defs><style>.cls-1{fill:#8f8b95;}.cls-2{fill:#f8ddc4;}.cls-3{fill:#315131;}.cls-4{fill:#55558e;}.cls-10,.cls-5{fill:none;stroke:#000;stroke-miterlimit:10;}.cls-6{fill:#9d9c9c;}.cls-7{fill:#f8e3d1;}.cls-8{fill:#f9dec5;}.cls-9{fill:#f9c5cd;opacity:0.49;}.cls-10{stroke-width:2px;}</style></defs><title>walk4</title><path class="cls-1" d="M3996.83,448l-.36,3,28.46,3.41a8.82,8.82,0,0,0,7-2.21Z"/><path class="cls-1" d="M1896.83,448l-.36,3,28.46,3.41a8.82,8.82,0,0,0,7-2.21Z"/><path class="cls-1" d="M3658.88,453.34l-.13,3,28.63,1.24a8.83,8.83,0,0,0,6.84-2.74Z"/><path class="cls-1" d="M3308.88,453.34l-.13,3,28.63,1.24a8.83,8.83,0,0,0,6.84-2.74Z"/><path class="cls-1" d="M2974.8,455.48l-.13,3,28.63,1.23a8.8,8.8,0,0,0,6.84-2.74Z"/><path class="cls-1" d="M1558.88,453.34l-.13,3,28.63,1.24a8.83,8.83,0,0,0,6.84-2.74Z"/><path class="cls-1" d="M1208.88,453.34l-.13,3,28.63,1.24a8.83,8.83,0,0,0,6.84-2.74Z"/><path class="cls-1" d="M874.8,455.48l-.13,3,28.63,1.23a8.8,8.8,0,0,0,6.84-2.74Z"/><path class="cls-1" d="M2650.15,452.68l.14,3,28.62-1.32a8.84,8.84,0,0,0,6.58-3.33Z"/><path class="cls-1" d="M550.15,452.68l.14,3,28.62-1.32a8.84,8.84,0,0,0,6.58-3.33Z"/><rect class="cls-2" x="4394.83" y="353.73" width="8.44" height="39.58" rx="2.78" ry="2.78" transform="translate(1876.05 3996.45) rotate(-60)"/><rect class="cls-2" x="4044.83" y="353.73" width="8.44" height="39.58" rx="2.78" ry="2.78" transform="translate(1701.05 3693.34) rotate(-60)"/><rect class="cls-2" x="3694.83" y="353.73" width="8.44" height="39.58" rx="2.78" ry="2.78" transform="translate(1526.05 3390.23) rotate(-60)"/><rect class="cls-2" x="3339.12" y="358.75" width="8.44" height="39.58" rx="2.78" ry="2.78" transform="translate(426.03 2055) rotate(-36.34)"/><rect class="cls-2" x="2954.37" y="362.48" width="8.44" height="39.58" rx="2.78" ry="2.78" transform="translate(-24.43 413.83) rotate(-7.97)"/><rect class="cls-2" x="2592.86" y="357.4" width="8.44" height="39.58" rx="2.78" ry="2.78" transform="translate(707.68 -1444.14) rotate(35.69)"/><path class="cls-3" d="M4319.36,272v61.9a38.66,38.66,0,0,0,38.55,38.54h25.17a38.65,38.65,0,0,0,38.54-38.54V272Z"/><path class="cls-4" d="M4421.62,214.33a38.65,38.65,0,0,0-38.54-38.54h-25.17a38.66,38.66,0,0,0-38.55,38.54V272h102.26Z"/><path class="cls-2" d="M4422.74,114.69A9.27,9.27,0,0,1,4435,105c-.06-1-.13-2-.22-2.93-3.91-40.71-36.21-70.91-72.14-67.46s-61.88,39.25-58,80,36.21,70.9,72.14,67.45c29.65-2.85,52.51-27.73,57.39-59.23a8.3,8.3,0,0,1-1.32.24A9.29,9.29,0,0,1,4422.74,114.69Z"/><path class="cls-5" d="M4351.41,89.76c3.44-9.18,15.66-13.07,27.31-8.7"/><circle cx="4369.01" cy="100.88" r="2.4"/><circle cx="4417.74" cy="87.76" r="2.4"/><path class="cls-5" d="M4390.54,132c.52,5.31,13.45,8.37,28.92,6.84"/><path class="cls-2" d="M4431.1,104.55a9.29,9.29,0,0,0,1.78,18.5,8.3,8.3,0,0,0,1.32-.24A82.53,82.53,0,0,0,4435,105,9.24,9.24,0,0,0,4431.1,104.55Z"/><path class="cls-1" d="M4328.88,436.56l-.89,2.9,27.4,8.41a8.81,8.81,0,0,0,7.31-.92Z"/><path class="cls-6" d="M4366,442.62l1.62-5.29a7.14,7.14,0,0,0-5-8.78l-26.06-8a2.6,2.6,0,0,0-3.31,1.63l-4.42,14.38L4362.7,447A7.86,7.86,0,0,0,4366,442.62Z"/><rect class="cls-2" x="4340.5" y="386.19" width="7.74" height="40.94" rx="2.55" ry="2.55" transform="translate(315.53 -1268.87) rotate(17.23)"/><circle class="cls-7" cx="4349.17" cy="386.71" r="6.33"/><path class="cls-1" d="M4436.23,438.64l1.37,2.71,25.58-13a8.86,8.86,0,0,0,4.63-5.74Z"/><path class="cls-6" d="M4467.21,417.22l-2.5-4.94a7.14,7.14,0,0,0-9.69-2.86l-24.34,12.31a2.62,2.62,0,0,0-1.25,3.48l6.8,13.43,31.58-16A7.82,7.82,0,0,0,4467.21,417.22Z"/><rect class="cls-2" x="4420.35" y="376.86" width="7.74" height="51.5" rx="2.55" ry="2.55" transform="translate(290.12 2028.97) rotate(-26.67)"/><circle class="cls-7" cx="4414.28" cy="382.67" r="6.33"/><path class="cls-2" d="M4365.31,302a1.78,1.78,0,0,0,1.94-1.39l.37-1.8a1.79,1.79,0,0,0-1.38-2.1l-4.83-1a4.9,4.9,0,0,0-6.13-.9l-2.37,1.43-11-27.14a5.26,5.26,0,0,0-1.9-6.64l-8-35.9a2.48,2.48,0,0,0-3-1.88l-2.51.55a2.49,2.49,0,0,0-1.88,3l8,35.89a5.27,5.27,0,0,0,2,7.43l.21.21,11.55,28.45-1.19.72a4.9,4.9,0,0,0-1.66,6.7l2.61,4.32h0l3.87,6.41a1.78,1.78,0,0,0,2.44.6L4354,318a1.77,1.77,0,0,1,3-1.83l1.57-.95a1.77,1.77,0,1,1,3-1.83l1.57-.95a1.78,1.78,0,0,1,3-1.84l1.57-.95a1.76,1.76,0,0,0,.6-2.43Z"/><path class="cls-2" d="M4435,311l-3.1-7.2h0l-2.1-4.85a5.13,5.13,0,0,0-6.72-2.67l-2.27,1-4.2-29.71a5.43,5.43,0,0,0,.86-3.44,5.52,5.52,0,0,0-1.89-3.72L4412.35,222a2.61,2.61,0,0,0-2.81-2.38l-2.68.23a2.6,2.6,0,0,0-2.38,2.8l3.21,38.39a5.52,5.52,0,0,0,1,8l.16.23,4.42,31.23-1.55.67a5.13,5.13,0,0,0-3,5.77l-2.09,4.72a1.87,1.87,0,0,0,.94,2.46l1.76.78a1.86,1.86,0,0,0,2.37-.8l2.52,5.84a1.87,1.87,0,0,0,2.45,1l1.76-.76a1.85,1.85,0,0,0,1-2.44,1.88,1.88,0,0,0,2.45,1l1.76-.77a1.86,1.86,0,0,1,3.42-1.47l1.76-.76a1.86,1.86,0,0,0,1-2.44,1.89,1.89,0,0,0,2.45,1l1.76-.77A1.85,1.85,0,0,0,4435,311Z"/><path class="cls-3" d="M3969.36,272v61.9a38.66,38.66,0,0,0,38.55,38.54h25.17a38.65,38.65,0,0,0,38.54-38.54V272Z"/><path class="cls-4" d="M4071.62,214.33a38.65,38.65,0,0,0-38.54-38.54h-25.17a38.66,38.66,0,0,0-38.55,38.54V272h102.26Z"/><path class="cls-2" d="M4072.74,114.69A9.27,9.27,0,0,1,4085,105c-.06-1-.13-2-.22-2.93-3.91-40.71-36.21-70.91-72.14-67.46s-61.88,39.25-58,80,36.21,70.9,72.14,67.45c29.65-2.85,52.51-27.73,57.39-59.23a8.3,8.3,0,0,1-1.32.24A9.29,9.29,0,0,1,4072.74,114.69Z"/><path class="cls-5" d="M4001.41,89.76c3.44-9.18,15.66-13.07,27.31-8.7"/><circle cx="4019.01" cy="100.88" r="2.4"/><circle cx="4067.74" cy="87.76" r="2.4"/><path class="cls-5" d="M4040.54,132c.52,5.31,13.45,8.37,28.92,6.84"/><path class="cls-2" d="M4081.1,104.55a9.29,9.29,0,0,0,1.78,18.5,8.3,8.3,0,0,0,1.32-.24A82.53,82.53,0,0,0,4085,105,9.24,9.24,0,0,0,4081.1,104.55Z"/><path class="cls-6" d="M4034.48,447.35l.66-5.5a7.16,7.16,0,0,0-6.48-7.75l-27.06-3.24a2.6,2.6,0,0,0-3,2.19l-1.8,14.94L4032,452.2A7.84,7.84,0,0,0,4034.48,447.35Z"/><rect class="cls-2" x="4002.9" y="395.34" width="7.74" height="40.94" rx="2.55" ry="2.55" transform="translate(80.57 -485.31) rotate(7)"/><circle class="cls-7" cx="4007.94" cy="395.33" r="6.33"/><path class="cls-1" d="M4052.66,439.56l-.3,3,28.52,2.86a8.85,8.85,0,0,0,7-2.35Z"/><path class="cls-6" d="M4090.3,438.19l.56-5.51a7.15,7.15,0,0,0-6.63-7.63l-27.14-2.72a2.61,2.61,0,0,0-2.93,2.25l-1.5,15,35.22,3.53A7.82,7.82,0,0,0,4090.3,438.19Z"/><rect class="cls-2" x="4058.07" y="376.98" width="7.74" height="51.5" rx="2.55" ry="2.55" transform="translate(62.8 -414.83) rotate(5.89)"/><circle class="cls-7" cx="4064.28" cy="382.67" r="6.33"/><path class="cls-2" d="M4015.31,302a1.78,1.78,0,0,0,1.94-1.39l.37-1.8a1.79,1.79,0,0,0-1.38-2.1l-4.83-1a4.9,4.9,0,0,0-6.13-.9l-2.37,1.43-11-27.14a5.26,5.26,0,0,0-1.9-6.64l-8-35.9a2.48,2.48,0,0,0-3-1.88l-2.51.55a2.49,2.49,0,0,0-1.88,3l8,35.89a5.27,5.27,0,0,0,2,7.43,2.08,2.08,0,0,0,.21.21l11.55,28.45-1.19.72a4.9,4.9,0,0,0-1.66,6.7l2.61,4.32h0l3.87,6.41a1.78,1.78,0,0,0,2.44.6L4004,318a1.77,1.77,0,0,1,3-1.83l1.57-.95a1.77,1.77,0,1,1,3-1.83l1.57-.95a1.78,1.78,0,0,1,3-1.84l1.57-.95a1.76,1.76,0,0,0,.6-2.43Z"/><path class="cls-2" d="M4085,311l-3.1-7.2h0l-2.1-4.85a5.13,5.13,0,0,0-6.72-2.67l-2.27,1-4.2-29.71a5.43,5.43,0,0,0,.86-3.44,5.52,5.52,0,0,0-1.89-3.72L4062.35,222a2.61,2.61,0,0,0-2.81-2.38l-2.68.23a2.6,2.6,0,0,0-2.38,2.8l3.21,38.39a5.52,5.52,0,0,0,1,8l.16.23,4.42,31.23-1.55.67a5.13,5.13,0,0,0-3,5.77l-2.09,4.72a1.87,1.87,0,0,0,.94,2.46l1.76.78a1.86,1.86,0,0,0,2.37-.8l2.52,5.84a1.87,1.87,0,0,0,2.45,1l1.76-.76a1.85,1.85,0,0,0,1-2.44,1.88,1.88,0,0,0,2.45,1l1.76-.77a1.86,1.86,0,0,1,3.42-1.47l1.76-.76a1.86,1.86,0,0,0,1-2.44,1.89,1.89,0,0,0,2.45,1l1.76-.77A1.85,1.85,0,0,0,4085,311Z"/><rect class="cls-2" x="2251.5" y="346.77" width="8.44" height="40.82" rx="2.78" ry="2.78" transform="translate(199.24 -629.79) rotate(16.62)"/><path class="cls-3" d="M2219.36,272v61.9a38.66,38.66,0,0,0,38.55,38.54h25.17a38.65,38.65,0,0,0,38.54-38.54V272Z"/><path class="cls-4" d="M2321.62,214.33a38.65,38.65,0,0,0-38.54-38.54h-25.17a38.66,38.66,0,0,0-38.55,38.54V272h102.26Z"/><path class="cls-2" d="M2322.74,114.69A9.27,9.27,0,0,1,2335,105c-.06-1-.13-2-.22-2.93-3.91-40.71-36.21-70.91-72.14-67.46s-61.88,39.25-58,80,36.21,70.9,72.14,67.45c29.65-2.85,52.51-27.73,57.39-59.23a8.3,8.3,0,0,1-1.32.24A9.29,9.29,0,0,1,2322.74,114.69Z"/><path class="cls-5" d="M2251.41,89.76c3.44-9.18,15.66-13.07,27.31-8.7"/><circle cx="2269.01" cy="100.88" r="2.4"/><circle cx="2317.74" cy="87.76" r="2.4"/><path class="cls-5" d="M2290.54,132c.52,5.31,13.45,8.37,28.92,6.84"/><path class="cls-2" d="M2331.1,104.55a9.29,9.29,0,0,0,1.78,18.5,8.3,8.3,0,0,0,1.32-.24A82.53,82.53,0,0,0,2335,105,9.24,9.24,0,0,0,2331.1,104.55Z"/><path class="cls-1" d="M2228.88,436.56l-.89,2.9,27.4,8.41a8.81,8.81,0,0,0,7.31-.92Z"/><path class="cls-6" d="M2266,442.62l1.62-5.29a7.14,7.14,0,0,0-5-8.78l-26.06-8a2.6,2.6,0,0,0-3.31,1.63l-4.42,14.38L2262.7,447A7.86,7.86,0,0,0,2266,442.62Z"/><rect class="cls-2" x="2240.5" y="386.19" width="7.74" height="40.94" rx="2.55" ry="2.55" transform="translate(221.25 -646.69) rotate(17.23)"/><circle class="cls-7" cx="2249.17" cy="386.71" r="6.33"/><rect class="cls-2" x="2294.83" y="353.73" width="8.44" height="39.58" rx="2.78" ry="2.78" transform="translate(826.05 2177.8) rotate(-60)"/><path class="cls-1" d="M2336.23,438.64l1.37,2.71,25.58-13a8.86,8.86,0,0,0,4.63-5.74Z"/><path class="cls-6" d="M2367.21,417.22l-2.5-4.94a7.14,7.14,0,0,0-9.69-2.86l-24.34,12.31a2.62,2.62,0,0,0-1.25,3.48l6.8,13.43,31.58-16A7.82,7.82,0,0,0,2367.21,417.22Z"/><rect class="cls-2" x="2320.35" y="376.86" width="7.74" height="51.5" rx="2.55" ry="2.55" transform="translate(66.63 1086.24) rotate(-26.67)"/><circle class="cls-7" cx="2314.28" cy="382.67" r="6.33"/><path class="cls-2" d="M2265.31,302a1.78,1.78,0,0,0,1.94-1.39l.37-1.8a1.79,1.79,0,0,0-1.38-2.1l-4.83-1a4.9,4.9,0,0,0-6.13-.9l-2.37,1.43-11-27.14a5.26,5.26,0,0,0-1.9-6.64l-8-35.9a2.48,2.48,0,0,0-3-1.88l-2.51.55a2.49,2.49,0,0,0-1.88,3l8,35.89a5.27,5.27,0,0,0,2,7.43,2.08,2.08,0,0,0,.21.21l11.55,28.45-1.19.72a4.9,4.9,0,0,0-1.66,6.7l2.61,4.32h0l3.87,6.41a1.78,1.78,0,0,0,2.44.6L2254,318a1.77,1.77,0,0,1,3-1.83l1.57-.95a1.77,1.77,0,1,1,3-1.83l1.57-.95a1.78,1.78,0,1,1,3-1.84l1.57-.95a1.76,1.76,0,0,0,.6-2.43Z"/><path class="cls-2" d="M2335,311l-3.1-7.2h0l-2.1-4.85a5.13,5.13,0,0,0-6.72-2.67l-2.27,1-4.2-29.71a5.43,5.43,0,0,0,.86-3.44,5.52,5.52,0,0,0-1.89-3.72L2312.35,222a2.61,2.61,0,0,0-2.81-2.38l-2.68.23a2.6,2.6,0,0,0-2.38,2.8l3.21,38.39a5.52,5.52,0,0,0,1,8l.16.23,4.42,31.23-1.55.67a5.13,5.13,0,0,0-3,5.77l-2.09,4.72a1.87,1.87,0,0,0,.94,2.46l1.76.78a1.86,1.86,0,0,0,2.37-.8l2.52,5.84a1.87,1.87,0,0,0,2.45,1l1.76-.76a1.85,1.85,0,0,0,1-2.44,1.88,1.88,0,0,0,2.45,1l1.76-.77a1.86,1.86,0,0,1,3.42-1.47l1.76-.76a1.86,1.86,0,0,0,1-2.44,1.89,1.89,0,0,0,2.45,1l1.76-.77A1.85,1.85,0,0,0,2335,311Z"/><rect class="cls-2" x="1906.7" y="354.54" width="8.44" height="40.82" rx="2.78" ry="2.78" transform="translate(53.56 -210.22) rotate(6.39)"/><path class="cls-3" d="M1869.36,272v61.9a38.66,38.66,0,0,0,38.55,38.54h25.17a38.65,38.65,0,0,0,38.54-38.54V272Z"/><path class="cls-4" d="M1971.62,214.33a38.65,38.65,0,0,0-38.54-38.54h-25.17a38.66,38.66,0,0,0-38.55,38.54V272h102.26Z"/><path class="cls-2" d="M1972.74,114.69A9.27,9.27,0,0,1,1985,105c-.06-1-.13-2-.22-2.93-3.91-40.71-36.21-70.91-72.14-67.46s-61.88,39.25-58,80,36.21,70.9,72.14,67.45c29.65-2.85,52.51-27.73,57.39-59.23a8.3,8.3,0,0,1-1.32.24A9.29,9.29,0,0,1,1972.74,114.69Z"/><path class="cls-5" d="M1901.41,89.76c3.44-9.18,15.66-13.07,27.31-8.7"/><circle cx="1919.01" cy="100.88" r="2.4"/><circle cx="1967.74" cy="87.76" r="2.4"/><path class="cls-5" d="M1940.54,132c.52,5.31,13.45,8.37,28.92,6.84"/><path class="cls-2" d="M1981.1,104.55a9.29,9.29,0,0,0,1.78,18.5,8.3,8.3,0,0,0,1.32-.24A82.53,82.53,0,0,0,1985,105,9.24,9.24,0,0,0,1981.1,104.55Z"/><path class="cls-6" d="M1934.48,447.35l.66-5.5a7.16,7.16,0,0,0-6.48-7.75l-27.06-3.24a2.6,2.6,0,0,0-3,2.19l-1.8,14.94L1932,452.2A7.84,7.84,0,0,0,1934.48,447.35Z"/><rect class="cls-2" x="1902.9" y="395.34" width="7.74" height="40.94" rx="2.55" ry="2.55" transform="translate(64.91 -229.33) rotate(7)"/><circle class="cls-7" cx="1907.94" cy="395.33" r="6.33"/><rect class="cls-2" x="1944.83" y="353.73" width="8.44" height="39.58" rx="2.78" ry="2.78" transform="translate(651.05 1874.69) rotate(-60)"/><path class="cls-1" d="M1952.66,439.56l-.3,3,28.52,2.86a8.85,8.85,0,0,0,7-2.35Z"/><path class="cls-6" d="M1990.3,438.19l.56-5.51a7.15,7.15,0,0,0-6.63-7.63l-27.14-2.72a2.61,2.61,0,0,0-2.93,2.25l-1.5,15,35.22,3.53A7.82,7.82,0,0,0,1990.3,438.19Z"/><rect class="cls-2" x="1958.07" y="376.98" width="7.74" height="51.5" rx="2.55" ry="2.55" transform="translate(51.7 -199.27) rotate(5.89)"/><circle class="cls-7" cx="1964.28" cy="382.67" r="6.33"/><path class="cls-2" d="M1915.31,302a1.78,1.78,0,0,0,1.94-1.39l.37-1.8a1.79,1.79,0,0,0-1.38-2.1l-4.83-1a4.9,4.9,0,0,0-6.13-.9l-2.37,1.43-11-27.14a5.26,5.26,0,0,0-1.9-6.64l-8-35.9a2.48,2.48,0,0,0-3-1.88l-2.51.55a2.49,2.49,0,0,0-1.88,3l8,35.89a5.27,5.27,0,0,0,2,7.43l.21.21,11.55,28.45-1.19.72a4.9,4.9,0,0,0-1.66,6.7l2.61,4.32h0l3.87,6.41a1.78,1.78,0,0,0,2.44.6L1904,318a1.77,1.77,0,0,1,3-1.83l1.57-.95a1.77,1.77,0,1,1,3-1.83l1.57-.95a1.78,1.78,0,0,1,3-1.84l1.57-.95a1.76,1.76,0,0,0,.6-2.43Z"/><path class="cls-2" d="M1985,311l-3.1-7.2h0l-2.1-4.85a5.13,5.13,0,0,0-6.72-2.67l-2.27,1-4.2-29.71a5.43,5.43,0,0,0,.86-3.44,5.52,5.52,0,0,0-1.89-3.72L1962.35,222a2.61,2.61,0,0,0-2.81-2.38l-2.68.23a2.6,2.6,0,0,0-2.38,2.8l3.21,38.39a5.52,5.52,0,0,0,1,8l.16.23,4.42,31.23-1.55.67a5.13,5.13,0,0,0-3,5.77l-2.09,4.72a1.87,1.87,0,0,0,.94,2.46l1.76.78a1.86,1.86,0,0,0,2.37-.8l2.52,5.84a1.87,1.87,0,0,0,2.45,1l1.76-.76a1.85,1.85,0,0,0,1-2.44,1.88,1.88,0,0,0,2.45,1l1.76-.77a1.86,1.86,0,0,1,3.42-1.47l1.76-.76a1.86,1.86,0,0,0,1-2.44,1.89,1.89,0,0,0,2.45,1l1.76-.77A1.85,1.85,0,0,0,1985,311Z"/><path class="cls-3" d="M3619.36,272v61.9a38.66,38.66,0,0,0,38.55,38.54h25.17a38.65,38.65,0,0,0,38.54-38.54V272Z"/><path class="cls-4" d="M3721.62,214.33a38.65,38.65,0,0,0-38.54-38.54h-25.17a38.66,38.66,0,0,0-38.55,38.54V272h102.26Z"/><path class="cls-2" d="M3722.74,114.69A9.27,9.27,0,0,1,3735,105c-.06-1-.13-2-.22-2.93-3.91-40.71-36.21-70.91-72.14-67.46s-61.88,39.25-58,80,36.21,70.9,72.14,67.45c29.65-2.85,52.51-27.73,57.39-59.23a8.3,8.3,0,0,1-1.32.24A9.29,9.29,0,0,1,3722.74,114.69Z"/><path class="cls-5" d="M3651.41,89.76c3.44-9.18,15.66-13.07,27.31-8.7"/><circle cx="3669.01" cy="100.88" r="2.4"/><circle cx="3717.74" cy="87.76" r="2.4"/><path class="cls-5" d="M3690.54,132c.52,5.31,13.45,8.37,28.92,6.84"/><path class="cls-2" d="M3731.1,104.55a9.29,9.29,0,0,0,1.78,18.5,8.3,8.3,0,0,0,1.32-.24A82.53,82.53,0,0,0,3735,105,9.24,9.24,0,0,0,3731.1,104.55Z"/><path class="cls-6" d="M3696.36,449.84l.24-5.53a7.15,7.15,0,0,0-7-7.24l-27.24-1.17a2.61,2.61,0,0,0-2.79,2.41l-.65,15,35.34,1.53A7.81,7.81,0,0,0,3696.36,449.84Z"/><rect class="cls-2" x="3662.46" y="400.03" width="7.74" height="40.94" rx="2.55" ry="2.55" transform="translate(23.22 -168.17) rotate(2.64)"/><circle class="cls-7" cx="3665.95" cy="399.99" r="6.33"/><path class="cls-1" d="M3662,412.29l-2.51,1.7,16,23.77a8.85,8.85,0,0,0,6.28,3.88Z"/><path class="cls-6" d="M3687.13,440.37l4.59-3.1a7.15,7.15,0,0,0,1.63-10l-15.26-22.61a2.6,2.6,0,0,0-3.6-.81L3662,412.29l19.8,29.35A7.88,7.88,0,0,0,3687.13,440.37Z"/><rect class="cls-2" x="3692.4" y="370.14" width="7.74" height="51.5" rx="2.55" ry="2.55" transform="translate(1966.68 -2894.65) rotate(56.16)"/><circle class="cls-7" cx="3713.19" cy="384.87" r="6.33"/><path class="cls-2" d="M3665.31,302a1.78,1.78,0,0,0,1.94-1.39l.37-1.8a1.79,1.79,0,0,0-1.38-2.1l-4.83-1a4.9,4.9,0,0,0-6.13-.9l-2.37,1.43-11-27.14a5.26,5.26,0,0,0-1.9-6.64l-8-35.9a2.48,2.48,0,0,0-3-1.88l-2.51.55a2.49,2.49,0,0,0-1.88,3l8,35.89a5.27,5.27,0,0,0,2,7.43,2.08,2.08,0,0,0,.21.21l11.55,28.45-1.19.72a4.9,4.9,0,0,0-1.66,6.7l2.61,4.32h0l3.87,6.41a1.78,1.78,0,0,0,2.44.6L3654,318a1.77,1.77,0,0,1,3-1.83l1.57-.95a1.77,1.77,0,1,1,3-1.83l1.57-.95a1.78,1.78,0,1,1,3-1.84l1.57-.95a1.76,1.76,0,0,0,.6-2.43Z"/><path class="cls-2" d="M3735,311l-3.1-7.2h0l-2.1-4.85a5.13,5.13,0,0,0-6.72-2.67l-2.27,1-4.2-29.71a5.43,5.43,0,0,0,.86-3.44,5.52,5.52,0,0,0-1.89-3.72L3712.35,222a2.61,2.61,0,0,0-2.81-2.38l-2.68.23a2.6,2.6,0,0,0-2.38,2.8l3.21,38.39a5.52,5.52,0,0,0,1,8l.16.23,4.42,31.23-1.55.67a5.13,5.13,0,0,0-3,5.77l-2.09,4.72a1.87,1.87,0,0,0,.94,2.46l1.76.78a1.86,1.86,0,0,0,2.37-.8l2.52,5.84a1.87,1.87,0,0,0,2.45,1l1.76-.76a1.85,1.85,0,0,0,1-2.44,1.88,1.88,0,0,0,2.45,1l1.76-.77a1.86,1.86,0,0,1,3.42-1.47l1.76-.76a1.86,1.86,0,0,0,1-2.44,1.89,1.89,0,0,0,2.45,1l1.76-.77A1.85,1.85,0,0,0,3735,311Z"/><path class="cls-3" d="M3269.36,272v61.9a38.66,38.66,0,0,0,38.55,38.54h25.17a38.65,38.65,0,0,0,38.54-38.54V272Z"/><path class="cls-4" d="M3371.62,214.33a38.65,38.65,0,0,0-38.54-38.54h-25.17a38.66,38.66,0,0,0-38.55,38.54V272h102.26Z"/><path class="cls-2" d="M3372.74,114.69A9.27,9.27,0,0,1,3385,105c-.06-1-.13-2-.22-2.93-3.91-40.71-36.21-70.91-72.14-67.46s-61.88,39.25-58,80,36.21,70.9,72.14,67.45c29.65-2.85,52.51-27.73,57.39-59.23a8.3,8.3,0,0,1-1.32.24A9.29,9.29,0,0,1,3372.74,114.69Z"/><path class="cls-5" d="M3301.41,89.76c3.44-9.18,15.66-13.07,27.31-8.7"/><circle cx="3319.01" cy="100.88" r="2.4"/><circle cx="3367.74" cy="87.76" r="2.4"/><path class="cls-5" d="M3340.54,132c.52,5.31,13.45,8.37,28.92,6.84"/><path class="cls-2" d="M3381.1,104.55a9.29,9.29,0,0,0,1.78,18.5,8.3,8.3,0,0,0,1.32-.24A82.53,82.53,0,0,0,3385,105,9.24,9.24,0,0,0,3381.1,104.55Z"/><path class="cls-6" d="M3346.36,449.84l.24-5.53a7.15,7.15,0,0,0-7-7.24l-27.24-1.17a2.61,2.61,0,0,0-2.79,2.41l-.65,15,35.34,1.53A7.81,7.81,0,0,0,3346.36,449.84Z"/><rect class="cls-2" x="3312.46" y="400.03" width="7.74" height="40.94" rx="2.55" ry="2.55" transform="translate(22.85 -152.07) rotate(2.64)"/><circle class="cls-7" cx="3315.95" cy="399.99" r="6.33"/><path class="cls-1" d="M3293.05,397.31l-3,.51,4.86,28.26a8.83,8.83,0,0,0,4.13,6.11Z"/><path class="cls-6" d="M3304.43,433.22l5.45-.94a7.15,7.15,0,0,0,5.59-8.42L3310.84,397a2.62,2.62,0,0,0-3-2.22l-14.84,2.56,6,34.88A7.8,7.8,0,0,0,3304.43,433.22Z"/><rect class="cls-2" x="3327.16" y="370.66" width="7.74" height="51.5" rx="2.55" ry="2.55" transform="translate(3166.56 -2954.09) rotate(80.4)"/><circle class="cls-7" cx="3350.98" cy="393.32" r="6.33"/><path class="cls-2" d="M3315.31,302a1.78,1.78,0,0,0,1.94-1.39l.37-1.8a1.79,1.79,0,0,0-1.38-2.1l-4.83-1a4.9,4.9,0,0,0-6.13-.9l-2.37,1.43-11-27.14a5.26,5.26,0,0,0-1.9-6.64l-8-35.9a2.48,2.48,0,0,0-3-1.88l-2.51.55a2.49,2.49,0,0,0-1.88,3l8,35.89a5.27,5.27,0,0,0,2,7.43,2.08,2.08,0,0,0,.21.21l11.55,28.45-1.19.72a4.9,4.9,0,0,0-1.66,6.7l2.61,4.32h0l3.87,6.41a1.78,1.78,0,0,0,2.44.6L3304,318a1.77,1.77,0,0,1,3-1.83l1.57-.95a1.77,1.77,0,1,1,3-1.83l1.57-.95a1.78,1.78,0,1,1,3-1.84l1.57-.95a1.76,1.76,0,0,0,.6-2.43Z"/><path class="cls-2" d="M3385,311l-3.1-7.2h0l-2.1-4.85a5.13,5.13,0,0,0-6.72-2.67l-2.27,1-4.2-29.71a5.43,5.43,0,0,0,.86-3.44,5.52,5.52,0,0,0-1.89-3.72L3362.35,222a2.61,2.61,0,0,0-2.81-2.38l-2.68.23a2.6,2.6,0,0,0-2.38,2.8l3.21,38.39a5.52,5.52,0,0,0,1,8l.16.23,4.42,31.23-1.55.67a5.13,5.13,0,0,0-3,5.77l-2.09,4.72a1.87,1.87,0,0,0,.94,2.46l1.76.78a1.86,1.86,0,0,0,2.37-.8l2.52,5.84a1.87,1.87,0,0,0,2.45,1l1.76-.76a1.85,1.85,0,0,0,1-2.44,1.88,1.88,0,0,0,2.45,1l1.76-.77a1.86,1.86,0,0,1,3.42-1.47l1.76-.76a1.86,1.86,0,0,0,1-2.44,1.89,1.89,0,0,0,2.45,1l1.76-.77A1.85,1.85,0,0,0,3385,311Z"/><path class="cls-3" d="M2919.36,272v61.9a38.66,38.66,0,0,0,38.55,38.54h25.17a38.65,38.65,0,0,0,38.54-38.54V272Z"/><path class="cls-4" d="M3021.62,214.33a38.65,38.65,0,0,0-38.54-38.54h-25.17a38.66,38.66,0,0,0-38.55,38.54V272h102.26Z"/><path class="cls-2" d="M3022.74,114.69A9.27,9.27,0,0,1,3035,105c-.06-1-.13-2-.22-2.93-3.91-40.71-36.21-70.91-72.14-67.46s-61.88,39.25-58,80,36.21,70.9,72.14,67.45c29.65-2.85,52.51-27.73,57.39-59.23a8.3,8.3,0,0,1-1.32.24A9.29,9.29,0,0,1,3022.74,114.69Z"/><path class="cls-5" d="M2951.41,89.76c3.44-9.18,15.66-13.07,27.31-8.7"/><circle cx="2969.01" cy="100.88" r="2.4"/><circle cx="3017.74" cy="87.76" r="2.4"/><path class="cls-5" d="M2990.54,132c.52,5.31,13.45,8.37,28.92,6.84"/><path class="cls-2" d="M3031.1,104.55a9.29,9.29,0,0,0,1.78,18.5,8.3,8.3,0,0,0,1.32-.24A82.53,82.53,0,0,0,3035,105,9.24,9.24,0,0,0,3031.1,104.55Z"/><path class="cls-6" d="M3012.28,452l.24-5.53a7.14,7.14,0,0,0-7-7.24L2978.24,438a2.62,2.62,0,0,0-2.79,2.42l-.65,15,35.34,1.52A7.78,7.78,0,0,0,3012.28,452Z"/><rect class="cls-2" x="2978.38" y="402.17" width="7.74" height="40.94" rx="2.55" ry="2.55" transform="translate(22.59 -136.71) rotate(2.64)"/><circle class="cls-7" cx="2981.87" cy="402.12" r="6.33"/><path class="cls-1" d="M2902.71,405.6l-3,.52,4.86,28.25a8.84,8.84,0,0,0,4.13,6.12Z"/><path class="cls-6" d="M2914.08,441.51l5.46-.93a7.15,7.15,0,0,0,5.58-8.43l-4.62-26.88a2.63,2.63,0,0,0-3-2.22l-14.83,2.55,6,34.89A7.85,7.85,0,0,0,2914.08,441.51Z"/><rect class="cls-2" x="2936.81" y="378.96" width="7.74" height="51.5" rx="2.55" ry="2.55" transform="translate(2849.47 -2562.29) rotate(80.4)"/><circle class="cls-7" cx="2960.63" cy="401.61" r="6.33"/><path class="cls-2" d="M2965.31,302a1.78,1.78,0,0,0,1.94-1.39l.37-1.8a1.79,1.79,0,0,0-1.38-2.1l-4.83-1a4.9,4.9,0,0,0-6.13-.9l-2.37,1.43-11-27.14a5.26,5.26,0,0,0-1.9-6.64l-8-35.9a2.48,2.48,0,0,0-3-1.88l-2.51.55a2.49,2.49,0,0,0-1.88,3l8,35.89a5.27,5.27,0,0,0,2,7.43,2.08,2.08,0,0,0,.21.21l11.55,28.45-1.19.72a4.9,4.9,0,0,0-1.66,6.7l2.61,4.32h0l3.87,6.41a1.78,1.78,0,0,0,2.44.6L2954,318a1.77,1.77,0,0,1,3-1.83l1.57-.95a1.77,1.77,0,1,1,3-1.83l1.57-.95a1.78,1.78,0,1,1,3-1.84l1.57-.95a1.76,1.76,0,0,0,.6-2.43Z"/><path class="cls-2" d="M3035,311l-3.1-7.2h0l-2.1-4.85a5.13,5.13,0,0,0-6.72-2.67l-2.27,1-4.2-29.71a5.43,5.43,0,0,0,.86-3.44,5.52,5.52,0,0,0-1.89-3.72L3012.35,222a2.61,2.61,0,0,0-2.81-2.38l-2.68.23a2.6,2.6,0,0,0-2.38,2.8l3.21,38.39a5.52,5.52,0,0,0,1,8l.16.23,4.42,31.23-1.55.67a5.13,5.13,0,0,0-3,5.77l-2.09,4.72a1.87,1.87,0,0,0,.94,2.46l1.76.78a1.86,1.86,0,0,0,2.37-.8l2.52,5.84a1.87,1.87,0,0,0,2.45,1l1.76-.76a1.85,1.85,0,0,0,1-2.44,1.88,1.88,0,0,0,2.45,1l1.76-.77a1.86,1.86,0,0,1,3.42-1.47l1.76-.76a1.86,1.86,0,0,0,1-2.44,1.89,1.89,0,0,0,2.45,1l1.76-.77A1.85,1.85,0,0,0,3035,311Z"/><rect class="cls-2" x="879.07" y="361.17" width="8.44" height="40.82" rx="2.78" ry="2.78" transform="translate(14 -30.91) rotate(2.02)"/><rect class="cls-2" x="1563.15" y="359.03" width="8.44" height="40.82" rx="2.78" ry="2.78" transform="translate(14.35 -55.03) rotate(2.02)"/><path class="cls-3" d="M1519.36,272v61.9a38.66,38.66,0,0,0,38.55,38.54h25.17a38.65,38.65,0,0,0,38.54-38.54V272Z"/><path class="cls-4" d="M1621.62,214.33a38.65,38.65,0,0,0-38.54-38.54h-25.17a38.66,38.66,0,0,0-38.55,38.54V272h102.26Z"/><path class="cls-2" d="M1622.74,114.69A9.27,9.27,0,0,1,1635,105c-.06-1-.13-2-.22-2.93-3.91-40.71-36.21-70.91-72.14-67.46s-61.88,39.25-58,80,36.21,70.9,72.14,67.45c29.65-2.85,52.51-27.73,57.39-59.23a8.3,8.3,0,0,1-1.32.24A9.29,9.29,0,0,1,1622.74,114.69Z"/><path class="cls-5" d="M1551.41,89.76c3.44-9.18,15.66-13.07,27.31-8.7"/><circle cx="1569.01" cy="100.88" r="2.4"/><circle cx="1617.74" cy="87.76" r="2.4"/><path class="cls-5" d="M1590.54,132c.52,5.31,13.45,8.37,28.92,6.84"/><path class="cls-2" d="M1631.1,104.55a9.29,9.29,0,0,0,1.78,18.5,8.3,8.3,0,0,0,1.32-.24A82.53,82.53,0,0,0,1635,105,9.24,9.24,0,0,0,1631.1,104.55Z"/><path class="cls-6" d="M1596.36,449.84l.24-5.53a7.15,7.15,0,0,0-7-7.24l-27.24-1.17a2.61,2.61,0,0,0-2.79,2.41l-.65,15,35.34,1.53A7.81,7.81,0,0,0,1596.36,449.84Z"/><rect class="cls-2" x="1562.46" y="400.03" width="7.74" height="40.94" rx="2.55" ry="2.55" transform="translate(21 -71.59) rotate(2.64)"/><circle class="cls-7" cx="1565.95" cy="399.99" r="6.33"/><rect class="cls-2" x="1594.83" y="353.73" width="8.44" height="39.58" rx="2.78" ry="2.78" transform="translate(476.05 1571.58) rotate(-60)"/><path class="cls-1" d="M1562,412.29l-2.51,1.7,16,23.77a8.85,8.85,0,0,0,6.28,3.88Z"/><path class="cls-6" d="M1587.13,440.37l4.59-3.1a7.15,7.15,0,0,0,1.63-10l-15.26-22.61a2.6,2.6,0,0,0-3.6-.81L1562,412.29l19.8,29.35A7.88,7.88,0,0,0,1587.13,440.37Z"/><rect class="cls-2" x="1592.4" y="370.14" width="7.74" height="51.5" rx="2.55" ry="2.55" transform="translate(1036.14 -1150.42) rotate(56.16)"/><circle class="cls-7" cx="1613.19" cy="384.87" r="6.33"/><path class="cls-2" d="M1565.31,302a1.78,1.78,0,0,0,1.94-1.39l.37-1.8a1.79,1.79,0,0,0-1.38-2.1l-4.83-1a4.9,4.9,0,0,0-6.13-.9l-2.37,1.43-11-27.14a5.26,5.26,0,0,0-1.9-6.64l-8-35.9a2.48,2.48,0,0,0-3-1.88l-2.51.55a2.49,2.49,0,0,0-1.88,3l8,35.89a5.27,5.27,0,0,0,2,7.43l.21.21,11.55,28.45-1.19.72a4.9,4.9,0,0,0-1.66,6.7l2.61,4.32h0l3.87,6.41a1.78,1.78,0,0,0,2.44.6L1554,318a1.77,1.77,0,0,1,3-1.83l1.57-.95a1.77,1.77,0,1,1,3-1.83l1.57-.95a1.78,1.78,0,0,1,3-1.84l1.57-.95a1.76,1.76,0,0,0,.6-2.43Z"/><path class="cls-2" d="M1635,311l-3.1-7.2h0l-2.1-4.85a5.13,5.13,0,0,0-6.72-2.67l-2.27,1-4.2-29.71a5.43,5.43,0,0,0,.86-3.44,5.52,5.52,0,0,0-1.89-3.72L1612.35,222a2.61,2.61,0,0,0-2.81-2.38l-2.68.23a2.6,2.6,0,0,0-2.38,2.8l3.21,38.39a5.52,5.52,0,0,0,1,8l.16.23,4.42,31.23-1.55.67a5.13,5.13,0,0,0-3,5.77l-2.09,4.72a1.87,1.87,0,0,0,.94,2.46l1.76.78a1.86,1.86,0,0,0,2.37-.8l2.52,5.84a1.87,1.87,0,0,0,2.45,1l1.76-.76a1.85,1.85,0,0,0,1-2.44,1.88,1.88,0,0,0,2.45,1l1.76-.77a1.86,1.86,0,0,1,3.42-1.47l1.76-.76a1.86,1.86,0,0,0,1-2.44,1.89,1.89,0,0,0,2.45,1l1.76-.77A1.85,1.85,0,0,0,1635,311Z"/><rect class="cls-2" x="1213.15" y="359.03" width="8.44" height="40.82" rx="2.78" ry="2.78" transform="translate(14.14 -42.69) rotate(2.02)"/><path class="cls-3" d="M1169.36,272v61.9a38.66,38.66,0,0,0,38.55,38.54h25.17a38.65,38.65,0,0,0,38.54-38.54V272Z"/><path class="cls-4" d="M1271.62,214.33a38.65,38.65,0,0,0-38.54-38.54h-25.17a38.66,38.66,0,0,0-38.55,38.54V272h102.26Z"/><path class="cls-2" d="M1272.74,114.69A9.27,9.27,0,0,1,1285,105c-.06-1-.13-2-.22-2.93-3.91-40.71-36.21-70.91-72.14-67.46s-61.88,39.25-58,80,36.21,70.9,72.14,67.45c29.65-2.85,52.51-27.73,57.39-59.23a8.3,8.3,0,0,1-1.32.24A9.29,9.29,0,0,1,1272.74,114.69Z"/><path class="cls-5" d="M1201.41,89.76c3.44-9.18,15.66-13.07,27.31-8.7"/><circle cx="1219.01" cy="100.88" r="2.4"/><circle cx="1267.74" cy="87.76" r="2.4"/><path class="cls-5" d="M1240.54,132c.52,5.31,13.45,8.37,28.92,6.84"/><path class="cls-2" d="M1281.1,104.55a9.29,9.29,0,1,0,1.78,18.5,8.3,8.3,0,0,0,1.32-.24A82.53,82.53,0,0,0,1285,105,9.24,9.24,0,0,0,1281.1,104.55Z"/><path class="cls-6" d="M1246.36,449.84l.24-5.53a7.15,7.15,0,0,0-7-7.24l-27.24-1.17a2.61,2.61,0,0,0-2.79,2.41l-.65,15,35.34,1.53A7.81,7.81,0,0,0,1246.36,449.84Z"/><rect class="cls-2" x="1212.46" y="400.03" width="7.74" height="40.94" rx="2.55" ry="2.55" transform="translate(20.63 -55.49) rotate(2.64)"/><circle class="cls-7" cx="1215.95" cy="399.99" r="6.33"/><rect class="cls-2" x="1239.12" y="358.75" width="8.44" height="39.58" rx="2.78" ry="2.78" transform="matrix(0.81, -0.59, 0.59, 0.81, 17.53, 810.47)"/><path class="cls-1" d="M1193.05,397.31l-3,.51,4.86,28.26a8.83,8.83,0,0,0,4.13,6.11Z"/><path class="cls-6" d="M1204.43,433.22l5.45-.94a7.15,7.15,0,0,0,5.59-8.42L1210.84,397a2.62,2.62,0,0,0-2.95-2.22l-14.84,2.56,6,34.88A7.8,7.8,0,0,0,1204.43,433.22Z"/><rect class="cls-2" x="1227.16" y="370.66" width="7.74" height="51.5" rx="2.55" ry="2.55" transform="translate(1416.66 -883.47) rotate(80.4)"/><circle class="cls-7" cx="1250.98" cy="393.32" r="6.33"/><path class="cls-2" d="M1215.31,302a1.78,1.78,0,0,0,1.94-1.39l.37-1.8a1.79,1.79,0,0,0-1.38-2.1l-4.83-1a4.9,4.9,0,0,0-6.13-.9l-2.37,1.43-11-27.14a5.26,5.26,0,0,0-1.9-6.64l-8-35.9a2.48,2.48,0,0,0-3-1.88l-2.51.55a2.49,2.49,0,0,0-1.88,3l8,35.89a5.27,5.27,0,0,0,2,7.43l.21.21,11.55,28.45-1.19.72a4.9,4.9,0,0,0-1.66,6.7l2.61,4.32h0l3.87,6.41a1.78,1.78,0,0,0,2.44.6L1204,318a1.77,1.77,0,0,1,3-1.83l1.57-.95a1.77,1.77,0,1,1,3-1.83l1.57-.95a1.78,1.78,0,0,1,3-1.84l1.57-.95a1.77,1.77,0,0,0,.6-2.43Z"/><path class="cls-2" d="M1285,311l-3.1-7.2h0l-2.1-4.85a5.13,5.13,0,0,0-6.72-2.67l-2.27,1-4.2-29.71a5.43,5.43,0,0,0,.86-3.44,5.52,5.52,0,0,0-1.89-3.72L1262.35,222a2.61,2.61,0,0,0-2.81-2.38l-2.68.23a2.6,2.6,0,0,0-2.38,2.8l3.21,38.39a5.52,5.52,0,0,0,1,8l.16.23,4.42,31.23-1.55.67a5.13,5.13,0,0,0-3,5.77l-2.09,4.72a1.87,1.87,0,0,0,.94,2.46l1.76.78a1.86,1.86,0,0,0,2.37-.8l2.52,5.84a1.87,1.87,0,0,0,2.45,1l1.76-.76a1.85,1.85,0,0,0,1-2.44,1.88,1.88,0,0,0,2.45,1l1.76-.77a1.86,1.86,0,0,1,3.42-1.47l1.76-.76a1.86,1.86,0,0,0,1-2.44,1.89,1.89,0,0,0,2.45,1l1.76-.77A1.85,1.85,0,0,0,1285,311Z"/><path class="cls-3" d="M819.36,272v61.9a38.66,38.66,0,0,0,38.55,38.54h25.17a38.65,38.65,0,0,0,38.54-38.54V272Z"/><path class="cls-4" d="M921.62,214.33a38.65,38.65,0,0,0-38.54-38.54H857.91a38.66,38.66,0,0,0-38.55,38.54V272H921.62Z"/><path class="cls-2" d="M922.74,114.69A9.27,9.27,0,0,1,935,105c-.06-1-.13-2-.22-2.93-3.91-40.71-36.21-70.91-72.14-67.46s-61.88,39.25-58,80,36.21,70.9,72.14,67.45c29.65-2.85,52.51-27.73,57.39-59.23a8.3,8.3,0,0,1-1.32.24A9.29,9.29,0,0,1,922.74,114.69Z"/><path class="cls-5" d="M851.41,89.76c3.44-9.18,15.66-13.07,27.31-8.7"/><circle cx="869.01" cy="100.88" r="2.4"/><circle cx="917.74" cy="87.76" r="2.4"/><path class="cls-5" d="M890.54,132c.52,5.31,13.45,8.37,28.92,6.84"/><path class="cls-2" d="M931.1,104.55a9.29,9.29,0,1,0,1.78,18.5,8.3,8.3,0,0,0,1.32-.24A82.53,82.53,0,0,0,935,105,9.24,9.24,0,0,0,931.1,104.55Z"/><path class="cls-6" d="M912.28,452l.24-5.53a7.14,7.14,0,0,0-7-7.24L878.24,438a2.62,2.62,0,0,0-2.79,2.42l-.65,15L910.14,457A7.78,7.78,0,0,0,912.28,452Z"/><rect class="cls-2" x="878.38" y="402.17" width="7.74" height="40.94" rx="2.55" ry="2.55" transform="translate(20.37 -40.13) rotate(2.64)"/><circle class="cls-7" cx="881.87" cy="402.12" r="6.33"/><rect class="cls-2" x="854.37" y="362.48" width="8.44" height="39.58" rx="2.78" ry="2.78" transform="matrix(0.99, -0.14, 0.14, 0.99, -44.7, 122.71)"/><path class="cls-1" d="M802.71,405.6l-3,.52,4.86,28.25a8.84,8.84,0,0,0,4.13,6.12Z"/><path class="cls-6" d="M814.08,441.51l5.46-.93a7.15,7.15,0,0,0,5.58-8.43l-4.62-26.88a2.63,2.63,0,0,0-3-2.22l-14.83,2.55,6,34.89A7.85,7.85,0,0,0,814.08,441.51Z"/><rect class="cls-2" x="836.81" y="378.96" width="7.74" height="51.5" rx="2.55" ry="2.55" transform="translate(1099.57 -491.68) rotate(80.4)"/><circle class="cls-7" cx="860.63" cy="401.61" r="6.33"/><path class="cls-2" d="M865.31,302a1.78,1.78,0,0,0,1.94-1.39l.37-1.8a1.79,1.79,0,0,0-1.38-2.1l-4.83-1a4.9,4.9,0,0,0-6.13-.9l-2.37,1.43-11-27.14a5.26,5.26,0,0,0-1.9-6.64l-8-35.9a2.48,2.48,0,0,0-3-1.88l-2.51.55a2.49,2.49,0,0,0-1.88,3l8,35.89a5.27,5.27,0,0,0,2,7.43,2.08,2.08,0,0,0,.21.21l11.55,28.45-1.19.72a4.9,4.9,0,0,0-1.66,6.7l2.61,4.32h0l3.87,6.41a1.78,1.78,0,0,0,2.44.6L854,318a1.77,1.77,0,0,1,3-1.83l1.57-.95a1.77,1.77,0,1,1,3-1.83l1.57-.95a1.78,1.78,0,0,1,3-1.84l1.57-.95a1.77,1.77,0,0,0,.6-2.43Z"/><path class="cls-2" d="M935,311l-3.1-7.2h0l-2.1-4.85a5.13,5.13,0,0,0-6.72-2.67l-2.27,1-4.2-29.71a5.43,5.43,0,0,0,.86-3.44,5.52,5.52,0,0,0-1.89-3.72L912.35,222a2.61,2.61,0,0,0-2.81-2.38l-2.68.23a2.6,2.6,0,0,0-2.38,2.8L907.69,261a5.52,5.52,0,0,0,1,8l.16.23,4.42,31.23-1.55.67a5.13,5.13,0,0,0-3,5.77l-2.09,4.72a1.87,1.87,0,0,0,.94,2.46l1.76.78a1.86,1.86,0,0,0,2.37-.8l2.52,5.84a1.87,1.87,0,0,0,2.45,1l1.76-.76a1.85,1.85,0,0,0,1-2.44,1.88,1.88,0,0,0,2.45,1l1.76-.77a1.86,1.86,0,0,1,3.42-1.47l1.76-.76a1.86,1.86,0,0,0,1-2.44,1.89,1.89,0,0,0,2.45,1l1.76-.77A1.85,1.85,0,0,0,935,311Z"/><path class="cls-3" d="M2569.36,272v61.9a38.66,38.66,0,0,0,38.55,38.54h25.17a38.65,38.65,0,0,0,38.54-38.54V272Z"/><path class="cls-4" d="M2671.62,214.33a38.65,38.65,0,0,0-38.54-38.54h-25.17a38.66,38.66,0,0,0-38.55,38.54V272h102.26Z"/><path class="cls-2" d="M2672.74,114.69A9.27,9.27,0,0,1,2685,105c-.06-1-.13-2-.22-2.93-3.91-40.71-36.21-70.91-72.14-67.46s-61.88,39.25-58,80,36.21,70.9,72.14,67.45c29.65-2.85,52.51-27.73,57.39-59.23a8.3,8.3,0,0,1-1.32.24A9.29,9.29,0,0,1,2672.74,114.69Z"/><path class="cls-5" d="M2601.41,89.76c3.44-9.18,15.66-13.07,27.31-8.7"/><circle cx="2619.01" cy="100.88" r="2.4"/><circle cx="2667.74" cy="87.76" r="2.4"/><path class="cls-5" d="M2640.54,132c.52,5.31,13.45,8.37,28.92,6.84"/><path class="cls-2" d="M2681.1,104.55a9.29,9.29,0,0,0,1.78,18.5,8.3,8.3,0,0,0,1.32-.24A82.53,82.53,0,0,0,2685,105,9.24,9.24,0,0,0,2681.1,104.55Z"/><path class="cls-6" d="M2687.17,445.86l-.25-5.53a7.15,7.15,0,0,0-7.66-6.58L2652,435a2.61,2.61,0,0,0-2.56,2.66l.69,15,35.34-1.62A7.87,7.87,0,0,0,2687.17,445.86Z"/><rect class="cls-2" x="2650.78" y="398.84" width="7.74" height="40.94" rx="2.55" ry="2.55" transform="translate(-15.61 114.87) rotate(-2.47)"/><circle class="cls-7" cx="2654.1" cy="398.35" r="6.33"/><path class="cls-1" d="M2522.76,397.71l-3,.52,4.86,28.25a8.84,8.84,0,0,0,4.13,6.12Z"/><path class="cls-6" d="M2534.14,433.63l5.46-.94a7.15,7.15,0,0,0,5.58-8.43l-4.63-26.88a2.61,2.61,0,0,0-3-2.22l-14.84,2.55,6,34.89A7.91,7.91,0,0,0,2534.14,433.63Z"/><rect class="cls-2" x="2556.87" y="371.07" width="7.74" height="51.5" rx="2.55" ry="2.55" transform="translate(2525.09 -2194.24) rotate(80.4)"/><circle class="cls-7" cx="2585.2" cy="392.6" r="6.33"/><path class="cls-2" d="M2615.31,302a1.78,1.78,0,0,0,1.94-1.39l.37-1.8a1.79,1.79,0,0,0-1.38-2.1l-4.83-1a4.9,4.9,0,0,0-6.13-.9l-2.37,1.43-11-27.14a5.26,5.26,0,0,0-1.9-6.64l-8-35.9a2.48,2.48,0,0,0-3-1.88l-2.51.55a2.49,2.49,0,0,0-1.88,3l8,35.89a5.27,5.27,0,0,0,2,7.43,2.08,2.08,0,0,0,.21.21l11.55,28.45-1.19.72a4.9,4.9,0,0,0-1.66,6.7l2.61,4.32h0l3.87,6.41a1.78,1.78,0,0,0,2.44.6L2604,318a1.77,1.77,0,0,1,3-1.83l1.57-.95a1.77,1.77,0,1,1,3-1.83l1.57-.95a1.78,1.78,0,1,1,3-1.84l1.57-.95a1.76,1.76,0,0,0,.6-2.43Z"/><path class="cls-2" d="M2685,311l-3.1-7.2h0l-2.1-4.85a5.13,5.13,0,0,0-6.72-2.67l-2.27,1-4.2-29.71a5.43,5.43,0,0,0,.86-3.44,5.52,5.52,0,0,0-1.89-3.72L2662.35,222a2.61,2.61,0,0,0-2.81-2.38l-2.68.23a2.6,2.6,0,0,0-2.38,2.8l3.21,38.39a5.52,5.52,0,0,0,1,8l.16.23,4.42,31.23-1.55.67a5.13,5.13,0,0,0-3,5.77l-2.09,4.72a1.87,1.87,0,0,0,.94,2.46l1.76.78a1.86,1.86,0,0,0,2.37-.8l2.52,5.84a1.87,1.87,0,0,0,2.45,1l1.76-.76a1.85,1.85,0,0,0,1-2.44,1.88,1.88,0,0,0,2.45,1l1.76-.77a1.86,1.86,0,0,1,3.42-1.47l1.76-.76a1.86,1.86,0,0,0,1-2.44,1.89,1.89,0,0,0,2.45,1l1.76-.77A1.85,1.85,0,0,0,2685,311Z"/><rect class="cls-2" x="542.29" y="358.79" width="8.44" height="40.82" rx="2.78" ry="2.78" transform="translate(-105.97 249.85) rotate(-23.54)"/><path class="cls-3" d="M469.36,272v61.9a38.66,38.66,0,0,0,38.55,38.54h25.17a38.65,38.65,0,0,0,38.54-38.54V272Z"/><path class="cls-4" d="M571.62,214.33a38.65,38.65,0,0,0-38.54-38.54H507.91a38.66,38.66,0,0,0-38.55,38.54V272H571.62Z"/><path class="cls-2" d="M572.74,114.69A9.27,9.27,0,0,1,585,105c-.06-1-.13-2-.22-2.93-3.91-40.71-36.21-70.91-72.14-67.46s-61.88,39.25-58,80,36.21,70.9,72.14,67.45c29.65-2.85,52.51-27.73,57.39-59.23a8.3,8.3,0,0,1-1.32.24A9.29,9.29,0,0,1,572.74,114.69Z"/><path class="cls-5" d="M501.41,89.76c3.44-9.18,15.66-13.07,27.31-8.7"/><circle cx="519.01" cy="100.88" r="2.4"/><circle cx="567.74" cy="87.76" r="2.4"/><path class="cls-5" d="M540.54,132c.52,5.31,13.45,8.37,28.92,6.84"/><path class="cls-2" d="M581.1,104.55a9.29,9.29,0,0,0,1.78,18.5,8.3,8.3,0,0,0,1.32-.24A82.53,82.53,0,0,0,585,105,9.24,9.24,0,0,0,581.1,104.55Z"/><path class="cls-6" d="M587.17,445.86l-.25-5.53a7.15,7.15,0,0,0-7.66-6.58L552,435a2.61,2.61,0,0,0-2.56,2.66l.69,15,35.34-1.62A7.87,7.87,0,0,0,587.17,445.86Z"/><rect class="cls-2" x="550.78" y="398.84" width="7.74" height="40.94" rx="2.55" ry="2.55" transform="translate(-17.57 24.31) rotate(-2.47)"/><circle class="cls-7" cx="554.1" cy="398.35" r="6.33"/><rect class="cls-2" x="492.86" y="357.4" width="8.44" height="39.58" rx="2.78" ry="2.78" transform="translate(313.37 -219.14) rotate(35.69)"/><path class="cls-1" d="M422.76,397.71l-3,.52,4.86,28.25a8.84,8.84,0,0,0,4.13,6.12Z"/><path class="cls-6" d="M434.14,433.63l5.46-.94a7.15,7.15,0,0,0,5.58-8.43l-4.63-26.88a2.61,2.61,0,0,0-2.95-2.22l-14.84,2.55,6,34.89A7.91,7.91,0,0,0,434.14,433.63Z"/><rect class="cls-2" x="456.87" y="371.07" width="7.74" height="51.5" rx="2.55" ry="2.55" transform="translate(775.19 -123.63) rotate(80.4)"/><circle class="cls-7" cx="485.2" cy="392.6" r="6.33"/><path class="cls-2" d="M515.31,302a1.78,1.78,0,0,0,1.94-1.39l.37-1.8a1.79,1.79,0,0,0-1.38-2.1l-4.83-1a4.9,4.9,0,0,0-6.13-.9l-2.37,1.43-11-27.14a5.26,5.26,0,0,0-1.9-6.64l-8-35.9a2.48,2.48,0,0,0-3-1.88l-2.51.55a2.49,2.49,0,0,0-1.88,3l8,35.89a5.27,5.27,0,0,0,2,7.43l.21.21,11.55,28.45-1.19.72a4.9,4.9,0,0,0-1.66,6.7l2.61,4.32h0l3.87,6.41a1.78,1.78,0,0,0,2.44.6L504,318a1.77,1.77,0,0,1,3-1.83l1.57-.95a1.77,1.77,0,1,1,3-1.83l1.57-.95a1.78,1.78,0,0,1,3-1.84l1.57-.95a1.77,1.77,0,0,0,.6-2.43Z"/><path class="cls-2" d="M585,311l-3.1-7.2h0l-2.1-4.85a5.13,5.13,0,0,0-6.72-2.67l-2.27,1-4.2-29.71a5.43,5.43,0,0,0,.86-3.44,5.52,5.52,0,0,0-1.89-3.72L562.35,222a2.61,2.61,0,0,0-2.81-2.38l-2.68.23a2.6,2.6,0,0,0-2.38,2.8L557.69,261a5.52,5.52,0,0,0,1,8l.16.23,4.42,31.23-1.55.67a5.13,5.13,0,0,0-3,5.77l-2.09,4.72a1.87,1.87,0,0,0,.94,2.46l1.76.78a1.86,1.86,0,0,0,2.37-.8l2.52,5.84a1.87,1.87,0,0,0,2.45,1l1.76-.76a1.85,1.85,0,0,0,1-2.44,1.88,1.88,0,0,0,2.45,1l1.76-.77a1.86,1.86,0,0,1,3.42-1.47l1.76-.76a1.86,1.86,0,0,0,1-2.44,1.89,1.89,0,0,0,2.45,1l1.76-.77A1.85,1.85,0,0,0,585,311Z"/><rect class="cls-2" x="193.79" y="358.79" width="8.44" height="40.82" rx="2.78" ry="2.78" transform="translate(-134.98 110.65) rotate(-23.54)"/><path class="cls-3" d="M119.36,272v61.9a38.66,38.66,0,0,0,38.55,38.54h25.17a38.65,38.65,0,0,0,38.54-38.54V272Z"/><path class="cls-4" d="M221.62,214.33a38.65,38.65,0,0,0-38.54-38.54H157.91a38.66,38.66,0,0,0-38.55,38.54V272H221.62Z"/><path class="cls-2" d="M222.74,114.69A9.27,9.27,0,0,1,235,105c-.06-1-.13-2-.22-2.93-3.91-40.71-36.21-70.91-72.14-67.46s-61.88,39.25-58,80,36.21,70.9,72.14,67.45c29.65-2.85,52.51-27.73,57.39-59.23a8.3,8.3,0,0,1-1.32.24A9.29,9.29,0,0,1,222.74,114.69Z"/><path class="cls-5" d="M151.41,89.76c3.44-9.18,15.66-13.07,27.31-8.7"/><circle cx="169.01" cy="100.88" r="2.4"/><circle cx="217.74" cy="87.76" r="2.4"/><path class="cls-5" d="M190.54,132c.52,5.31,13.45,8.37,28.92,6.84"/><path class="cls-2" d="M231.1,104.55a9.29,9.29,0,0,0,1.78,18.5,8.3,8.3,0,0,0,1.32-.24A82.53,82.53,0,0,0,235,105,9.24,9.24,0,0,0,231.1,104.55Z"/><path class="cls-1" d="M221.32,448.44l1.22,2.78,26.24-11.52a8.85,8.85,0,0,0,4.94-5.48Z"/><path class="cls-6" d="M253.42,428.76l-2.23-5.07a7.14,7.14,0,0,0-9.51-3.38l-25,11a2.62,2.62,0,0,0-1.45,3.4l6,13.77,32.4-14.22A7.87,7.87,0,0,0,253.42,428.76Z"/><rect class="cls-2" x="209.65" y="395.21" width="7.74" height="40.94" rx="2.55" ry="2.55" transform="translate(-148.26 119.88) rotate(-23.54)"/><circle class="cls-7" cx="205.47" cy="396.32" r="6.33"/><rect class="cls-2" x="142.86" y="357.4" width="8.44" height="39.58" rx="2.78" ry="2.78" transform="translate(247.65 -14.97) rotate(35.69)"/><path class="cls-1" d="M89.45,435l-2,2.23,21.08,19.44a8.86,8.86,0,0,0,7,2.33Z"/><path class="cls-6" d="M120.36,456.52l3.76-4.07a7.16,7.16,0,0,0-.71-10.08l-20.06-18.49a2.61,2.61,0,0,0-3.69.05L89.45,435l26,24A7.83,7.83,0,0,0,120.36,456.52Z"/><rect class="cls-2" x="115.14" y="385.38" width="7.74" height="51.5" rx="2.55" ry="2.55" transform="translate(311.25 28.73) rotate(42.83)"/><circle class="cls-7" cx="135.82" cy="392.87" r="6.33"/><path class="cls-2" d="M165.31,302a1.78,1.78,0,0,0,1.94-1.39l.37-1.8a1.79,1.79,0,0,0-1.38-2.1l-4.83-1a4.9,4.9,0,0,0-6.13-.9l-2.37,1.43-11-27.14a5.26,5.26,0,0,0-1.9-6.64l-8-35.9a2.48,2.48,0,0,0-3-1.88l-2.51.55a2.49,2.49,0,0,0-1.88,3l8,35.89a5.27,5.27,0,0,0,2,7.43l.21.21,11.55,28.45-1.19.72a4.9,4.9,0,0,0-1.66,6.7l2.61,4.32h0l3.87,6.41a1.78,1.78,0,0,0,2.44.6L154,318a1.78,1.78,0,0,0,.6-2.43,1.79,1.79,0,0,0,2.44.6l1.57-.95a1.79,1.79,0,0,0,.6-2.44,1.78,1.78,0,0,0,2.44.61l1.57-.95a1.78,1.78,0,0,0,.6-2.44,1.77,1.77,0,0,0,2.44.6l1.57-.95a1.77,1.77,0,0,0,.6-2.43Z"/><path class="cls-2" d="M235,311l-3.1-7.2h0l-2.1-4.85a5.13,5.13,0,0,0-6.72-2.67l-2.27,1-4.2-29.71a5.43,5.43,0,0,0,.86-3.44,5.52,5.52,0,0,0-1.89-3.72L212.35,222a2.61,2.61,0,0,0-2.81-2.38l-2.68.23a2.6,2.6,0,0,0-2.38,2.8L207.69,261a5.52,5.52,0,0,0,1,8l.16.23,4.42,31.23-1.55.67a5.13,5.13,0,0,0-3,5.77l-2.09,4.72a1.87,1.87,0,0,0,.94,2.46l1.76.78a1.86,1.86,0,0,0,2.37-.8l2.52,5.84a1.87,1.87,0,0,0,2.45,1l1.76-.76a1.85,1.85,0,0,0,1-2.44,1.88,1.88,0,0,0,2.45,1l1.76-.77a1.85,1.85,0,0,0,1-2.44,1.87,1.87,0,0,0,2.45,1l1.76-.76a1.86,1.86,0,0,0,1-2.44,1.89,1.89,0,0,0,2.45,1l1.76-.77A1.85,1.85,0,0,0,235,311Z"/><rect class="cls-2" x="2642.29" y="358.79" width="8.44" height="40.82" rx="2.78" ry="2.78" transform="translate(68.82 1088.64) rotate(-23.54)"/><rect class="cls-2" x="2979.07" y="361.17" width="8.44" height="40.82" rx="2.78" ry="2.78" transform="translate(15.31 -104.95) rotate(2.02)"/><rect class="cls-2" x="3313.15" y="359.03" width="8.44" height="40.82" rx="2.78" ry="2.78" transform="translate(15.44 -116.73) rotate(2.02)"/><rect class="cls-2" x="3663.15" y="359.03" width="8.44" height="40.82" rx="2.78" ry="2.78" transform="translate(15.66 -129.07) rotate(2.02)"/><rect class="cls-2" x="4006.7" y="354.54" width="8.44" height="40.82" rx="2.78" ry="2.78" transform="translate(66.59 -443.81) rotate(6.39)"/><rect class="cls-2" x="4351.5" y="346.77" width="8.44" height="40.82" rx="2.78" ry="2.78" transform="translate(286.95 -1230.39) rotate(16.62)"/><path class="cls-8" d="M222.38,114.59A9.23,9.23,0,0,1,234.59,105c-.06-1-.13-1.94-.23-2.91-3.89-40.5-36-70.55-71.76-67.11S101,74,104.93,114.49,141,185,176.69,181.6c29.5-2.84,52.24-27.59,57.09-58.92a9.2,9.2,0,0,1-11.4-8.09Z"/><path class="cls-5" d="M151.42,89.79c3.43-9.13,15.58-13,27.17-8.65"/><path class="cls-5" d="M199.42,75.41c3.33-8.86,15.11-12.61,26.35-8.39"/><circle cx="168.93" cy="100.85" r="2.39"/><circle cx="217.41" cy="87.8" r="2.39"/><path class="cls-5" d="M190.35,131.83c.52,5.27,13.39,8.32,28.77,6.8"/><circle class="cls-9" cx="153" cy="131.44" r="10.44"/><path class="cls-8" d="M230.7,104.5a9.25,9.25,0,1,0,3.08,18.18,82.45,82.45,0,0,0,.81-17.71A9.2,9.2,0,0,0,230.7,104.5Z"/><path class="cls-9" d="M230.64,103.91a9.25,9.25,0,0,0,1.77,18.41,9.59,9.59,0,0,0,1.32-.24,83,83,0,0,0,.8-17.7A9.18,9.18,0,0,0,230.64,103.91Z"/><path class="cls-10" d="M174.43,45.56c-.68-14.49-8.17-25.89-16.73-25.48"/><path class="cls-10" d="M167,48.27c-1-16.46-11.13-29.21-22.64-28.51"/><path class="cls-10" d="M161.14,51c-4.16-17.4-14.71-29.77-23.6-27.64"/><path class="cls-10" d="M181.31,47.16c2.78-14.58-1.79-27.67-10.21-29.27"/><path class="cls-10" d="M189.6,46.17c2.87-9.74.54-19-5.21-20.69"/><path class="cls-10" d="M153.4,50.35c-1.08-10.1-6.78-17.75-12.74-17.12"/><path class="cls-10" d="M147.73,53.6c-3-14.19-12.2-24.24-20.59-22.47"/><path class="cls-8" d="M572.38,114.71a9.25,9.25,0,0,1,12.21-9.62c-.06-1-.13-1.94-.23-2.91-3.89-40.5-36-70.54-71.76-67.11S451,74.12,454.93,114.61s36,70.55,71.76,67.11c29.5-2.83,52.24-27.59,57.09-58.92a9.2,9.2,0,0,1-11.4-8.09Z"/><path class="cls-5" d="M501.42,89.92c3.43-9.14,15.58-13,27.17-8.66"/><path class="cls-5" d="M549.42,75.53c3.33-8.85,15.11-12.61,26.35-8.39"/><circle cx="518.93" cy="100.97" r="2.39"/><circle cx="567.41" cy="87.93" r="2.39"/><path class="cls-5" d="M540.35,132c.52,5.28,13.39,8.32,28.77,6.81"/><circle class="cls-9" cx="503" cy="131.57" r="10.44"/><path class="cls-8" d="M580.7,104.63a9.24,9.24,0,1,0,3.08,18.17,82.45,82.45,0,0,0,.81-17.71A9.19,9.19,0,0,0,580.7,104.63Z"/><path class="cls-9" d="M580.64,104a9.25,9.25,0,0,0,1.77,18.41,9.58,9.58,0,0,0,1.32-.23,83.1,83.1,0,0,0,.8-17.71A9.18,9.18,0,0,0,580.64,104Z"/><path class="cls-10" d="M524.43,45.69c-.68-14.49-8.17-25.89-16.73-25.49"/><path class="cls-10" d="M517,48.39c-1-16.46-11.13-29.2-22.64-28.51"/><path class="cls-10" d="M511.14,51.11c-4.16-17.4-14.71-29.76-23.6-27.64"/><path class="cls-10" d="M531.31,47.28c2.78-14.57-1.79-27.66-10.21-29.27"/><path class="cls-10" d="M539.6,46.29c2.87-9.73.54-19-5.21-20.69"/><path class="cls-10" d="M503.4,50.47c-1.08-10.1-6.78-17.75-12.74-17.12"/><path class="cls-10" d="M497.73,53.73c-3-14.2-12.2-24.25-20.59-22.48"/><path class="cls-8" d="M922.23,114.59A9.23,9.23,0,0,1,934.44,105c-.06-1-.14-1.94-.23-2.91-3.89-40.5-36-70.55-71.76-67.11S800.89,74,804.78,114.49s36,70.54,71.76,67.11c29.5-2.84,52.24-27.59,57.09-58.92a9.2,9.2,0,0,1-11.4-8.09Z"/><path class="cls-5" d="M851.27,89.79c3.43-9.13,15.58-13,27.17-8.65"/><path class="cls-5" d="M899.27,75.41c3.33-8.86,15.11-12.61,26.35-8.39"/><circle cx="868.78" cy="100.85" r="2.39"/><circle cx="917.26" cy="87.8" r="2.39"/><path class="cls-5" d="M890.2,131.83c.52,5.27,13.39,8.32,28.77,6.8"/><circle class="cls-9" cx="852.85" cy="131.44" r="10.44"/><path class="cls-8" d="M930.55,104.5a9.25,9.25,0,1,0,3.08,18.18,82.45,82.45,0,0,0,.81-17.71A9.2,9.2,0,0,0,930.55,104.5Z"/><path class="cls-9" d="M930.49,103.91a9.25,9.25,0,0,0,1.77,18.41,9.59,9.59,0,0,0,1.32-.24,83,83,0,0,0,.8-17.7A9.18,9.18,0,0,0,930.49,103.91Z"/><path class="cls-10" d="M874.28,45.56c-.68-14.49-8.17-25.89-16.73-25.48"/><path class="cls-10" d="M866.8,48.27c-1-16.46-11.13-29.21-22.64-28.51"/><path class="cls-10" d="M861,51c-4.16-17.4-14.71-29.77-23.6-27.64"/><path class="cls-10" d="M881.16,47.16c2.78-14.58-1.79-27.67-10.21-29.27"/><path class="cls-10" d="M889.45,46.17c2.87-9.74.54-19-5.21-20.69"/><path class="cls-10" d="M853.25,50.35c-1.08-10.1-6.78-17.75-12.74-17.12"/><path class="cls-10" d="M847.58,53.6c-3-14.19-12.2-24.24-20.59-22.47"/><path class="cls-8" d="M1272.23,114.19a9.25,9.25,0,0,1,12.21-9.62c-.06-1-.14-1.94-.23-2.91-3.89-40.5-36-70.54-71.76-67.11s-61.56,39.05-57.67,79.54,36,70.54,71.76,67.11c29.5-2.83,52.24-27.59,57.09-58.92a9.2,9.2,0,0,1-11.4-8.09Z"/><path class="cls-5" d="M1201.27,89.39c3.43-9.13,15.58-13,27.17-8.65"/><path class="cls-5" d="M1249.27,75c3.33-8.85,15.11-12.61,26.35-8.39"/><circle cx="1218.78" cy="100.45" r="2.39"/><circle cx="1267.26" cy="87.41" r="2.39"/><path class="cls-5" d="M1240.2,131.43c.52,5.28,13.39,8.32,28.77,6.81"/><circle class="cls-9" cx="1202.85" cy="131.05" r="10.44"/><path class="cls-8" d="M1280.55,104.11a9.24,9.24,0,1,0,3.08,18.17,82.45,82.45,0,0,0,.81-17.71A9.19,9.19,0,0,0,1280.55,104.11Z"/><path class="cls-9" d="M1280.49,103.51a9.25,9.25,0,0,0,1.77,18.41,9.59,9.59,0,0,0,1.32-.24,83,83,0,0,0,.8-17.7A9.18,9.18,0,0,0,1280.49,103.51Z"/><path class="cls-10" d="M1224.28,45.16c-.68-14.49-8.17-25.88-16.73-25.48"/><path class="cls-10" d="M1216.8,47.87c-1-16.46-11.13-29.21-22.64-28.51"/><path class="cls-10" d="M1211,50.59c-4.16-17.4-14.71-29.76-23.6-27.64"/><path class="cls-10" d="M1231.16,46.76c2.78-14.57-1.79-27.67-10.21-29.27"/><path class="cls-10" d="M1239.45,45.77c2.87-9.73.54-19-5.21-20.69"/><path class="cls-10" d="M1203.25,50c-1.08-10.1-6.78-17.75-12.74-17.12"/><path class="cls-10" d="M1197.58,53.21c-3-14.2-12.2-24.25-20.59-22.48"/><path class="cls-8" d="M1622.38,114.59a9.23,9.23,0,0,1,12.21-9.62c-.06-1-.13-1.94-.23-2.91-3.89-40.5-36-70.55-71.76-67.11S1501,74,1504.93,114.49s36,70.54,71.76,67.11c29.5-2.84,52.24-27.59,57.09-58.92a9.2,9.2,0,0,1-11.4-8.09Z"/><path class="cls-5" d="M1551.42,89.79c3.43-9.13,15.58-13,27.17-8.65"/><path class="cls-5" d="M1599.42,75.41c3.33-8.86,15.11-12.61,26.35-8.39"/><circle cx="1568.93" cy="100.85" r="2.39"/><circle cx="1617.41" cy="87.8" r="2.39"/><path class="cls-5" d="M1590.35,131.83c.52,5.27,13.39,8.32,28.77,6.8"/><circle class="cls-9" cx="1553" cy="131.44" r="10.44"/><path class="cls-8" d="M1630.7,104.5a9.25,9.25,0,1,0,3.08,18.18,82.45,82.45,0,0,0,.81-17.71A9.2,9.2,0,0,0,1630.7,104.5Z"/><path class="cls-9" d="M1630.64,103.91a9.25,9.25,0,0,0,1.77,18.41,9.59,9.59,0,0,0,1.32-.24,83,83,0,0,0,.8-17.7A9.18,9.18,0,0,0,1630.64,103.91Z"/><path class="cls-10" d="M1574.43,45.56c-.68-14.49-8.17-25.89-16.73-25.48"/><path class="cls-10" d="M1567,48.27c-1-16.46-11.13-29.21-22.64-28.51"/><path class="cls-10" d="M1561.14,51c-4.16-17.4-14.71-29.77-23.6-27.64"/><path class="cls-10" d="M1581.31,47.16c2.78-14.58-1.79-27.67-10.21-29.27"/><path class="cls-10" d="M1589.6,46.17c2.87-9.74.54-19-5.21-20.69"/><path class="cls-10" d="M1553.4,50.35c-1.08-10.1-6.78-17.75-12.74-17.12"/><path class="cls-10" d="M1547.73,53.6c-3-14.19-12.2-24.24-20.59-22.47"/><path class="cls-8" d="M1972.23,115.38a9.25,9.25,0,0,1,8.32-10.09,9.36,9.36,0,0,1,3.89.46c-.06-1-.14-1.93-.23-2.91-3.89-40.5-36-70.54-71.76-67.11s-61.56,39.05-57.67,79.55,36,70.54,71.76,67.1c29.5-2.83,52.24-27.59,57.09-58.92a9.13,9.13,0,0,1-11.4-8.08Z"/><path class="cls-5" d="M1901.27,90.58c3.43-9.13,15.58-13,27.17-8.66"/><path class="cls-5" d="M1949.27,76.2c3.33-8.86,15.11-12.61,26.35-8.4"/><circle cx="1918.78" cy="101.64" r="2.39"/><circle cx="1967.26" cy="88.59" r="2.39"/><path class="cls-5" d="M1940.2,132.61c.52,5.28,13.39,8.32,28.77,6.81"/><circle class="cls-9" cx="1902.85" cy="132.23" r="10.44"/><path class="cls-8" d="M1980.55,105.29a9.25,9.25,0,1,0,3.08,18.17,82.42,82.42,0,0,0,.81-17.71A9.36,9.36,0,0,0,1980.55,105.29Z"/><path class="cls-9" d="M1980.49,104.7a9.24,9.24,0,0,0,1.77,18.4,9.58,9.58,0,0,0,1.32-.23,83.1,83.1,0,0,0,.8-17.71A9.17,9.17,0,0,0,1980.49,104.7Z"/><path class="cls-10" d="M1924.28,46.35c-.68-14.49-8.17-25.89-16.73-25.49"/><path class="cls-10" d="M1916.8,49.05c-1-16.45-11.13-29.2-22.64-28.5"/><path class="cls-10" d="M1911,51.78c-4.16-17.41-14.71-29.77-23.6-27.65"/><path class="cls-10" d="M1931.16,47.94c2.78-14.57-1.79-27.66-10.21-29.27"/><path class="cls-10" d="M1939.45,47c2.87-9.74.54-19-5.21-20.7"/><path class="cls-10" d="M1903.25,51.13c-1.08-10.09-6.78-17.75-12.74-17.11"/><path class="cls-10" d="M1897.58,54.39c-3-14.19-12.2-24.25-20.59-22.48"/><path class="cls-8" d="M2322.23,114.59a9.23,9.23,0,0,1,12.21-9.62c-.06-1-.14-1.94-.23-2.91-3.89-40.5-36-70.55-71.76-67.11s-61.56,39.05-57.67,79.54,36,70.54,71.76,67.11c29.5-2.84,52.24-27.59,57.09-58.92a9.2,9.2,0,0,1-11.4-8.09Z"/><path class="cls-5" d="M2251.27,89.79c3.43-9.13,15.58-13,27.17-8.65"/><path class="cls-5" d="M2299.27,75.41c3.33-8.86,15.11-12.61,26.35-8.39"/><circle cx="2268.78" cy="100.85" r="2.39"/><circle cx="2317.26" cy="87.8" r="2.39"/><path class="cls-5" d="M2290.2,131.83c.52,5.27,13.39,8.32,28.77,6.8"/><circle class="cls-9" cx="2252.85" cy="131.44" r="10.44"/><path class="cls-8" d="M2330.55,104.5a9.25,9.25,0,1,0,3.08,18.18,82.45,82.45,0,0,0,.81-17.71A9.2,9.2,0,0,0,2330.55,104.5Z"/><path class="cls-9" d="M2330.49,103.91a9.25,9.25,0,0,0,1.77,18.41,9.59,9.59,0,0,0,1.32-.24,83,83,0,0,0,.8-17.7A9.18,9.18,0,0,0,2330.49,103.91Z"/><path class="cls-10" d="M2274.28,45.56c-.68-14.49-8.17-25.89-16.73-25.48"/><path class="cls-10" d="M2266.8,48.27c-1-16.46-11.13-29.21-22.64-28.51"/><path class="cls-10" d="M2261,51c-4.16-17.4-14.71-29.77-23.6-27.64"/><path class="cls-10" d="M2281.16,47.16c2.78-14.58-1.79-27.67-10.21-29.27"/><path class="cls-10" d="M2289.45,46.17c2.87-9.74.54-19-5.21-20.69"/><path class="cls-10" d="M2253.25,50.35c-1.08-10.1-6.78-17.75-12.74-17.12"/><path class="cls-10" d="M2247.58,53.6c-3-14.19-12.2-24.24-20.59-22.47"/><path class="cls-8" d="M2672.38,114.47a9.25,9.25,0,0,1,12.21-9.62c-.06-1-.13-1.94-.23-2.91-3.89-40.5-36-70.54-71.76-67.11s-61.56,39.05-57.67,79.54,36,70.54,71.76,67.11c29.5-2.83,52.24-27.59,57.09-58.92a9.2,9.2,0,0,1-11.4-8.09Z"/><path class="cls-5" d="M2601.42,89.68c3.43-9.14,15.58-13,27.17-8.66"/><path class="cls-5" d="M2649.42,75.29c3.33-8.85,15.11-12.61,26.35-8.39"/><circle cx="2618.93" cy="100.73" r="2.39"/><circle cx="2667.41" cy="87.69" r="2.39"/><path class="cls-5" d="M2640.35,131.71c.52,5.28,13.39,8.32,28.77,6.81"/><circle class="cls-9" cx="2603" cy="131.33" r="10.44"/><path class="cls-8" d="M2680.7,104.39a9.24,9.24,0,1,0,3.08,18.17,82.45,82.45,0,0,0,.81-17.71A9.19,9.19,0,0,0,2680.7,104.39Z"/><path class="cls-9" d="M2680.64,103.79a9.25,9.25,0,0,0,1.77,18.41,9.59,9.59,0,0,0,1.32-.24,83,83,0,0,0,.8-17.7A9.18,9.18,0,0,0,2680.64,103.79Z"/><path class="cls-10" d="M2624.43,45.44c-.68-14.49-8.17-25.88-16.73-25.48"/><path class="cls-10" d="M2617,48.15c-1-16.46-11.13-29.2-22.64-28.51"/><path class="cls-10" d="M2611.14,50.87c-4.16-17.4-14.71-29.76-23.6-27.64"/><path class="cls-10" d="M2631.31,47c2.78-14.57-1.79-27.67-10.21-29.27"/><path class="cls-10" d="M2639.6,46.05c2.87-9.73.54-19-5.21-20.69"/><path class="cls-10" d="M2603.4,50.23c-1.08-10.1-6.78-17.75-12.74-17.12"/><path class="cls-10" d="M2597.73,53.49c-3-14.2-12.2-24.25-20.59-22.48"/><path class="cls-8" d="M3022.38,115.16a9.23,9.23,0,0,1,12.21-9.62c-.06-1-.13-1.94-.23-2.92-3.89-40.49-36-70.54-71.76-67.1s-61.56,39-57.67,79.54,36,70.54,71.76,67.11c29.5-2.84,52.24-27.59,57.09-58.92a9.2,9.2,0,0,1-11.4-8.09Z"/><path class="cls-5" d="M2951.42,90.36c3.43-9.13,15.58-13,27.17-8.65"/><path class="cls-5" d="M2999.42,76c3.33-8.86,15.11-12.61,26.35-8.39"/><circle cx="2968.93" cy="101.42" r="2.39"/><circle cx="3017.41" cy="88.37" r="2.39"/><path class="cls-5" d="M2990.35,132.4c.52,5.27,13.39,8.32,28.77,6.8"/><circle class="cls-9" cx="2953" cy="132.01" r="10.44"/><path class="cls-8" d="M3030.7,105.07a9.25,9.25,0,1,0,3.08,18.18,82.45,82.45,0,0,0,.81-17.71A9.2,9.2,0,0,0,3030.7,105.07Z"/><path class="cls-9" d="M3030.64,104.48a9.25,9.25,0,0,0,1.77,18.41,9.59,9.59,0,0,0,1.32-.24,83.07,83.07,0,0,0,.8-17.71A9.34,9.34,0,0,0,3030.64,104.48Z"/><path class="cls-10" d="M2974.43,46.13c-.68-14.49-8.17-25.89-16.73-25.48"/><path class="cls-10" d="M2967,48.84c-1-16.46-11.13-29.21-22.64-28.51"/><path class="cls-10" d="M2961.14,51.56c-4.16-17.4-14.71-29.77-23.6-27.64"/><path class="cls-10" d="M2981.31,47.73c2.78-14.58-1.79-27.67-10.21-29.27"/><path class="cls-10" d="M2989.6,46.74c2.87-9.74.54-19-5.21-20.69"/><path class="cls-10" d="M2953.4,50.92c-1.08-10.1-6.78-17.75-12.74-17.12"/><path class="cls-10" d="M2947.73,54.17c-3-14.19-12.2-24.24-20.59-22.48"/><path class="cls-8" d="M3372.38,115.59a9.23,9.23,0,0,1,12.21-9.62c-.06-1-.13-1.94-.23-2.91-3.89-40.5-36-70.55-71.76-67.11S3251,75,3254.93,115.49s36,70.54,71.76,67.11c29.5-2.84,52.24-27.59,57.09-58.92a9.2,9.2,0,0,1-11.4-8.09Z"/><path class="cls-5" d="M3301.42,90.79c3.43-9.13,15.58-13,27.17-8.65"/><path class="cls-5" d="M3349.42,76.41c3.33-8.86,15.11-12.61,26.35-8.39"/><circle cx="3318.93" cy="101.85" r="2.39"/><circle cx="3367.41" cy="88.8" r="2.39"/><path class="cls-5" d="M3340.35,132.83c.52,5.27,13.39,8.32,28.77,6.8"/><circle class="cls-9" cx="3303" cy="132.44" r="10.44"/><path class="cls-8" d="M3380.7,105.5a9.25,9.25,0,1,0,3.08,18.18,82.45,82.45,0,0,0,.81-17.71A9.2,9.2,0,0,0,3380.7,105.5Z"/><path class="cls-9" d="M3380.64,104.91a9.25,9.25,0,0,0,1.77,18.41,9.59,9.59,0,0,0,1.32-.24,83,83,0,0,0,.8-17.7A9.18,9.18,0,0,0,3380.64,104.91Z"/><path class="cls-10" d="M3324.43,46.56c-.68-14.49-8.17-25.89-16.73-25.48"/><path class="cls-10" d="M3317,49.27c-1-16.46-11.13-29.21-22.64-28.51"/><path class="cls-10" d="M3311.14,52c-4.16-17.4-14.71-29.77-23.6-27.64"/><path class="cls-10" d="M3331.31,48.16c2.78-14.58-1.79-27.67-10.21-29.27"/><path class="cls-10" d="M3339.6,47.17c2.87-9.74.54-19-5.21-20.69"/><path class="cls-10" d="M3303.4,51.35c-1.08-10.1-6.78-17.75-12.74-17.12"/><path class="cls-10" d="M3297.73,54.6c-3-14.19-12.2-24.24-20.59-22.47"/><path class="cls-8" d="M3722.38,115.59a9.23,9.23,0,0,1,12.21-9.62c-.06-1-.13-1.94-.23-2.91-3.89-40.5-36-70.55-71.76-67.11S3601,75,3604.93,115.49s36,70.54,71.76,67.11c29.5-2.84,52.24-27.59,57.09-58.92a9.2,9.2,0,0,1-11.4-8.09Z"/><path class="cls-5" d="M3651.42,90.79c3.43-9.13,15.58-13,27.17-8.65"/><path class="cls-5" d="M3699.42,76.41c3.33-8.86,15.11-12.61,26.35-8.39"/><circle cx="3668.93" cy="101.85" r="2.39"/><circle cx="3717.41" cy="88.8" r="2.39"/><path class="cls-5" d="M3690.35,132.83c.52,5.27,13.39,8.32,28.77,6.8"/><circle class="cls-9" cx="3653" cy="132.44" r="10.44"/><path class="cls-8" d="M3730.7,105.5a9.25,9.25,0,1,0,3.08,18.18,82.45,82.45,0,0,0,.81-17.71A9.2,9.2,0,0,0,3730.7,105.5Z"/><path class="cls-9" d="M3730.64,104.91a9.25,9.25,0,0,0,1.77,18.41,9.59,9.59,0,0,0,1.32-.24,83,83,0,0,0,.8-17.7A9.18,9.18,0,0,0,3730.64,104.91Z"/><path class="cls-10" d="M3674.43,46.56c-.68-14.49-8.17-25.89-16.73-25.48"/><path class="cls-10" d="M3667,49.27c-1-16.46-11.13-29.21-22.64-28.51"/><path class="cls-10" d="M3661.14,52c-4.16-17.4-14.71-29.77-23.6-27.64"/><path class="cls-10" d="M3681.31,48.16c2.78-14.58-1.79-27.67-10.21-29.27"/><path class="cls-10" d="M3689.6,47.17c2.87-9.74.54-19-5.21-20.69"/><path class="cls-10" d="M3653.4,51.35c-1.08-10.1-6.78-17.75-12.74-17.12"/><path class="cls-10" d="M3647.73,54.6c-3-14.19-12.2-24.24-20.59-22.47"/><path class="cls-8" d="M4072.38,115.59a9.23,9.23,0,0,1,12.21-9.62c-.06-1-.13-1.94-.23-2.91-3.89-40.5-36-70.55-71.76-67.11S3951,75,3954.93,115.49s36,70.54,71.76,67.11c29.5-2.84,52.24-27.59,57.09-58.92a9.2,9.2,0,0,1-11.4-8.09Z"/><path class="cls-5" d="M4001.42,90.79c3.43-9.13,15.58-13,27.17-8.65"/><path class="cls-5" d="M4049.42,76.41c3.33-8.86,15.11-12.61,26.35-8.39"/><circle cx="4018.93" cy="101.85" r="2.39"/><circle cx="4067.41" cy="88.8" r="2.39"/><path class="cls-5" d="M4040.35,132.83c.52,5.27,13.39,8.32,28.77,6.8"/><circle class="cls-9" cx="4003" cy="132.44" r="10.44"/><path class="cls-8" d="M4080.7,105.5a9.25,9.25,0,1,0,3.08,18.18,82.45,82.45,0,0,0,.81-17.71A9.2,9.2,0,0,0,4080.7,105.5Z"/><path class="cls-9" d="M4080.64,104.91a9.25,9.25,0,0,0,1.77,18.41,9.59,9.59,0,0,0,1.32-.24,83,83,0,0,0,.8-17.7A9.18,9.18,0,0,0,4080.64,104.91Z"/><path class="cls-10" d="M4024.43,46.56c-.68-14.49-8.17-25.89-16.73-25.48"/><path class="cls-10" d="M4017,49.27c-1-16.46-11.13-29.21-22.64-28.51"/><path class="cls-10" d="M4011.14,52c-4.16-17.4-14.71-29.77-23.6-27.64"/><path class="cls-10" d="M4031.31,48.16c2.78-14.58-1.79-27.67-10.21-29.27"/><path class="cls-10" d="M4039.6,47.17c2.87-9.74.54-19-5.21-20.69"/><path class="cls-10" d="M4003.4,51.35c-1.08-10.1-6.78-17.75-12.74-17.12"/><path class="cls-10" d="M3997.73,54.6c-3-14.19-12.2-24.24-20.59-22.47"/><path class="cls-8" d="M4422.38,115.19a9.25,9.25,0,0,1,12.21-9.62c-.06-1-.13-1.94-.23-2.91-3.89-40.5-36-70.54-71.76-67.11S4301,74.6,4304.93,115.09s36,70.54,71.76,67.11c29.5-2.83,52.24-27.59,57.09-58.92a9.2,9.2,0,0,1-11.4-8.09Z"/><path class="cls-5" d="M4351.42,90.39c3.43-9.13,15.58-13,27.17-8.65"/><path class="cls-5" d="M4399.42,76c3.33-8.85,15.11-12.61,26.35-8.39"/><circle cx="4368.93" cy="101.45" r="2.39"/><circle cx="4417.41" cy="88.41" r="2.39"/><path class="cls-5" d="M4390.35,132.43c.52,5.28,13.39,8.32,28.77,6.81"/><circle class="cls-9" cx="4353" cy="132.05" r="10.44"/><path class="cls-8" d="M4430.7,105.11a9.24,9.24,0,1,0,3.08,18.17,82.45,82.45,0,0,0,.81-17.71A9.19,9.19,0,0,0,4430.7,105.11Z"/><path class="cls-9" d="M4430.64,104.51a9.25,9.25,0,0,0,1.77,18.41,9.59,9.59,0,0,0,1.32-.24,83,83,0,0,0,.8-17.7A9.18,9.18,0,0,0,4430.64,104.51Z"/><path class="cls-10" d="M4374.43,46.16c-.68-14.49-8.17-25.88-16.73-25.48"/><path class="cls-10" d="M4367,48.87c-1-16.46-11.13-29.21-22.64-28.51"/><path class="cls-10" d="M4361.14,51.59c-4.16-17.4-14.71-29.76-23.6-27.64"/><path class="cls-10" d="M4381.31,47.76c2.78-14.57-1.79-27.67-10.21-29.27"/><path class="cls-10" d="M4389.6,46.77c2.87-9.73.54-19-5.21-20.69"/><path class="cls-10" d="M4353.4,51c-1.08-10.1-6.78-17.75-12.74-17.12"/><path class="cls-10" d="M4347.73,54.21c-3-14.2-12.2-24.25-20.59-22.48"/></svg>
