<svg xmlns="http://www.w3.org/2000/svg" viewBox="0 0 4550 500"><defs><style>.cls-1{fill:#8f8b95;}.cls-2{fill:#9d9c9c;}.cls-3{fill:#f8ddc4;}.cls-4{fill:#495149;}.cls-5{fill:#80808e;}.cls-10,.cls-6{fill:none;stroke:#000;stroke-miterlimit:10;}.cls-7{fill:#f8e3d1;}.cls-8{fill:#f9dec5;}.cls-9{fill:#f9c5cd;opacity:0.49;}.cls-10{stroke-width:2px;}</style></defs><title>walk6</title><g id="Layer_1" data-name="Layer 1"><path class="cls-1" d="M4328.88,436.56l-.89,2.9,27.4,8.41a8.81,8.81,0,0,0,7.31-.92Z"/><path class="cls-1" d="M3996.83,448l-.36,3,28.46,3.41a8.82,8.82,0,0,0,7-2.21Z"/><path class="cls-2" d="M4034.48,447.35l.66-5.5a7.16,7.16,0,0,0-6.48-7.75l-27.06-3.24a2.6,2.6,0,0,0-3,2.19l-1.8,14.94L4032,452.2A7.84,7.84,0,0,0,4034.48,447.35Z"/><path class="cls-1" d="M4052.66,439.56l-.3,3,28.52,2.86a8.85,8.85,0,0,0,7-2.35Z"/><path class="cls-1" d="M2228.88,436.56l-.89,2.9,27.4,8.41a8.81,8.81,0,0,0,7.31-.92Z"/><path class="cls-1" d="M1896.83,448l-.36,3,28.46,3.41a8.82,8.82,0,0,0,7-2.21Z"/><path class="cls-2" d="M1934.48,447.35l.66-5.5a7.16,7.16,0,0,0-6.48-7.75l-27.06-3.24a2.6,2.6,0,0,0-3,2.19l-1.8,14.94L1932,452.2A7.84,7.84,0,0,0,1934.48,447.35Z"/><path class="cls-1" d="M1952.66,439.56l-.3,3,28.52,2.86a8.85,8.85,0,0,0,7-2.35Z"/><path class="cls-1" d="M3658.88,453.34l-.13,3,28.63,1.24a8.83,8.83,0,0,0,6.84-2.74Z"/><path class="cls-2" d="M3696.36,449.84l.24-5.53a7.15,7.15,0,0,0-7-7.24l-27.24-1.17a2.61,2.61,0,0,0-2.79,2.41l-.65,15,35.34,1.53A7.81,7.81,0,0,0,3696.36,449.84Z"/><path class="cls-1" d="M3308.88,453.34l-.13,3,28.63,1.24a8.83,8.83,0,0,0,6.84-2.74Z"/><path class="cls-2" d="M3346.36,449.84l.24-5.53a7.15,7.15,0,0,0-7-7.24l-27.24-1.17a2.61,2.61,0,0,0-2.79,2.41l-.65,15,35.34,1.53A7.81,7.81,0,0,0,3346.36,449.84Z"/><path class="cls-1" d="M2974.8,455.48l-.13,3,28.63,1.23a8.8,8.8,0,0,0,6.84-2.74Z"/><path class="cls-2" d="M3012.28,452l.24-5.53a7.14,7.14,0,0,0-7-7.24L2978.24,438a2.62,2.62,0,0,0-2.79,2.42l-.65,15,35.34,1.52A7.78,7.78,0,0,0,3012.28,452Z"/><path class="cls-1" d="M1558.88,453.34l-.13,3,28.63,1.24a8.83,8.83,0,0,0,6.84-2.74Z"/><path class="cls-2" d="M1596.36,449.84l.24-5.53a7.15,7.15,0,0,0-7-7.24l-27.24-1.17a2.61,2.61,0,0,0-2.79,2.41l-.65,15,35.34,1.53A7.81,7.81,0,0,0,1596.36,449.84Z"/><path class="cls-1" d="M1208.88,453.34l-.13,3,28.63,1.24a8.83,8.83,0,0,0,6.84-2.74Z"/><path class="cls-2" d="M1246.36,449.84l.24-5.53a7.15,7.15,0,0,0-7-7.24l-27.24-1.17a2.61,2.61,0,0,0-2.79,2.41l-.65,15,35.34,1.53A7.81,7.81,0,0,0,1246.36,449.84Z"/><path class="cls-1" d="M874.8,455.48l-.13,3,28.63,1.23a8.8,8.8,0,0,0,6.84-2.74Z"/><path class="cls-2" d="M912.28,452l.24-5.53a7.14,7.14,0,0,0-7-7.24L878.24,438a2.62,2.62,0,0,0-2.79,2.42l-.65,15L910.14,457A7.78,7.78,0,0,0,912.28,452Z"/><path class="cls-1" d="M2650.15,452.68l.14,3,28.62-1.32a8.84,8.84,0,0,0,6.58-3.33Z"/><path class="cls-2" d="M2687.17,445.86l-.25-5.53a7.15,7.15,0,0,0-7.66-6.58L2652,435a2.61,2.61,0,0,0-2.56,2.66l.69,15,35.34-1.62A7.87,7.87,0,0,0,2687.17,445.86Z"/><path class="cls-1" d="M550.15,452.68l.14,3,28.62-1.32a8.84,8.84,0,0,0,6.58-3.33Z"/><path class="cls-2" d="M587.17,445.86l-.25-5.53a7.15,7.15,0,0,0-7.66-6.58L552,435a2.61,2.61,0,0,0-2.56,2.66l.69,15,35.34-1.62A7.87,7.87,0,0,0,587.17,445.86Z"/><path class="cls-1" d="M221.32,448.44l1.22,2.78,26.24-11.52a8.85,8.85,0,0,0,4.94-5.48Z"/><path class="cls-1" d="M89.45,435l-2,2.23,21.08,19.44a8.86,8.86,0,0,0,7,2.33Z"/><path class="cls-2" d="M120.36,456.52l3.76-4.07a7.16,7.16,0,0,0-.71-10.08l-20.06-18.49a2.61,2.61,0,0,0-3.69.05L89.45,435l26,24A7.83,7.83,0,0,0,120.36,456.52Z"/><rect class="cls-3" x="4394.83" y="353.73" width="8.44" height="39.58" rx="2.78" ry="2.78" transform="matrix(0.5, -0.87, 0.87, 0.5, 1876.05, 3996.45)"/><rect class="cls-3" x="4044.83" y="353.73" width="8.44" height="39.58" rx="2.78" ry="2.78" transform="matrix(0.5, -0.87, 0.87, 0.5, 1701.05, 3693.34)"/><rect class="cls-3" x="3694.83" y="353.73" width="8.44" height="39.58" rx="2.78" ry="2.78" transform="matrix(0.5, -0.87, 0.87, 0.5, 1526.05, 3390.23)"/><rect class="cls-3" x="3339.12" y="358.75" width="8.44" height="39.58" rx="2.78" ry="2.78" transform="translate(426.03 2055) rotate(-36.34)"/><rect class="cls-3" x="2954.37" y="362.48" width="8.44" height="39.58" rx="2.78" ry="2.78" transform="matrix(0.99, -0.14, 0.14, 0.99, -24.43, 413.83)"/><rect class="cls-3" x="2592.86" y="357.4" width="8.44" height="39.58" rx="2.78" ry="2.78" transform="translate(707.68 -1444.14) rotate(35.69)"/><path class="cls-4" d="M4319.36,272v61.9a38.66,38.66,0,0,0,38.55,38.54h25.17a38.65,38.65,0,0,0,38.54-38.54V272Z"/><path class="cls-5" d="M4421.62,214.33a38.65,38.65,0,0,0-38.54-38.54h-25.17a38.66,38.66,0,0,0-38.55,38.54V272h102.26Z"/><path class="cls-3" d="M4422.74,114.69A9.27,9.27,0,0,1,4435,105c-.06-1-.13-2-.22-2.93-3.91-40.71-36.21-70.91-72.14-67.46s-61.88,39.25-58,80,36.21,70.9,72.14,67.45c29.65-2.85,52.51-27.73,57.39-59.23a8.3,8.3,0,0,1-1.32.24A9.29,9.29,0,0,1,4422.74,114.69Z"/><path class="cls-6" d="M4351.41,89.76c3.44-9.18,15.66-13.07,27.31-8.7"/><circle cx="4369.01" cy="100.88" r="2.4"/><circle cx="4417.74" cy="87.76" r="2.4"/><path class="cls-6" d="M4390.54,132c.52,5.31,13.45,8.37,28.92,6.84"/><path class="cls-3" d="M4431.1,104.55a9.29,9.29,0,0,0,1.78,18.5,8.3,8.3,0,0,0,1.32-.24A82.53,82.53,0,0,0,4435,105,9.24,9.24,0,0,0,4431.1,104.55Z"/><path class="cls-2" d="M4366,442.62l1.62-5.29a7.14,7.14,0,0,0-5-8.78l-26.06-8a2.6,2.6,0,0,0-3.31,1.63l-4.42,14.38L4362.7,447A7.86,7.86,0,0,0,4366,442.62Z"/><rect class="cls-3" x="4340.5" y="386.19" width="7.74" height="40.94" rx="2.55" ry="2.55" transform="translate(315.53 -1268.87) rotate(17.23)"/><circle class="cls-7" cx="4349.17" cy="386.71" r="6.33"/><path class="cls-1" d="M4436.23,438.64l1.37,2.71,25.58-13a8.86,8.86,0,0,0,4.63-5.74Z"/><path class="cls-2" d="M4467.21,417.22l-2.5-4.94a7.14,7.14,0,0,0-9.69-2.86l-24.34,12.31a2.62,2.62,0,0,0-1.25,3.48l6.8,13.43,31.58-16A7.82,7.82,0,0,0,4467.21,417.22Z"/><rect class="cls-3" x="4420.35" y="376.86" width="7.74" height="51.5" rx="2.55" ry="2.55" transform="translate(290.12 2028.97) rotate(-26.67)"/><circle class="cls-7" cx="4414.28" cy="382.67" r="6.33"/><path class="cls-3" d="M4365.31,302a1.78,1.78,0,0,0,1.94-1.39l.37-1.8a1.79,1.79,0,0,0-1.38-2.1l-4.83-1a4.9,4.9,0,0,0-6.13-.9l-2.37,1.43-11-27.14a5.26,5.26,0,0,0-1.9-6.64l-8-35.9a2.48,2.48,0,0,0-3-1.88l-2.51.55a2.49,2.49,0,0,0-1.88,3l8,35.89a5.27,5.27,0,0,0,2,7.43l.21.21,11.55,28.45-1.19.72a4.9,4.9,0,0,0-1.66,6.7l2.61,4.32h0l3.87,6.41a1.78,1.78,0,0,0,2.44.6L4354,318a1.77,1.77,0,0,1,3-1.83l1.57-.95a1.77,1.77,0,1,1,3-1.83l1.57-.95a1.78,1.78,0,0,1,3-1.84l1.57-.95a1.76,1.76,0,0,0,.6-2.43Z"/><path class="cls-3" d="M4435,311l-3.1-7.2h0l-2.1-4.85a5.13,5.13,0,0,0-6.72-2.67l-2.27,1-4.2-29.71a5.43,5.43,0,0,0,.86-3.44,5.52,5.52,0,0,0-1.89-3.72L4412.35,222a2.61,2.61,0,0,0-2.81-2.38l-2.68.23a2.6,2.6,0,0,0-2.38,2.8l3.21,38.39a5.52,5.52,0,0,0,1,8l.16.23,4.42,31.23-1.55.67a5.13,5.13,0,0,0-3,5.77l-2.09,4.72a1.87,1.87,0,0,0,.94,2.46l1.76.78a1.86,1.86,0,0,0,2.37-.8l2.52,5.84a1.87,1.87,0,0,0,2.45,1l1.76-.76a1.85,1.85,0,0,0,1-2.44,1.88,1.88,0,0,0,2.45,1l1.76-.77a1.86,1.86,0,0,1,3.42-1.47l1.76-.76a1.86,1.86,0,0,0,1-2.44,1.89,1.89,0,0,0,2.45,1l1.76-.77A1.85,1.85,0,0,0,4435,311Z"/><path class="cls-4" d="M3969.36,272v61.9a38.66,38.66,0,0,0,38.55,38.54h25.17a38.65,38.65,0,0,0,38.54-38.54V272Z"/><path class="cls-5" d="M4071.62,214.33a38.65,38.65,0,0,0-38.54-38.54h-25.17a38.66,38.66,0,0,0-38.55,38.54V272h102.26Z"/><path class="cls-3" d="M4072.74,114.69A9.27,9.27,0,0,1,4085,105c-.06-1-.13-2-.22-2.93-3.91-40.71-36.21-70.91-72.14-67.46s-61.88,39.25-58,80,36.21,70.9,72.14,67.45c29.65-2.85,52.51-27.73,57.39-59.23a8.3,8.3,0,0,1-1.32.24A9.29,9.29,0,0,1,4072.74,114.69Z"/><path class="cls-6" d="M4001.41,89.76c3.44-9.18,15.66-13.07,27.31-8.7"/><circle cx="4019.01" cy="100.88" r="2.4"/><circle cx="4067.74" cy="87.76" r="2.4"/><path class="cls-6" d="M4040.54,132c.52,5.31,13.45,8.37,28.92,6.84"/><path class="cls-3" d="M4081.1,104.55a9.29,9.29,0,0,0,1.78,18.5,8.3,8.3,0,0,0,1.32-.24A82.53,82.53,0,0,0,4085,105,9.24,9.24,0,0,0,4081.1,104.55Z"/><rect class="cls-3" x="4002.9" y="395.34" width="7.74" height="40.94" rx="2.55" ry="2.55" transform="translate(80.57 -485.31) rotate(7)"/><circle class="cls-7" cx="4007.94" cy="395.33" r="6.33"/><path class="cls-2" d="M4090.3,438.19l.56-5.51a7.15,7.15,0,0,0-6.63-7.63l-27.14-2.72a2.61,2.61,0,0,0-2.93,2.25l-1.5,15,35.22,3.53A7.82,7.82,0,0,0,4090.3,438.19Z"/><rect class="cls-3" x="4058.07" y="376.98" width="7.74" height="51.5" rx="2.55" ry="2.55" transform="translate(62.8 -414.83) rotate(5.89)"/><circle class="cls-7" cx="4064.28" cy="382.67" r="6.33"/><path class="cls-3" d="M4015.31,302a1.78,1.78,0,0,0,1.94-1.39l.37-1.8a1.79,1.79,0,0,0-1.38-2.1l-4.83-1a4.9,4.9,0,0,0-6.13-.9l-2.37,1.43-11-27.14a5.26,5.26,0,0,0-1.9-6.64l-8-35.9a2.48,2.48,0,0,0-3-1.88l-2.51.55a2.49,2.49,0,0,0-1.88,3l8,35.89a5.27,5.27,0,0,0,2,7.43,2.08,2.08,0,0,0,.21.21l11.55,28.45-1.19.72a4.9,4.9,0,0,0-1.66,6.7l2.61,4.32h0l3.87,6.41a1.78,1.78,0,0,0,2.44.6L4004,318a1.77,1.77,0,0,1,3-1.83l1.57-.95a1.77,1.77,0,1,1,3-1.83l1.57-.95a1.78,1.78,0,0,1,3-1.84l1.57-.95a1.76,1.76,0,0,0,.6-2.43Z"/><path class="cls-3" d="M4085,311l-3.1-7.2h0l-2.1-4.85a5.13,5.13,0,0,0-6.72-2.67l-2.27,1-4.2-29.71a5.43,5.43,0,0,0,.86-3.44,5.52,5.52,0,0,0-1.89-3.72L4062.35,222a2.61,2.61,0,0,0-2.81-2.38l-2.68.23a2.6,2.6,0,0,0-2.38,2.8l3.21,38.39a5.52,5.52,0,0,0,1,8l.16.23,4.42,31.23-1.55.67a5.13,5.13,0,0,0-3,5.77l-2.09,4.72a1.87,1.87,0,0,0,.94,2.46l1.76.78a1.86,1.86,0,0,0,2.37-.8l2.52,5.84a1.87,1.87,0,0,0,2.45,1l1.76-.76a1.85,1.85,0,0,0,1-2.44,1.88,1.88,0,0,0,2.45,1l1.76-.77a1.86,1.86,0,0,1,3.42-1.47l1.76-.76a1.86,1.86,0,0,0,1-2.44,1.89,1.89,0,0,0,2.45,1l1.76-.77A1.85,1.85,0,0,0,4085,311Z"/><rect class="cls-3" x="2251.5" y="346.77" width="8.44" height="40.82" rx="2.78" ry="2.78" transform="translate(199.24 -629.79) rotate(16.62)"/><path class="cls-4" d="M2219.36,272v61.9a38.66,38.66,0,0,0,38.55,38.54h25.17a38.65,38.65,0,0,0,38.54-38.54V272Z"/><path class="cls-5" d="M2321.62,214.33a38.65,38.65,0,0,0-38.54-38.54h-25.17a38.66,38.66,0,0,0-38.55,38.54V272h102.26Z"/><path class="cls-3" d="M2322.74,114.69A9.27,9.27,0,0,1,2335,105c-.06-1-.13-2-.22-2.93-3.91-40.71-36.21-70.91-72.14-67.46s-61.88,39.25-58,80,36.21,70.9,72.14,67.45c29.65-2.85,52.51-27.73,57.39-59.23a8.3,8.3,0,0,1-1.32.24A9.29,9.29,0,0,1,2322.74,114.69Z"/><path class="cls-6" d="M2251.41,89.76c3.44-9.18,15.66-13.07,27.31-8.7"/><circle cx="2269.01" cy="100.88" r="2.4"/><circle cx="2317.74" cy="87.76" r="2.4"/><path class="cls-6" d="M2290.54,132c.52,5.31,13.45,8.37,28.92,6.84"/><path class="cls-3" d="M2331.1,104.55a9.29,9.29,0,0,0,1.78,18.5,8.3,8.3,0,0,0,1.32-.24A82.53,82.53,0,0,0,2335,105,9.24,9.24,0,0,0,2331.1,104.55Z"/><path class="cls-2" d="M2266,442.62l1.62-5.29a7.14,7.14,0,0,0-5-8.78l-26.06-8a2.6,2.6,0,0,0-3.31,1.63l-4.42,14.38L2262.7,447A7.86,7.86,0,0,0,2266,442.62Z"/><rect class="cls-3" x="2240.5" y="386.19" width="7.74" height="40.94" rx="2.55" ry="2.55" transform="translate(221.25 -646.69) rotate(17.23)"/><circle class="cls-7" cx="2249.17" cy="386.71" r="6.33"/><rect class="cls-3" x="2294.83" y="353.73" width="8.44" height="39.58" rx="2.78" ry="2.78" transform="translate(826.05 2177.8) rotate(-60)"/><path class="cls-1" d="M2336.23,438.64l1.37,2.71,25.58-13a8.86,8.86,0,0,0,4.63-5.74Z"/><path class="cls-2" d="M2367.21,417.22l-2.5-4.94a7.14,7.14,0,0,0-9.69-2.86l-24.34,12.31a2.62,2.62,0,0,0-1.25,3.48l6.8,13.43,31.58-16A7.82,7.82,0,0,0,2367.21,417.22Z"/><rect class="cls-3" x="2320.35" y="376.86" width="7.74" height="51.5" rx="2.55" ry="2.55" transform="translate(66.63 1086.24) rotate(-26.67)"/><circle class="cls-7" cx="2314.28" cy="382.67" r="6.33"/><path class="cls-3" d="M2265.31,302a1.78,1.78,0,0,0,1.94-1.39l.37-1.8a1.79,1.79,0,0,0-1.38-2.1l-4.83-1a4.9,4.9,0,0,0-6.13-.9l-2.37,1.43-11-27.14a5.26,5.26,0,0,0-1.9-6.64l-8-35.9a2.48,2.48,0,0,0-3-1.88l-2.51.55a2.49,2.49,0,0,0-1.88,3l8,35.89a5.27,5.27,0,0,0,2,7.43,2.08,2.08,0,0,0,.21.21l11.55,28.45-1.19.72a4.9,4.9,0,0,0-1.66,6.7l2.61,4.32h0l3.87,6.41a1.78,1.78,0,0,0,2.44.6L2254,318a1.77,1.77,0,0,1,3-1.83l1.57-.95a1.77,1.77,0,1,1,3-1.83l1.57-.95a1.78,1.78,0,1,1,3-1.84l1.57-.95a1.76,1.76,0,0,0,.6-2.43Z"/><path class="cls-3" d="M2335,311l-3.1-7.2h0l-2.1-4.85a5.13,5.13,0,0,0-6.72-2.67l-2.27,1-4.2-29.71a5.43,5.43,0,0,0,.86-3.44,5.52,5.52,0,0,0-1.89-3.72L2312.35,222a2.61,2.61,0,0,0-2.81-2.38l-2.68.23a2.6,2.6,0,0,0-2.38,2.8l3.21,38.39a5.52,5.52,0,0,0,1,8l.16.23,4.42,31.23-1.55.67a5.13,5.13,0,0,0-3,5.77l-2.09,4.72a1.87,1.87,0,0,0,.94,2.46l1.76.78a1.86,1.86,0,0,0,2.37-.8l2.52,5.84a1.87,1.87,0,0,0,2.45,1l1.76-.76a1.85,1.85,0,0,0,1-2.44,1.88,1.88,0,0,0,2.45,1l1.76-.77a1.86,1.86,0,0,1,3.42-1.47l1.76-.76a1.86,1.86,0,0,0,1-2.44,1.89,1.89,0,0,0,2.45,1l1.76-.77A1.85,1.85,0,0,0,2335,311Z"/><rect class="cls-3" x="1906.7" y="354.54" width="8.44" height="40.82" rx="2.78" ry="2.78" transform="translate(53.56 -210.22) rotate(6.39)"/><path class="cls-4" d="M1869.36,272v61.9a38.66,38.66,0,0,0,38.55,38.54h25.17a38.65,38.65,0,0,0,38.54-38.54V272Z"/><path class="cls-5" d="M1971.62,214.33a38.65,38.65,0,0,0-38.54-38.54h-25.17a38.66,38.66,0,0,0-38.55,38.54V272h102.26Z"/><path class="cls-3" d="M1972.74,114.69A9.27,9.27,0,0,1,1985,105c-.06-1-.13-2-.22-2.93-3.91-40.71-36.21-70.91-72.14-67.46s-61.88,39.25-58,80,36.21,70.9,72.14,67.45c29.65-2.85,52.51-27.73,57.39-59.23a8.3,8.3,0,0,1-1.32.24A9.29,9.29,0,0,1,1972.74,114.69Z"/><path class="cls-6" d="M1901.41,89.76c3.44-9.18,15.66-13.07,27.31-8.7"/><circle cx="1919.01" cy="100.88" r="2.4"/><circle cx="1967.74" cy="87.76" r="2.4"/><path class="cls-6" d="M1940.54,132c.52,5.31,13.45,8.37,28.92,6.84"/><path class="cls-3" d="M1981.1,104.55a9.29,9.29,0,0,0,1.78,18.5,8.3,8.3,0,0,0,1.32-.24A82.53,82.53,0,0,0,1985,105,9.24,9.24,0,0,0,1981.1,104.55Z"/><rect class="cls-3" x="1902.9" y="395.34" width="7.74" height="40.94" rx="2.55" ry="2.55" transform="translate(64.91 -229.33) rotate(7)"/><circle class="cls-7" cx="1907.94" cy="395.33" r="6.33"/><rect class="cls-3" x="1944.83" y="353.73" width="8.44" height="39.58" rx="2.78" ry="2.78" transform="matrix(0.5, -0.87, 0.87, 0.5, 651.05, 1874.69)"/><path class="cls-2" d="M1990.3,438.19l.56-5.51a7.15,7.15,0,0,0-6.63-7.63l-27.14-2.72a2.61,2.61,0,0,0-2.93,2.25l-1.5,15,35.22,3.53A7.82,7.82,0,0,0,1990.3,438.19Z"/><rect class="cls-3" x="1958.07" y="376.98" width="7.74" height="51.5" rx="2.55" ry="2.55" transform="translate(51.7 -199.27) rotate(5.89)"/><circle class="cls-7" cx="1964.28" cy="382.67" r="6.33"/><path class="cls-3" d="M1915.31,302a1.78,1.78,0,0,0,1.94-1.39l.37-1.8a1.79,1.79,0,0,0-1.38-2.1l-4.83-1a4.9,4.9,0,0,0-6.13-.9l-2.37,1.43-11-27.14a5.26,5.26,0,0,0-1.9-6.64l-8-35.9a2.48,2.48,0,0,0-3-1.88l-2.51.55a2.49,2.49,0,0,0-1.88,3l8,35.89a5.27,5.27,0,0,0,2,7.43l.21.21,11.55,28.45-1.19.72a4.9,4.9,0,0,0-1.66,6.7l2.61,4.32h0l3.87,6.41a1.78,1.78,0,0,0,2.44.6L1904,318a1.77,1.77,0,0,1,3-1.83l1.57-.95a1.77,1.77,0,1,1,3-1.83l1.57-.95a1.78,1.78,0,0,1,3-1.84l1.57-.95a1.76,1.76,0,0,0,.6-2.43Z"/><path class="cls-3" d="M1985,311l-3.1-7.2h0l-2.1-4.85a5.13,5.13,0,0,0-6.72-2.67l-2.27,1-4.2-29.71a5.43,5.43,0,0,0,.86-3.44,5.52,5.52,0,0,0-1.89-3.72L1962.35,222a2.61,2.61,0,0,0-2.81-2.38l-2.68.23a2.6,2.6,0,0,0-2.38,2.8l3.21,38.39a5.52,5.52,0,0,0,1,8l.16.23,4.42,31.23-1.55.67a5.13,5.13,0,0,0-3,5.77l-2.09,4.72a1.87,1.87,0,0,0,.94,2.46l1.76.78a1.86,1.86,0,0,0,2.37-.8l2.52,5.84a1.87,1.87,0,0,0,2.45,1l1.76-.76a1.85,1.85,0,0,0,1-2.44,1.88,1.88,0,0,0,2.45,1l1.76-.77a1.86,1.86,0,0,1,3.42-1.47l1.76-.76a1.86,1.86,0,0,0,1-2.44,1.89,1.89,0,0,0,2.45,1l1.76-.77A1.85,1.85,0,0,0,1985,311Z"/><path class="cls-4" d="M3619.36,272v61.9a38.66,38.66,0,0,0,38.55,38.54h25.17a38.65,38.65,0,0,0,38.54-38.54V272Z"/><path class="cls-5" d="M3721.62,214.33a38.65,38.65,0,0,0-38.54-38.54h-25.17a38.66,38.66,0,0,0-38.55,38.54V272h102.26Z"/><path class="cls-3" d="M3722.74,114.69A9.27,9.27,0,0,1,3735,105c-.06-1-.13-2-.22-2.93-3.91-40.71-36.21-70.91-72.14-67.46s-61.88,39.25-58,80,36.21,70.9,72.14,67.45c29.65-2.85,52.51-27.73,57.39-59.23a8.3,8.3,0,0,1-1.32.24A9.29,9.29,0,0,1,3722.74,114.69Z"/><path class="cls-6" d="M3651.41,89.76c3.44-9.18,15.66-13.07,27.31-8.7"/><circle cx="3669.01" cy="100.88" r="2.4"/><circle cx="3717.74" cy="87.76" r="2.4"/><path class="cls-6" d="M3690.54,132c.52,5.31,13.45,8.37,28.92,6.84"/><path class="cls-3" d="M3731.1,104.55a9.29,9.29,0,0,0,1.78,18.5,8.3,8.3,0,0,0,1.32-.24A82.53,82.53,0,0,0,3735,105,9.24,9.24,0,0,0,3731.1,104.55Z"/><rect class="cls-3" x="3662.46" y="400.03" width="7.74" height="40.94" rx="2.55" ry="2.55" transform="translate(23.22 -168.17) rotate(2.64)"/><circle class="cls-7" cx="3665.95" cy="399.99" r="6.33"/><path class="cls-1" d="M3662,412.29l-2.51,1.7,16,23.77a8.85,8.85,0,0,0,6.28,3.88Z"/><path class="cls-2" d="M3687.13,440.37l4.59-3.1a7.15,7.15,0,0,0,1.63-10l-15.26-22.61a2.6,2.6,0,0,0-3.6-.81L3662,412.29l19.8,29.35A7.88,7.88,0,0,0,3687.13,440.37Z"/><rect class="cls-3" x="3692.4" y="370.14" width="7.74" height="51.5" rx="2.55" ry="2.55" transform="translate(1966.68 -2894.65) rotate(56.16)"/><circle class="cls-7" cx="3713.19" cy="384.87" r="6.33"/><path class="cls-3" d="M3665.31,302a1.78,1.78,0,0,0,1.94-1.39l.37-1.8a1.79,1.79,0,0,0-1.38-2.1l-4.83-1a4.9,4.9,0,0,0-6.13-.9l-2.37,1.43-11-27.14a5.26,5.26,0,0,0-1.9-6.64l-8-35.9a2.48,2.48,0,0,0-3-1.88l-2.51.55a2.49,2.49,0,0,0-1.88,3l8,35.89a5.27,5.27,0,0,0,2,7.43,2.08,2.08,0,0,0,.21.21l11.55,28.45-1.19.72a4.9,4.9,0,0,0-1.66,6.7l2.61,4.32h0l3.87,6.41a1.78,1.78,0,0,0,2.44.6L3654,318a1.77,1.77,0,0,1,3-1.83l1.57-.95a1.77,1.77,0,1,1,3-1.83l1.57-.95a1.78,1.78,0,1,1,3-1.84l1.57-.95a1.76,1.76,0,0,0,.6-2.43Z"/><path class="cls-3" d="M3735,311l-3.1-7.2h0l-2.1-4.85a5.13,5.13,0,0,0-6.72-2.67l-2.27,1-4.2-29.71a5.43,5.43,0,0,0,.86-3.44,5.52,5.52,0,0,0-1.89-3.72L3712.35,222a2.61,2.61,0,0,0-2.81-2.38l-2.68.23a2.6,2.6,0,0,0-2.38,2.8l3.21,38.39a5.52,5.52,0,0,0,1,8l.16.23,4.42,31.23-1.55.67a5.13,5.13,0,0,0-3,5.77l-2.09,4.72a1.87,1.87,0,0,0,.94,2.46l1.76.78a1.86,1.86,0,0,0,2.37-.8l2.52,5.84a1.87,1.87,0,0,0,2.45,1l1.76-.76a1.85,1.85,0,0,0,1-2.44,1.88,1.88,0,0,0,2.45,1l1.76-.77a1.86,1.86,0,0,1,3.42-1.47l1.76-.76a1.86,1.86,0,0,0,1-2.44,1.89,1.89,0,0,0,2.45,1l1.76-.77A1.85,1.85,0,0,0,3735,311Z"/><path class="cls-4" d="M3269.36,272v61.9a38.66,38.66,0,0,0,38.55,38.54h25.17a38.65,38.65,0,0,0,38.54-38.54V272Z"/><path class="cls-5" d="M3371.62,214.33a38.65,38.65,0,0,0-38.54-38.54h-25.17a38.66,38.66,0,0,0-38.55,38.54V272h102.26Z"/><path class="cls-3" d="M3372.74,114.69A9.27,9.27,0,0,1,3385,105c-.06-1-.13-2-.22-2.93-3.91-40.71-36.21-70.91-72.14-67.46s-61.88,39.25-58,80,36.21,70.9,72.14,67.45c29.65-2.85,52.51-27.73,57.39-59.23a8.3,8.3,0,0,1-1.32.24A9.29,9.29,0,0,1,3372.74,114.69Z"/><path class="cls-6" d="M3301.41,89.76c3.44-9.18,15.66-13.07,27.31-8.7"/><circle cx="3319.01" cy="100.88" r="2.4"/><circle cx="3367.74" cy="87.76" r="2.4"/><path class="cls-6" d="M3340.54,132c.52,5.31,13.45,8.37,28.92,6.84"/><path class="cls-3" d="M3381.1,104.55a9.29,9.29,0,0,0,1.78,18.5,8.3,8.3,0,0,0,1.32-.24A82.53,82.53,0,0,0,3385,105,9.24,9.24,0,0,0,3381.1,104.55Z"/><rect class="cls-3" x="3312.46" y="400.03" width="7.74" height="40.94" rx="2.55" ry="2.55" transform="translate(22.85 -152.07) rotate(2.64)"/><circle class="cls-7" cx="3315.95" cy="399.99" r="6.33"/><path class="cls-1" d="M3293.05,397.31l-3,.51,4.86,28.26a8.83,8.83,0,0,0,4.13,6.11Z"/><path class="cls-2" d="M3304.43,433.22l5.45-.94a7.15,7.15,0,0,0,5.59-8.42L3310.84,397a2.62,2.62,0,0,0-3-2.22l-14.84,2.56,6,34.88A7.8,7.8,0,0,0,3304.43,433.22Z"/><rect class="cls-3" x="3327.16" y="370.66" width="7.74" height="51.5" rx="2.55" ry="2.55" transform="matrix(0.17, 0.99, -0.99, 0.17, 3166.56, -2954.09)"/><circle class="cls-7" cx="3350.98" cy="393.32" r="6.33"/><path class="cls-3" d="M3315.31,302a1.78,1.78,0,0,0,1.94-1.39l.37-1.8a1.79,1.79,0,0,0-1.38-2.1l-4.83-1a4.9,4.9,0,0,0-6.13-.9l-2.37,1.43-11-27.14a5.26,5.26,0,0,0-1.9-6.64l-8-35.9a2.48,2.48,0,0,0-3-1.88l-2.51.55a2.49,2.49,0,0,0-1.88,3l8,35.89a5.27,5.27,0,0,0,2,7.43,2.08,2.08,0,0,0,.21.21l11.55,28.45-1.19.72a4.9,4.9,0,0,0-1.66,6.7l2.61,4.32h0l3.87,6.41a1.78,1.78,0,0,0,2.44.6L3304,318a1.77,1.77,0,0,1,3-1.83l1.57-.95a1.77,1.77,0,1,1,3-1.83l1.57-.95a1.78,1.78,0,1,1,3-1.84l1.57-.95a1.76,1.76,0,0,0,.6-2.43Z"/><path class="cls-3" d="M3385,311l-3.1-7.2h0l-2.1-4.85a5.13,5.13,0,0,0-6.72-2.67l-2.27,1-4.2-29.71a5.43,5.43,0,0,0,.86-3.44,5.52,5.52,0,0,0-1.89-3.72L3362.35,222a2.61,2.61,0,0,0-2.81-2.38l-2.68.23a2.6,2.6,0,0,0-2.38,2.8l3.21,38.39a5.52,5.52,0,0,0,1,8l.16.23,4.42,31.23-1.55.67a5.13,5.13,0,0,0-3,5.77l-2.09,4.72a1.87,1.87,0,0,0,.94,2.46l1.76.78a1.86,1.86,0,0,0,2.37-.8l2.52,5.84a1.87,1.87,0,0,0,2.45,1l1.76-.76a1.85,1.85,0,0,0,1-2.44,1.88,1.88,0,0,0,2.45,1l1.76-.77a1.86,1.86,0,0,1,3.42-1.47l1.76-.76a1.86,1.86,0,0,0,1-2.44,1.89,1.89,0,0,0,2.45,1l1.76-.77A1.85,1.85,0,0,0,3385,311Z"/><path class="cls-4" d="M2919.36,272v61.9a38.66,38.66,0,0,0,38.55,38.54h25.17a38.65,38.65,0,0,0,38.54-38.54V272Z"/><path class="cls-5" d="M3021.62,214.33a38.65,38.65,0,0,0-38.54-38.54h-25.17a38.66,38.66,0,0,0-38.55,38.54V272h102.26Z"/><path class="cls-3" d="M3022.74,114.69A9.27,9.27,0,0,1,3035,105c-.06-1-.13-2-.22-2.93-3.91-40.71-36.21-70.91-72.14-67.46s-61.88,39.25-58,80,36.21,70.9,72.14,67.45c29.65-2.85,52.51-27.73,57.39-59.23a8.3,8.3,0,0,1-1.32.24A9.29,9.29,0,0,1,3022.74,114.69Z"/><path class="cls-6" d="M2951.41,89.76c3.44-9.18,15.66-13.07,27.31-8.7"/><circle cx="2969.01" cy="100.88" r="2.4"/><circle cx="3017.74" cy="87.76" r="2.4"/><path class="cls-6" d="M2990.54,132c.52,5.31,13.45,8.37,28.92,6.84"/><path class="cls-3" d="M3031.1,104.55a9.29,9.29,0,0,0,1.78,18.5,8.3,8.3,0,0,0,1.32-.24A82.53,82.53,0,0,0,3035,105,9.24,9.24,0,0,0,3031.1,104.55Z"/><rect class="cls-3" x="2978.38" y="402.17" width="7.74" height="40.94" rx="2.55" ry="2.55" transform="translate(22.59 -136.71) rotate(2.64)"/><circle class="cls-7" cx="2981.87" cy="402.12" r="6.33"/><path class="cls-1" d="M2902.71,405.6l-3,.52,4.86,28.25a8.84,8.84,0,0,0,4.13,6.12Z"/><path class="cls-2" d="M2914.08,441.51l5.46-.93a7.15,7.15,0,0,0,5.58-8.43l-4.62-26.88a2.63,2.63,0,0,0-3-2.22l-14.83,2.55,6,34.89A7.85,7.85,0,0,0,2914.08,441.51Z"/><rect class="cls-3" x="2936.81" y="378.96" width="7.74" height="51.5" rx="2.55" ry="2.55" transform="translate(2849.47 -2562.29) rotate(80.4)"/><circle class="cls-7" cx="2960.63" cy="401.61" r="6.33"/><path class="cls-3" d="M2965.31,302a1.78,1.78,0,0,0,1.94-1.39l.37-1.8a1.79,1.79,0,0,0-1.38-2.1l-4.83-1a4.9,4.9,0,0,0-6.13-.9l-2.37,1.43-11-27.14a5.26,5.26,0,0,0-1.9-6.64l-8-35.9a2.48,2.48,0,0,0-3-1.88l-2.51.55a2.49,2.49,0,0,0-1.88,3l8,35.89a5.27,5.27,0,0,0,2,7.43,2.08,2.08,0,0,0,.21.21l11.55,28.45-1.19.72a4.9,4.9,0,0,0-1.66,6.7l2.61,4.32h0l3.87,6.41a1.78,1.78,0,0,0,2.44.6L2954,318a1.77,1.77,0,0,1,3-1.83l1.57-.95a1.77,1.77,0,1,1,3-1.83l1.57-.95a1.78,1.78,0,1,1,3-1.84l1.57-.95a1.76,1.76,0,0,0,.6-2.43Z"/><path class="cls-3" d="M3035,311l-3.1-7.2h0l-2.1-4.85a5.13,5.13,0,0,0-6.72-2.67l-2.27,1-4.2-29.71a5.43,5.43,0,0,0,.86-3.44,5.52,5.52,0,0,0-1.89-3.72L3012.35,222a2.61,2.61,0,0,0-2.81-2.38l-2.68.23a2.6,2.6,0,0,0-2.38,2.8l3.21,38.39a5.52,5.52,0,0,0,1,8l.16.23,4.42,31.23-1.55.67a5.13,5.13,0,0,0-3,5.77l-2.09,4.72a1.87,1.87,0,0,0,.94,2.46l1.76.78a1.86,1.86,0,0,0,2.37-.8l2.52,5.84a1.87,1.87,0,0,0,2.45,1l1.76-.76a1.85,1.85,0,0,0,1-2.44,1.88,1.88,0,0,0,2.45,1l1.76-.77a1.86,1.86,0,0,1,3.42-1.47l1.76-.76a1.86,1.86,0,0,0,1-2.44,1.89,1.89,0,0,0,2.45,1l1.76-.77A1.85,1.85,0,0,0,3035,311Z"/><rect class="cls-3" x="879.07" y="361.17" width="8.44" height="40.82" rx="2.78" ry="2.78" transform="translate(14 -30.91) rotate(2.02)"/><rect class="cls-3" x="1563.15" y="359.03" width="8.44" height="40.82" rx="2.78" ry="2.78" transform="matrix(1, 0.04, -0.04, 1, 14.35, -55.03)"/><path class="cls-4" d="M1519.36,272v61.9a38.66,38.66,0,0,0,38.55,38.54h25.17a38.65,38.65,0,0,0,38.54-38.54V272Z"/><path class="cls-5" d="M1621.62,214.33a38.65,38.65,0,0,0-38.54-38.54h-25.17a38.66,38.66,0,0,0-38.55,38.54V272h102.26Z"/><path class="cls-3" d="M1622.74,114.69A9.27,9.27,0,0,1,1635,105c-.06-1-.13-2-.22-2.93-3.91-40.71-36.21-70.91-72.14-67.46s-61.88,39.25-58,80,36.21,70.9,72.14,67.45c29.65-2.85,52.51-27.73,57.39-59.23a8.3,8.3,0,0,1-1.32.24A9.29,9.29,0,0,1,1622.74,114.69Z"/><path class="cls-6" d="M1551.41,89.76c3.44-9.18,15.66-13.07,27.31-8.7"/><circle cx="1569.01" cy="100.88" r="2.4"/><circle cx="1617.74" cy="87.76" r="2.4"/><path class="cls-6" d="M1590.54,132c.52,5.31,13.45,8.37,28.92,6.84"/><path class="cls-3" d="M1631.1,104.55a9.29,9.29,0,0,0,1.78,18.5,8.3,8.3,0,0,0,1.32-.24A82.53,82.53,0,0,0,1635,105,9.24,9.24,0,0,0,1631.1,104.55Z"/><rect class="cls-3" x="1562.46" y="400.03" width="7.74" height="40.94" rx="2.55" ry="2.55" transform="translate(21 -71.59) rotate(2.64)"/><circle class="cls-7" cx="1565.95" cy="399.99" r="6.33"/><rect class="cls-3" x="1594.83" y="353.73" width="8.44" height="39.58" rx="2.78" ry="2.78" transform="matrix(0.5, -0.87, 0.87, 0.5, 476.05, 1571.58)"/><path class="cls-1" d="M1562,412.29l-2.51,1.7,16,23.77a8.85,8.85,0,0,0,6.28,3.88Z"/><path class="cls-2" d="M1587.13,440.37l4.59-3.1a7.15,7.15,0,0,0,1.63-10l-15.26-22.61a2.6,2.6,0,0,0-3.6-.81L1562,412.29l19.8,29.35A7.88,7.88,0,0,0,1587.13,440.37Z"/><rect class="cls-3" x="1592.4" y="370.14" width="7.74" height="51.5" rx="2.55" ry="2.55" transform="translate(1036.14 -1150.42) rotate(56.16)"/><circle class="cls-7" cx="1613.19" cy="384.87" r="6.33"/><path class="cls-3" d="M1565.31,302a1.78,1.78,0,0,0,1.94-1.39l.37-1.8a1.79,1.79,0,0,0-1.38-2.1l-4.83-1a4.9,4.9,0,0,0-6.13-.9l-2.37,1.43-11-27.14a5.26,5.26,0,0,0-1.9-6.64l-8-35.9a2.48,2.48,0,0,0-3-1.88l-2.51.55a2.49,2.49,0,0,0-1.88,3l8,35.89a5.27,5.27,0,0,0,2,7.43l.21.21,11.55,28.45-1.19.72a4.9,4.9,0,0,0-1.66,6.7l2.61,4.32h0l3.87,6.41a1.78,1.78,0,0,0,2.44.6L1554,318a1.77,1.77,0,0,1,3-1.83l1.57-.95a1.77,1.77,0,1,1,3-1.83l1.57-.95a1.78,1.78,0,0,1,3-1.84l1.57-.95a1.76,1.76,0,0,0,.6-2.43Z"/><path class="cls-3" d="M1635,311l-3.1-7.2h0l-2.1-4.85a5.13,5.13,0,0,0-6.72-2.67l-2.27,1-4.2-29.71a5.43,5.43,0,0,0,.86-3.44,5.52,5.52,0,0,0-1.89-3.72L1612.35,222a2.61,2.61,0,0,0-2.81-2.38l-2.68.23a2.6,2.6,0,0,0-2.38,2.8l3.21,38.39a5.52,5.52,0,0,0,1,8l.16.23,4.42,31.23-1.55.67a5.13,5.13,0,0,0-3,5.77l-2.09,4.72a1.87,1.87,0,0,0,.94,2.46l1.76.78a1.86,1.86,0,0,0,2.37-.8l2.52,5.84a1.87,1.87,0,0,0,2.45,1l1.76-.76a1.85,1.85,0,0,0,1-2.44,1.88,1.88,0,0,0,2.45,1l1.76-.77a1.86,1.86,0,0,1,3.42-1.47l1.76-.76a1.86,1.86,0,0,0,1-2.44,1.89,1.89,0,0,0,2.45,1l1.76-.77A1.85,1.85,0,0,0,1635,311Z"/><rect class="cls-3" x="1213.15" y="359.03" width="8.44" height="40.82" rx="2.78" ry="2.78" transform="matrix(1, 0.04, -0.04, 1, 14.14, -42.69)"/><path class="cls-4" d="M1169.36,272v61.9a38.66,38.66,0,0,0,38.55,38.54h25.17a38.65,38.65,0,0,0,38.54-38.54V272Z"/><path class="cls-5" d="M1271.62,214.33a38.65,38.65,0,0,0-38.54-38.54h-25.17a38.66,38.66,0,0,0-38.55,38.54V272h102.26Z"/><path class="cls-3" d="M1272.74,114.69A9.27,9.27,0,0,1,1285,105c-.06-1-.13-2-.22-2.93-3.91-40.71-36.21-70.91-72.14-67.46s-61.88,39.25-58,80,36.21,70.9,72.14,67.45c29.65-2.85,52.51-27.73,57.39-59.23a8.3,8.3,0,0,1-1.32.24A9.29,9.29,0,0,1,1272.74,114.69Z"/><path class="cls-6" d="M1201.41,89.76c3.44-9.18,15.66-13.07,27.31-8.7"/><circle cx="1219.01" cy="100.88" r="2.4"/><circle cx="1267.74" cy="87.76" r="2.4"/><path class="cls-6" d="M1240.54,132c.52,5.31,13.45,8.37,28.92,6.84"/><path class="cls-3" d="M1281.1,104.55a9.29,9.29,0,1,0,1.78,18.5,8.3,8.3,0,0,0,1.32-.24A82.53,82.53,0,0,0,1285,105,9.24,9.24,0,0,0,1281.1,104.55Z"/><rect class="cls-3" x="1212.46" y="400.03" width="7.74" height="40.94" rx="2.55" ry="2.55" transform="translate(20.63 -55.49) rotate(2.64)"/><circle class="cls-7" cx="1215.95" cy="399.99" r="6.33"/><rect class="cls-3" x="1239.12" y="358.75" width="8.44" height="39.58" rx="2.78" ry="2.78" transform="translate(17.53 810.47) rotate(-36.34)"/><path class="cls-1" d="M1193.05,397.31l-3,.51,4.86,28.26a8.83,8.83,0,0,0,4.13,6.11Z"/><path class="cls-2" d="M1204.43,433.22l5.45-.94a7.15,7.15,0,0,0,5.59-8.42L1210.84,397a2.62,2.62,0,0,0-2.95-2.22l-14.84,2.56,6,34.88A7.8,7.8,0,0,0,1204.43,433.22Z"/><rect class="cls-3" x="1227.16" y="370.66" width="7.74" height="51.5" rx="2.55" ry="2.55" transform="matrix(0.17, 0.99, -0.99, 0.17, 1416.66, -883.47)"/><circle class="cls-7" cx="1250.98" cy="393.32" r="6.33"/><path class="cls-3" d="M1215.31,302a1.78,1.78,0,0,0,1.94-1.39l.37-1.8a1.79,1.79,0,0,0-1.38-2.1l-4.83-1a4.9,4.9,0,0,0-6.13-.9l-2.37,1.43-11-27.14a5.26,5.26,0,0,0-1.9-6.64l-8-35.9a2.48,2.48,0,0,0-3-1.88l-2.51.55a2.49,2.49,0,0,0-1.88,3l8,35.89a5.27,5.27,0,0,0,2,7.43l.21.21,11.55,28.45-1.19.72a4.9,4.9,0,0,0-1.66,6.7l2.61,4.32h0l3.87,6.41a1.78,1.78,0,0,0,2.44.6L1204,318a1.77,1.77,0,0,1,3-1.83l1.57-.95a1.77,1.77,0,1,1,3-1.83l1.57-.95a1.78,1.78,0,0,1,3-1.84l1.57-.95a1.77,1.77,0,0,0,.6-2.43Z"/><path class="cls-3" d="M1285,311l-3.1-7.2h0l-2.1-4.85a5.13,5.13,0,0,0-6.72-2.67l-2.27,1-4.2-29.71a5.43,5.43,0,0,0,.86-3.44,5.52,5.52,0,0,0-1.89-3.72L1262.35,222a2.61,2.61,0,0,0-2.81-2.38l-2.68.23a2.6,2.6,0,0,0-2.38,2.8l3.21,38.39a5.52,5.52,0,0,0,1,8l.16.23,4.42,31.23-1.55.67a5.13,5.13,0,0,0-3,5.77l-2.09,4.72a1.87,1.87,0,0,0,.94,2.46l1.76.78a1.86,1.86,0,0,0,2.37-.8l2.52,5.84a1.87,1.87,0,0,0,2.45,1l1.76-.76a1.85,1.85,0,0,0,1-2.44,1.88,1.88,0,0,0,2.45,1l1.76-.77a1.86,1.86,0,0,1,3.42-1.47l1.76-.76a1.86,1.86,0,0,0,1-2.44,1.89,1.89,0,0,0,2.45,1l1.76-.77A1.85,1.85,0,0,0,1285,311Z"/><path class="cls-4" d="M819.36,272v61.9a38.66,38.66,0,0,0,38.55,38.54h25.17a38.65,38.65,0,0,0,38.54-38.54V272Z"/><path class="cls-5" d="M921.62,214.33a38.65,38.65,0,0,0-38.54-38.54H857.91a38.66,38.66,0,0,0-38.55,38.54V272H921.62Z"/><path class="cls-3" d="M922.74,114.69A9.27,9.27,0,0,1,935,105c-.06-1-.13-2-.22-2.93-3.91-40.71-36.21-70.91-72.14-67.46s-61.88,39.25-58,80,36.21,70.9,72.14,67.45c29.65-2.85,52.51-27.73,57.39-59.23a8.3,8.3,0,0,1-1.32.24A9.29,9.29,0,0,1,922.74,114.69Z"/><path class="cls-6" d="M851.41,89.76c3.44-9.18,15.66-13.07,27.31-8.7"/><circle cx="869.01" cy="100.88" r="2.4"/><circle cx="917.74" cy="87.76" r="2.4"/><path class="cls-6" d="M890.54,132c.52,5.31,13.45,8.37,28.92,6.84"/><path class="cls-3" d="M931.1,104.55a9.29,9.29,0,1,0,1.78,18.5,8.3,8.3,0,0,0,1.32-.24A82.53,82.53,0,0,0,935,105,9.24,9.24,0,0,0,931.1,104.55Z"/><rect class="cls-3" x="878.38" y="402.17" width="7.74" height="40.94" rx="2.55" ry="2.55" transform="translate(20.37 -40.13) rotate(2.64)"/><circle class="cls-7" cx="881.87" cy="402.12" r="6.33"/><rect class="cls-3" x="854.37" y="362.48" width="8.44" height="39.58" rx="2.78" ry="2.78" transform="translate(-44.7 122.71) rotate(-7.97)"/><path class="cls-1" d="M802.71,405.6l-3,.52,4.86,28.25a8.84,8.84,0,0,0,4.13,6.12Z"/><path class="cls-2" d="M814.08,441.51l5.46-.93a7.15,7.15,0,0,0,5.58-8.43l-4.62-26.88a2.63,2.63,0,0,0-3-2.22l-14.83,2.55,6,34.89A7.85,7.85,0,0,0,814.08,441.51Z"/><rect class="cls-3" x="836.81" y="378.96" width="7.74" height="51.5" rx="2.55" ry="2.55" transform="translate(1099.57 -491.68) rotate(80.4)"/><circle class="cls-7" cx="860.63" cy="401.61" r="6.33"/><path class="cls-3" d="M865.31,302a1.78,1.78,0,0,0,1.94-1.39l.37-1.8a1.79,1.79,0,0,0-1.38-2.1l-4.83-1a4.9,4.9,0,0,0-6.13-.9l-2.37,1.43-11-27.14a5.26,5.26,0,0,0-1.9-6.64l-8-35.9a2.48,2.48,0,0,0-3-1.88l-2.51.55a2.49,2.49,0,0,0-1.88,3l8,35.89a5.27,5.27,0,0,0,2,7.43,2.08,2.08,0,0,0,.21.21l11.55,28.45-1.19.72a4.9,4.9,0,0,0-1.66,6.7l2.61,4.32h0l3.87,6.41a1.78,1.78,0,0,0,2.44.6L854,318a1.77,1.77,0,0,1,3-1.83l1.57-.95a1.77,1.77,0,1,1,3-1.83l1.57-.95a1.78,1.78,0,0,1,3-1.84l1.57-.95a1.77,1.77,0,0,0,.6-2.43Z"/><path class="cls-3" d="M935,311l-3.1-7.2h0l-2.1-4.85a5.13,5.13,0,0,0-6.72-2.67l-2.27,1-4.2-29.71a5.43,5.43,0,0,0,.86-3.44,5.52,5.52,0,0,0-1.89-3.72L912.35,222a2.61,2.61,0,0,0-2.81-2.38l-2.68.23a2.6,2.6,0,0,0-2.38,2.8L907.69,261a5.52,5.52,0,0,0,1,8l.16.23,4.42,31.23-1.55.67a5.13,5.13,0,0,0-3,5.77l-2.09,4.72a1.87,1.87,0,0,0,.94,2.46l1.76.78a1.86,1.86,0,0,0,2.37-.8l2.52,5.84a1.87,1.87,0,0,0,2.45,1l1.76-.76a1.85,1.85,0,0,0,1-2.44,1.88,1.88,0,0,0,2.45,1l1.76-.77a1.86,1.86,0,0,1,3.42-1.47l1.76-.76a1.86,1.86,0,0,0,1-2.44,1.89,1.89,0,0,0,2.45,1l1.76-.77A1.85,1.85,0,0,0,935,311Z"/><path class="cls-4" d="M2569.36,272v61.9a38.66,38.66,0,0,0,38.55,38.54h25.17a38.65,38.65,0,0,0,38.54-38.54V272Z"/><path class="cls-5" d="M2671.62,214.33a38.65,38.65,0,0,0-38.54-38.54h-25.17a38.66,38.66,0,0,0-38.55,38.54V272h102.26Z"/><path class="cls-3" d="M2672.74,114.69A9.27,9.27,0,0,1,2685,105c-.06-1-.13-2-.22-2.93-3.91-40.71-36.21-70.91-72.14-67.46s-61.88,39.25-58,80,36.21,70.9,72.14,67.45c29.65-2.85,52.51-27.73,57.39-59.23a8.3,8.3,0,0,1-1.32.24A9.29,9.29,0,0,1,2672.74,114.69Z"/><path class="cls-6" d="M2601.41,89.76c3.44-9.18,15.66-13.07,27.31-8.7"/><circle cx="2619.01" cy="100.88" r="2.4"/><circle cx="2667.74" cy="87.76" r="2.4"/><path class="cls-6" d="M2640.54,132c.52,5.31,13.45,8.37,28.92,6.84"/><path class="cls-3" d="M2681.1,104.55a9.29,9.29,0,0,0,1.78,18.5,8.3,8.3,0,0,0,1.32-.24A82.53,82.53,0,0,0,2685,105,9.24,9.24,0,0,0,2681.1,104.55Z"/><rect class="cls-3" x="2650.78" y="398.84" width="7.74" height="40.94" rx="2.55" ry="2.55" transform="translate(-15.61 114.87) rotate(-2.47)"/><circle class="cls-7" cx="2654.1" cy="398.35" r="6.33"/><path class="cls-1" d="M2522.76,397.71l-3,.52,4.86,28.25a8.84,8.84,0,0,0,4.13,6.12Z"/><path class="cls-2" d="M2534.14,433.63l5.46-.94a7.15,7.15,0,0,0,5.58-8.43l-4.63-26.88a2.61,2.61,0,0,0-3-2.22l-14.84,2.55,6,34.89A7.91,7.91,0,0,0,2534.14,433.63Z"/><rect class="cls-3" x="2556.87" y="371.07" width="7.74" height="51.5" rx="2.55" ry="2.55" transform="translate(2525.09 -2194.24) rotate(80.4)"/><circle class="cls-7" cx="2585.2" cy="392.6" r="6.33"/><path class="cls-3" d="M2615.31,302a1.78,1.78,0,0,0,1.94-1.39l.37-1.8a1.79,1.79,0,0,0-1.38-2.1l-4.83-1a4.9,4.9,0,0,0-6.13-.9l-2.37,1.43-11-27.14a5.26,5.26,0,0,0-1.9-6.64l-8-35.9a2.48,2.48,0,0,0-3-1.88l-2.51.55a2.49,2.49,0,0,0-1.88,3l8,35.89a5.27,5.27,0,0,0,2,7.43,2.08,2.08,0,0,0,.21.21l11.55,28.45-1.19.72a4.9,4.9,0,0,0-1.66,6.7l2.61,4.32h0l3.87,6.41a1.78,1.78,0,0,0,2.44.6L2604,318a1.77,1.77,0,0,1,3-1.83l1.57-.95a1.77,1.77,0,1,1,3-1.83l1.57-.95a1.78,1.78,0,1,1,3-1.84l1.57-.95a1.76,1.76,0,0,0,.6-2.43Z"/><path class="cls-3" d="M2685,311l-3.1-7.2h0l-2.1-4.85a5.13,5.13,0,0,0-6.72-2.67l-2.27,1-4.2-29.71a5.43,5.43,0,0,0,.86-3.44,5.52,5.52,0,0,0-1.89-3.72L2662.35,222a2.61,2.61,0,0,0-2.81-2.38l-2.68.23a2.6,2.6,0,0,0-2.38,2.8l3.21,38.39a5.52,5.52,0,0,0,1,8l.16.23,4.42,31.23-1.55.67a5.13,5.13,0,0,0-3,5.77l-2.09,4.72a1.87,1.87,0,0,0,.94,2.46l1.76.78a1.86,1.86,0,0,0,2.37-.8l2.52,5.84a1.87,1.87,0,0,0,2.45,1l1.76-.76a1.85,1.85,0,0,0,1-2.44,1.88,1.88,0,0,0,2.45,1l1.76-.77a1.86,1.86,0,0,1,3.42-1.47l1.76-.76a1.86,1.86,0,0,0,1-2.44,1.89,1.89,0,0,0,2.45,1l1.76-.77A1.85,1.85,0,0,0,2685,311Z"/><rect class="cls-3" x="542.29" y="358.79" width="8.44" height="40.82" rx="2.78" ry="2.78" transform="translate(-105.97 249.85) rotate(-23.54)"/><path class="cls-4" d="M469.36,272v61.9a38.66,38.66,0,0,0,38.55,38.54h25.17a38.65,38.65,0,0,0,38.54-38.54V272Z"/><path class="cls-5" d="M571.62,214.33a38.65,38.65,0,0,0-38.54-38.54H507.91a38.66,38.66,0,0,0-38.55,38.54V272H571.62Z"/><path class="cls-3" d="M572.74,114.69A9.27,9.27,0,0,1,585,105c-.06-1-.13-2-.22-2.93-3.91-40.71-36.21-70.91-72.14-67.46s-61.88,39.25-58,80,36.21,70.9,72.14,67.45c29.65-2.85,52.51-27.73,57.39-59.23a8.3,8.3,0,0,1-1.32.24A9.29,9.29,0,0,1,572.74,114.69Z"/><path class="cls-6" d="M501.41,89.76c3.44-9.18,15.66-13.07,27.31-8.7"/><circle cx="519.01" cy="100.88" r="2.4"/><circle cx="567.74" cy="87.76" r="2.4"/><path class="cls-6" d="M540.54,132c.52,5.31,13.45,8.37,28.92,6.84"/><path class="cls-3" d="M581.1,104.55a9.29,9.29,0,0,0,1.78,18.5,8.3,8.3,0,0,0,1.32-.24A82.53,82.53,0,0,0,585,105,9.24,9.24,0,0,0,581.1,104.55Z"/><rect class="cls-3" x="550.78" y="398.84" width="7.74" height="40.94" rx="2.55" ry="2.55" transform="translate(-17.57 24.31) rotate(-2.47)"/><circle class="cls-7" cx="554.1" cy="398.35" r="6.33"/><rect class="cls-3" x="492.86" y="357.4" width="8.44" height="39.58" rx="2.78" ry="2.78" transform="translate(313.37 -219.14) rotate(35.69)"/><path class="cls-1" d="M422.76,397.71l-3,.52,4.86,28.25a8.84,8.84,0,0,0,4.13,6.12Z"/><path class="cls-2" d="M434.14,433.63l5.46-.94a7.15,7.15,0,0,0,5.58-8.43l-4.63-26.88a2.61,2.61,0,0,0-2.95-2.22l-14.84,2.55,6,34.89A7.91,7.91,0,0,0,434.14,433.63Z"/><rect class="cls-3" x="456.87" y="371.07" width="7.74" height="51.5" rx="2.55" ry="2.55" transform="translate(775.19 -123.63) rotate(80.4)"/><circle class="cls-7" cx="485.2" cy="392.6" r="6.33"/><path class="cls-3" d="M515.31,302a1.78,1.78,0,0,0,1.94-1.39l.37-1.8a1.79,1.79,0,0,0-1.38-2.1l-4.83-1a4.9,4.9,0,0,0-6.13-.9l-2.37,1.43-11-27.14a5.26,5.26,0,0,0-1.9-6.64l-8-35.9a2.48,2.48,0,0,0-3-1.88l-2.51.55a2.49,2.49,0,0,0-1.88,3l8,35.89a5.27,5.27,0,0,0,2,7.43l.21.21,11.55,28.45-1.19.72a4.9,4.9,0,0,0-1.66,6.7l2.61,4.32h0l3.87,6.41a1.78,1.78,0,0,0,2.44.6L504,318a1.77,1.77,0,0,1,3-1.83l1.57-.95a1.77,1.77,0,1,1,3-1.83l1.57-.95a1.78,1.78,0,0,1,3-1.84l1.57-.95a1.77,1.77,0,0,0,.6-2.43Z"/><path class="cls-3" d="M585,311l-3.1-7.2h0l-2.1-4.85a5.13,5.13,0,0,0-6.72-2.67l-2.27,1-4.2-29.71a5.43,5.43,0,0,0,.86-3.44,5.52,5.52,0,0,0-1.89-3.72L562.35,222a2.61,2.61,0,0,0-2.81-2.38l-2.68.23a2.6,2.6,0,0,0-2.38,2.8L557.69,261a5.52,5.52,0,0,0,1,8l.16.23,4.42,31.23-1.55.67a5.13,5.13,0,0,0-3,5.77l-2.09,4.72a1.87,1.87,0,0,0,.94,2.46l1.76.78a1.86,1.86,0,0,0,2.37-.8l2.52,5.84a1.87,1.87,0,0,0,2.45,1l1.76-.76a1.85,1.85,0,0,0,1-2.44,1.88,1.88,0,0,0,2.45,1l1.76-.77a1.86,1.86,0,0,1,3.42-1.47l1.76-.76a1.86,1.86,0,0,0,1-2.44,1.89,1.89,0,0,0,2.45,1l1.76-.77A1.85,1.85,0,0,0,585,311Z"/><rect class="cls-3" x="193.79" y="358.79" width="8.44" height="40.82" rx="2.78" ry="2.78" transform="translate(-134.98 110.65) rotate(-23.54)"/><path class="cls-4" d="M119.36,272v61.9a38.66,38.66,0,0,0,38.55,38.54h25.17a38.65,38.65,0,0,0,38.54-38.54V272Z"/><path class="cls-5" d="M221.62,214.33a38.65,38.65,0,0,0-38.54-38.54H157.91a38.66,38.66,0,0,0-38.55,38.54V272H221.62Z"/><path class="cls-3" d="M222.74,114.69A9.27,9.27,0,0,1,235,105c-.06-1-.13-2-.22-2.93-3.91-40.71-36.21-70.91-72.14-67.46s-61.88,39.25-58,80,36.21,70.9,72.14,67.45c29.65-2.85,52.51-27.73,57.39-59.23a8.3,8.3,0,0,1-1.32.24A9.29,9.29,0,0,1,222.74,114.69Z"/><path class="cls-6" d="M151.41,89.76c3.44-9.18,15.66-13.07,27.31-8.7"/><circle cx="169.01" cy="100.88" r="2.4"/><circle cx="217.74" cy="87.76" r="2.4"/><path class="cls-6" d="M190.54,132c.52,5.31,13.45,8.37,28.92,6.84"/><path class="cls-3" d="M231.1,104.55a9.29,9.29,0,0,0,1.78,18.5,8.3,8.3,0,0,0,1.32-.24A82.53,82.53,0,0,0,235,105,9.24,9.24,0,0,0,231.1,104.55Z"/><path class="cls-2" d="M253.42,428.76l-2.23-5.07a7.14,7.14,0,0,0-9.51-3.38l-25,11a2.62,2.62,0,0,0-1.45,3.4l6,13.77,32.4-14.22A7.87,7.87,0,0,0,253.42,428.76Z"/><rect class="cls-3" x="209.65" y="395.21" width="7.74" height="40.94" rx="2.55" ry="2.55" transform="translate(-148.26 119.88) rotate(-23.54)"/><circle class="cls-7" cx="205.47" cy="396.32" r="6.33"/><rect class="cls-3" x="142.86" y="357.4" width="8.44" height="39.58" rx="2.78" ry="2.78" transform="translate(247.65 -14.97) rotate(35.69)"/><rect class="cls-3" x="115.14" y="385.38" width="7.74" height="51.5" rx="2.55" ry="2.55" transform="translate(311.25 28.73) rotate(42.83)"/><circle class="cls-7" cx="135.82" cy="392.87" r="6.33"/><path class="cls-3" d="M165.31,302a1.78,1.78,0,0,0,1.94-1.39l.37-1.8a1.79,1.79,0,0,0-1.38-2.1l-4.83-1a4.9,4.9,0,0,0-6.13-.9l-2.37,1.43-11-27.14a5.26,5.26,0,0,0-1.9-6.64l-8-35.9a2.48,2.48,0,0,0-3-1.88l-2.51.55a2.49,2.49,0,0,0-1.88,3l8,35.89a5.27,5.27,0,0,0,2,7.43l.21.21,11.55,28.45-1.19.72a4.9,4.9,0,0,0-1.66,6.7l2.61,4.32h0l3.87,6.41a1.78,1.78,0,0,0,2.44.6L154,318a1.78,1.78,0,0,0,.6-2.43,1.79,1.79,0,0,0,2.44.6l1.57-.95a1.79,1.79,0,0,0,.6-2.44,1.78,1.78,0,0,0,2.44.61l1.57-.95a1.78,1.78,0,0,0,.6-2.44,1.77,1.77,0,0,0,2.44.6l1.57-.95a1.77,1.77,0,0,0,.6-2.43Z"/><path class="cls-3" d="M235,311l-3.1-7.2h0l-2.1-4.85a5.13,5.13,0,0,0-6.72-2.67l-2.27,1-4.2-29.71a5.43,5.43,0,0,0,.86-3.44,5.52,5.52,0,0,0-1.89-3.72L212.35,222a2.61,2.61,0,0,0-2.81-2.38l-2.68.23a2.6,2.6,0,0,0-2.38,2.8L207.69,261a5.52,5.52,0,0,0,1,8l.16.23,4.42,31.23-1.55.67a5.13,5.13,0,0,0-3,5.77l-2.09,4.72a1.87,1.87,0,0,0,.94,2.46l1.76.78a1.86,1.86,0,0,0,2.37-.8l2.52,5.84a1.87,1.87,0,0,0,2.45,1l1.76-.76a1.85,1.85,0,0,0,1-2.44,1.88,1.88,0,0,0,2.45,1l1.76-.77a1.85,1.85,0,0,0,1-2.44,1.87,1.87,0,0,0,2.45,1l1.76-.76a1.86,1.86,0,0,0,1-2.44,1.89,1.89,0,0,0,2.45,1l1.76-.77A1.85,1.85,0,0,0,235,311Z"/><rect class="cls-3" x="2642.29" y="358.79" width="8.44" height="40.82" rx="2.78" ry="2.78" transform="translate(68.82 1088.64) rotate(-23.54)"/><rect class="cls-3" x="2979.07" y="361.17" width="8.44" height="40.82" rx="2.78" ry="2.78" transform="translate(15.31 -104.95) rotate(2.02)"/><rect class="cls-3" x="3313.15" y="359.03" width="8.44" height="40.82" rx="2.78" ry="2.78" transform="translate(15.44 -116.73) rotate(2.02)"/><rect class="cls-3" x="3663.15" y="359.03" width="8.44" height="40.82" rx="2.78" ry="2.78" transform="matrix(1, 0.04, -0.04, 1, 15.66, -129.07)"/><rect class="cls-3" x="4006.7" y="354.54" width="8.44" height="40.82" rx="2.78" ry="2.78" transform="translate(66.59 -443.81) rotate(6.39)"/><rect class="cls-3" x="4351.5" y="346.77" width="8.44" height="40.82" rx="2.78" ry="2.78" transform="translate(286.95 -1230.39) rotate(16.62)"/><path class="cls-8" d="M222.38,114.59A9.23,9.23,0,0,1,234.59,105c-.06-1-.13-1.94-.23-2.91-3.89-40.5-36-70.55-71.76-67.11S101,74,104.93,114.49,141,185,176.69,181.6c29.5-2.84,52.24-27.59,57.09-58.92a9.2,9.2,0,0,1-11.4-8.09Z"/><path class="cls-6" d="M151.42,89.79c3.43-9.13,15.58-13,27.17-8.65"/><circle cx="168.93" cy="100.85" r="2.39"/><circle cx="217.41" cy="87.8" r="2.39"/><path class="cls-6" d="M190.35,131.83c.52,5.27,13.39,8.32,28.77,6.8"/><circle class="cls-9" cx="153" cy="131.44" r="10.44"/><path class="cls-8" d="M230.7,104.5a9.25,9.25,0,1,0,3.08,18.18,82.45,82.45,0,0,0,.81-17.71A9.2,9.2,0,0,0,230.7,104.5Z"/><path class="cls-9" d="M230.64,103.91a9.25,9.25,0,0,0,1.77,18.41,9.59,9.59,0,0,0,1.32-.24,83,83,0,0,0,.8-17.7A9.18,9.18,0,0,0,230.64,103.91Z"/><path class="cls-8" d="M572.38,114.71a9.25,9.25,0,0,1,12.21-9.62c-.06-1-.13-1.94-.23-2.91-3.89-40.5-36-70.54-71.76-67.11S451,74.12,454.93,114.61s36,70.55,71.76,67.11c29.5-2.83,52.24-27.59,57.09-58.92a9.2,9.2,0,0,1-11.4-8.09Z"/><path class="cls-6" d="M501.42,89.92c3.43-9.14,15.58-13,27.17-8.66"/><circle cx="518.93" cy="100.97" r="2.39"/><circle cx="567.41" cy="87.93" r="2.39"/><path class="cls-6" d="M540.35,132c.52,5.28,13.39,8.32,28.77,6.81"/><circle class="cls-9" cx="503" cy="131.57" r="10.44"/><path class="cls-8" d="M580.7,104.63a9.24,9.24,0,1,0,3.08,18.17,82.45,82.45,0,0,0,.81-17.71A9.19,9.19,0,0,0,580.7,104.63Z"/><path class="cls-9" d="M580.64,104a9.25,9.25,0,0,0,1.77,18.41,9.58,9.58,0,0,0,1.32-.23,83.1,83.1,0,0,0,.8-17.71A9.18,9.18,0,0,0,580.64,104Z"/><path class="cls-8" d="M922.23,114.59A9.23,9.23,0,0,1,934.44,105c-.06-1-.14-1.94-.23-2.91-3.89-40.5-36-70.55-71.76-67.11S800.89,74,804.78,114.49s36,70.54,71.76,67.11c29.5-2.84,52.24-27.59,57.09-58.92a9.2,9.2,0,0,1-11.4-8.09Z"/><path class="cls-6" d="M851.27,89.79c3.43-9.13,15.58-13,27.17-8.65"/><circle cx="868.78" cy="100.85" r="2.39"/><circle cx="917.26" cy="87.8" r="2.39"/><path class="cls-6" d="M890.2,131.83c.52,5.27,13.39,8.32,28.77,6.8"/><circle class="cls-9" cx="852.85" cy="131.44" r="10.44"/><path class="cls-8" d="M930.55,104.5a9.25,9.25,0,1,0,3.08,18.18,82.45,82.45,0,0,0,.81-17.71A9.2,9.2,0,0,0,930.55,104.5Z"/><path class="cls-9" d="M930.49,103.91a9.25,9.25,0,0,0,1.77,18.41,9.59,9.59,0,0,0,1.32-.24,83,83,0,0,0,.8-17.7A9.18,9.18,0,0,0,930.49,103.91Z"/><path class="cls-8" d="M1272.23,114.19a9.25,9.25,0,0,1,12.21-9.62c-.06-1-.14-1.94-.23-2.91-3.89-40.5-36-70.54-71.76-67.11s-61.56,39.05-57.67,79.54,36,70.54,71.76,67.11c29.5-2.83,52.24-27.59,57.09-58.92a9.2,9.2,0,0,1-11.4-8.09Z"/><path class="cls-6" d="M1201.27,89.39c3.43-9.13,15.58-13,27.17-8.65"/><circle cx="1218.78" cy="100.45" r="2.39"/><circle cx="1267.26" cy="87.41" r="2.39"/><path class="cls-6" d="M1240.2,131.43c.52,5.28,13.39,8.32,28.77,6.81"/><circle class="cls-9" cx="1202.85" cy="131.05" r="10.44"/><path class="cls-8" d="M1280.55,104.11a9.24,9.24,0,1,0,3.08,18.17,82.45,82.45,0,0,0,.81-17.71A9.19,9.19,0,0,0,1280.55,104.11Z"/><path class="cls-9" d="M1280.49,103.51a9.25,9.25,0,0,0,1.77,18.41,9.59,9.59,0,0,0,1.32-.24,83,83,0,0,0,.8-17.7A9.18,9.18,0,0,0,1280.49,103.51Z"/><path class="cls-8" d="M1622.38,114.59a9.23,9.23,0,0,1,12.21-9.62c-.06-1-.13-1.94-.23-2.91-3.89-40.5-36-70.55-71.76-67.11S1501,74,1504.93,114.49s36,70.54,71.76,67.11c29.5-2.84,52.24-27.59,57.09-58.92a9.2,9.2,0,0,1-11.4-8.09Z"/><path class="cls-6" d="M1551.42,89.79c3.43-9.13,15.58-13,27.17-8.65"/><circle cx="1568.93" cy="100.85" r="2.39"/><circle cx="1617.41" cy="87.8" r="2.39"/><path class="cls-6" d="M1590.35,131.83c.52,5.27,13.39,8.32,28.77,6.8"/><circle class="cls-9" cx="1553" cy="131.44" r="10.44"/><path class="cls-8" d="M1630.7,104.5a9.25,9.25,0,1,0,3.08,18.18,82.45,82.45,0,0,0,.81-17.71A9.2,9.2,0,0,0,1630.7,104.5Z"/><path class="cls-9" d="M1630.64,103.91a9.25,9.25,0,0,0,1.77,18.41,9.59,9.59,0,0,0,1.32-.24,83,83,0,0,0,.8-17.7A9.18,9.18,0,0,0,1630.64,103.91Z"/><path class="cls-8" d="M1972.23,115.38a9.25,9.25,0,0,1,8.32-10.09,9.36,9.36,0,0,1,3.89.46c-.06-1-.14-1.93-.23-2.91-3.89-40.5-36-70.54-71.76-67.11s-61.56,39.05-57.67,79.55,36,70.54,71.76,67.1c29.5-2.83,52.24-27.59,57.09-58.92a9.13,9.13,0,0,1-11.4-8.08Z"/><path class="cls-6" d="M1901.27,90.58c3.43-9.13,15.58-13,27.17-8.66"/><circle cx="1918.78" cy="101.64" r="2.39"/><circle cx="1967.26" cy="88.59" r="2.39"/><path class="cls-6" d="M1940.2,132.61c.52,5.28,13.39,8.32,28.77,6.81"/><circle class="cls-9" cx="1902.85" cy="132.23" r="10.44"/><path class="cls-8" d="M1980.55,105.29a9.25,9.25,0,1,0,3.08,18.17,82.42,82.42,0,0,0,.81-17.71A9.36,9.36,0,0,0,1980.55,105.29Z"/><path class="cls-9" d="M1980.49,104.7a9.24,9.24,0,0,0,1.77,18.4,9.58,9.58,0,0,0,1.32-.23,83.1,83.1,0,0,0,.8-17.71A9.17,9.17,0,0,0,1980.49,104.7Z"/><path class="cls-8" d="M2322.23,114.59a9.23,9.23,0,0,1,12.21-9.62c-.06-1-.14-1.94-.23-2.91-3.89-40.5-36-70.55-71.76-67.11s-61.56,39.05-57.67,79.54,36,70.54,71.76,67.11c29.5-2.84,52.24-27.59,57.09-58.92a9.2,9.2,0,0,1-11.4-8.09Z"/><path class="cls-6" d="M2251.27,89.79c3.43-9.13,15.58-13,27.17-8.65"/><circle cx="2268.78" cy="100.85" r="2.39"/><circle cx="2317.26" cy="87.8" r="2.39"/><path class="cls-6" d="M2290.2,131.83c.52,5.27,13.39,8.32,28.77,6.8"/><circle class="cls-9" cx="2252.85" cy="131.44" r="10.44"/><path class="cls-8" d="M2330.55,104.5a9.25,9.25,0,1,0,3.08,18.18,82.45,82.45,0,0,0,.81-17.71A9.2,9.2,0,0,0,2330.55,104.5Z"/><path class="cls-9" d="M2330.49,103.91a9.25,9.25,0,0,0,1.77,18.41,9.59,9.59,0,0,0,1.32-.24,83,83,0,0,0,.8-17.7A9.18,9.18,0,0,0,2330.49,103.91Z"/><path class="cls-8" d="M2672.38,114.47a9.25,9.25,0,0,1,12.21-9.62c-.06-1-.13-1.94-.23-2.91-3.89-40.5-36-70.54-71.76-67.11s-61.56,39.05-57.67,79.54,36,70.54,71.76,67.11c29.5-2.83,52.24-27.59,57.09-58.92a9.2,9.2,0,0,1-11.4-8.09Z"/><path class="cls-6" d="M2601.42,89.68c3.43-9.14,15.58-13,27.17-8.66"/><circle cx="2618.93" cy="100.73" r="2.39"/><circle cx="2667.41" cy="87.69" r="2.39"/><path class="cls-6" d="M2640.35,131.71c.52,5.28,13.39,8.32,28.77,6.81"/><circle class="cls-9" cx="2603" cy="131.33" r="10.44"/><path class="cls-8" d="M2680.7,104.39a9.24,9.24,0,1,0,3.08,18.17,82.45,82.45,0,0,0,.81-17.71A9.19,9.19,0,0,0,2680.7,104.39Z"/><path class="cls-9" d="M2680.64,103.79a9.25,9.25,0,0,0,1.77,18.41,9.59,9.59,0,0,0,1.32-.24,83,83,0,0,0,.8-17.7A9.18,9.18,0,0,0,2680.64,103.79Z"/><path class="cls-8" d="M3022.38,115.16a9.23,9.23,0,0,1,12.21-9.62c-.06-1-.13-1.94-.23-2.92-3.89-40.49-36-70.54-71.76-67.1s-61.56,39-57.67,79.54,36,70.54,71.76,67.11c29.5-2.84,52.24-27.59,57.09-58.92a9.2,9.2,0,0,1-11.4-8.09Z"/><path class="cls-6" d="M2951.42,90.36c3.43-9.13,15.58-13,27.17-8.65"/><circle cx="2968.93" cy="101.42" r="2.39"/><circle cx="3017.41" cy="88.37" r="2.39"/><path class="cls-6" d="M2990.35,132.4c.52,5.27,13.39,8.32,28.77,6.8"/><circle class="cls-9" cx="2953" cy="132.01" r="10.44"/><path class="cls-8" d="M3030.7,105.07a9.25,9.25,0,1,0,3.08,18.18,82.45,82.45,0,0,0,.81-17.71A9.2,9.2,0,0,0,3030.7,105.07Z"/><path class="cls-9" d="M3030.64,104.48a9.25,9.25,0,0,0,1.77,18.41,9.59,9.59,0,0,0,1.32-.24,83.07,83.07,0,0,0,.8-17.71A9.34,9.34,0,0,0,3030.64,104.48Z"/><path class="cls-8" d="M3372.38,115.59a9.23,9.23,0,0,1,12.21-9.62c-.06-1-.13-1.94-.23-2.91-3.89-40.5-36-70.55-71.76-67.11S3251,75,3254.93,115.49s36,70.54,71.76,67.11c29.5-2.84,52.24-27.59,57.09-58.92a9.2,9.2,0,0,1-11.4-8.09Z"/><path class="cls-6" d="M3301.42,90.79c3.43-9.13,15.58-13,27.17-8.65"/><circle cx="3318.93" cy="101.85" r="2.39"/><circle cx="3367.41" cy="88.8" r="2.39"/><path class="cls-6" d="M3340.35,132.83c.52,5.27,13.39,8.32,28.77,6.8"/><circle class="cls-9" cx="3303" cy="132.44" r="10.44"/><path class="cls-8" d="M3380.7,105.5a9.25,9.25,0,1,0,3.08,18.18,82.45,82.45,0,0,0,.81-17.71A9.2,9.2,0,0,0,3380.7,105.5Z"/><path class="cls-9" d="M3380.64,104.91a9.25,9.25,0,0,0,1.77,18.41,9.59,9.59,0,0,0,1.32-.24,83,83,0,0,0,.8-17.7A9.18,9.18,0,0,0,3380.64,104.91Z"/><path class="cls-8" d="M3722.38,115.59a9.23,9.23,0,0,1,12.21-9.62c-.06-1-.13-1.94-.23-2.91-3.89-40.5-36-70.55-71.76-67.11S3601,75,3604.93,115.49s36,70.54,71.76,67.11c29.5-2.84,52.24-27.59,57.09-58.92a9.2,9.2,0,0,1-11.4-8.09Z"/><path class="cls-6" d="M3651.42,90.79c3.43-9.13,15.58-13,27.17-8.65"/><circle cx="3668.93" cy="101.85" r="2.39"/><circle cx="3717.41" cy="88.8" r="2.39"/><path class="cls-6" d="M3690.35,132.83c.52,5.27,13.39,8.32,28.77,6.8"/><circle class="cls-9" cx="3653" cy="132.44" r="10.44"/><path class="cls-8" d="M3730.7,105.5a9.25,9.25,0,1,0,3.08,18.18,82.45,82.45,0,0,0,.81-17.71A9.2,9.2,0,0,0,3730.7,105.5Z"/><path class="cls-9" d="M3730.64,104.91a9.25,9.25,0,0,0,1.77,18.41,9.59,9.59,0,0,0,1.32-.24,83,83,0,0,0,.8-17.7A9.18,9.18,0,0,0,3730.64,104.91Z"/><path class="cls-8" d="M4072.38,115.59a9.23,9.23,0,0,1,12.21-9.62c-.06-1-.13-1.94-.23-2.91-3.89-40.5-36-70.55-71.76-67.11S3951,75,3954.93,115.49s36,70.54,71.76,67.11c29.5-2.84,52.24-27.59,57.09-58.92a9.2,9.2,0,0,1-11.4-8.09Z"/><path class="cls-6" d="M4001.42,90.79c3.43-9.13,15.58-13,27.17-8.65"/><circle cx="4018.93" cy="101.85" r="2.39"/><circle cx="4067.41" cy="88.8" r="2.39"/><path class="cls-6" d="M4040.35,132.83c.52,5.27,13.39,8.32,28.77,6.8"/><circle class="cls-9" cx="4003" cy="132.44" r="10.44"/><path class="cls-8" d="M4080.7,105.5a9.25,9.25,0,1,0,3.08,18.18,82.45,82.45,0,0,0,.81-17.71A9.2,9.2,0,0,0,4080.7,105.5Z"/><path class="cls-9" d="M4080.64,104.91a9.25,9.25,0,0,0,1.77,18.41,9.59,9.59,0,0,0,1.32-.24,83,83,0,0,0,.8-17.7A9.18,9.18,0,0,0,4080.64,104.91Z"/><path class="cls-8" d="M4422.38,115.19a9.25,9.25,0,0,1,12.21-9.62c-.06-1-.13-1.94-.23-2.91-3.89-40.5-36-70.54-71.76-67.11S4301,74.6,4304.93,115.09s36,70.54,71.76,67.11c29.5-2.83,52.24-27.59,57.09-58.92a9.2,9.2,0,0,1-11.4-8.09Z"/><path class="cls-6" d="M4351.42,90.39c3.43-9.13,15.58-13,27.17-8.65"/><circle cx="4368.93" cy="101.45" r="2.39"/><circle cx="4417.41" cy="88.41" r="2.39"/><path class="cls-6" d="M4390.35,132.43c.52,5.28,13.39,8.32,28.77,6.81"/><circle class="cls-9" cx="4353" cy="132.05" r="10.44"/><path class="cls-8" d="M4430.7,105.11a9.24,9.24,0,1,0,3.08,18.17,82.45,82.45,0,0,0,.81-17.71A9.19,9.19,0,0,0,4430.7,105.11Z"/><path class="cls-9" d="M4430.64,104.51a9.25,9.25,0,0,0,1.77,18.41,9.59,9.59,0,0,0,1.32-.24,83,83,0,0,0,.8-17.7A9.18,9.18,0,0,0,4430.64,104.51Z"/></g><g id="Layer_2" data-name="Layer 2"><path class="cls-3" d="M4423.46,114.68a9.27,9.27,0,0,1,12.26-9.67c-.06-1-.13-2-.22-2.93-3.92-40.71-36.21-70.91-72.14-67.46s-61.88,39.25-58,80,36.21,70.91,72.14,67.45c29.65-2.84,52.51-27.73,57.39-59.22a9.46,9.46,0,0,1-1.33.23A9.29,9.29,0,0,1,4423.46,114.68Z"/><path class="cls-6" d="M4352.13,89.75c3.44-9.18,15.66-13.07,27.31-8.7"/><circle cx="4369.73" cy="100.87" r="2.4"/><circle cx="4418.46" cy="87.75" r="2.4"/><path class="cls-6" d="M4391.25,132c.53,5.3,13.46,8.36,28.93,6.84"/><path class="cls-3" d="M4431.82,104.54a9.29,9.29,0,0,0,1.77,18.5,9.46,9.46,0,0,0,1.33-.23,82.65,82.65,0,0,0,.8-17.8A9.24,9.24,0,0,0,4431.82,104.54Z"/><path class="cls-3" d="M4073.46,114.68a9.27,9.27,0,0,1,12.26-9.67c-.06-1-.13-2-.22-2.93-3.92-40.71-36.21-70.91-72.14-67.46s-61.88,39.25-58,80,36.21,70.91,72.14,67.45c29.65-2.84,52.51-27.73,57.39-59.22a9.46,9.46,0,0,1-1.33.23A9.29,9.29,0,0,1,4073.46,114.68Z"/><path class="cls-6" d="M4002.13,89.75c3.44-9.18,15.66-13.07,27.31-8.7"/><circle cx="4019.73" cy="100.87" r="2.4"/><circle cx="4068.46" cy="87.75" r="2.4"/><path class="cls-6" d="M4041.25,132c.53,5.3,13.46,8.36,28.93,6.84"/><path class="cls-3" d="M4081.82,104.54a9.29,9.29,0,0,0,1.77,18.5,9.46,9.46,0,0,0,1.33-.23,82.65,82.65,0,0,0,.8-17.8A9.24,9.24,0,0,0,4081.82,104.54Z"/><path class="cls-3" d="M2323.46,114.68a9.27,9.27,0,0,1,12.26-9.67c-.06-1-.13-2-.22-2.93-3.92-40.71-36.21-70.91-72.14-67.46s-61.88,39.25-58,80,36.21,70.91,72.14,67.45c29.65-2.84,52.51-27.73,57.39-59.22a9.46,9.46,0,0,1-1.33.23A9.29,9.29,0,0,1,2323.46,114.68Z"/><path class="cls-6" d="M2252.13,89.75c3.44-9.18,15.66-13.07,27.31-8.7"/><circle cx="2269.73" cy="100.87" r="2.4"/><circle cx="2318.46" cy="87.75" r="2.4"/><path class="cls-6" d="M2291.25,132c.53,5.3,13.46,8.36,28.93,6.84"/><path class="cls-3" d="M2331.82,104.54a9.29,9.29,0,0,0,1.77,18.5,9.46,9.46,0,0,0,1.33-.23,82.65,82.65,0,0,0,.8-17.8A9.24,9.24,0,0,0,2331.82,104.54Z"/><path class="cls-3" d="M1973.46,114.68a9.27,9.27,0,0,1,12.26-9.67c-.06-1-.13-2-.22-2.93-3.92-40.71-36.21-70.91-72.14-67.46s-61.88,39.25-58,80,36.21,70.91,72.14,67.45c29.65-2.84,52.51-27.73,57.39-59.22a9.46,9.46,0,0,1-1.33.23A9.29,9.29,0,0,1,1973.46,114.68Z"/><path class="cls-6" d="M1902.13,89.75c3.44-9.18,15.66-13.07,27.31-8.7"/><circle cx="1919.73" cy="100.87" r="2.4"/><circle cx="1968.46" cy="87.75" r="2.4"/><path class="cls-6" d="M1941.25,132c.53,5.3,13.46,8.36,28.93,6.84"/><path class="cls-3" d="M1981.82,104.54a9.29,9.29,0,0,0,1.77,18.5,9.46,9.46,0,0,0,1.33-.23,82.65,82.65,0,0,0,.8-17.8A9.24,9.24,0,0,0,1981.82,104.54Z"/><path class="cls-3" d="M3723.46,114.68a9.27,9.27,0,0,1,12.26-9.67c-.06-1-.13-2-.22-2.93-3.92-40.71-36.21-70.91-72.14-67.46s-61.88,39.25-58,80,36.21,70.91,72.14,67.45c29.65-2.84,52.51-27.73,57.39-59.22a9.46,9.46,0,0,1-1.33.23A9.29,9.29,0,0,1,3723.46,114.68Z"/><path class="cls-6" d="M3652.13,89.75c3.44-9.18,15.66-13.07,27.31-8.7"/><circle cx="3669.73" cy="100.87" r="2.4"/><circle cx="3718.46" cy="87.75" r="2.4"/><path class="cls-6" d="M3691.25,132c.53,5.3,13.46,8.36,28.93,6.84"/><path class="cls-3" d="M3731.82,104.54a9.29,9.29,0,0,0,1.77,18.5,9.46,9.46,0,0,0,1.33-.23,82.65,82.65,0,0,0,.8-17.8A9.24,9.24,0,0,0,3731.82,104.54Z"/><path class="cls-3" d="M3373.46,114.68a9.27,9.27,0,0,1,12.26-9.67c-.06-1-.13-2-.22-2.93-3.92-40.71-36.21-70.91-72.14-67.46s-61.88,39.25-58,80,36.21,70.91,72.14,67.45c29.65-2.84,52.51-27.73,57.39-59.22a9.46,9.46,0,0,1-1.33.23A9.29,9.29,0,0,1,3373.46,114.68Z"/><path class="cls-6" d="M3302.13,89.75c3.44-9.18,15.66-13.07,27.31-8.7"/><circle cx="3319.73" cy="100.87" r="2.4"/><circle cx="3368.46" cy="87.75" r="2.4"/><path class="cls-6" d="M3341.25,132c.53,5.3,13.46,8.36,28.93,6.84"/><path class="cls-3" d="M3381.82,104.54a9.29,9.29,0,0,0,1.77,18.5,9.46,9.46,0,0,0,1.33-.23,82.65,82.65,0,0,0,.8-17.8A9.24,9.24,0,0,0,3381.82,104.54Z"/><path class="cls-3" d="M3023.46,114.68a9.27,9.27,0,0,1,12.26-9.67c-.06-1-.13-2-.22-2.93-3.92-40.71-36.21-70.91-72.14-67.46s-61.88,39.25-58,80,36.21,70.91,72.14,67.45c29.65-2.84,52.51-27.73,57.39-59.22a9.46,9.46,0,0,1-1.33.23A9.29,9.29,0,0,1,3023.46,114.68Z"/><path class="cls-6" d="M2952.13,89.75c3.44-9.18,15.66-13.07,27.31-8.7"/><circle cx="2969.73" cy="100.87" r="2.4"/><circle cx="3018.46" cy="87.75" r="2.4"/><path class="cls-6" d="M2991.25,132c.53,5.3,13.46,8.36,28.93,6.84"/><path class="cls-3" d="M3031.82,104.54a9.29,9.29,0,0,0,1.77,18.5,9.46,9.46,0,0,0,1.33-.23,82.65,82.65,0,0,0,.8-17.8A9.24,9.24,0,0,0,3031.82,104.54Z"/><path class="cls-3" d="M1623.46,114.68a9.27,9.27,0,0,1,12.26-9.67c-.06-1-.13-2-.22-2.93-3.92-40.71-36.21-70.91-72.14-67.46s-61.88,39.25-58,80,36.21,70.91,72.14,67.45c29.65-2.84,52.51-27.73,57.39-59.22a9.46,9.46,0,0,1-1.33.23A9.29,9.29,0,0,1,1623.46,114.68Z"/><path class="cls-6" d="M1552.13,89.75c3.44-9.18,15.66-13.07,27.31-8.7"/><circle cx="1569.73" cy="100.87" r="2.4"/><circle cx="1618.46" cy="87.75" r="2.4"/><path class="cls-6" d="M1591.25,132c.53,5.3,13.46,8.36,28.93,6.84"/><path class="cls-3" d="M1631.82,104.54a9.29,9.29,0,0,0,1.77,18.5,9.46,9.46,0,0,0,1.33-.23,82.65,82.65,0,0,0,.8-17.8A9.24,9.24,0,0,0,1631.82,104.54Z"/><path class="cls-3" d="M1273.46,114.68a9.27,9.27,0,0,1,12.26-9.67c-.06-1-.13-2-.22-2.93-3.92-40.71-36.21-70.91-72.14-67.46s-61.88,39.25-58,80,36.21,70.91,72.14,67.45c29.65-2.84,52.51-27.73,57.39-59.22a9.46,9.46,0,0,1-1.33.23A9.29,9.29,0,0,1,1273.46,114.68Z"/><path class="cls-6" d="M1202.13,89.75c3.44-9.18,15.66-13.07,27.31-8.7"/><circle cx="1219.73" cy="100.87" r="2.4"/><circle cx="1268.46" cy="87.75" r="2.4"/><path class="cls-6" d="M1241.25,132c.53,5.3,13.46,8.36,28.93,6.84"/><path class="cls-3" d="M1281.82,104.54a9.29,9.29,0,0,0,1.77,18.5,9.46,9.46,0,0,0,1.33-.23,82.65,82.65,0,0,0,.8-17.8A9.24,9.24,0,0,0,1281.82,104.54Z"/><path class="cls-3" d="M2673.46,114.68a9.27,9.27,0,0,1,12.26-9.67c-.06-1-.13-2-.22-2.93-3.92-40.71-36.21-70.91-72.14-67.46s-61.88,39.25-58,80,36.21,70.91,72.14,67.45c29.65-2.84,52.51-27.73,57.39-59.22a9.46,9.46,0,0,1-1.33.23A9.29,9.29,0,0,1,2673.46,114.68Z"/><path class="cls-6" d="M2602.13,89.75c3.44-9.18,15.66-13.07,27.31-8.7"/><circle cx="2619.73" cy="100.87" r="2.4"/><circle cx="2668.46" cy="87.75" r="2.4"/><path class="cls-6" d="M2641.25,132c.53,5.3,13.46,8.36,28.93,6.84"/><path class="cls-3" d="M2681.82,104.54a9.29,9.29,0,0,0,1.77,18.5,9.46,9.46,0,0,0,1.33-.23,82.65,82.65,0,0,0,.8-17.8A9.24,9.24,0,0,0,2681.82,104.54Z"/><path class="cls-8" d="M1273,114.19a9.24,9.24,0,0,1,12.2-9.63c-.06-1-.13-1.94-.22-2.91-3.89-40.5-36-70.54-71.76-67.11s-61.56,39.05-57.67,79.55,36,70.54,71.76,67.1c29.5-2.83,52.24-27.59,57.09-58.92a9.2,9.2,0,0,1-11.4-8.08Z"/><path class="cls-6" d="M1202,89.39c3.43-9.14,15.58-13,27.17-8.66"/><circle cx="1219.5" cy="100.45" r="2.39"/><circle cx="1267.98" cy="87.4" r="2.39"/><path class="cls-6" d="M1240.92,131.42c.52,5.28,13.39,8.32,28.77,6.81"/><circle class="cls-9" cx="1203.57" cy="131.04" r="10.44"/><path class="cls-8" d="M1281.27,104.1a9.24,9.24,0,1,0,3.08,18.17,81.79,81.79,0,0,0,.8-17.71A9.29,9.29,0,0,0,1281.27,104.1Z"/><path class="cls-9" d="M1281.21,103.5a9.25,9.25,0,1,0,1.77,18.41,9.58,9.58,0,0,0,1.32-.23,83.1,83.1,0,0,0,.8-17.71A9.18,9.18,0,0,0,1281.21,103.5Z"/><path class="cls-8" d="M1623.1,114.58a9.24,9.24,0,0,1,8.32-10.08,9.13,9.13,0,0,1,3.88.46c0-1-.13-1.94-.22-2.91-3.89-40.5-36-70.54-71.76-67.11s-61.56,39.05-57.67,79.54,36,70.55,71.76,67.11c29.5-2.83,52.24-27.59,57.09-58.92a9.2,9.2,0,0,1-11.4-8.09Z"/><path class="cls-6" d="M1552.14,89.79c3.43-9.14,15.58-13,27.17-8.66"/><circle cx="1569.65" cy="100.84" r="2.39"/><circle cx="1618.13" cy="87.8" r="2.39"/><path class="cls-6" d="M1591.07,131.82c.52,5.28,13.39,8.32,28.77,6.81"/><circle class="cls-9" cx="1553.72" cy="131.44" r="10.44"/><path class="cls-8" d="M1631.42,104.5a9.24,9.24,0,1,0,3.08,18.17,81.82,81.82,0,0,0,.8-17.71A9.13,9.13,0,0,0,1631.42,104.5Z"/><path class="cls-9" d="M1631.36,103.9a9.25,9.25,0,0,0,1.77,18.41,11.37,11.37,0,0,0,1.32-.23,83.1,83.1,0,0,0,.8-17.71A9.18,9.18,0,0,0,1631.36,103.9Z"/><path class="cls-8" d="M1973,115.37a9.25,9.25,0,0,1,8.32-10.09,9.13,9.13,0,0,1,3.88.47c-.06-1-.13-1.94-.22-2.92-3.89-40.49-36-70.54-71.76-67.1s-61.56,39-57.67,79.54,36,70.54,71.76,67.11c29.5-2.84,52.24-27.6,57.09-58.93a9.13,9.13,0,0,1-11.4-8.08Z"/><path class="cls-6" d="M1902,90.57c3.43-9.13,15.58-13,27.17-8.65"/><circle cx="1919.5" cy="101.63" r="2.39"/><circle cx="1967.98" cy="88.58" r="2.39"/><path class="cls-6" d="M1940.92,132.61c.52,5.27,13.39,8.32,28.77,6.8"/><circle class="cls-9" cx="1903.57" cy="132.22" r="10.44"/><path class="cls-8" d="M1981.27,105.28a9.25,9.25,0,1,0,3.08,18.17,81.69,81.69,0,0,0,.8-17.7A9.13,9.13,0,0,0,1981.27,105.28Z"/><path class="cls-9" d="M1981.21,104.69a9.24,9.24,0,1,0,1.77,18.4,9.58,9.58,0,0,0,1.32-.23,83.07,83.07,0,0,0,.8-17.71A9.34,9.34,0,0,0,1981.21,104.69Z"/><path class="cls-8" d="M2323,114.58a9.24,9.24,0,0,1,8.32-10.08,9.13,9.13,0,0,1,3.88.46c-.06-1-.13-1.94-.22-2.91-3.89-40.5-36-70.54-71.76-67.11S2201.61,74,2205.5,114.48s36,70.55,71.76,67.11c29.5-2.83,52.24-27.59,57.09-58.92a9.2,9.2,0,0,1-11.4-8.09Z"/><path class="cls-6" d="M2252,89.79c3.43-9.14,15.58-13,27.17-8.66"/><circle cx="2269.5" cy="100.84" r="2.39"/><circle cx="2317.98" cy="87.8" r="2.39"/><path class="cls-6" d="M2290.92,131.82c.52,5.28,13.39,8.32,28.77,6.81"/><circle class="cls-9" cx="2253.57" cy="131.44" r="10.44"/><path class="cls-8" d="M2331.27,104.5a9.24,9.24,0,1,0,3.08,18.17,81.82,81.82,0,0,0,.8-17.71A9.13,9.13,0,0,0,2331.27,104.5Z"/><path class="cls-9" d="M2331.21,103.9a9.25,9.25,0,0,0,1.77,18.41,11.37,11.37,0,0,0,1.32-.23,83.1,83.1,0,0,0,.8-17.71A9.18,9.18,0,0,0,2331.21,103.9Z"/><path class="cls-8" d="M2673.1,114.47a9.24,9.24,0,0,1,12.2-9.63c-.05-1-.13-1.94-.22-2.91-3.89-40.5-36-70.54-71.76-67.11s-61.56,39.05-57.67,79.55,36,70.54,71.76,67.1c29.5-2.83,52.24-27.59,57.09-58.92a8,8,0,0,1-1.31.23A9.24,9.24,0,0,1,2673.1,114.47Z"/><path class="cls-6" d="M2602.14,89.67c3.43-9.14,15.58-13,27.17-8.66"/><circle cx="2619.65" cy="100.73" r="2.39"/><circle cx="2668.13" cy="87.68" r="2.39"/><path class="cls-6" d="M2641.07,131.7c.52,5.28,13.39,8.32,28.77,6.81"/><circle class="cls-9" cx="2603.72" cy="131.32" r="10.44"/><path class="cls-8" d="M2681.42,104.38a9.24,9.24,0,1,0,1.77,18.4,8,8,0,0,0,1.31-.23,81.79,81.79,0,0,0,.8-17.71A9.29,9.29,0,0,0,2681.42,104.38Z"/><path class="cls-9" d="M2681.36,103.78a9.25,9.25,0,0,0,1.77,18.41,9.58,9.58,0,0,0,1.32-.23,83.1,83.1,0,0,0,.8-17.71A9.18,9.18,0,0,0,2681.36,103.78Z"/><path class="cls-8" d="M3023.1,115.15a9.24,9.24,0,0,1,8.32-10.08,9.13,9.13,0,0,1,3.88.46c-.05-1-.13-1.94-.22-2.91-3.89-40.5-36-70.54-71.76-67.11s-61.56,39.05-57.67,79.54,36,70.54,71.76,67.11c29.5-2.83,52.24-27.59,57.09-58.92a9.2,9.2,0,0,1-11.4-8.09Z"/><path class="cls-6" d="M2952.14,90.35c3.43-9.13,15.58-13,27.17-8.65"/><circle cx="2969.65" cy="101.41" r="2.39"/><circle cx="3018.13" cy="88.37" r="2.39"/><path class="cls-6" d="M2991.07,132.39c.52,5.28,13.39,8.32,28.77,6.81"/><circle class="cls-9" cx="2953.72" cy="132.01" r="10.44"/><path class="cls-8" d="M3031.42,105.07a9.24,9.24,0,1,0,3.08,18.17,81.82,81.82,0,0,0,.8-17.71A9.13,9.13,0,0,0,3031.42,105.07Z"/><path class="cls-9" d="M3031.36,104.47a9.25,9.25,0,0,0,1.77,18.41,9.59,9.59,0,0,0,1.32-.24,83,83,0,0,0,.8-17.7A9.18,9.18,0,0,0,3031.36,104.47Z"/><path class="cls-8" d="M3373.1,115.58a9.24,9.24,0,0,1,8.32-10.08,9.13,9.13,0,0,1,3.88.46c-.05-1-.13-1.94-.22-2.91-3.89-40.5-36-70.54-71.76-67.11s-61.56,39.05-57.67,79.54,36,70.55,71.76,67.11c29.5-2.83,52.24-27.59,57.09-58.92a9.2,9.2,0,0,1-11.4-8.09Z"/><path class="cls-6" d="M3302.14,90.79c3.43-9.14,15.58-13,27.17-8.66"/><circle cx="3319.65" cy="101.84" r="2.39"/><circle cx="3368.13" cy="88.8" r="2.39"/><path class="cls-6" d="M3341.07,132.82c.52,5.28,13.39,8.32,28.77,6.81"/><circle class="cls-9" cx="3303.72" cy="132.44" r="10.44"/><path class="cls-8" d="M3381.42,105.5a9.24,9.24,0,1,0,3.08,18.17,81.82,81.82,0,0,0,.8-17.71A9.13,9.13,0,0,0,3381.42,105.5Z"/><path class="cls-9" d="M3381.36,104.9a9.25,9.25,0,0,0,1.77,18.41,11.37,11.37,0,0,0,1.32-.23,83.1,83.1,0,0,0,.8-17.71A9.18,9.18,0,0,0,3381.36,104.9Z"/><path class="cls-8" d="M3723.1,115.58a9.24,9.24,0,0,1,8.32-10.08,9.13,9.13,0,0,1,3.88.46c-.05-1-.13-1.94-.22-2.91-3.89-40.5-36-70.54-71.76-67.11s-61.56,39.05-57.67,79.54,36,70.55,71.76,67.11c29.5-2.83,52.24-27.59,57.09-58.92a9.2,9.2,0,0,1-11.4-8.09Z"/><path class="cls-6" d="M3652.14,90.79c3.43-9.14,15.58-13,27.17-8.66"/><circle cx="3669.65" cy="101.84" r="2.39"/><circle cx="3718.13" cy="88.8" r="2.39"/><path class="cls-6" d="M3691.07,132.82c.52,5.28,13.39,8.32,28.77,6.81"/><circle class="cls-9" cx="3653.72" cy="132.44" r="10.44"/><path class="cls-8" d="M3731.42,105.5a9.24,9.24,0,1,0,3.08,18.17,81.82,81.82,0,0,0,.8-17.71A9.13,9.13,0,0,0,3731.42,105.5Z"/><path class="cls-9" d="M3731.36,104.9a9.25,9.25,0,0,0,1.77,18.41,11.37,11.37,0,0,0,1.32-.23,83.1,83.1,0,0,0,.8-17.71A9.18,9.18,0,0,0,3731.36,104.9Z"/><path class="cls-8" d="M4073.1,115.58a9.24,9.24,0,0,1,8.32-10.08,9.13,9.13,0,0,1,3.88.46c-.05-1-.13-1.94-.22-2.91-3.89-40.5-36-70.54-71.76-67.11s-61.56,39.05-57.67,79.54,36,70.55,71.76,67.11c29.5-2.83,52.24-27.59,57.09-58.92a9.2,9.2,0,0,1-11.4-8.09Z"/><path class="cls-6" d="M4002.14,90.79c3.43-9.14,15.58-13,27.17-8.66"/><circle cx="4019.65" cy="101.84" r="2.39"/><circle cx="4068.13" cy="88.8" r="2.39"/><path class="cls-6" d="M4041.07,132.82c.52,5.28,13.39,8.32,28.77,6.81"/><circle class="cls-9" cx="4003.72" cy="132.44" r="10.44"/><path class="cls-8" d="M4081.42,105.5a9.24,9.24,0,1,0,3.08,18.17,81.82,81.82,0,0,0,.8-17.71A9.13,9.13,0,0,0,4081.42,105.5Z"/><path class="cls-9" d="M4081.36,104.9a9.25,9.25,0,0,0,1.77,18.41,11.37,11.37,0,0,0,1.32-.23,83.1,83.1,0,0,0,.8-17.71A9.18,9.18,0,0,0,4081.36,104.9Z"/><path class="cls-8" d="M4423.1,115.19a9.24,9.24,0,0,1,12.2-9.63c-.05-1-.13-1.94-.22-2.91-3.89-40.5-36-70.54-71.76-67.11s-61.56,39.05-57.67,79.55,36,70.54,71.76,67.1c29.5-2.83,52.24-27.59,57.09-58.92a9.2,9.2,0,0,1-11.4-8.08Z"/><path class="cls-6" d="M4352.14,90.39c3.43-9.14,15.58-13,27.17-8.66"/><circle cx="4369.65" cy="101.45" r="2.39"/><circle cx="4418.13" cy="88.4" r="2.39"/><path class="cls-6" d="M4391.07,132.42c.52,5.28,13.39,8.32,28.77,6.81"/><circle class="cls-9" cx="4353.72" cy="132.04" r="10.44"/><path class="cls-8" d="M4431.42,105.1a9.24,9.24,0,1,0,3.08,18.17,81.79,81.79,0,0,0,.8-17.71A9.29,9.29,0,0,0,4431.42,105.1Z"/><path class="cls-9" d="M4431.36,104.5a9.25,9.25,0,0,0,1.77,18.41,9.58,9.58,0,0,0,1.32-.23,83.1,83.1,0,0,0,.8-17.71A9.18,9.18,0,0,0,4431.36,104.5Z"/><path class="cls-8" d="M1274.28,115.68a9.3,9.3,0,0,1,8.37-10.15,9.11,9.11,0,0,1,3.91.46c-.06-1-.13-1.95-.22-2.93-3.92-40.75-36.25-71-72.22-67.53s-61.94,39.29-58,80.05,36.25,71,72.21,67.52c29.69-2.85,52.57-27.76,57.46-59.29a9.47,9.47,0,0,1-1.33.24A9.31,9.31,0,0,1,1274.28,115.68Z"/><path class="cls-6" d="M1202.88,90.72c3.45-9.19,15.67-13.08,27.34-8.71"/><path class="cls-6" d="M1251.18,76.25c3.34-8.91,15.2-12.69,26.51-8.45"/><circle cx="1220.5" cy="101.85" r="2.4"/><circle cx="1269.28" cy="88.72" r="2.4"/><path class="cls-6" d="M1270.85,132.44c-3-4.4-15.84-.81-28.65,8"/><circle class="cls-9" cx="1204.46" cy="132.64" r="10.5"/><path class="cls-8" d="M1282.65,105.53a9.3,9.3,0,1,0,1.78,18.52,9.47,9.47,0,0,0,1.33-.24,82.81,82.81,0,0,0,.8-17.82A9.11,9.11,0,0,0,1282.65,105.53Z"/><path class="cls-9" d="M1282.6,104.93a9.3,9.3,0,1,0,1.78,18.52,8.3,8.3,0,0,0,1.32-.24,83.38,83.38,0,0,0,.81-17.81A9.29,9.29,0,0,0,1282.6,104.93Z"/><path class="cls-10" d="M1226,46.21c-.69-14.58-8.22-26-16.83-25.64"/><path class="cls-10" d="M1218.5,48.93c-1-16.55-11.19-29.38-22.78-28.68"/><path class="cls-10" d="M1212.65,51.68c-4.18-17.52-14.8-30-23.75-27.82"/><path class="cls-10" d="M1233,47.82c2.8-14.67-1.8-27.84-10.27-29.46"/><path class="cls-10" d="M1241.29,46.83c2.89-9.8.55-19.12-5.24-20.83"/><path class="cls-10" d="M1204.87,51c-1.09-10.16-6.82-17.86-12.83-17.22"/><path class="cls-10" d="M1199.16,54.31c-3-14.29-12.28-24.41-20.72-22.62"/><path class="cls-8" d="M1623.43,114.05a9.29,9.29,0,0,1,12.28-9.68c-.06-1-.13-2-.22-2.93-3.92-40.76-36.25-71-72.22-67.53s-61.94,39.29-58,80,36.25,71,72.21,67.53c29.69-2.85,52.57-27.77,57.46-59.29a9.46,9.46,0,0,1-1.33.23A9.31,9.31,0,0,1,1623.43,114.05Z"/><path class="cls-6" d="M1552,89.1c3.45-9.19,15.67-13.09,27.34-8.71"/><path class="cls-6" d="M1600.33,74.62c3.34-8.91,15.2-12.69,26.51-8.44"/><circle cx="1569.65" cy="100.22" r="2.4"/><circle cx="1618.43" cy="87.1" r="2.4"/><path class="cls-6" d="M1620,130.81c-3-4.39-15.84-.81-28.65,8"/><circle class="cls-9" cx="1553.61" cy="131.01" r="10.5"/><path class="cls-8" d="M1631.8,103.9a9.3,9.3,0,1,0,1.78,18.52,9.46,9.46,0,0,0,1.33-.23,82.84,82.84,0,0,0,.8-17.82A9.27,9.27,0,0,0,1631.8,103.9Z"/><path class="cls-9" d="M1631.75,103.3a9.3,9.3,0,1,0,1.78,18.52,9.58,9.58,0,0,0,1.32-.23,83.44,83.44,0,0,0,.81-17.82A9.29,9.29,0,0,0,1631.75,103.3Z"/><path class="cls-10" d="M1575.18,44.59c-.69-14.58-8.22-26.05-16.83-25.65"/><path class="cls-10" d="M1567.65,47.31c-1-16.56-11.19-29.39-22.78-28.69"/><path class="cls-10" d="M1561.8,50.05c-4.18-17.51-14.8-29.95-23.75-27.82"/><path class="cls-10" d="M1582.1,46.19c2.8-14.66-1.8-27.84-10.27-29.45"/><path class="cls-10" d="M1590.44,45.2c2.89-9.8.55-19.11-5.24-20.82"/><path class="cls-10" d="M1554,49.4c-1.09-10.16-6.82-17.86-12.82-17.22"/><path class="cls-10" d="M1548.31,52.68c-3-14.28-12.28-24.4-20.72-22.62"/><path class="cls-8" d="M1973.43,115.65a9.29,9.29,0,0,1,12.28-9.68c-.06-1-.13-2-.22-2.93-3.92-40.76-36.25-71-72.22-67.53s-61.94,39.29-58,80,36.25,71,72.21,67.53c29.69-2.85,52.57-27.77,57.46-59.29a9.46,9.46,0,0,1-1.33.23A9.31,9.31,0,0,1,1973.43,115.65Z"/><path class="cls-6" d="M1902,90.7c3.45-9.19,15.67-13.09,27.34-8.71"/><path class="cls-6" d="M1950.33,76.22c3.34-8.91,15.2-12.69,26.51-8.44"/><circle cx="1919.65" cy="101.82" r="2.4"/><circle cx="1968.43" cy="88.7" r="2.4"/><path class="cls-6" d="M1970,132.41c-3-4.39-15.84-.81-28.65,8"/><circle class="cls-9" cx="1903.61" cy="132.61" r="10.5"/><path class="cls-8" d="M1981.8,105.5a9.3,9.3,0,1,0,1.78,18.52,9.46,9.46,0,0,0,1.33-.23,82.81,82.81,0,0,0,.8-17.82A9.27,9.27,0,0,0,1981.8,105.5Z"/><path class="cls-9" d="M1981.75,104.9a9.3,9.3,0,1,0,1.78,18.52,9.58,9.58,0,0,0,1.32-.23,83.44,83.44,0,0,0,.81-17.82A9.29,9.29,0,0,0,1981.75,104.9Z"/><path class="cls-10" d="M1925.18,46.19c-.69-14.58-8.22-26-16.83-25.65"/><path class="cls-10" d="M1917.65,48.91c-1-16.56-11.19-29.39-22.78-28.69"/><path class="cls-10" d="M1911.8,51.65c-4.18-17.51-14.8-29.95-23.75-27.82"/><path class="cls-10" d="M1932.1,47.79c2.8-14.66-1.8-27.84-10.27-29.45"/><path class="cls-10" d="M1940.44,46.8c2.89-9.8.55-19.11-5.24-20.82"/><path class="cls-10" d="M1904,51c-1.09-10.16-6.82-17.86-12.82-17.22"/><path class="cls-10" d="M1898.31,54.28c-3-14.28-12.28-24.4-20.72-22.62"/><path class="cls-8" d="M2323.2,115.53a9.29,9.29,0,0,1,12.28-9.68c-.06-1-.13-1.95-.22-2.93-3.92-40.75-36.25-71-72.22-67.53s-61.94,39.29-58,80,36.25,71,72.21,67.53c29.69-2.85,52.57-27.76,57.46-59.29a9.46,9.46,0,0,1-1.33.23A9.3,9.3,0,0,1,2323.2,115.53Z"/><path class="cls-6" d="M2251.8,90.58c3.45-9.19,15.67-13.09,27.34-8.71"/><path class="cls-6" d="M2300.1,76.11c3.34-8.92,15.2-12.69,26.52-8.45"/><circle cx="2269.42" cy="101.71" r="2.4"/><circle cx="2318.2" cy="88.58" r="2.4"/><path class="cls-6" d="M2319.77,132.29c-3-4.39-15.84-.8-28.65,8"/><circle class="cls-9" cx="2253.38" cy="132.49" r="10.5"/><path class="cls-8" d="M2331.58,105.38a9.3,9.3,0,1,0,1.77,18.52,9.46,9.46,0,0,0,1.33-.23,82.81,82.81,0,0,0,.8-17.82A9.24,9.24,0,0,0,2331.58,105.38Z"/><path class="cls-9" d="M2331.52,104.78a9.31,9.31,0,0,0,1.78,18.53,9.59,9.59,0,0,0,1.32-.24,83.44,83.44,0,0,0,.81-17.82A9.29,9.29,0,0,0,2331.52,104.78Z"/><path class="cls-10" d="M2275,46.07c-.69-14.58-8.22-26-16.83-25.64"/><path class="cls-10" d="M2267.42,48.79c-1-16.56-11.19-29.39-22.78-28.68"/><path class="cls-10" d="M2261.57,51.53c-4.18-17.51-14.8-29.95-23.74-27.82"/><path class="cls-10" d="M2281.87,47.67c2.8-14.66-1.8-27.83-10.27-29.45"/><path class="cls-10" d="M2290.21,46.68c2.89-9.8.55-19.11-5.24-20.82"/><path class="cls-10" d="M2253.79,50.89C2252.7,40.73,2247,33,2241,33.66"/><path class="cls-10" d="M2248.08,54.16c-3-14.28-12.28-24.4-20.72-22.62"/><path class="cls-8" d="M2673.35,115.53a9.29,9.29,0,0,1,12.28-9.68c-.06-1-.13-1.95-.22-2.93-3.92-40.75-36.25-71-72.21-67.53s-61.95,39.29-58,80,36.25,71,72.21,67.53c29.69-2.85,52.57-27.76,57.46-59.29a9.46,9.46,0,0,1-1.33.23A9.3,9.3,0,0,1,2673.35,115.53Z"/><path class="cls-6" d="M2602,90.58c3.45-9.19,15.68-13.09,27.34-8.71"/><path class="cls-6" d="M2650.25,76.11c3.34-8.92,15.2-12.69,26.52-8.45"/><circle cx="2619.57" cy="101.71" r="2.4"/><circle cx="2668.35" cy="88.58" r="2.4"/><path class="cls-6" d="M2669.92,132.29c-3-4.39-15.84-.8-28.65,8"/><circle class="cls-9" cx="2603.53" cy="132.49" r="10.5"/><path class="cls-8" d="M2681.73,105.38a9.3,9.3,0,1,0,1.77,18.52,9.46,9.46,0,0,0,1.33-.23,82.81,82.81,0,0,0,.8-17.82A9.24,9.24,0,0,0,2681.73,105.38Z"/><path class="cls-9" d="M2681.67,104.78a9.31,9.31,0,0,0,1.78,18.53,9.59,9.59,0,0,0,1.32-.24,83.44,83.44,0,0,0,.81-17.82A9.29,9.29,0,0,0,2681.67,104.78Z"/><path class="cls-10" d="M2625.1,46.07c-.69-14.58-8.22-26-16.83-25.64"/><path class="cls-10" d="M2617.57,48.79c-1-16.56-11.19-29.39-22.78-28.68"/><path class="cls-10" d="M2611.72,51.53c-4.18-17.51-14.8-29.95-23.74-27.82"/><path class="cls-10" d="M2632,47.67c2.8-14.66-1.8-27.83-10.27-29.45"/><path class="cls-10" d="M2640.36,46.68c2.9-9.8.55-19.11-5.24-20.82"/><path class="cls-10" d="M2603.94,50.89c-1.09-10.16-6.82-17.87-12.82-17.23"/><path class="cls-10" d="M2598.23,54.16c-3-14.28-12.28-24.4-20.72-22.62"/><path class="cls-8" d="M3023.43,115.37a9.3,9.3,0,0,1,12.28-9.69c-.06-1-.13-2-.22-2.93-3.92-40.75-36.25-71-72.22-67.53s-61.94,39.3-58,80.05,36.25,71,72.21,67.53c29.69-2.86,52.57-27.77,57.46-59.3a9.47,9.47,0,0,1-1.33.24A9.31,9.31,0,0,1,3023.43,115.37Z"/><path class="cls-6" d="M2952,90.41c3.45-9.19,15.67-13.08,27.34-8.71"/><path class="cls-6" d="M3000.33,75.94c3.34-8.91,15.2-12.69,26.51-8.45"/><circle cx="2969.65" cy="101.54" r="2.4"/><circle cx="3018.43" cy="88.41" r="2.4"/><path class="cls-6" d="M3020,132.13c-3-4.39-15.84-.81-28.65,8"/><circle class="cls-9" cx="2953.61" cy="132.33" r="10.5"/><path class="cls-8" d="M3031.8,105.22a9.3,9.3,0,1,0,1.78,18.52,9.47,9.47,0,0,0,1.33-.24,82.81,82.81,0,0,0,.8-17.82A9.27,9.27,0,0,0,3031.8,105.22Z"/><path class="cls-9" d="M3031.75,104.62a9.3,9.3,0,1,0,1.78,18.52,9.58,9.58,0,0,0,1.32-.23,83.51,83.51,0,0,0,.81-17.82A9.29,9.29,0,0,0,3031.75,104.62Z"/><path class="cls-10" d="M2975.18,45.9c-.69-14.58-8.22-26-16.83-25.64"/><path class="cls-10" d="M2967.65,48.63c-1-16.56-11.19-29.39-22.78-28.69"/><path class="cls-10" d="M2961.8,51.37c-4.18-17.52-14.8-30-23.75-27.82"/><path class="cls-10" d="M2982.1,47.51c2.8-14.67-1.8-27.84-10.27-29.45"/><path class="cls-10" d="M2990.44,46.52c2.89-9.8.55-19.12-5.24-20.83"/><path class="cls-10" d="M2954,50.72c-1.09-10.16-6.82-17.86-12.82-17.22"/><path class="cls-10" d="M2948.31,54c-3-14.29-12.28-24.4-20.72-22.62"/><path class="cls-8" d="M3374.28,115.68a9.3,9.3,0,0,1,8.37-10.15,9.11,9.11,0,0,1,3.91.46c-.06-1-.13-1.95-.22-2.93-3.92-40.75-36.25-71-72.22-67.53s-61.94,39.29-58,80.05,36.25,71,72.21,67.52c29.69-2.85,52.57-27.76,57.46-59.29a9.47,9.47,0,0,1-1.33.24A9.31,9.31,0,0,1,3374.28,115.68Z"/><path class="cls-6" d="M3302.88,90.72c3.45-9.19,15.67-13.08,27.34-8.71"/><path class="cls-6" d="M3351.18,76.25c3.34-8.91,15.2-12.69,26.51-8.45"/><circle cx="3320.5" cy="101.85" r="2.4"/><circle cx="3369.28" cy="88.72" r="2.4"/><path class="cls-6" d="M3370.85,132.44c-3-4.4-15.84-.81-28.65,8"/><circle class="cls-9" cx="3304.46" cy="132.64" r="10.5"/><path class="cls-8" d="M3382.65,105.53a9.3,9.3,0,0,0,1.78,18.52,9.47,9.47,0,0,0,1.33-.24,82.81,82.81,0,0,0,.8-17.82A9.11,9.11,0,0,0,3382.65,105.53Z"/><path class="cls-9" d="M3382.6,104.93a9.3,9.3,0,0,0,1.78,18.52,8.3,8.3,0,0,0,1.32-.24,83.38,83.38,0,0,0,.81-17.81A9.29,9.29,0,0,0,3382.6,104.93Z"/><path class="cls-10" d="M3326,46.21c-.69-14.58-8.22-26-16.83-25.64"/><path class="cls-10" d="M3318.5,48.93c-1-16.55-11.19-29.38-22.78-28.68"/><path class="cls-10" d="M3312.65,51.68c-4.18-17.52-14.8-30-23.75-27.82"/><path class="cls-10" d="M3333,47.82c2.8-14.67-1.8-27.84-10.27-29.46"/><path class="cls-10" d="M3341.29,46.83c2.89-9.8.55-19.12-5.24-20.83"/><path class="cls-10" d="M3304.87,51c-1.09-10.16-6.82-17.86-12.83-17.22"/><path class="cls-10" d="M3299.16,54.31c-3-14.29-12.28-24.41-20.72-22.62"/><path class="cls-8" d="M3723.35,115.68a9.3,9.3,0,0,1,8.38-10.15,9.08,9.08,0,0,1,3.9.46c-.06-1-.13-1.95-.22-2.93-3.92-40.75-36.25-71-72.21-67.53s-61.95,39.29-58,80.05,36.25,71,72.21,67.52c29.69-2.85,52.57-27.76,57.46-59.29a9.47,9.47,0,0,1-1.33.24A9.31,9.31,0,0,1,3723.35,115.68Z"/><path class="cls-6" d="M3652,90.72c3.45-9.19,15.68-13.08,27.34-8.71"/><path class="cls-6" d="M3700.25,76.25c3.34-8.91,15.2-12.69,26.52-8.45"/><circle cx="3669.57" cy="101.85" r="2.4"/><circle cx="3718.35" cy="88.72" r="2.4"/><path class="cls-6" d="M3719.92,132.44c-3-4.4-15.84-.81-28.65,8"/><circle class="cls-9" cx="3653.53" cy="132.64" r="10.5"/><path class="cls-8" d="M3731.73,105.53a9.3,9.3,0,1,0,1.77,18.52,9.47,9.47,0,0,0,1.33-.24,82.81,82.81,0,0,0,.8-17.82A9.08,9.08,0,0,0,3731.73,105.53Z"/><path class="cls-9" d="M3731.67,104.93a9.3,9.3,0,0,0,1.78,18.52,8.3,8.3,0,0,0,1.32-.24,83.38,83.38,0,0,0,.81-17.81A9.29,9.29,0,0,0,3731.67,104.93Z"/><path class="cls-10" d="M3675.1,46.21c-.69-14.58-8.22-26-16.83-25.64"/><path class="cls-10" d="M3667.57,48.93c-1-16.55-11.19-29.38-22.78-28.68"/><path class="cls-10" d="M3661.72,51.68c-4.18-17.52-14.8-30-23.74-27.82"/><path class="cls-10" d="M3682,47.82c2.8-14.67-1.8-27.84-10.27-29.46"/><path class="cls-10" d="M3690.36,46.83c2.9-9.8.55-19.12-5.24-20.83"/><path class="cls-10" d="M3653.94,51c-1.09-10.16-6.82-17.86-12.82-17.22"/><path class="cls-10" d="M3648.23,54.31c-3-14.29-12.28-24.41-20.72-22.62"/><path class="cls-8" d="M4074.28,114.83a9.29,9.29,0,0,1,12.28-9.68c-.06-1-.13-2-.22-2.93-3.92-40.75-36.25-71-72.22-67.53s-61.94,39.29-58,80,36.25,71,72.21,67.53c29.69-2.85,52.57-27.76,57.46-59.29a9.46,9.46,0,0,1-1.33.23A9.31,9.31,0,0,1,4074.28,114.83Z"/><path class="cls-6" d="M4002.88,89.88c3.45-9.19,15.67-13.09,27.34-8.71"/><path class="cls-6" d="M4051.18,75.41c3.34-8.92,15.2-12.69,26.51-8.45"/><circle cx="4020.5" cy="101.01" r="2.4"/><circle cx="4069.28" cy="87.88" r="2.4"/><path class="cls-6" d="M4070.85,131.59c-3-4.39-15.84-.8-28.65,8"/><circle class="cls-9" cx="4004.46" cy="131.79" r="10.5"/><path class="cls-8" d="M4082.65,104.68a9.3,9.3,0,0,0,1.78,18.52,9.46,9.46,0,0,0,1.33-.23,82.81,82.81,0,0,0,.8-17.82A9.27,9.27,0,0,0,4082.65,104.68Z"/><path class="cls-9" d="M4082.6,104.08a9.31,9.31,0,0,0,1.78,18.53,9.59,9.59,0,0,0,1.32-.24,83.44,83.44,0,0,0,.81-17.82A9.29,9.29,0,0,0,4082.6,104.08Z"/><path class="cls-10" d="M4026,45.37c-.69-14.58-8.22-26-16.83-25.64"/><path class="cls-10" d="M4018.5,48.09c-1-16.56-11.19-29.39-22.78-28.68"/><path class="cls-10" d="M4012.65,50.83c-4.18-17.51-14.8-29.95-23.75-27.82"/><path class="cls-10" d="M4033,47c2.8-14.66-1.8-27.83-10.27-29.45"/><path class="cls-10" d="M4041.29,46c2.89-9.8.55-19.11-5.24-20.82"/><path class="cls-10" d="M4004.87,50.19C4003.78,40,3998.05,32.32,3992,33"/><path class="cls-10" d="M3999.16,53.46c-3-14.28-12.28-24.4-20.72-22.62"/><path class="cls-8" d="M4423.47,115.09a9.29,9.29,0,0,1,12.28-9.69c-.06-1-.13-2-.22-2.93-3.92-40.75-36.25-71-72.22-67.53s-62,39.29-58,80.05,36.25,71,72.21,67.52c29.69-2.85,52.57-27.76,57.46-59.29a9.47,9.47,0,0,1-1.33.24A9.31,9.31,0,0,1,4423.47,115.09Z"/><path class="cls-6" d="M4352.07,90.13c3.44-9.19,15.67-13.08,27.34-8.71"/><path class="cls-6" d="M4400.37,75.66c3.34-8.91,15.2-12.69,26.51-8.45"/><circle cx="4369.69" cy="101.26" r="2.4"/><circle cx="4418.47" cy="88.13" r="2.4"/><path class="cls-6" d="M4420,131.85c-3-4.4-15.84-.81-28.65,8"/><circle class="cls-9" cx="4353.65" cy="132.04" r="10.5"/><path class="cls-8" d="M4431.84,104.93a9.31,9.31,0,0,0,1.78,18.53,9.47,9.47,0,0,0,1.33-.24,82.81,82.81,0,0,0,.8-17.82A9.27,9.27,0,0,0,4431.84,104.93Z"/><path class="cls-9" d="M4431.79,104.34a9.3,9.3,0,0,0,1.78,18.52,8.3,8.3,0,0,0,1.32-.24,83.38,83.38,0,0,0,.81-17.81A9.29,9.29,0,0,0,4431.79,104.34Z"/><path class="cls-10" d="M4375.22,45.62c-.69-14.58-8.22-26-16.83-25.64"/><path class="cls-10" d="M4367.69,48.34c-1-16.55-11.19-29.38-22.78-28.68"/><path class="cls-10" d="M4361.84,51.09c-4.18-17.52-14.8-30-23.75-27.82"/><path class="cls-10" d="M4382.14,47.23c2.8-14.67-1.8-27.84-10.27-29.46"/><path class="cls-10" d="M4390.48,46.24c2.89-9.8.55-19.12-5.24-20.83"/><path class="cls-10" d="M4354.06,50.44c-1.09-10.16-6.82-17.87-12.83-17.23"/><path class="cls-10" d="M4348.35,53.71c-3-14.28-12.28-24.4-20.72-22.62"/><path class="cls-3" d="M573.46,114.68A9.27,9.27,0,0,1,585.72,105c-.06-1-.13-2-.22-2.93-3.92-40.71-36.21-70.91-72.14-67.46s-61.88,39.25-58,80S491.6,185.49,527.53,182c29.65-2.84,52.51-27.73,57.39-59.22a9.46,9.46,0,0,1-1.33.23A9.29,9.29,0,0,1,573.46,114.68Z"/><path class="cls-6" d="M502.13,89.75c3.44-9.18,15.66-13.07,27.31-8.7"/><circle cx="519.73" cy="100.87" r="2.4"/><circle cx="568.46" cy="87.75" r="2.4"/><path class="cls-6" d="M541.25,132c.53,5.3,13.46,8.36,28.93,6.84"/><path class="cls-3" d="M581.82,104.54a9.29,9.29,0,0,0,1.77,18.5,9.46,9.46,0,0,0,1.33-.23,82.65,82.65,0,0,0,.8-17.8A9.24,9.24,0,0,0,581.82,104.54Z"/><path class="cls-8" d="M573.1,114.71a9.24,9.24,0,0,1,12.2-9.63c0-1-.13-1.94-.22-2.91-3.89-40.5-36-70.54-71.76-67.11s-61.56,39.05-57.67,79.55,36,70.54,71.76,67.1c29.5-2.83,52.24-27.59,57.09-58.92a8,8,0,0,1-1.31.23A9.24,9.24,0,0,1,573.1,114.71Z"/><path class="cls-6" d="M502.14,89.91c3.43-9.13,15.58-13,27.17-8.66"/><circle cx="519.65" cy="100.97" r="2.39"/><circle cx="568.13" cy="87.92" r="2.39"/><path class="cls-6" d="M541.07,131.94c.52,5.28,13.39,8.32,28.77,6.81"/><circle class="cls-9" cx="503.72" cy="131.56" r="10.44"/><path class="cls-8" d="M581.42,104.62a9.24,9.24,0,1,0,1.77,18.4,8,8,0,0,0,1.31-.23,81.79,81.79,0,0,0,.8-17.71A9.29,9.29,0,0,0,581.42,104.62Z"/><path class="cls-9" d="M581.36,104a9.24,9.24,0,0,0,1.77,18.4,9.58,9.58,0,0,0,1.32-.23,83.1,83.1,0,0,0,.8-17.71A9,9,0,0,0,581.36,104Z"/><path class="cls-8" d="M574.28,113.39a9.3,9.3,0,0,1,12.28-9.69c-.06-1-.13-2-.22-2.93-3.92-40.75-36.25-71-72.22-67.53s-61.94,39.3-58,80.05,36.25,71,72.21,67.53c29.69-2.86,52.57-27.77,57.46-59.3a9.47,9.47,0,0,1-1.33.24A9.31,9.31,0,0,1,574.28,113.39Z"/><path class="cls-6" d="M502.88,88.43c3.45-9.19,15.67-13.08,27.34-8.71"/><path class="cls-6" d="M551.18,74c3.34-8.91,15.2-12.69,26.51-8.45"/><circle cx="520.5" cy="99.56" r="2.4"/><circle cx="569.28" cy="86.43" r="2.4"/><path class="cls-6" d="M570.85,130.15c-3-4.39-15.84-.81-28.65,8"/><circle class="cls-9" cx="504.46" cy="130.35" r="10.5"/><path class="cls-8" d="M582.65,103.24a9.3,9.3,0,0,0,1.78,18.52,9.47,9.47,0,0,0,1.33-.24,82.81,82.81,0,0,0,.8-17.82A9.27,9.27,0,0,0,582.65,103.24Z"/><path class="cls-9" d="M582.6,102.64a9.3,9.3,0,0,0,1.78,18.52,9.58,9.58,0,0,0,1.32-.23,83.51,83.51,0,0,0,.81-17.82A9.29,9.29,0,0,0,582.6,102.64Z"/><path class="cls-10" d="M526,43.92c-.69-14.58-8.22-26-16.83-25.64"/><path class="cls-10" d="M518.5,46.65c-1-16.56-11.19-29.39-22.78-28.69"/><path class="cls-10" d="M512.65,49.39c-4.18-17.52-14.8-30-23.75-27.82"/><path class="cls-10" d="M533,45.53c2.8-14.67-1.8-27.84-10.27-29.45"/><path class="cls-10" d="M541.29,44.54c2.89-9.8.55-19.12-5.24-20.83"/><path class="cls-10" d="M504.87,48.74c-1.09-10.16-6.82-17.86-12.83-17.22"/><path class="cls-10" d="M499.16,52c-3-14.29-12.28-24.4-20.72-22.62"/><path class="cls-3" d="M223.46,114.68A9.27,9.27,0,0,1,235.72,105c-.06-1-.13-2-.22-2.93-3.92-40.71-36.21-70.91-72.14-67.46s-61.88,39.25-58,80S141.6,185.49,177.53,182c29.65-2.84,52.51-27.73,57.39-59.22a9.46,9.46,0,0,1-1.33.23A9.29,9.29,0,0,1,223.46,114.68Z"/><path class="cls-6" d="M152.13,89.75c3.44-9.18,15.66-13.07,27.31-8.7"/><circle cx="169.73" cy="100.87" r="2.4"/><circle cx="218.46" cy="87.75" r="2.4"/><path class="cls-6" d="M191.25,132c.53,5.3,13.46,8.36,28.93,6.84"/><path class="cls-3" d="M231.82,104.54a9.29,9.29,0,0,0,1.77,18.5,9.46,9.46,0,0,0,1.33-.23,82.65,82.65,0,0,0,.8-17.8A9.24,9.24,0,0,0,231.82,104.54Z"/><path class="cls-8" d="M223.1,114.58a9.24,9.24,0,0,1,8.32-10.08,9.13,9.13,0,0,1,3.88.46c-.05-1-.13-1.94-.22-2.91-3.89-40.5-36-70.54-71.76-67.11S101.76,74,105.65,114.48s36,70.55,71.76,67.11c29.5-2.83,52.24-27.59,57.09-58.92a9.2,9.2,0,0,1-11.4-8.09Z"/><path class="cls-6" d="M152.14,89.79c3.43-9.14,15.58-13,27.17-8.66"/><circle cx="169.65" cy="100.84" r="2.39"/><circle cx="218.13" cy="87.8" r="2.39"/><path class="cls-6" d="M191.07,131.82c.52,5.28,13.39,8.32,28.77,6.81"/><circle class="cls-9" cx="153.72" cy="131.44" r="10.44"/><path class="cls-8" d="M231.42,104.5a9.24,9.24,0,1,0,3.08,18.17,81.82,81.82,0,0,0,.8-17.71A9.13,9.13,0,0,0,231.42,104.5Z"/><path class="cls-9" d="M231.36,103.9a9.25,9.25,0,0,0,1.77,18.41,11.37,11.37,0,0,0,1.32-.23,83.1,83.1,0,0,0,.8-17.71A9.18,9.18,0,0,0,231.36,103.9Z"/><path class="cls-8" d="M223.43,114.37a9.3,9.3,0,0,1,8.37-10.15,9.43,9.43,0,0,1,3.91.46c-.06-1-.13-2-.22-2.93-3.92-40.75-36.25-71-72.22-67.53s-61.94,39.3-58,80.05,36.25,71,72.21,67.53c29.69-2.86,52.57-27.77,57.46-59.3a8.22,8.22,0,0,1-1.33.24A9.31,9.31,0,0,1,223.43,114.37Z"/><path class="cls-6" d="M152,89.41c3.45-9.19,15.67-13.08,27.34-8.71"/><path class="cls-6" d="M200.33,74.94c3.34-8.91,15.2-12.69,26.51-8.44"/><circle cx="169.65" cy="100.54" r="2.4"/><circle cx="218.43" cy="87.41" r="2.4"/><path class="cls-6" d="M220,131.13c-3-4.39-15.84-.81-28.65,8"/><circle class="cls-9" cx="153.61" cy="131.33" r="10.5"/><path class="cls-8" d="M231.8,104.22a9.3,9.3,0,1,0,1.78,18.52,8.22,8.22,0,0,0,1.33-.24,82.81,82.81,0,0,0,.8-17.82A9.43,9.43,0,0,0,231.8,104.22Z"/><path class="cls-9" d="M231.75,103.62a9.3,9.3,0,1,0,1.78,18.52,9.58,9.58,0,0,0,1.32-.23,83.48,83.48,0,0,0,.81-17.82A9.29,9.29,0,0,0,231.75,103.62Z"/><path class="cls-10" d="M175.18,44.91c-.69-14.59-8.22-26.06-16.83-25.65"/><path class="cls-10" d="M167.65,47.63c-1-16.56-11.19-29.39-22.78-28.69"/><path class="cls-10" d="M161.8,50.37c-4.18-17.51-14.8-30-23.75-27.82"/><path class="cls-10" d="M182.1,46.51c2.8-14.67-1.8-27.84-10.27-29.45"/><path class="cls-10" d="M190.44,45.52c2.89-9.8.55-19.11-5.24-20.82"/><path class="cls-10" d="M154,49.72c-1.09-10.16-6.82-17.86-12.82-17.22"/><path class="cls-10" d="M148.31,53c-3-14.29-12.28-24.4-20.72-22.62"/><path class="cls-3" d="M923.46,114.68A9.27,9.27,0,0,1,935.72,105c-.06-1-.13-2-.22-2.93-3.92-40.71-36.21-70.91-72.14-67.46s-61.88,39.25-58,80S841.6,185.49,877.53,182c29.65-2.84,52.51-27.73,57.39-59.22a9.46,9.46,0,0,1-1.33.23A9.29,9.29,0,0,1,923.46,114.68Z"/><path class="cls-6" d="M852.13,89.75c3.44-9.18,15.66-13.07,27.31-8.7"/><circle cx="869.73" cy="100.87" r="2.4"/><circle cx="918.46" cy="87.75" r="2.4"/><path class="cls-6" d="M891.25,132c.53,5.3,13.46,8.36,28.93,6.84"/><path class="cls-3" d="M931.82,104.54a9.29,9.29,0,0,0,1.77,18.5,9.46,9.46,0,0,0,1.33-.23,82.65,82.65,0,0,0,.8-17.8A9.24,9.24,0,0,0,931.82,104.54Z"/><path class="cls-8" d="M923,114.58a9.24,9.24,0,0,1,8.32-10.08,9.13,9.13,0,0,1,3.88.46c-.06-1-.13-1.94-.22-2.91-3.89-40.5-36-70.54-71.76-67.11S801.61,74,805.5,114.48s36,70.55,71.76,67.11c29.5-2.83,52.24-27.59,57.09-58.92a9.2,9.2,0,0,1-11.4-8.09Z"/><path class="cls-6" d="M852,89.79c3.43-9.14,15.58-13,27.17-8.66"/><circle cx="869.5" cy="100.84" r="2.39"/><circle cx="917.98" cy="87.8" r="2.39"/><path class="cls-6" d="M890.92,131.82c.52,5.28,13.39,8.32,28.77,6.81"/><circle class="cls-9" cx="853.57" cy="131.44" r="10.44"/><path class="cls-8" d="M931.27,104.5a9.24,9.24,0,1,0,3.08,18.17,81.82,81.82,0,0,0,.8-17.71A9.13,9.13,0,0,0,931.27,104.5Z"/><path class="cls-9" d="M931.21,103.9A9.25,9.25,0,1,0,933,122.31a11.37,11.37,0,0,0,1.32-.23,83.1,83.1,0,0,0,.8-17.71A9.18,9.18,0,0,0,931.21,103.9Z"/><path class="cls-8" d="M923.2,115.65A9.29,9.29,0,0,1,935.48,106c-.06-1-.13-2-.22-2.93C931.34,62.28,899,32.05,863,35.51s-61.94,39.29-58,80,36.25,71,72.21,67.53c29.69-2.85,52.57-27.77,57.46-59.29a9.46,9.46,0,0,1-1.33.23A9.31,9.31,0,0,1,923.2,115.65Z"/><path class="cls-6" d="M851.8,90.7c3.45-9.19,15.67-13.09,27.34-8.71"/><path class="cls-6" d="M900.1,76.22c3.34-8.91,15.2-12.69,26.52-8.44"/><circle cx="869.42" cy="101.82" r="2.4"/><circle cx="918.2" cy="88.7" r="2.4"/><path class="cls-6" d="M919.77,132.41c-3-4.39-15.84-.81-28.65,8"/><circle class="cls-9" cx="853.38" cy="132.61" r="10.5"/><path class="cls-8" d="M931.58,105.5A9.3,9.3,0,1,0,933.35,124a9.46,9.46,0,0,0,1.33-.23,82.81,82.81,0,0,0,.8-17.82A9.24,9.24,0,0,0,931.58,105.5Z"/><path class="cls-9" d="M931.52,104.9a9.3,9.3,0,1,0,1.78,18.52,9.58,9.58,0,0,0,1.32-.23,83.44,83.44,0,0,0,.81-17.82A9.29,9.29,0,0,0,931.52,104.9Z"/><path class="cls-10" d="M875,46.19c-.69-14.58-8.22-26-16.83-25.65"/><path class="cls-10" d="M867.42,48.91c-1-16.56-11.19-29.39-22.78-28.69"/><path class="cls-10" d="M861.57,51.65c-4.18-17.51-14.8-29.95-23.74-27.82"/><path class="cls-10" d="M881.87,47.79c2.8-14.66-1.8-27.84-10.27-29.45"/><path class="cls-10" d="M890.21,46.8C893.1,37,890.76,27.69,885,26"/><path class="cls-10" d="M853.79,51C852.7,40.84,847,33.14,841,33.78"/><path class="cls-10" d="M848.08,54.28c-3-14.28-12.28-24.4-20.72-22.62"/></g></svg>
