<svg id="Layer_1" data-name="Layer 1" xmlns="http://www.w3.org/2000/svg" viewBox="0 0 2100 500"><defs><style>.cls-1{fill:#f9dec5;}.cls-2{fill:#f9e4d2;}.cls-3{fill:#6d6c6b;}.cls-4{fill:#7f7d7c;}.cls-5{fill:#4f514f;}.cls-6{fill:#8d8d8e;}.cls-7,.cls-9{fill:none;stroke:#000;stroke-miterlimit:10;}.cls-8{fill:#f9c5cd;opacity:0.49;}.cls-9{stroke-width:2px;}.cls-10{fill:#9e9d9d;}</style></defs><title>Walkcycle fald</title><path class="cls-1" d="M1947,261.09a4.75,4.75,0,0,1-1.9.86c-1.8.29-3,.39-4-1.53-6.64-13.5-12.62-27.69-18.52-41.53-.84-2,0-2.76,1.46-3.87a4.61,4.61,0,0,1,2-.78c1.82-.23,3-.25,3.91,1.69,6.12,13.64,11.93,27.78,18.4,41.26C1949.25,259.11,1948.42,259.94,1947,261.09Z"/><path class="cls-1" d="M1966.83,293.66a4.66,4.66,0,0,1-1.83,1c-1.78.43-3,.6-4-1.24-6.43-10.89-13.26-22-19.41-33-1-1.86-.26-2.74,1.08-4a4.56,4.56,0,0,1,1.83-1c1.79-.4,3-.54,4.07,1.3,6.33,10.89,13.17,21.92,19.37,32.88C1969,291.49,1968.15,292.41,1966.83,293.66Z"/><path class="cls-2" d="M1948.55,254.3a5.05,5.05,0,0,1-2.54,7.1,5.49,5.49,0,0,1-7.38-2.69,5.07,5.07,0,0,1,2.56-7.13A5.55,5.55,0,0,1,1948.55,254.3Z"/><path class="cls-1" d="M1978,299.74a4.07,4.07,0,0,0,1.07-1c.71-1.07,1-1.92,0-3-1.67-1.86-3.67-3.9-5.48-5.62-1-1-1.9-.76-3-.07a4.07,4.07,0,0,0-1.07,1c-.71,1.07-1,1.91,0,3,1.69,1.83,3.69,3.88,5.48,5.62C1976,300.65,1976.88,300.43,1978,299.74Z"/><path class="cls-1" d="M1982.09,295.74a4.23,4.23,0,0,0,1.07-1c.71-1.08,1-1.92,0-3-1.67-1.85-3.67-3.9-5.48-5.62-1.05-1-1.9-.76-3-.08a4.07,4.07,0,0,0-1.07,1c-.71,1.07-.95,1.91,0,3,1.67,1.84,3.68,3.89,5.48,5.61C1980.14,296.64,1981,296.42,1982.09,295.74Z"/><path class="cls-1" d="M1973.85,303.75a3.79,3.79,0,0,0,1.07-1c.72-1.07,1-1.92,0-3-1.66-1.86-3.66-3.91-5.48-5.61-1-1-1.91-.78-3-.1a3.85,3.85,0,0,0-1.06,1c-.72,1.07-.93,1.92,0,3,1.68,1.84,3.68,3.91,5.47,5.65C1971.91,304.66,1972.76,304.43,1973.85,303.75Z"/><path class="cls-1" d="M1969.74,307.76a4.07,4.07,0,0,0,1.07-1c.71-1.08,1-1.92,0-3-1.67-1.86-3.66-3.93-5.48-5.64-1-1-1.9-.78-3-.09a3.75,3.75,0,0,0-1.06,1c-.72,1.07-1,1.92,0,3,1.67,1.85,3.67,3.92,5.46,5.65C1967.79,308.67,1968.64,308.44,1969.74,307.76Z"/><path class="cls-1" d="M1960.67,295.24a3.79,3.79,0,0,0-1.5-.07c-1.3.22-2,.57-2.16,2.06s-.27,3.71-.26,5.22.7,1.92,2,2.28a3.94,3.94,0,0,0,1.49.09c1.31-.23,2-.57,2.2-2.07a45.51,45.51,0,0,0,.26-5.22C1962.64,296,1961.94,295.6,1960.67,295.24Z"/><path class="cls-1" d="M1969.17,301.68a79.69,79.69,0,0,0,7.95-7.75c2.5-2.83,2.17-5.24.18-8.17a13.2,13.2,0,0,0-2.86-2.92c-2.91-2-5.38-2.41-8.28,0a82.6,82.6,0,0,0-8,7.68c-2.5,2.84-2.08,5.26-.09,8.18a13.74,13.74,0,0,0,2.87,2.93C1963.85,303.71,1966.27,304.11,1969.17,301.68Z"/><path class="cls-3" d="M1881.94,412.53l-3,.54,5.1,28.71a9,9,0,0,0,4.23,6.2Z"/><path class="cls-4" d="M1893.7,449l5.55-1a7.27,7.27,0,0,0,5.63-8.59L1900,412.1a2.66,2.66,0,0,0-3-2.25l-15.08,2.68,6.29,35.45A8,8,0,0,0,1893.7,449Z"/><rect class="cls-1" x="1929.26" y="368.01" width="8.59" height="41.55" rx="3.15" ry="3.15" transform="translate(-34.31 257.3) rotate(-7.55)"/><rect class="cls-1" x="1910.81" y="394.55" width="7.88" height="41.67" rx="2.89" ry="2.89" transform="translate(2129.22 -1532.14) rotate(84.04)"/><circle class="cls-2" cx="1936.38" cy="411.44" r="6.45"/><path class="cls-5" d="M1857.83,280.59v63a39.35,39.35,0,0,0,39.23,39.22h25.62a39.34,39.34,0,0,0,39.23-39.22v-63Z"/><path class="cls-6" d="M1961.91,221.9a39.34,39.34,0,0,0-39.23-39.23h-25.62a39.35,39.35,0,0,0-39.23,39.23v58.69h104.08Z"/><path class="cls-1" d="M1963,120.49a9.46,9.46,0,0,1,8.51-10.32,9.6,9.6,0,0,1,4,.47c-.07-1-.14-2-.23-3-4-41.42-36.85-72.16-73.42-68.65s-63,39.95-59,81.38,36.85,72.16,73.42,68.65c30.18-2.9,53.44-28.23,58.41-60.28a10,10,0,0,1-1.35.24A9.46,9.46,0,0,1,1963,120.49Z"/><path class="cls-7" d="M1890.45,95.12c3.5-9.34,15.94-13.3,27.79-8.85"/><path class="cls-7" d="M1939.55,80.41c3.4-9.06,15.46-12.9,27-8.59"/><circle cx="1908.36" cy="106.43" r="2.44"/><circle cx="1957.96" cy="93.09" r="2.44"/><circle class="cls-8" cx="1892.06" cy="137.73" r="10.68"/><path class="cls-1" d="M1971.55,110.17a9.46,9.46,0,1,0,1.81,18.83,10,10,0,0,0,1.35-.24,85,85,0,0,0,.82-18.12A9.6,9.6,0,0,0,1971.55,110.17Z"/><path class="cls-8" d="M1971.49,109.56a9.46,9.46,0,1,0,1.81,18.83,8.67,8.67,0,0,0,1.35-.24,84.82,84.82,0,0,0,.82-18.11A9.44,9.44,0,0,0,1971.49,109.56Z"/><path class="cls-9" d="M1914,49.87c-.7-14.82-8.36-26.48-17.12-26.07"/><path class="cls-9" d="M1906.33,52.64c-1-16.84-11.38-29.88-23.16-29.16"/><path class="cls-9" d="M1900.39,55.42c-4.26-17.8-15.05-30.45-24.15-28.28"/><path class="cls-9" d="M1921,51.5c2.85-14.91-1.83-28.3-10.44-29.94"/><path class="cls-9" d="M1929.5,50.49c2.94-10,.56-19.43-5.33-21.17"/><path class="cls-9" d="M1892.47,54.77c-1.1-10.33-6.93-18.16-13-17.51"/><path class="cls-9" d="M1886.67,58.1c-3.06-14.52-12.48-24.81-21.06-23"/><path class="cls-1" d="M1886.91,286.87a6.11,6.11,0,0,1-2-.33c-1.57-.61-2.6-1.36-2.26-3.45,2.44-14.69,5.83-30,8.75-44.61.42-2.07,1.63-2.26,3.27-2.25a6.33,6.33,0,0,1,2,.44c1.51.66,2.6,1.38,2.2,3.44-2.78,14.51-6.15,29.69-8.71,44.25C1889.77,286.43,1888.6,286.82,1886.91,286.87Z"/><path class="cls-1" d="M1889,324.62a6.24,6.24,0,0,1-2,.12c-1.63-.24-2.83-.65-3-2.75-.77-12.48-1.27-25.77-1.19-38.28,0-2.11,1.15-2.71,2.8-3a6.22,6.22,0,0,1,2,0c1.65.32,2.75.88,2.76,3,0,12.4.54,25.54,1.21,37.92C1891.74,323.64,1890.6,324.2,1889,324.62Z"/><path class="cls-2" d="M1892,282.05a5.28,5.28,0,1,1-4.23-6.38A5.31,5.31,0,0,1,1892,282.05Z"/><path class="cls-1" d="M1890.45,336.78a6.74,6.74,0,0,1-1.4.31,2,2,0,0,1-2.39-1.57c-.54-2.27-1.15-5.13-1.6-7.43a2,2,0,0,1,1.51-2.45,6.14,6.14,0,0,1,1.41-.32,2,2,0,0,1,2.39,1.59c.54,2.27,1.16,5.14,1.6,7.43A2,2,0,0,1,1890.45,336.78Z"/><path class="cls-1" d="M1885.1,338a6.26,6.26,0,0,1-1.41.32,2,2,0,0,1-2.38-1.57c-.54-2.28-1.16-5.14-1.61-7.44a2,2,0,0,1,1.51-2.45,5.74,5.74,0,0,1,1.41-.31,2,2,0,0,1,2.39,1.58c.55,2.28,1.16,5.14,1.61,7.44A2,2,0,0,1,1885.1,338Z"/><path class="cls-1" d="M1895.81,335.58a6.24,6.24,0,0,1-1.41.31,1.94,1.94,0,0,1-2.38-1.56c-.54-2.27-1.16-5.13-1.61-7.43a2,2,0,0,1,1.52-2.45,6.12,6.12,0,0,1,1.41-.31,2,2,0,0,1,2.38,1.59c.54,2.27,1.16,5.12,1.61,7.42A2,2,0,0,1,1895.81,335.58Z"/><path class="cls-1" d="M1901.16,334.38a6.14,6.14,0,0,1-1.41.32,2,2,0,0,1-2.38-1.56c-.54-2.28-1.16-5.13-1.6-7.43a2,2,0,0,1,1.51-2.43,6.26,6.26,0,0,1,1.41-.32,2,2,0,0,1,2.38,1.57c.54,2.27,1.16,5.13,1.61,7.42A2,2,0,0,1,1901.16,334.38Z"/><path class="cls-1" d="M1896,320.5a6,6,0,0,1,.72-1.26,1.94,1.94,0,0,1,2.78-.68c1.22.67,3.2,1.83,4.37,2.58a2,2,0,0,1,.76,2.78,6.57,6.57,0,0,1-.73,1.26,2,2,0,0,1-2.77.7c-1.23-.66-3.2-1.82-4.37-2.57A2,2,0,0,1,1896,320.5Z"/><path class="cls-1" d="M1896.71,330.75c-3,.82-7.37,1.79-10.47,2.33-3.47.62-5.57-1.12-6.61-4.21a22,22,0,0,1-.85-3.93c-.34-3.26.84-5.79,4.24-6.73,3-.84,7.37-1.72,10.49-2.27,3.47-.62,5.57,1.19,6.61,4.28a22.79,22.79,0,0,1,.84,3.9C1901.3,327.37,1900.11,329.83,1896.71,330.75Z"/><rect class="cls-1" x="1880.13" y="366.53" width="8.59" height="40.29" rx="3.15" ry="3.15" transform="translate(468.33 -915.34) rotate(31)"/><path class="cls-4" d="M1816.7,376.23l-2.88-1.09-10.37,27.28a9,9,0,0,0,.46,7.49Z"/><path class="cls-10" d="M1808.08,413.59l5.27,2a7.26,7.26,0,0,0,9.25-4.49l9.87-26a2.66,2.66,0,0,0-1.44-3.47l-14.33-5.45-12.79,33.68A8,8,0,0,0,1808.08,413.59Z"/><rect class="cls-1" x="1846.5" y="368.9" width="7.88" height="52.41" rx="2.89" ry="2.89" transform="translate(2881.71 -1191.31) rotate(110.97)"/><circle class="cls-2" cx="1874.31" cy="403.51" r="6.45"/><path class="cls-3" d="M209.52,460.41l1.59,2.64,25-15.05a9,9,0,0,0,4.27-6.18Z"/><path class="cls-4" d="M239.34,436.36l-2.91-4.83a7.27,7.27,0,0,0-10-2.18l-23.76,14.33a2.66,2.66,0,0,0-1,3.62l7.91,13.11,30.84-18.59A7.94,7.94,0,0,0,239.34,436.36Z"/><rect class="cls-1" x="176.55" y="368.39" width="8.59" height="41.55" rx="3.15" ry="3.15" transform="translate(-156.85 124.37) rotate(-26.98)"/><rect class="cls-1" x="196.47" y="407.93" width="7.88" height="41.67" rx="2.89" ry="2.89" transform="translate(-172.68 137.55) rotate(-26.98)"/><circle class="cls-2" cx="191.05" cy="409.58" r="6.45"/><path class="cls-5" d="M106.51,280.59v63a39.34,39.34,0,0,0,39.23,39.22h25.62a39.35,39.35,0,0,0,39.23-39.22v-63Z"/><path class="cls-6" d="M210.59,221.9a39.35,39.35,0,0,0-39.23-39.23H145.74a39.34,39.34,0,0,0-39.23,39.23v58.69H210.59Z"/><path class="cls-1" d="M211.72,120.49a9.45,9.45,0,0,1,12.48-9.85c-.06-1-.13-2-.23-3C220,66.24,187.13,35.5,150.56,39s-63,39.95-59,81.38S128.41,192.55,165,189c30.18-2.9,53.44-28.23,58.4-60.28A9.61,9.61,0,0,1,222,129,9.46,9.46,0,0,1,211.72,120.49Z"/><path class="cls-7" d="M139.13,95.12c3.5-9.34,15.93-13.3,27.79-8.85"/><path class="cls-7" d="M188.23,80.41c3.4-9.06,15.46-12.9,27-8.59"/><circle cx="157.04" cy="106.43" r="2.44"/><circle cx="206.64" cy="93.09" r="2.44"/><path class="cls-7" d="M208.23,137.53c-3.07-4.47-16.1-.82-29.13,8.15"/><circle class="cls-8" cx="140.74" cy="137.73" r="10.68"/><path class="cls-1" d="M220.23,110.17A9.46,9.46,0,1,0,222,129a9.61,9.61,0,0,0,1.34-.24,84.3,84.3,0,0,0,.82-18.12A9.55,9.55,0,0,0,220.23,110.17Z"/><path class="cls-8" d="M220.17,109.56A9.46,9.46,0,1,0,222,128.39a8.67,8.67,0,0,0,1.35-.24,84.82,84.82,0,0,0,.82-18.11A9.44,9.44,0,0,0,220.17,109.56Z"/><path class="cls-9" d="M162.66,49.87c-.7-14.82-8.35-26.48-17.11-26.07"/><path class="cls-9" d="M155,52.64c-1-16.84-11.38-29.88-23.16-29.16"/><path class="cls-9" d="M149.06,55.42C144.81,37.62,134,25,124.92,27.14"/><path class="cls-9" d="M169.7,51.5c2.84-14.91-1.83-28.3-10.44-29.94"/><path class="cls-9" d="M178.18,50.49c2.94-10,.56-19.43-5.33-21.17"/><path class="cls-9" d="M141.15,54.77c-1.1-10.33-6.93-18.16-13-17.51"/><path class="cls-9" d="M135.35,58.1c-3.06-14.52-12.48-24.81-21.06-23"/><path class="cls-1" d="M108.93,277.78a6.09,6.09,0,0,1-2-.36c-1.57-.63-2.59-1.39-2.22-3.47,2.61-14.67,6.16-29.95,9.25-44.51.44-2.07,1.65-2.25,3.29-2.21a6,6,0,0,1,2,.45c1.5.68,2.58,1.41,2.16,3.47-2.94,14.48-6.49,29.62-9.21,44.14C111.79,277.36,110.61,277.74,108.93,277.78Z"/><path class="cls-1" d="M110.6,315.54a6.17,6.17,0,0,1-2,.1c-1.64-.26-2.83-.68-2.93-2.79-.64-12.48-1-25.78-.77-38.29,0-2.11,1.18-2.69,2.84-3a6,6,0,0,1,2,0c1.64.34,2.74.91,2.72,3-.08,12.4.26,25.55.79,37.93C113.35,314.59,112.2,315.14,110.6,315.54Z"/><path class="cls-2" d="M114.09,273a5.28,5.28,0,1,1-4.16-6.43A5.3,5.3,0,0,1,114.09,273Z"/><path class="cls-1" d="M111.91,327.71a5.63,5.63,0,0,1-1.41.3,1.94,1.94,0,0,1-2.36-1.59c-.52-2.28-1.1-5.15-1.53-7.45a2,2,0,0,1,1.54-2.44,6.2,6.2,0,0,1,1.41-.29,2,2,0,0,1,2.37,1.61c.52,2.28,1.11,5.15,1.53,7.45A2,2,0,0,1,111.91,327.71Z"/><path class="cls-1" d="M106.54,328.85a6.68,6.68,0,0,1-1.41.3,2,2,0,0,1-2.36-1.59c-.52-2.29-1.11-5.16-1.53-7.46a2,2,0,0,1,1.54-2.44,6.2,6.2,0,0,1,1.41-.29,2,2,0,0,1,2.37,1.61c.53,2.28,1.11,5.15,1.53,7.45A2,2,0,0,1,106.54,328.85Z"/><path class="cls-1" d="M117.28,326.58a7,7,0,0,1-1.41.3,2,2,0,0,1-2.37-1.59c-.51-2.28-1.09-5.15-1.52-7.45a2,2,0,0,1,1.54-2.44,6.93,6.93,0,0,1,1.41-.29,2,2,0,0,1,2.37,1.61c.52,2.28,1.11,5.14,1.52,7.44A2,2,0,0,1,117.28,326.58Z"/><path class="cls-1" d="M122.64,325.44a5.63,5.63,0,0,1-1.41.3,2,2,0,0,1-2.36-1.59c-.51-2.28-1.1-5.14-1.52-7.44a2,2,0,0,1,1.54-2.42,6.81,6.81,0,0,1,1.41-.3,2,2,0,0,1,2.36,1.59c.52,2.28,1.11,5.15,1.53,7.45A2,2,0,0,1,122.64,325.44Z"/><path class="cls-1" d="M117.59,311.5a6.33,6.33,0,0,1,.74-1.25,1.93,1.93,0,0,1,2.78-.65c1.21.69,3.18,1.87,4.34,2.63a2,2,0,0,1,.73,2.79,6.85,6.85,0,0,1-.74,1.25,2,2,0,0,1-2.79.67c-1.21-.67-3.17-1.86-4.34-2.62A2,2,0,0,1,117.59,311.5Z"/><path class="cls-1" d="M118.23,321.76c-3,.78-7.38,1.7-10.5,2.22-3.47.57-5.55-1.19-6.56-4.29a23.13,23.13,0,0,1-.8-3.94c-.3-3.26.9-5.78,4.32-6.68,3.06-.81,7.39-1.64,10.51-2.16,3.48-.57,5.56,1.26,6.56,4.36a21.7,21.7,0,0,1,.8,3.91C122.86,318.43,121.64,320.88,118.23,321.76Z"/><path class="cls-1" d="M195.08,273.13a4.75,4.75,0,0,1-2.08-.2c-1.7-.65-2.82-1.19-2.68-3.32,1-15,2.92-30.29,4.73-45.23.26-2.12,1.39-2.39,3.2-2.62a4.79,4.79,0,0,1,2.08.3c1.69.71,2.76,1.3,2.54,3.42-1.52,14.87-3.56,30-4.7,44.93C198,272.53,196.87,272.84,195.08,273.13Z"/><path class="cls-1" d="M196,311.24a4.71,4.71,0,0,1-2.08-.05c-1.76-.52-2.86-1-2.88-3.09-.12-12.65-.48-25.66-.29-38.3,0-2.13,1.14-2.51,2.92-2.9a4.82,4.82,0,0,1,2.07.08c1.75.55,2.86,1,2.87,3.16,0,12.6.45,25.57.33,38.17C198.87,310.43,197.71,310.82,196,311.24Z"/><path class="cls-2" d="M199.81,268a5.06,5.06,0,0,1-5.76,4.88,5.49,5.49,0,0,1-5-6,5.06,5.06,0,0,1,5.78-4.9A5.56,5.56,0,0,1,199.81,268Z"/><path class="cls-1" d="M202.55,322.09a4.25,4.25,0,0,0,1.45-.37c1.15-.58,1.79-1.18,1.49-2.6-.51-2.44-1.22-5.21-1.93-7.6-.41-1.39-1.27-1.61-2.56-1.56a4.07,4.07,0,0,0-1.45.36c-1.15.58-1.79,1.18-1.47,2.59.55,2.43,1.25,5.21,1.94,7.6C200.42,321.9,201.26,322.13,202.55,322.09Z"/><path class="cls-1" d="M208.12,320.68a4.25,4.25,0,0,0,1.44-.37c1.16-.57,1.8-1.18,1.5-2.59-.52-2.44-1.24-5.22-1.94-7.6-.41-1.39-1.26-1.62-2.55-1.57a4,4,0,0,0-1.44.36c-1.15.58-1.79,1.18-1.48,2.59.53,2.43,1.24,5.21,1.93,7.6C206,320.49,206.83,320.72,208.12,320.68Z"/><path class="cls-1" d="M197,323.5a4.25,4.25,0,0,0,1.45-.37c1.15-.57,1.79-1.18,1.5-2.59-.51-2.45-1.22-5.23-1.94-7.61-.42-1.38-1.27-1.63-2.56-1.6a4,4,0,0,0-1.44.36c-1.16.58-1.77,1.2-1.46,2.61.54,2.43,1.23,5.23,1.92,7.62C194.85,323.31,195.69,323.54,197,323.5Z"/><path class="cls-1" d="M191.41,324.91a3.88,3.88,0,0,0,1.45-.37c1.15-.57,1.79-1.18,1.5-2.59-.51-2.45-1.21-5.24-1.92-7.63-.41-1.38-1.26-1.62-2.55-1.58a4.21,4.21,0,0,0-1.44.38c-1.15.57-1.79,1.18-1.49,2.59.53,2.44,1.23,5.23,1.92,7.63C189.27,324.72,190.12,325,191.41,324.91Z"/><path class="cls-1" d="M189.82,309.53a4,4,0,0,0-1.26-.81c-1.24-.45-2-.51-2.91.71s-2.08,3.07-2.83,4.38-.36,2,.56,3a4.09,4.09,0,0,0,1.26.82c1.24.45,2,.52,2.93-.7a43.87,43.87,0,0,0,2.84-4.39C191.14,311.19,190.75,310.48,189.82,309.53Z"/><path class="cls-1" d="M194,319.36a79.61,79.61,0,0,0,10.76-2.73c3.58-1.2,4.5-3.46,4.25-7a13.37,13.37,0,0,0-1-4c-1.49-3.23-3.45-4.77-7.17-4.12A78.76,78.76,0,0,0,190,304.23c-3.59,1.2-4.44,3.51-4.17,7a13.64,13.64,0,0,0,1,4C188.34,318.45,190.24,320,194,319.36Z"/><rect class="cls-1" x="139.21" y="371.51" width="8.59" height="40.29" rx="3.15" ry="3.15"/><path class="cls-4" d="M81.48,406.52l-3.09,0L78,435.65a9,9,0,0,0,3,6.89Z"/><path class="cls-10" d="M86.19,444.56l5.63.08A7.27,7.27,0,0,0,99,437.25l.37-27.76a2.66,2.66,0,0,0-2.54-2.77l-15.32-.2-.48,36A8,8,0,0,0,86.19,444.56Z"/><rect class="cls-1" x="115.7" y="386.47" width="7.88" height="52.41" rx="2.89" ry="2.89" transform="translate(534.19 299.7) rotate(90.92)"/><circle class="cls-2" cx="143.51" cy="411.29" r="6.45"/><path class="cls-3" d="M559.32,460.41l1.59,2.64,25-15.05a9,9,0,0,0,4.26-6.18Z"/><path class="cls-4" d="M589.14,436.36l-2.91-4.83a7.28,7.28,0,0,0-10-2.18l-23.77,14.33a2.67,2.67,0,0,0-1,3.62l7.91,13.11,30.83-18.59A7.94,7.94,0,0,0,589.14,436.36Z"/><rect class="cls-1" x="526.35" y="368.39" width="8.59" height="41.55" rx="3.15" ry="3.15" transform="translate(-118.79 283.04) rotate(-26.98)"/><rect class="cls-1" x="546.27" y="407.93" width="7.88" height="41.67" rx="2.89" ry="2.89" transform="translate(-134.63 296.22) rotate(-26.98)"/><circle class="cls-2" cx="540.85" cy="409.58" r="6.45"/><path class="cls-5" d="M456.31,280.59v63a39.34,39.34,0,0,0,39.23,39.22h25.62a39.34,39.34,0,0,0,39.22-39.22v-63Z"/><path class="cls-6" d="M560.38,221.9a39.34,39.34,0,0,0-39.22-39.23H495.54a39.34,39.34,0,0,0-39.23,39.23v58.69H560.38Z"/><path class="cls-1" d="M561.52,120.49A9.45,9.45,0,0,1,574,110.64c-.06-1-.13-2-.23-3-4-41.42-36.85-72.16-73.41-68.65s-63,39.95-59,81.38,36.85,72.16,73.41,68.65c30.18-2.9,53.45-28.23,58.41-60.28a9.88,9.88,0,0,1-1.34.24A9.46,9.46,0,0,1,561.52,120.49Z"/><path class="cls-7" d="M488.92,95.12c3.51-9.34,15.94-13.3,27.8-8.85"/><path class="cls-7" d="M538,80.41c3.4-9.06,15.46-12.9,27-8.59"/><circle cx="506.84" cy="106.43" r="2.44"/><circle cx="556.43" cy="93.09" r="2.44"/><circle class="cls-8" cx="490.53" cy="137.73" r="10.68"/><path class="cls-1" d="M570,110.17A9.46,9.46,0,1,0,571.84,129a9.88,9.88,0,0,0,1.34-.24,84.3,84.3,0,0,0,.82-18.12A9.55,9.55,0,0,0,570,110.17Z"/><path class="cls-8" d="M570,109.56a9.46,9.46,0,1,0,1.81,18.83,8.34,8.34,0,0,0,1.34-.24,84.18,84.18,0,0,0,.82-18.11A9.39,9.39,0,0,0,570,109.56Z"/><path class="cls-9" d="M512.46,49.87c-.7-14.82-8.35-26.48-17.11-26.07"/><path class="cls-9" d="M504.81,52.64c-1-16.84-11.38-29.88-23.17-29.16"/><path class="cls-9" d="M498.86,55.42c-4.25-17.8-15.05-30.45-24.14-28.28"/><path class="cls-9" d="M519.5,51.5c2.84-14.91-1.83-28.3-10.44-29.94"/><path class="cls-9" d="M528,50.49c2.94-10,.56-19.43-5.33-21.17"/><path class="cls-9" d="M491,54.77c-1.1-10.33-6.93-18.16-13-17.51"/><path class="cls-9" d="M485.15,58.1c-3.06-14.52-12.49-24.81-21.07-23"/><path class="cls-1" d="M487.52,274.21a6.12,6.12,0,0,1-1.85.82c-1.65.35-2.92.29-3.78-1.65-6-13.62-11.6-28.29-17.15-42.1-.79-2,.11-2.78,1.49-3.67a6.37,6.37,0,0,1,1.89-.72c1.63-.27,2.93-.27,3.73,1.68,5.63,13.65,11.14,28.19,17,41.77C489.66,272.27,488.9,273.24,487.52,274.21Z"/><path class="cls-1" d="M510,304.62a6.18,6.18,0,0,1-1.62,1.21c-1.5.7-2.72,1-4-.68-7.49-10-15.2-20.85-22-31.35-1.14-1.77-.52-2.89.68-4.08a6.09,6.09,0,0,1,1.68-1.12c1.56-.63,2.79-.77,3.94,1,6.85,10.33,14.47,21.06,21.81,31C511.72,302.3,511.08,303.4,510,304.62Z"/><path class="cls-2" d="M489.14,267.37a5.27,5.27,0,1,1-7-3A5.31,5.31,0,0,1,489.14,267.37Z"/><path class="cls-1" d="M517.86,314a6.21,6.21,0,0,1-1,1,2,2,0,0,1-2.85,0c-1.7-1.61-3.79-3.66-5.42-5.34a2,2,0,0,1-.08-2.88,6.49,6.49,0,0,1,1-1,2,2,0,0,1,2.87,0c1.7,1.61,3.79,3.66,5.42,5.34A2,2,0,0,1,517.86,314Z"/><path class="cls-1" d="M514,317.93a5.79,5.79,0,0,1-1,1,2,2,0,0,1-2.85,0c-1.7-1.6-3.79-3.66-5.43-5.33a2,2,0,0,1-.08-2.88,6.21,6.21,0,0,1,1-1,2,2,0,0,1,2.86,0c1.71,1.6,3.8,3.65,5.43,5.33A2,2,0,0,1,514,317.93Z"/><path class="cls-1" d="M521.68,310.06a6.56,6.56,0,0,1-1,1,2,2,0,0,1-2.85,0c-1.7-1.6-3.78-3.66-5.42-5.33a2,2,0,0,1-.08-2.88,5.8,5.8,0,0,1,1-1,2,2,0,0,1,2.87,0c1.7,1.59,3.78,3.65,5.41,5.32A2,2,0,0,1,521.68,310.06Z"/><path class="cls-1" d="M525.5,306.12a6.62,6.62,0,0,1-1,1,2,2,0,0,1-2.85,0c-1.69-1.6-3.78-3.65-5.41-5.32a2,2,0,0,1-.07-2.87,6.09,6.09,0,0,1,1-1,2,2,0,0,1,2.85,0c1.7,1.6,3.79,3.65,5.42,5.32A2,2,0,0,1,525.5,306.12Z"/><path class="cls-1" d="M513.52,297.37a5.86,5.86,0,0,1-.08-1.45c.1-1.19.56-2,1.94-2.09s3.69-.22,5.08-.24,1.92.74,2.15,1.91a5.86,5.86,0,0,1,.08,1.45c-.1,1.18-.55,2-1.93,2.11s-3.67.23-5.07.24S513.76,298.54,513.52,297.37Z"/><path class="cls-1" d="M519.78,305.52c-2.09,2.36-5.18,5.54-7.48,7.7-2.56,2.42-5.26,2.12-7.83.1a21.85,21.85,0,0,1-2.87-2.82c-2.07-2.54-2.47-5.3-.14-7.95,2.09-2.38,5.22-5.49,7.52-7.65,2.56-2.42,5.32-2.06,7.88,0a22.76,22.76,0,0,1,2.84,2.8C521.76,300.18,522.12,302.89,519.78,305.52Z"/><path class="cls-1" d="M561.12,266.27a4.7,4.7,0,0,1-2,.63c-1.83.08-3.07,0-3.78-2-5-14.18-9.3-29-13.54-43.4-.61-2.06.32-2.75,1.9-3.68a4.87,4.87,0,0,1,2-.55c1.84,0,3.06.11,3.69,2.14,4.49,14.26,8.61,29,13.45,43.13C563.56,264.56,562.64,265.29,561.12,266.27Z"/><path class="cls-1" d="M577,300.93a4.63,4.63,0,0,1-1.94.77c-1.82.22-3,.25-3.86-1.7-5.11-11.57-10.59-23.38-15.42-35.06-.81-2,.06-2.76,1.54-3.81a4.65,4.65,0,0,1,1.94-.75c1.82-.19,3-.18,3.88,1.77,5,11.55,10.52,23.3,15.4,34.92C579.35,299,578.44,299.85,577,300.93Z"/><path class="cls-2" d="M563.43,259.7a5,5,0,0,1-3.35,6.76,5.49,5.49,0,0,1-7-3.53,5.07,5.07,0,0,1,3.38-6.79A5.55,5.55,0,0,1,563.43,259.7Z"/><path class="cls-1" d="M587.34,308.28a4.38,4.38,0,0,0,1.18-.91c.83-1,1.18-1.8.35-3-1.44-2-3.19-4.3-4.79-6.22-.92-1.11-1.8-1-3-.42a3.93,3.93,0,0,0-1.19.91c-.84,1-1.18,1.79-.33,2.95,1.47,2,3.21,4.29,4.79,6.22C585.3,309,586.17,308.83,587.34,308.28Z"/><path class="cls-1" d="M591.89,304.78a4.06,4.06,0,0,0,1.19-.91c.83-1,1.18-1.79.34-3-1.44-2-3.19-4.3-4.79-6.22-.92-1.1-1.79-1-3-.43a4.15,4.15,0,0,0-1.18.91c-.83,1-1.17,1.79-.33,3,1.45,2,3.2,4.29,4.78,6.22C589.86,305.45,590.73,305.33,591.89,304.78Z"/><path class="cls-1" d="M582.78,311.78a4.05,4.05,0,0,0,1.18-.91c.84-1,1.19-1.8.36-3-1.44-2-3.19-4.32-4.79-6.22-.94-1.1-1.82-1-3-.45a4,4,0,0,0-1.18.9c-.83,1-1.15,1.8-.3,3,1.45,2,3.19,4.31,4.77,6.24C580.75,312.45,581.61,312.33,582.78,311.78Z"/><path class="cls-1" d="M578.22,315.28a4.05,4.05,0,0,0,1.18-.91c.84-1,1.19-1.8.36-3-1.44-2-3.18-4.33-4.78-6.25-.92-1.11-1.8-1-3-.44a4.23,4.23,0,0,0-1.18.91c-.83,1-1.18,1.8-.34,3,1.45,2,3.19,4.31,4.77,6.24C576.19,316,577.05,315.83,578.22,315.28Z"/><path class="cls-1" d="M570.68,301.78a4.15,4.15,0,0,0-1.48-.25c-1.31.08-2.06.34-2.39,1.8s-.7,3.65-.87,5.15.47,2,1.69,2.5a4,4,0,0,0,1.48.26c1.32-.07,2.07-.33,2.42-1.8a47.31,47.31,0,0,0,.87-5.15C572.54,302.79,571.9,302.29,570.68,301.78Z"/><path class="cls-1" d="M578.37,309.17a81.32,81.32,0,0,0,8.81-6.76c2.8-2.52,2.76-5,1.13-8.1a13.11,13.11,0,0,0-2.51-3.23c-2.64-2.38-5.06-3-8.22-.95a80.79,80.79,0,0,0-8.81,6.7c-2.81,2.52-2.68,5-1,8.1a13.88,13.88,0,0,0,2.5,3.25C572.85,310.56,575.21,311.25,578.37,309.17Z"/><rect class="cls-1" x="489.01" y="371.51" width="8.59" height="40.29" rx="3.15" ry="3.15"/><path class="cls-4" d="M431.28,406.52l-3.09,0-.39,29.18a9,9,0,0,0,3,6.89Z"/><path class="cls-10" d="M436,444.56l5.64.08a7.27,7.27,0,0,0,7.15-7.39l.37-27.76a2.66,2.66,0,0,0-2.54-2.77l-15.32-.2-.48,36A7.94,7.94,0,0,0,436,444.56Z"/><rect class="cls-1" x="465.5" y="386.47" width="7.88" height="52.41" rx="2.89" ry="2.89" transform="translate(889.63 -50.05) rotate(90.92)"/><circle class="cls-2" cx="493.3" cy="411.29" r="6.45"/><path d="M521.69,158.1c-2.08,0-2.93-.39-3-.72s.55-1.5,3.78-3.27a60.23,60.23,0,0,1,11.07-4.43,52.62,52.62,0,0,1,13.61-2.53c2.07,0,2.93.38,3,.72s-.55,1.5-3.79,3.27a59.94,59.94,0,0,1-11.07,4.43A52.63,52.63,0,0,1,521.69,158.1Z"/><path d="M547.12,147.64h0a5.33,5.33,0,0,1,2.52.39c-.38,1.11-5.34,4.29-14.49,7.06a52.45,52.45,0,0,1-13.46,2.51,5.45,5.45,0,0,1-2.53-.38c.38-1.12,5.34-4.3,14.5-7.06a52,52,0,0,1,13.46-2.52m0-1a53.13,53.13,0,0,0-13.75,2.56c-9,2.71-15.76,6.43-15.19,8.32.22.73,1.5,1.08,3.51,1.08a53,53,0,0,0,13.75-2.55c9-2.71,15.76-6.44,15.19-8.33-.22-.73-1.51-1.08-3.51-1.08Z"/><path class="cls-3" d="M843.61,425.7l-2.7,1.49L855,452.74a9,9,0,0,0,6,4.51Z"/><path class="cls-4" d="M866.46,456.46l4.94-2.72a7.27,7.27,0,0,0,2.57-9.95L860.6,419.48a2.66,2.66,0,0,0-3.57-1.16l-13.42,7.38L861,457.25A8,8,0,0,0,866.46,456.46Z"/><rect class="cls-1" x="876.35" y="368.39" width="8.59" height="41.55" rx="3.15" ry="3.15" transform="translate(-80.71 441.8) rotate(-26.98)"/><rect class="cls-1" x="871.66" y="397.02" width="7.88" height="41.67" rx="2.89" ry="2.89" transform="translate(889.36 -552.24) rotate(65.3)"/><circle class="cls-2" cx="890.85" cy="409.58" r="6.45"/><path class="cls-5" d="M806.31,280.59v63a39.34,39.34,0,0,0,39.23,39.22h25.62a39.34,39.34,0,0,0,39.22-39.22v-63Z"/><path class="cls-6" d="M910.38,221.9a39.34,39.34,0,0,0-39.22-39.23H845.54a39.34,39.34,0,0,0-39.23,39.23v58.69H910.38Z"/><path class="cls-1" d="M911.52,120.49A9.45,9.45,0,0,1,924,110.64c-.06-1-.13-2-.23-3-4-41.42-36.85-72.16-73.41-68.65s-63,39.95-59,81.38,36.85,72.16,73.41,68.65c30.18-2.9,53.45-28.23,58.41-60.28a9.88,9.88,0,0,1-1.34.24A9.46,9.46,0,0,1,911.52,120.49Z"/><path class="cls-7" d="M838.92,95.12c3.51-9.34,15.94-13.3,27.8-8.85"/><path class="cls-7" d="M888,80.41c3.4-9.06,15.46-12.9,27-8.59"/><circle cx="856.84" cy="106.43" r="2.44"/><circle cx="906.43" cy="93.09" r="2.44"/><circle class="cls-8" cx="840.53" cy="137.73" r="10.68"/><path class="cls-1" d="M920,110.17A9.46,9.46,0,0,0,921.84,129a9.88,9.88,0,0,0,1.34-.24,84.3,84.3,0,0,0,.82-18.12A9.55,9.55,0,0,0,920,110.17Z"/><path class="cls-8" d="M920,109.56a9.46,9.46,0,0,0,1.81,18.83,8.34,8.34,0,0,0,1.34-.24,84.18,84.18,0,0,0,.82-18.11A9.39,9.39,0,0,0,920,109.56Z"/><path class="cls-9" d="M862.46,49.87c-.7-14.82-8.35-26.48-17.11-26.07"/><path class="cls-9" d="M854.81,52.64c-1-16.84-11.38-29.88-23.17-29.16"/><path class="cls-9" d="M848.86,55.42c-4.25-17.8-15.05-30.45-24.14-28.28"/><path class="cls-9" d="M869.5,51.5c2.84-14.91-1.83-28.3-10.44-29.94"/><path class="cls-9" d="M878,50.49c2.94-10,.56-19.43-5.33-21.17"/><path class="cls-9" d="M841,54.77c-1.1-10.33-6.93-18.16-13-17.51"/><path class="cls-9" d="M835.15,58.1c-3.06-14.52-12.49-24.81-21.07-23"/><path class="cls-1" d="M858.13,266.53a6.42,6.42,0,0,1-1.24,1.6c-1.28,1.08-2.43,1.63-4.1.33-11.76-9.14-23.63-19.41-35.06-28.94-1.63-1.35-1.22-2.5-.42-3.94a6,6,0,0,1,1.32-1.53c1.3-1,2.45-1.62,4.08-.29,11.43,9.36,23.17,19.55,34.75,28.74C859.1,263.8,858.89,265,858.13,266.53Z"/><path class="cls-1" d="M892.32,282.66a6.49,6.49,0,0,1-.85,1.83c-1,1.33-1.92,2.18-3.83,1.3-11.34-5.27-23.27-11.16-34.23-17.18-1.85-1-1.83-2.3-1.35-3.92a6.51,6.51,0,0,1,1-1.78c1.07-1.3,2.09-2,3.93-1,10.93,5.86,22.72,11.69,33.92,17C892.76,279.79,892.71,281.06,892.32,282.66Z"/><path class="cls-2" d="M856.32,259.74a5.27,5.27,0,1,1-7.62.68A5.3,5.3,0,0,1,856.32,259.74Z"/><path class="cls-1" d="M903.7,287.18a6.51,6.51,0,0,1-.39,1.39,2,2,0,0,1-2.52,1.35c-2.25-.61-5.06-1.43-7.3-2.13a2,2,0,0,1-1.44-2.49,6.53,6.53,0,0,1,.4-1.39,2,2,0,0,1,2.53-1.35c2.26.6,5.07,1.43,7.3,2.13A2,2,0,0,1,903.7,287.18Z"/><path class="cls-1" d="M902.2,292.46a6.67,6.67,0,0,1-.39,1.39,2,2,0,0,1-2.52,1.35c-2.25-.61-5.07-1.43-7.3-2.13a2,2,0,0,1-1.44-2.5,6.06,6.06,0,0,1,.4-1.38,2,2,0,0,1,2.53-1.35c2.26.6,5.07,1.42,7.3,2.13A2,2,0,0,1,902.2,292.46Z"/><path class="cls-1" d="M905.2,281.91a6.06,6.06,0,0,1-.4,1.38,1.94,1.94,0,0,1-2.5,1.35c-2.26-.6-5.07-1.43-7.3-2.13a2,2,0,0,1-1.44-2.49,6.14,6.14,0,0,1,.4-1.39,2,2,0,0,1,2.53-1.34c2.26.6,5.06,1.42,7.29,2.12A2,2,0,0,1,905.2,281.91Z"/><path class="cls-1" d="M906.7,276.63a6.7,6.7,0,0,1-.4,1.39,2,2,0,0,1-2.51,1.35c-2.25-.61-5.06-1.43-7.28-2.13a2,2,0,0,1-1.43-2.49,6.67,6.67,0,0,1,.39-1.39A2,2,0,0,1,898,272c2.25.61,5.06,1.42,7.29,2.13A2,2,0,0,1,906.7,276.63Z"/><path class="cls-1" d="M892,274.6a6.24,6.24,0,0,1-.76-1.24,1.93,1.93,0,0,1,.73-2.76c1.17-.75,3.13-1.94,4.35-2.62a2,2,0,0,1,2.8.66,5.66,5.66,0,0,1,.76,1.24,2,2,0,0,1-.7,2.77c-1.16.76-3.13,2-4.34,2.62A2,2,0,0,1,892,274.6Z"/><path class="cls-1" d="M901.38,278.81c-.73,3.07-1.94,7.33-2.94,10.32-1.11,3.35-3.63,4.37-6.85,3.81a22.74,22.74,0,0,1-3.86-1.13c-3-1.25-4.69-3.49-3.89-6.93.71-3.09,2-7.31,3-10.3,1.12-3.35,3.71-4.34,6.92-3.78a22.38,22.38,0,0,1,3.83,1.12C900.59,273.17,902.19,275.39,901.38,278.81Z"/><path class="cls-1" d="M913.41,251.06a4.81,4.81,0,0,1-1.62,1.31c-1.67.74-2.84,1.14-4.24-.47-9.85-11.38-19.22-23.6-28.43-35.5-1.31-1.69-.69-2.67.44-4.11a4.63,4.63,0,0,1,1.68-1.25c1.7-.68,2.88-1,4.22.65,9.37,11.64,18.57,23.86,28.23,35.26C915.07,248.57,914.47,249.59,913.41,251.06Z"/><path class="cls-1" d="M940.82,277.55A4.73,4.73,0,0,1,939.3,279c-1.62.87-2.7,1.32-4.22-.18-9-8.91-18.38-17.91-27.13-27-1.47-1.53-.94-2.58,0-4.1a4.72,4.72,0,0,1,1.54-1.41c1.62-.84,2.76-1.27,4.26.23,8.88,8.94,18.28,17.87,27.06,26.92C942.33,274.92,941.78,276,940.82,277.55Z"/><path class="cls-2" d="M913.18,244.1a5.06,5.06,0,0,1-.66,7.52,5.49,5.49,0,0,1-7.82-.74,5.07,5.07,0,0,1,.67-7.55A5.55,5.55,0,0,1,913.18,244.1Z"/><path class="cls-1" d="M953.14,280.62a4.16,4.16,0,0,0,.77-1.28c.41-1.22.44-2.1-.76-2.89-2.08-1.37-4.54-2.85-6.72-4.05-1.27-.7-2-.25-2.92.69a4.19,4.19,0,0,0-.78,1.28c-.42,1.22-.45,2.09.77,2.87,2.1,1.34,4.56,2.82,6.73,4C951.49,282,952.25,281.56,953.14,280.62Z"/><path class="cls-1" d="M956.1,275.71a4,4,0,0,0,.78-1.28c.41-1.22.44-2.1-.76-2.89-2.09-1.37-4.55-2.84-6.73-4.05-1.26-.69-2-.26-2.91.68a4,4,0,0,0-.77,1.27c-.42,1.22-.44,2.1.77,2.88,2.08,1.36,4.54,2.83,6.72,4.05C954.45,277.07,955.22,276.64,956.1,275.71Z"/><path class="cls-1" d="M950.17,285.54a4.24,4.24,0,0,0,.77-1.27c.42-1.23.45-2.11-.76-2.91-2.08-1.38-4.53-2.86-6.72-4-1.27-.69-2.05-.26-3,.67a3.79,3.79,0,0,0-.77,1.26c-.42,1.22-.42,2.09.8,2.88,2.09,1.35,4.55,2.85,6.72,4.07C948.52,286.91,949.28,286.48,950.17,285.54Z"/><path class="cls-1" d="M947.2,290.46a4.24,4.24,0,0,0,.77-1.27c.42-1.22.45-2.11-.76-2.91-2.08-1.38-4.53-2.87-6.72-4.07-1.27-.7-2-.27-2.92.67a4,4,0,0,0-.77,1.27c-.41,1.23-.44,2.11.77,2.9,2.09,1.36,4.54,2.86,6.72,4.08C945.55,291.83,946.31,291.4,947.2,290.46Z"/><path class="cls-1" d="M935.26,280.64a4.11,4.11,0,0,0-1.47.31c-1.2.55-1.79,1.06-1.57,2.55s.68,3.65,1.07,5.11,1.16,1.68,2.48,1.71a3.72,3.72,0,0,0,1.47-.3c1.2-.54,1.81-1.06,1.6-2.55a44.75,44.75,0,0,0-1.07-5.12C937.36,280.9,936.58,280.67,935.26,280.64Z"/><path class="cls-1" d="M945.11,284.73a81.4,81.4,0,0,0,5.74-9.51c1.7-3.37.76-5.63-1.89-8a13.35,13.35,0,0,0-3.52-2.1c-3.33-1.25-5.81-1-8,2.11a80,80,0,0,0-5.76,9.45c-1.71,3.37-.69,5.61,2,7.93a14,14,0,0,0,3.52,2.11C940.47,288,942.92,287.81,945.11,284.73Z"/><rect class="cls-1" x="839.01" y="371.51" width="8.59" height="40.29" rx="3.15" ry="3.15"/><path class="cls-4" d="M781.28,406.52l-3.09,0-.39,29.18a9,9,0,0,0,3,6.89Z"/><path class="cls-10" d="M786,444.56l5.64.08a7.27,7.27,0,0,0,7.15-7.39l.37-27.76a2.66,2.66,0,0,0-2.54-2.77l-15.32-.2-.48,36A7.94,7.94,0,0,0,786,444.56Z"/><rect class="cls-1" x="815.5" y="386.47" width="7.88" height="52.41" rx="2.89" ry="2.89" transform="translate(1245.28 -400) rotate(90.92)"/><circle class="cls-2" cx="843.3" cy="411.29" r="6.45"/><path d="M882.09,152.14c-4.51,0-7.62-1.23-8.11-3.2-.77-3.12,5-7.34,12.62-9.24a31.63,31.63,0,0,1,7.38-1c4.5,0,7.61,1.23,8.1,3.21.36,1.44-.73,3.24-3,4.94a27.19,27.19,0,0,1-9.64,4.3A31.52,31.52,0,0,1,882.09,152.14Z"/><path d="M894,139.24h0c4.2,0,7.19,1.12,7.62,2.83.3,1.24-.72,2.85-2.8,4.43a26.86,26.86,0,0,1-9.46,4.2,30.52,30.52,0,0,1-7.25.94c-4.21,0-7.2-1.11-7.63-2.83-.61-2.48,4.27-6.64,12.27-8.62a30.49,30.49,0,0,1,7.25-.95m0-1a31.56,31.56,0,0,0-7.5,1c-8,2-13.84,6.4-13,9.84.58,2.3,4,3.58,8.6,3.58a31.5,31.5,0,0,0,7.49-1c8-2,13.84-6.4,13-9.84-.57-2.3-4-3.59-8.59-3.59Z"/><path d="M1932.32,157.94c-3.3,0-5.75-1.1-6.71-3s-.48-4.2,1.24-6.72a21.7,21.7,0,0,1,8.17-6.77,22.24,22.24,0,0,1,9.73-2.55c3.3,0,5.75,1.1,6.72,3s.47,4.21-1.24,6.72a21.66,21.66,0,0,1-8.18,6.78A22.34,22.34,0,0,1,1932.32,157.94Z"/><path d="M1944.75,139.38c3.11,0,5.39,1,6.27,2.74s.4,3.85-1.2,6.21a21.23,21.23,0,0,1-8,6.61,21.81,21.81,0,0,1-9.51,2.5c-3.1,0-5.39-1-6.27-2.74-1.78-3.54,2.43-9.42,9.2-12.83a21.92,21.92,0,0,1,9.5-2.49m0-1a22.77,22.77,0,0,0-10,2.6c-7.39,3.72-11.71,10.07-9.64,14.17,1.1,2.18,3.78,3.29,7.16,3.29a22.8,22.8,0,0,0,10-2.6c7.39-3.73,11.7-10.07,9.63-14.17-1.09-2.18-3.78-3.29-7.16-3.29Z"/><path class="cls-3" d="M1530.62,412.53l-3,.54,5.1,28.71a9,9,0,0,0,4.23,6.2Z"/><path class="cls-4" d="M1542.38,449l5.54-1a7.27,7.27,0,0,0,5.64-8.59l-4.85-27.32a2.67,2.67,0,0,0-3-2.25l-15.07,2.68,6.29,35.45A8,8,0,0,0,1542.38,449Z"/><rect class="cls-1" x="1577.94" y="368.01" width="8.59" height="41.55" rx="3.15" ry="3.15" transform="translate(-37.36 211.16) rotate(-7.55)"/><rect class="cls-1" x="1559.49" y="394.55" width="7.88" height="41.67" rx="2.89" ry="2.89" transform="translate(1814.35 -1182.71) rotate(84.04)"/><circle class="cls-2" cx="1585.06" cy="411.44" r="6.45"/><path class="cls-5" d="M1506.51,280.59v63a39.34,39.34,0,0,0,39.23,39.22h25.62a39.35,39.35,0,0,0,39.23-39.22v-63Z"/><path class="cls-6" d="M1610.59,221.9a39.35,39.35,0,0,0-39.23-39.23h-25.62a39.34,39.34,0,0,0-39.23,39.23v58.69h104.08Z"/><path class="cls-1" d="M1611.72,120.49a9.45,9.45,0,0,1,12.48-9.85c-.06-1-.13-2-.23-3-4-41.42-36.84-72.16-73.41-68.65s-63,39.95-59,81.38S1528.41,192.55,1565,189c30.18-2.9,53.44-28.23,58.4-60.28a9.61,9.61,0,0,1-1.34.24A9.46,9.46,0,0,1,1611.72,120.49Z"/><path class="cls-7" d="M1539.13,95.12c3.5-9.34,15.93-13.3,27.79-8.85"/><path class="cls-7" d="M1588.23,80.41c3.4-9.06,15.46-12.9,27-8.59"/><circle cx="1557.04" cy="106.43" r="2.44"/><circle cx="1606.64" cy="93.09" r="2.44"/><circle class="cls-8" cx="1540.74" cy="137.73" r="10.68"/><path class="cls-1" d="M1620.23,110.17A9.46,9.46,0,1,0,1622,129a9.61,9.61,0,0,0,1.34-.24,84.3,84.3,0,0,0,.82-18.12A9.55,9.55,0,0,0,1620.23,110.17Z"/><path class="cls-8" d="M1620.17,109.56a9.46,9.46,0,1,0,1.81,18.83,8.67,8.67,0,0,0,1.35-.24,84.82,84.82,0,0,0,.82-18.11A9.44,9.44,0,0,0,1620.17,109.56Z"/><path class="cls-9" d="M1562.66,49.87c-.7-14.82-8.35-26.48-17.11-26.07"/><path class="cls-9" d="M1555,52.64c-1-16.84-11.38-29.88-23.16-29.16"/><path class="cls-9" d="M1549.06,55.42c-4.25-17.8-15-30.45-24.14-28.28"/><path class="cls-9" d="M1569.7,51.5c2.84-14.91-1.83-28.3-10.44-29.94"/><path class="cls-9" d="M1578.18,50.49c2.94-10,.56-19.43-5.33-21.17"/><path class="cls-9" d="M1541.15,54.77c-1.1-10.33-6.93-18.16-13-17.51"/><path class="cls-9" d="M1535.35,58.1c-3.06-14.52-12.48-24.81-21.06-23"/><path class="cls-1" d="M1571.16,281.65a6,6,0,0,1-1.41,1.44c-1.4.94-2.61,1.35-4.12-.13-10.63-10.43-21.24-22-31.5-32.77-1.46-1.54-.92-2.63,0-4a6.27,6.27,0,0,1,1.49-1.37c1.41-.85,2.62-1.33,4.08.18,10.28,10.61,20.78,22.08,31.22,32.54C1572.44,279.05,1572.09,280.24,1571.16,281.65Z"/><path class="cls-1" d="M1603.28,301.6a6.33,6.33,0,0,1-1.06,1.72c-1.14,1.21-2.16,1.95-4,.85-10.66-6.53-21.83-13.76-32-21-1.72-1.22-1.55-2.49-.88-4a6.17,6.17,0,0,1,1.15-1.66c1.21-1.17,2.31-1.75,4-.55,10.18,7.07,21.22,14.22,31.74,20.78C1604,298.8,1603.85,300.06,1603.28,301.6Z"/><path class="cls-2" d="M1570.15,274.7a5.28,5.28,0,1,1-7.65-.2A5.31,5.31,0,0,1,1570.15,274.7Z"/><path class="cls-1" d="M1614.06,307.4a6.21,6.21,0,0,1-.55,1.33,2,2,0,0,1-2.65,1c-2.17-.86-4.87-2-7-2.95a2,2,0,0,1-1.14-2.64,6,6,0,0,1,.55-1.34,2,2,0,0,1,2.67-1c2.18.86,4.87,2,7,2.95A2,2,0,0,1,1614.06,307.4Z"/><path class="cls-1" d="M1612,312.47a5.74,5.74,0,0,1-.55,1.33,2,2,0,0,1-2.65,1.06c-2.17-.87-4.87-2-7-3a2,2,0,0,1-1.14-2.64,6,6,0,0,1,.55-1.34,2,2,0,0,1,2.67-1c2.18.86,4.87,2,7,2.95A2,2,0,0,1,1612,312.47Z"/><path class="cls-1" d="M1616.15,302.33a5.74,5.74,0,0,1-.55,1.33,1.94,1.94,0,0,1-2.64,1c-2.18-.86-4.87-2-7-2.95a2,2,0,0,1-1.14-2.64,6.24,6.24,0,0,1,.56-1.33,2,2,0,0,1,2.66-1.05c2.18.86,4.87,2,7,2.95A2,2,0,0,1,1616.15,302.33Z"/><path class="cls-1" d="M1618.25,297.26a6.77,6.77,0,0,1-.55,1.33,2,2,0,0,1-2.65,1.05c-2.17-.86-4.86-2-7-2.94a2,2,0,0,1-1.12-2.64,6.18,6.18,0,0,1,.54-1.33,2,2,0,0,1,2.65-1.06c2.18.86,4.87,2,7,2.95A2,2,0,0,1,1618.25,297.26Z"/><path class="cls-1" d="M1603.89,293.56a5.89,5.89,0,0,1-.62-1.32,2,2,0,0,1,1-2.67c1.25-.6,3.34-1.56,4.62-2.09a2,2,0,0,1,2.71,1,5.78,5.78,0,0,1,.61,1.31,2,2,0,0,1-1,2.68c-1.25.62-3.33,1.57-4.62,2.1A2,2,0,0,1,1603.89,293.56Z"/><path class="cls-1" d="M1612.71,298.82c-1.07,3-2.76,7.06-4.1,9.91-1.49,3.2-4.11,3.92-7.24,3a21.77,21.77,0,0,1-3.7-1.55c-2.87-1.6-4.26-4-3.08-7.34,1.07-3,2.82-7,4.16-9.89,1.49-3.2,4.18-3.88,7.3-3a22,22,0,0,1,3.68,1.55C1612.58,293.12,1613.91,295.51,1612.71,298.82Z"/><path class="cls-1" d="M1617.27,242.25a4.7,4.7,0,0,1-1.08,1.79c-1.31,1.27-2.27,2.05-4.14,1-13.16-7.31-26.16-15.56-38.89-23.57-1.81-1.14-1.57-2.27-1-4a4.45,4.45,0,0,1,1.15-1.75c1.36-1.23,2.36-1.95,4.18-.85,12.8,7.72,25.64,16,38.63,23.42C1618,239.35,1617.76,240.51,1617.27,242.25Z"/><path class="cls-1" d="M1652.11,257.72a4.82,4.82,0,0,1-.94,1.86c-1.22,1.38-2.09,2.17-4,1.28-11.49-5.28-23.42-10.5-34.77-16.07-1.91-.93-1.78-2.1-1.37-3.87a4.58,4.58,0,0,1,1-1.84c1.24-1.35,2.15-2.15,4.08-1.25,11.4,5.34,23.31,10.5,34.66,16C1652.62,254.73,1652.48,256,1652.11,257.72Z"/><path class="cls-2" d="M1614.65,235.8a5.05,5.05,0,0,1,2,7.29,5.5,5.5,0,0,1-7.6,2,5.06,5.06,0,0,1-2-7.32A5.55,5.55,0,0,1,1614.65,235.8Z"/><path class="cls-1" d="M1664.73,256.38a4.13,4.13,0,0,0,.28-1.47c0-1.29-.3-2.13-1.7-2.46-2.43-.57-5.24-1.11-7.71-1.49-1.42-.22-2,.46-2.5,1.64a4.18,4.18,0,0,0-.29,1.47c0,1.29.3,2.12,1.71,2.44,2.43.53,5.25,1.08,7.71,1.48C1663.65,258.23,1664.22,257.56,1664.73,256.38Z"/><path class="cls-1" d="M1665.83,250.74a4.07,4.07,0,0,0,.28-1.46c0-1.29-.3-2.13-1.7-2.46-2.43-.57-5.25-1.11-7.71-1.49-1.42-.22-2,.45-2.5,1.64a4,4,0,0,0-.29,1.46c0,1.28.31,2.11,1.71,2.44,2.43.55,5.25,1.09,7.7,1.49C1664.75,252.59,1665.32,251.92,1665.83,250.74Z"/><path class="cls-1" d="M1663.63,262a4.14,4.14,0,0,0,.29-1.47c0-1.29-.31-2.13-1.71-2.46-2.43-.59-5.24-1.13-7.71-1.49-1.43-.21-2,.45-2.53,1.64a3.79,3.79,0,0,0-.29,1.45c0,1.29.33,2.11,1.73,2.43,2.44.55,5.26,1.12,7.72,1.52C1662.55,263.87,1663.12,263.2,1663.63,262Z"/><path class="cls-1" d="M1662.53,267.66a4.09,4.09,0,0,0,.29-1.47c0-1.29-.3-2.13-1.71-2.46-2.43-.58-5.25-1.14-7.71-1.52-1.43-.22-2,.44-2.52,1.63a4.07,4.07,0,0,0-.28,1.46c0,1.29.31,2.13,1.72,2.46,2.43.56,5.25,1.12,7.71,1.52C1661.45,269.51,1662,268.84,1662.53,267.66Z"/><path class="cls-1" d="M1648,262.54a3.72,3.72,0,0,0-1.27.79c-.94.93-1.33,1.61-.6,2.93a51.85,51.85,0,0,0,2.75,4.43c.87,1.23,1.67,1.19,2.92.76a4,4,0,0,0,1.28-.78c.94-.93,1.34-1.63.62-3a44.19,44.19,0,0,0-2.76-4.43C1650,262.05,1649.2,262.1,1648,262.54Z"/><path class="cls-1" d="M1658.6,263a81.15,81.15,0,0,0,2.12-10.91c.44-3.74-1.21-5.54-4.51-6.81a13.39,13.39,0,0,0-4-.77c-3.55,0-5.79,1.08-6.79,4.73a80.55,80.55,0,0,0-2.16,10.86c-.44,3.75,1.28,5.51,4.58,6.77a13.77,13.77,0,0,0,4,.77C1655.38,267.68,1657.61,266.63,1658.6,263Z"/><rect class="cls-1" x="1528.8" y="366.53" width="8.59" height="40.29" rx="3.15" ry="3.15" transform="translate(418.15 -734.39) rotate(31)"/><path class="cls-4" d="M1465.38,376.23l-2.88-1.09-10.37,27.28a9,9,0,0,0,.46,7.49Z"/><path class="cls-10" d="M1456.76,413.59l5.27,2a7.27,7.27,0,0,0,9.25-4.49l9.86-26a2.65,2.65,0,0,0-1.44-3.47l-14.32-5.45-12.79,33.68A7.94,7.94,0,0,0,1456.76,413.59Z"/><rect class="cls-1" x="1495.18" y="368.9" width="7.88" height="52.41" rx="2.89" ry="2.89" transform="translate(2404.64 -863.27) rotate(110.97)"/><circle class="cls-2" cx="1522.98" cy="403.51" r="6.45"/><path d="M1581,157.94c-3.3,0-5.75-1.1-6.71-3s-.48-4.2,1.24-6.72a21.7,21.7,0,0,1,8.17-6.77,22.24,22.24,0,0,1,9.73-2.55c3.3,0,5.75,1.1,6.72,3s.47,4.21-1.24,6.72a21.74,21.74,0,0,1-8.18,6.78A22.34,22.34,0,0,1,1581,157.94Z"/><path d="M1593.43,139.38c3.11,0,5.39,1,6.27,2.74s.4,3.85-1.21,6.21a21.11,21.11,0,0,1-8,6.61,21.84,21.84,0,0,1-9.51,2.5c-3.11,0-5.39-1-6.27-2.74-1.78-3.54,2.43-9.42,9.19-12.83a22,22,0,0,1,9.51-2.49m0-1a22.8,22.8,0,0,0-10,2.6c-7.38,3.72-11.7,10.07-9.63,14.17,1.1,2.18,3.78,3.29,7.16,3.29a22.8,22.8,0,0,0,10-2.6c7.39-3.73,11.7-10.07,9.63-14.17-1.1-2.18-3.78-3.29-7.16-3.29Z"/><path class="cls-3" d="M1193.81,425.7l-2.7,1.49,14.05,25.55a9,9,0,0,0,6,4.51Z"/><path class="cls-4" d="M1216.66,456.46l4.94-2.72a7.27,7.27,0,0,0,2.57-9.95l-13.37-24.31a2.65,2.65,0,0,0-3.57-1.16l-13.42,7.38,17.35,31.55A8,8,0,0,0,1216.66,456.46Z"/><rect class="cls-1" x="1226.55" y="368.39" width="8.59" height="41.55" rx="3.15" ry="3.15" transform="translate(-42.61 600.65) rotate(-26.98)"/><rect class="cls-1" x="1221.86" y="397.02" width="7.88" height="41.67" rx="2.89" ry="2.89" transform="translate(1093.24 -870.4) rotate(65.3)"/><circle class="cls-2" cx="1241.05" cy="409.58" r="6.45"/><path class="cls-5" d="M1156.51,280.59v63a39.34,39.34,0,0,0,39.23,39.22h25.62a39.35,39.35,0,0,0,39.23-39.22v-63Z"/><path class="cls-6" d="M1260.59,221.9a39.35,39.35,0,0,0-39.23-39.23h-25.62a39.34,39.34,0,0,0-39.23,39.23v58.69h104.08Z"/><path class="cls-1" d="M1261.72,120.49a9.45,9.45,0,0,1,12.48-9.85c-.06-1-.13-2-.23-3-4-41.42-36.84-72.16-73.41-68.65s-63,39.95-59,81.38S1178.41,192.55,1215,189c30.18-2.9,53.44-28.23,58.4-60.28a9.61,9.61,0,0,1-1.34.24A9.46,9.46,0,0,1,1261.72,120.49Z"/><path class="cls-7" d="M1189.13,95.12c3.5-9.34,15.93-13.3,27.79-8.85"/><path class="cls-7" d="M1238.23,80.41c3.4-9.06,15.46-12.9,27-8.59"/><circle cx="1207.04" cy="106.43" r="2.44"/><circle cx="1256.64" cy="93.09" r="2.44"/><circle class="cls-8" cx="1190.74" cy="137.73" r="10.68"/><path class="cls-1" d="M1270.23,110.17A9.46,9.46,0,0,0,1272,129a9.61,9.61,0,0,0,1.34-.24,84.3,84.3,0,0,0,.82-18.12A9.55,9.55,0,0,0,1270.23,110.17Z"/><path class="cls-8" d="M1270.17,109.56a9.46,9.46,0,0,0,1.81,18.83,8.67,8.67,0,0,0,1.35-.24,84.82,84.82,0,0,0,.82-18.11A9.44,9.44,0,0,0,1270.17,109.56Z"/><path class="cls-9" d="M1212.66,49.87c-.7-14.82-8.35-26.48-17.11-26.07"/><path class="cls-9" d="M1205,52.64c-1-16.84-11.38-29.88-23.16-29.16"/><path class="cls-9" d="M1199.06,55.42c-4.25-17.8-15-30.45-24.14-28.28"/><path class="cls-9" d="M1219.7,51.5c2.84-14.91-1.83-28.3-10.44-29.94"/><path class="cls-9" d="M1228.18,50.49c2.94-10,.56-19.43-5.33-21.17"/><path class="cls-9" d="M1191.15,54.77c-1.1-10.33-6.93-18.16-13-17.51"/><path class="cls-9" d="M1185.35,58.1c-3.06-14.52-12.48-24.81-21.06-23"/><path class="cls-1" d="M1221.88,251a6.43,6.43,0,0,1-.37,2c-.64,1.55-1.41,2.57-3.49,2.19-14.65-2.72-29.91-6.39-44.44-9.6-2.07-.45-2.23-1.66-2.19-3.3a6.31,6.31,0,0,1,.47-2c.7-1.49,1.43-2.57,3.49-2.13,14.45,3,29.56,6.71,44.07,9.55C1221.48,248.13,1221.85,249.31,1221.88,251Z"/><path class="cls-1" d="M1259.66,249.61a6.23,6.23,0,0,1,.08,2c-.27,1.63-.7,2.82-2.81,2.91-12.49.54-25.79.78-38.3.47-2.11,0-2.68-1.2-3-2.86a6.52,6.52,0,0,1,0-2c.36-1.64.94-2.73,3-2.7,12.4.18,25.55-.06,37.94-.49C1258.72,246.86,1259.27,248,1259.66,249.61Z"/><path class="cls-2" d="M1217.15,245.8a5.27,5.27,0,1,1-6.46,4.11A5.3,5.3,0,0,1,1217.15,245.8Z"/><path class="cls-1" d="M1271.84,248.4a6.79,6.79,0,0,1,.29,1.41,2,2,0,0,1-1.61,2.35c-2.29.5-5.16,1.07-7.47,1.47a2,2,0,0,1-2.42-1.55,6.28,6.28,0,0,1-.29-1.42,2,2,0,0,1,1.63-2.36c2.29-.5,5.16-1.07,7.46-1.47A2,2,0,0,1,1271.84,248.4Z"/><path class="cls-1" d="M1272.93,253.78a6.09,6.09,0,0,1,.29,1.41,2,2,0,0,1-1.61,2.35c-2.29.5-5.16,1.06-7.47,1.47a2,2,0,0,1-2.42-1.56,6.09,6.09,0,0,1-.29-1.41,2,2,0,0,1,1.63-2.36c2.29-.5,5.16-1.07,7.47-1.47A2,2,0,0,1,1272.93,253.78Z"/><path class="cls-1" d="M1270.74,243a6.28,6.28,0,0,1,.29,1.42,2,2,0,0,1-1.61,2.35c-2.28.5-5.15,1.06-7.46,1.46a2,2,0,0,1-2.42-1.56,6.18,6.18,0,0,1-.28-1.41,2,2,0,0,1,1.63-2.36c2.28-.5,5.15-1.06,7.45-1.46A2,2,0,0,1,1270.74,243Z"/><path class="cls-1" d="M1269.65,237.65a6.66,6.66,0,0,1,.29,1.41,2,2,0,0,1-1.61,2.35c-2.28.5-5.15,1.06-7.45,1.47a2,2,0,0,1-2.41-1.56,6.28,6.28,0,0,1-.29-1.42,2,2,0,0,1,1.61-2.35c2.28-.5,5.15-1.06,7.45-1.46A2,2,0,0,1,1269.65,237.65Z"/><path class="cls-1" d="M1255.67,242.6a6.1,6.1,0,0,1-1.25-.75,1.94,1.94,0,0,1-.63-2.79c.7-1.2,1.9-3.16,2.67-4.32a2,2,0,0,1,2.79-.71,6.24,6.24,0,0,1,1.24.76,2,2,0,0,1,.66,2.78c-.69,1.21-1.89,3.17-2.66,4.32A2,2,0,0,1,1255.67,242.6Z"/><path class="cls-1" d="M1265.93,242c.76,3.06,1.65,7.4,2.14,10.52.54,3.48-1.23,5.54-4.34,6.52a22.16,22.16,0,0,1-3.94.78c-3.27.27-5.78-1-6.65-4.37-.78-3.07-1.59-7.4-2.08-10.52-.55-3.49,1.3-5.56,4.41-6.54a22.65,22.65,0,0,1,3.92-.77C1262.64,237.38,1265.08,238.62,1265.93,242Z"/><path class="cls-1" d="M1275.47,217.89a4.71,4.71,0,0,1,.27,2.07c-.25,1.81-.51,3-2.62,3.37-14.85,2.44-30.17,4-45.12,5.67-2.13.23-2.64-.81-3.28-2.53a4.71,4.71,0,0,1-.19-2.08c.31-1.81.65-3,2.76-3.26,14.83-1.9,30-3.35,44.83-5.62C1274.22,215.18,1274.77,216.22,1275.47,217.89Z"/><path class="cls-1" d="M1312.38,208.39a4.61,4.61,0,0,1,.42,2c-.1,1.83-.28,3-2.36,3.5-12.28,3-24.87,6.3-37.22,9-2.09.45-2.71-.55-3.49-2.19a4.73,4.73,0,0,1-.39-2c.13-1.82.36-3,2.42-3.51,12.26-2.89,24.8-6.24,37.1-9C1310.93,205.73,1311.58,206.77,1312.38,208.39Z"/><path class="cls-2" d="M1269.41,214.45a5.05,5.05,0,0,1,6.06,4.5,5.49,5.49,0,0,1-4.71,6.28,5.07,5.07,0,0,1-6.09-4.53A5.57,5.57,0,0,1,1269.41,214.45Z"/><path class="cls-1" d="M1321.44,199.5a4.19,4.19,0,0,0-.68-1.33c-.83-1-1.56-1.48-2.87-.87-2.26,1.06-4.8,2.38-7,3.62-1.25.71-1.27,1.6-.94,2.84a4.43,4.43,0,0,0,.69,1.33c.82,1,1.55,1.48,2.85.85,2.24-1.09,4.79-2.41,7-3.62C1321.75,201.62,1321.78,200.74,1321.44,199.5Z"/><path class="cls-1" d="M1318.81,194.4a4.22,4.22,0,0,0-.69-1.33c-.82-1-1.56-1.48-2.86-.86-2.26,1.06-4.8,2.38-7,3.61-1.25.72-1.28,1.6-.94,2.84A4,4,0,0,0,1308,200c.82,1,1.55,1.47,2.85.85,2.25-1.07,4.79-2.39,7-3.61C1319.11,196.52,1319.14,195.64,1318.81,194.4Z"/><path class="cls-1" d="M1324.08,204.6a4.14,4.14,0,0,0-.68-1.32c-.82-1-1.56-1.48-2.87-.88-2.26,1-4.81,2.37-7,3.62-1.25.72-1.29,1.61-1,2.86a3.86,3.86,0,0,0,.68,1.32c.82,1,1.56,1.45,2.87.82,2.25-1.07,4.81-2.38,7-3.59C1324.39,206.72,1324.42,205.85,1324.08,204.6Z"/><path class="cls-1" d="M1326.73,209.71a4.43,4.43,0,0,0-.69-1.33c-.82-1-1.56-1.48-2.87-.87-2.26,1.05-4.82,2.36-7,3.6-1.26.71-1.3,1.59-1,2.84a4.17,4.17,0,0,0,.69,1.32c.82,1,1.56,1.47,2.87.86,2.25-1.07,4.81-2.38,7-3.6C1327,211.83,1327.06,211,1326.73,209.71Z"/><path class="cls-1" d="M1312.11,214.75a3.72,3.72,0,0,0-.5,1.41c-.16,1.31,0,2.08,1.35,2.67a52.08,52.08,0,0,0,4.91,1.76c1.44.43,2-.11,2.76-1.22a3.75,3.75,0,0,0,.51-1.4c.16-1.32,0-2.11-1.34-2.71a45,45,0,0,0-4.92-1.76C1313.43,213.09,1312.82,213.63,1312.11,214.75Z"/><path class="cls-1" d="M1320.74,208.49a82.2,82.2,0,0,0-5.1-9.87c-2-3.21-4.39-3.59-7.77-2.54a13.22,13.22,0,0,0-3.63,1.89c-2.8,2.19-3.86,4.45-2.38,7.93a80.84,80.84,0,0,0,5,9.85c2,3.22,4.43,3.52,7.79,2.47a14,14,0,0,0,3.64-1.89C1321.13,214.17,1322.23,212,1320.74,208.49Z"/><rect class="cls-1" x="1189.21" y="371.51" width="8.59" height="40.29" rx="3.15" ry="3.15"/><path class="cls-4" d="M1134.05,385.49l-2.88-1.09-10.37,27.28a9,9,0,0,0,.46,7.49Z"/><path class="cls-10" d="M1125.43,422.85l5.27,2a7.26,7.26,0,0,0,9.25-4.49l9.86-25.95a2.65,2.65,0,0,0-1.43-3.47l-14.33-5.45-12.79,33.68A7.94,7.94,0,0,0,1125.43,422.85Z"/><rect class="cls-1" x="1163.85" y="378.16" width="7.88" height="52.41" rx="2.89" ry="2.89" transform="translate(1963.36 -541.32) rotate(110.97)"/><circle class="cls-2" cx="1193.51" cy="411.29" r="6.45"/><path d="M1231,157.94c-3.3,0-5.75-1.1-6.71-3s-.48-4.2,1.24-6.72a21.7,21.7,0,0,1,8.17-6.77,22.24,22.24,0,0,1,9.73-2.55c3.3,0,5.75,1.1,6.72,3s.47,4.21-1.24,6.72a21.74,21.74,0,0,1-8.18,6.78A22.34,22.34,0,0,1,1231,157.94Z"/><path d="M1243.43,139.38c3.11,0,5.39,1,6.27,2.74s.4,3.85-1.21,6.21a21.11,21.11,0,0,1-8,6.61,21.84,21.84,0,0,1-9.51,2.5c-3.11,0-5.39-1-6.27-2.74-1.78-3.54,2.43-9.42,9.19-12.83a22,22,0,0,1,9.51-2.49m0-1a22.8,22.8,0,0,0-10,2.6c-7.38,3.72-11.7,10.07-9.63,14.17,1.1,2.18,3.78,3.29,7.16,3.29a22.8,22.8,0,0,0,10-2.6c7.39-3.73,11.7-10.07,9.63-14.17-1.1-2.18-3.78-3.29-7.16-3.29Z"/></svg>